G04 #@! TF.FileFunction,Paste,Top*
%FSLAX46Y46*%
G04 Gerber Fmt 4.6, Leading zero omitted, Abs format (unit mm)*
G04 Created by KiCad (PCBNEW 4.0.7-e2-6376~58~ubuntu16.04.1) date Sun Dec 16 12:58:54 2018*
%MOMM*%
%LPD*%
G01*
G04 APERTURE LIST*
%ADD10C,0.100000*%
%ADD11R,1.200000X1.000000*%
%ADD12R,1.800000X3.900000*%
%ADD13R,1.300000X4.000000*%
%ADD14R,3.900000X1.800000*%
%ADD15R,4.000000X1.300000*%
%ADD16R,1.500000X0.450000*%
%ADD17R,5.800000X6.200000*%
%ADD18R,1.600000X3.000000*%
%ADD19R,1.350000X1.100000*%
G04 APERTURE END LIST*
D10*
D11*
X15650000Y-26275000D03*
X15650000Y-24275000D03*
X39950000Y-26275000D03*
X39950000Y-24275000D03*
D12*
X10450000Y950000D03*
D13*
X7250000Y-5580000D03*
D12*
X-3450000Y950000D03*
D13*
X4750000Y-5580000D03*
X2250000Y-5580000D03*
X-250000Y-5580000D03*
D14*
X-2950000Y-9800000D03*
D15*
X3580000Y-13000000D03*
D14*
X-2950000Y-23700000D03*
D15*
X3580000Y-15500000D03*
X3580000Y-18000000D03*
X3580000Y-20500000D03*
D14*
X-2950000Y-28850000D03*
D15*
X3580000Y-32050000D03*
D14*
X-2950000Y-42750000D03*
D15*
X3580000Y-34550000D03*
X3580000Y-37050000D03*
X3580000Y-39550000D03*
D14*
X-2950000Y-47900000D03*
D15*
X3580000Y-51100000D03*
D14*
X-2950000Y-61800000D03*
D15*
X3580000Y-53600000D03*
X3580000Y-56100000D03*
X3580000Y-58600000D03*
D12*
X-3450000Y-72550000D03*
D13*
X-250000Y-66020000D03*
D12*
X10450000Y-72550000D03*
D13*
X2250000Y-66020000D03*
X4750000Y-66020000D03*
X7250000Y-66020000D03*
D12*
X45150000Y-72550000D03*
D13*
X48350000Y-66020000D03*
D12*
X59050000Y-72550000D03*
D13*
X50850000Y-66020000D03*
X53350000Y-66020000D03*
X55850000Y-66020000D03*
D14*
X58550000Y-61800000D03*
D15*
X52020000Y-58600000D03*
D14*
X58550000Y-47900000D03*
D15*
X52020000Y-56100000D03*
X52020000Y-53600000D03*
X52020000Y-51100000D03*
D14*
X58550000Y-42750000D03*
D15*
X52020000Y-39550000D03*
D14*
X58550000Y-28850000D03*
D15*
X52020000Y-37050000D03*
X52020000Y-34550000D03*
X52020000Y-32050000D03*
D14*
X58550000Y-23700000D03*
D15*
X52020000Y-20500000D03*
D14*
X58550000Y-9800000D03*
D15*
X52020000Y-18000000D03*
X52020000Y-15500000D03*
X52020000Y-13000000D03*
D12*
X59050000Y950000D03*
D13*
X55850000Y-5580000D03*
D12*
X45150000Y950000D03*
D13*
X53350000Y-5580000D03*
X50850000Y-5580000D03*
X48350000Y-5580000D03*
D16*
X39950000Y-34250000D03*
X39950000Y-34900000D03*
X39950000Y-35550000D03*
X39950000Y-36200000D03*
X39950000Y-36850000D03*
X39950000Y-37500000D03*
X39950000Y-38150000D03*
X39950000Y-38800000D03*
X45750000Y-34250000D03*
X45750000Y-34900000D03*
X45750000Y-35550000D03*
X45750000Y-36200000D03*
X45750000Y-36850000D03*
X45750000Y-37500000D03*
X45750000Y-38150000D03*
X45750000Y-38800000D03*
X45750000Y-33350000D03*
X45750000Y-32700000D03*
X45750000Y-32050000D03*
X45750000Y-31400000D03*
X45750000Y-30750000D03*
X45750000Y-30100000D03*
X45750000Y-29450000D03*
X45750000Y-28800000D03*
X39950000Y-33350000D03*
X39950000Y-32700000D03*
X39950000Y-32050000D03*
X39950000Y-31400000D03*
X39950000Y-30750000D03*
X39950000Y-30100000D03*
X39950000Y-29450000D03*
X39950000Y-28800000D03*
X15650000Y-38800000D03*
X15650000Y-38150000D03*
X15650000Y-37500000D03*
X15650000Y-36850000D03*
X15650000Y-36200000D03*
X15650000Y-35550000D03*
X15650000Y-34900000D03*
X15650000Y-34250000D03*
X9850000Y-38800000D03*
X9850000Y-38150000D03*
X9850000Y-37500000D03*
X9850000Y-36850000D03*
X9850000Y-36200000D03*
X9850000Y-35550000D03*
X9850000Y-34900000D03*
X9850000Y-34250000D03*
X9850000Y-28800000D03*
X9850000Y-29450000D03*
X9850000Y-30100000D03*
X9850000Y-30750000D03*
X9850000Y-31400000D03*
X9850000Y-32050000D03*
X9850000Y-32700000D03*
X9850000Y-33350000D03*
X15650000Y-28800000D03*
X15650000Y-29450000D03*
X15650000Y-30100000D03*
X15650000Y-30750000D03*
X15650000Y-31400000D03*
X15650000Y-32050000D03*
X15650000Y-32700000D03*
X15650000Y-33350000D03*
D17*
X27800000Y-29905000D03*
D18*
X25515000Y-22725000D03*
X30085000Y-22725000D03*
D19*
X31775000Y-71775000D03*
X23825000Y-71775000D03*
X31775000Y-67275000D03*
X23825000Y-67275000D03*
M02*
