G04 #@! TF.FileFunction,Legend,Bot*
%FSLAX46Y46*%
G04 Gerber Fmt 4.6, Leading zero omitted, Abs format (unit mm)*
G04 Created by KiCad (PCBNEW 4.0.7-e2-6376~58~ubuntu16.04.1) date Fri Dec 14 12:18:52 2018*
%MOMM*%
%LPD*%
G01*
G04 APERTURE LIST*
%ADD10C,0.100000*%
%ADD11C,0.750000*%
G04 APERTURE END LIST*
D10*
D11*
X46371428Y-69632143D02*
X47799999Y-69632143D01*
X47799999Y-66632143D01*
X45371428Y-69632143D02*
X45371428Y-67632143D01*
X45371428Y-66632143D02*
X45514285Y-66775000D01*
X45371428Y-66917857D01*
X45228571Y-66775000D01*
X45371428Y-66632143D01*
X45371428Y-66917857D01*
X42657143Y-67632143D02*
X42657143Y-70060714D01*
X42800000Y-70346429D01*
X42942857Y-70489286D01*
X43228572Y-70632143D01*
X43657143Y-70632143D01*
X43942857Y-70489286D01*
X42657143Y-69489286D02*
X42942857Y-69632143D01*
X43514286Y-69632143D01*
X43800000Y-69489286D01*
X43942857Y-69346429D01*
X44085714Y-69060714D01*
X44085714Y-68203571D01*
X43942857Y-67917857D01*
X43800000Y-67775000D01*
X43514286Y-67632143D01*
X42942857Y-67632143D01*
X42657143Y-67775000D01*
X41228571Y-69632143D02*
X41228571Y-66632143D01*
X39942857Y-69632143D02*
X39942857Y-68060714D01*
X40085714Y-67775000D01*
X40371428Y-67632143D01*
X40800000Y-67632143D01*
X41085714Y-67775000D01*
X41228571Y-67917857D01*
X38942857Y-67632143D02*
X37800000Y-67632143D01*
X38514285Y-66632143D02*
X38514285Y-69203571D01*
X38371428Y-69489286D01*
X38085714Y-69632143D01*
X37800000Y-69632143D01*
X36942856Y-69489286D02*
X36657142Y-69632143D01*
X36085714Y-69632143D01*
X35799999Y-69489286D01*
X35657142Y-69203571D01*
X35657142Y-69060714D01*
X35799999Y-68775000D01*
X36085714Y-68632143D01*
X36514285Y-68632143D01*
X36799999Y-68489286D01*
X36942856Y-68203571D01*
X36942856Y-68060714D01*
X36799999Y-67775000D01*
X36514285Y-67632143D01*
X36085714Y-67632143D01*
X35799999Y-67775000D01*
X31657143Y-69632143D02*
X31942857Y-69489286D01*
X32085714Y-69346429D01*
X32228571Y-69060714D01*
X32228571Y-68203571D01*
X32085714Y-67917857D01*
X31942857Y-67775000D01*
X31657143Y-67632143D01*
X31228571Y-67632143D01*
X30942857Y-67775000D01*
X30800000Y-67917857D01*
X30657143Y-68203571D01*
X30657143Y-69060714D01*
X30800000Y-69346429D01*
X30942857Y-69489286D01*
X31228571Y-69632143D01*
X31657143Y-69632143D01*
X29800000Y-67632143D02*
X28657143Y-67632143D01*
X29371428Y-69632143D02*
X29371428Y-67060714D01*
X29228571Y-66775000D01*
X28942857Y-66632143D01*
X28657143Y-66632143D01*
X23657143Y-69632143D02*
X24657143Y-68203571D01*
X25371428Y-69632143D02*
X25371428Y-66632143D01*
X24228571Y-66632143D01*
X23942857Y-66775000D01*
X23800000Y-66917857D01*
X23657143Y-67203571D01*
X23657143Y-67632143D01*
X23800000Y-67917857D01*
X23942857Y-68060714D01*
X24228571Y-68203571D01*
X25371428Y-68203571D01*
X21085714Y-69632143D02*
X21085714Y-68060714D01*
X21228571Y-67775000D01*
X21514285Y-67632143D01*
X22085714Y-67632143D01*
X22371428Y-67775000D01*
X21085714Y-69489286D02*
X21371428Y-69632143D01*
X22085714Y-69632143D01*
X22371428Y-69489286D01*
X22514285Y-69203571D01*
X22514285Y-68917857D01*
X22371428Y-68632143D01*
X22085714Y-68489286D01*
X21371428Y-68489286D01*
X21085714Y-68346429D01*
X19799999Y-69489286D02*
X19514285Y-69632143D01*
X18942857Y-69632143D01*
X18657142Y-69489286D01*
X18514285Y-69203571D01*
X18514285Y-69060714D01*
X18657142Y-68775000D01*
X18942857Y-68632143D01*
X19371428Y-68632143D01*
X19657142Y-68489286D01*
X19799999Y-68203571D01*
X19799999Y-68060714D01*
X19657142Y-67775000D01*
X19371428Y-67632143D01*
X18942857Y-67632143D01*
X18657142Y-67775000D01*
X17371428Y-69489286D02*
X17085714Y-69632143D01*
X16514286Y-69632143D01*
X16228571Y-69489286D01*
X16085714Y-69203571D01*
X16085714Y-69060714D01*
X16228571Y-68775000D01*
X16514286Y-68632143D01*
X16942857Y-68632143D01*
X17228571Y-68489286D01*
X17371428Y-68203571D01*
X17371428Y-68060714D01*
X17228571Y-67775000D01*
X16942857Y-67632143D01*
X16514286Y-67632143D01*
X16228571Y-67775000D01*
X14800000Y-69632143D02*
X14800000Y-67632143D01*
X14800000Y-66632143D02*
X14942857Y-66775000D01*
X14800000Y-66917857D01*
X14657143Y-66775000D01*
X14800000Y-66632143D01*
X14800000Y-66917857D01*
X12942858Y-69632143D02*
X13228572Y-69489286D01*
X13371429Y-69203571D01*
X13371429Y-66632143D01*
X11371429Y-69632143D02*
X11657143Y-69489286D01*
X11800000Y-69346429D01*
X11942857Y-69060714D01*
X11942857Y-68203571D01*
X11800000Y-67917857D01*
X11657143Y-67775000D01*
X11371429Y-67632143D01*
X10942857Y-67632143D01*
X10657143Y-67775000D01*
X10514286Y-67917857D01*
X10371429Y-68203571D01*
X10371429Y-69060714D01*
X10514286Y-69346429D01*
X10657143Y-69489286D01*
X10942857Y-69632143D01*
X11371429Y-69632143D01*
X9085714Y-67632143D02*
X9085714Y-69632143D01*
X9085714Y-67917857D02*
X8942857Y-67775000D01*
X8657143Y-67632143D01*
X8228571Y-67632143D01*
X7942857Y-67775000D01*
X7800000Y-68060714D01*
X7800000Y-69632143D01*
X29157143Y-31275001D02*
X26157143Y-31275001D01*
X29157143Y-32989286D01*
X26157143Y-32989286D01*
X26157143Y-34989286D02*
X26157143Y-35560715D01*
X26300000Y-35846429D01*
X26585714Y-36132143D01*
X27157143Y-36275001D01*
X28157143Y-36275001D01*
X28728571Y-36132143D01*
X29014286Y-35846429D01*
X29157143Y-35560715D01*
X29157143Y-34989286D01*
X29014286Y-34703572D01*
X28728571Y-34417858D01*
X28157143Y-34275001D01*
X27157143Y-34275001D01*
X26585714Y-34417858D01*
X26300000Y-34703572D01*
X26157143Y-34989286D01*
X28871429Y-39275000D02*
X29014286Y-39132143D01*
X29157143Y-38703572D01*
X29157143Y-38417858D01*
X29014286Y-37989286D01*
X28728571Y-37703572D01*
X28442857Y-37560715D01*
X27871429Y-37417858D01*
X27442857Y-37417858D01*
X26871429Y-37560715D01*
X26585714Y-37703572D01*
X26300000Y-37989286D01*
X26157143Y-38417858D01*
X26157143Y-38703572D01*
X26300000Y-39132143D01*
X26442857Y-39275000D01*
X26157143Y-40132143D02*
X26157143Y-41846429D01*
X29157143Y-40989286D02*
X26157143Y-40989286D01*
X29157143Y-42846429D02*
X26157143Y-42846429D01*
X26157143Y-43846428D02*
X29157143Y-44846428D01*
X26157143Y-45846428D01*
X26157143Y-47417857D02*
X26157143Y-47989286D01*
X26300000Y-48275000D01*
X26585714Y-48560714D01*
X27157143Y-48703572D01*
X28157143Y-48703572D01*
X28728571Y-48560714D01*
X29014286Y-48275000D01*
X29157143Y-47989286D01*
X29157143Y-47417857D01*
X29014286Y-47132143D01*
X28728571Y-46846429D01*
X28157143Y-46703572D01*
X27157143Y-46703572D01*
X26585714Y-46846429D01*
X26300000Y-47132143D01*
X26157143Y-47417857D01*
X29157143Y-51703571D02*
X27728571Y-50703571D01*
X29157143Y-49989286D02*
X26157143Y-49989286D01*
X26157143Y-51132143D01*
X26300000Y-51417857D01*
X26442857Y-51560714D01*
X26728571Y-51703571D01*
X27157143Y-51703571D01*
X27442857Y-51560714D01*
X27585714Y-51417857D01*
X27728571Y-51132143D01*
X27728571Y-49989286D01*
X27585714Y-52989286D02*
X27585714Y-53989286D01*
X29157143Y-54417857D02*
X29157143Y-52989286D01*
X26157143Y-52989286D01*
X26157143Y-54417857D01*
M02*
