M48
INCH,TZ
T1C0.013
T2C0.016
T3C0.039
T4C0.050
T5C0.112
T6C0.047
T7C0.142
%
G90
G05
T1
X-000886Y-002197
X001409Y-008858
X001409Y-016358
X001409Y-023858
X003189Y-012874
X003642Y-025992
X005472Y-008071
X005472Y-011850
X006850Y-013740
X006850Y-014252
X009350Y-011841
X010945Y000354
X010945Y-018612
X010945Y-028061
X015039Y-014508
X015039Y-015020
X016417Y-008071
X016417Y-012106
X018248Y-002197
X018701Y-011594
X020480Y-004331
X020480Y-011831
X020480Y-019331
X022776Y-025992
T2
X000886Y-000915
X000886Y-027274
X001870Y-000915
X002691Y-006102
X002691Y-007087
X002691Y-013602
X002691Y-015571
X002691Y-021102
X002691Y-022087
X003189Y-014252
X005020Y-015256
X006161Y-010935
X006850Y-012874
X013945Y-009368
X015039Y-013130
X015728Y-010935
X018701Y-012874
X019199Y-006102
X019199Y-007087
X019199Y-008071
X019199Y-014587
X019199Y-015571
X020020Y-027274
X020480Y-010738
X021004Y-003478
X021004Y-027274
T3
X007945Y-010341
X007945Y-011341
X007945Y-012341
X007945Y-013341
X007945Y-014341
X007945Y-015341
X007945Y-016341
X007945Y-017341
X007945Y-018341
X007945Y-019341
X007945Y-020341
X007945Y-021341
X007945Y-022341
X007945Y-023341
X013945Y-010341
X013945Y-011341
X013945Y-012341
X013945Y-013341
X013945Y-014341
X013945Y-015341
X013945Y-016341
X013945Y-017341
X013945Y-018341
X013945Y-019341
X013945Y-020341
X013945Y-021341
X013945Y-022341
X013945Y-023341
T5
X003445Y-009557
X003445Y-017057
X018445Y-009557
X018445Y-017057
T6
X008035Y000354
X013854Y000354
T7
X006159Y-002528
X015730Y-002528
T4
X008852Y-006827G85X009927Y-006827
G05
X011963Y-006827G85X013037Y-006827
G05
T0
M30
