G04 #@! TF.FileFunction,Other,Fab,Top*
%FSLAX46Y46*%
G04 Gerber Fmt 4.6, Leading zero omitted, Abs format (unit mm)*
G04 Created by KiCad (PCBNEW 4.0.7-e2-6376~58~ubuntu16.04.1) date Sun Dec 16 12:58:54 2018*
%MOMM*%
%LPD*%
G01*
G04 APERTURE LIST*
%ADD10C,0.100000*%
%ADD11C,0.200000*%
%ADD12C,0.150000*%
%ADD13C,0.250000*%
%ADD14C,0.400000*%
%ADD15C,0.300000*%
G04 APERTURE END LIST*
D10*
X16050000Y-26275000D02*
X15250000Y-26275000D01*
X16050000Y-24275000D02*
X16050000Y-26275000D01*
X15250000Y-24275000D02*
X16050000Y-24275000D01*
X15250000Y-26275000D02*
X15250000Y-24275000D01*
X40350000Y-26275000D02*
X39550000Y-26275000D01*
X40350000Y-24275000D02*
X40350000Y-26275000D01*
X39550000Y-24275000D02*
X40350000Y-24275000D01*
X39550000Y-26275000D02*
X39550000Y-24275000D01*
D11*
X156150000Y57725000D02*
X156150000Y28225000D01*
D12*
X108650000Y53225000D02*
X108650000Y28225000D01*
D11*
X156150000Y57725000D02*
X90150000Y57725000D01*
X156150000Y53225000D02*
X90150000Y53225000D01*
X156150000Y50725000D02*
X90150000Y50725000D01*
X156150000Y48225000D02*
X90150000Y48225000D01*
X156150000Y45725000D02*
X90150000Y45725000D01*
X156150000Y43225000D02*
X90150000Y43225000D01*
X156150000Y40725000D02*
X90150000Y40725000D01*
X156150000Y38225000D02*
X90150000Y38225000D01*
X156150000Y35725000D02*
X90150000Y35725000D01*
X156150000Y33225000D02*
X90150000Y33225000D01*
X156150000Y30725000D02*
X90150000Y30725000D01*
X156150000Y28225000D02*
X90150000Y28225000D01*
X90150000Y57725000D02*
X90150000Y28225000D01*
D12*
X125150000Y53225000D02*
X125150000Y28225000D01*
X138150000Y53225000D02*
X138150000Y28225000D01*
D11*
X-99250000Y29975000D02*
X-99250000Y57725000D01*
X-1250000Y29975000D02*
X-99250000Y29975000D01*
X-1250000Y57725000D02*
X-1250000Y29975000D01*
X-99250000Y57725000D02*
X-1250000Y57725000D01*
D13*
X91600001Y51296429D02*
X90885715Y51296429D01*
X90885715Y52796429D01*
X92742858Y51296429D02*
X92742858Y52082143D01*
X92671429Y52225000D01*
X92528572Y52296429D01*
X92242858Y52296429D01*
X92100001Y52225000D01*
X92742858Y51367857D02*
X92600001Y51296429D01*
X92242858Y51296429D01*
X92100001Y51367857D01*
X92028572Y51510714D01*
X92028572Y51653571D01*
X92100001Y51796429D01*
X92242858Y51867857D01*
X92600001Y51867857D01*
X92742858Y51939286D01*
X93314287Y52296429D02*
X93671430Y51296429D01*
X94028572Y52296429D02*
X93671430Y51296429D01*
X93528572Y50939286D01*
X93457144Y50867857D01*
X93314287Y50796429D01*
X95171429Y51367857D02*
X95028572Y51296429D01*
X94742858Y51296429D01*
X94600001Y51367857D01*
X94528572Y51510714D01*
X94528572Y52082143D01*
X94600001Y52225000D01*
X94742858Y52296429D01*
X95028572Y52296429D01*
X95171429Y52225000D01*
X95242858Y52082143D01*
X95242858Y51939286D01*
X94528572Y51796429D01*
X95885715Y51296429D02*
X95885715Y52296429D01*
X95885715Y52010714D02*
X95957143Y52153571D01*
X96028572Y52225000D01*
X96171429Y52296429D01*
X96314286Y52296429D01*
X96814286Y51439286D02*
X96885714Y51367857D01*
X96814286Y51296429D01*
X96742857Y51367857D01*
X96814286Y51439286D01*
X96814286Y51296429D01*
X96814286Y52225000D02*
X96885714Y52153571D01*
X96814286Y52082143D01*
X96742857Y52153571D01*
X96814286Y52225000D01*
X96814286Y52082143D01*
D14*
X113959522Y54570238D02*
X113007141Y54570238D01*
X113007141Y56570238D01*
X115483332Y54570238D02*
X115483332Y55617857D01*
X115388094Y55808333D01*
X115197618Y55903571D01*
X114816666Y55903571D01*
X114626189Y55808333D01*
X115483332Y54665476D02*
X115292856Y54570238D01*
X114816666Y54570238D01*
X114626189Y54665476D01*
X114530951Y54855952D01*
X114530951Y55046429D01*
X114626189Y55236905D01*
X114816666Y55332143D01*
X115292856Y55332143D01*
X115483332Y55427381D01*
X116245237Y55903571D02*
X116721428Y54570238D01*
X117197618Y55903571D02*
X116721428Y54570238D01*
X116530952Y54094048D01*
X116435713Y53998810D01*
X116245237Y53903571D01*
X118721428Y54665476D02*
X118530952Y54570238D01*
X118150000Y54570238D01*
X117959523Y54665476D01*
X117864285Y54855952D01*
X117864285Y55617857D01*
X117959523Y55808333D01*
X118150000Y55903571D01*
X118530952Y55903571D01*
X118721428Y55808333D01*
X118816666Y55617857D01*
X118816666Y55427381D01*
X117864285Y55236905D01*
X119673809Y54570238D02*
X119673809Y55903571D01*
X119673809Y55522619D02*
X119769048Y55713095D01*
X119864286Y55808333D01*
X120054762Y55903571D01*
X120245238Y55903571D01*
X122340476Y54665476D02*
X122626191Y54570238D01*
X123102381Y54570238D01*
X123292857Y54665476D01*
X123388095Y54760714D01*
X123483334Y54951190D01*
X123483334Y55141667D01*
X123388095Y55332143D01*
X123292857Y55427381D01*
X123102381Y55522619D01*
X122721429Y55617857D01*
X122530953Y55713095D01*
X122435714Y55808333D01*
X122340476Y55998810D01*
X122340476Y56189286D01*
X122435714Y56379762D01*
X122530953Y56475000D01*
X122721429Y56570238D01*
X123197619Y56570238D01*
X123483334Y56475000D01*
X124054762Y55903571D02*
X124816667Y55903571D01*
X124340476Y56570238D02*
X124340476Y54855952D01*
X124435715Y54665476D01*
X124626191Y54570238D01*
X124816667Y54570238D01*
X126340476Y54570238D02*
X126340476Y55617857D01*
X126245238Y55808333D01*
X126054762Y55903571D01*
X125673810Y55903571D01*
X125483333Y55808333D01*
X126340476Y54665476D02*
X126150000Y54570238D01*
X125673810Y54570238D01*
X125483333Y54665476D01*
X125388095Y54855952D01*
X125388095Y55046429D01*
X125483333Y55236905D01*
X125673810Y55332143D01*
X126150000Y55332143D01*
X126340476Y55427381D01*
X128150000Y54665476D02*
X127959524Y54570238D01*
X127578572Y54570238D01*
X127388096Y54665476D01*
X127292857Y54760714D01*
X127197619Y54951190D01*
X127197619Y55522619D01*
X127292857Y55713095D01*
X127388096Y55808333D01*
X127578572Y55903571D01*
X127959524Y55903571D01*
X128150000Y55808333D01*
X129007143Y54570238D02*
X129007143Y56570238D01*
X129197620Y55332143D02*
X129769048Y54570238D01*
X129769048Y55903571D02*
X129007143Y55141667D01*
X131483334Y55903571D02*
X131483334Y54570238D01*
X130626191Y55903571D02*
X130626191Y54855952D01*
X130721430Y54665476D01*
X130911906Y54570238D01*
X131197620Y54570238D01*
X131388096Y54665476D01*
X131483334Y54760714D01*
X132435715Y55903571D02*
X132435715Y53903571D01*
X132435715Y55808333D02*
X132626192Y55903571D01*
X133007144Y55903571D01*
X133197620Y55808333D01*
X133292858Y55713095D01*
X133388096Y55522619D01*
X133388096Y54951190D01*
X133292858Y54760714D01*
X133197620Y54665476D01*
X133007144Y54570238D01*
X132626192Y54570238D01*
X132435715Y54665476D01*
D13*
X90885714Y50296429D02*
X91742857Y50296429D01*
X91314286Y48796429D02*
X91314286Y50296429D01*
X92457143Y48796429D02*
X92314285Y48867857D01*
X92242857Y48939286D01*
X92171428Y49082143D01*
X92171428Y49510714D01*
X92242857Y49653571D01*
X92314285Y49725000D01*
X92457143Y49796429D01*
X92671428Y49796429D01*
X92814285Y49725000D01*
X92885714Y49653571D01*
X92957143Y49510714D01*
X92957143Y49082143D01*
X92885714Y48939286D01*
X92814285Y48867857D01*
X92671428Y48796429D01*
X92457143Y48796429D01*
X93600000Y49796429D02*
X93600000Y48296429D01*
X93600000Y49725000D02*
X93742857Y49796429D01*
X94028571Y49796429D01*
X94171428Y49725000D01*
X94242857Y49653571D01*
X94314286Y49510714D01*
X94314286Y49082143D01*
X94242857Y48939286D01*
X94171428Y48867857D01*
X94028571Y48796429D01*
X93742857Y48796429D01*
X93600000Y48867857D01*
X96100000Y48796429D02*
X96100000Y50296429D01*
X96671428Y50296429D01*
X96814286Y50225000D01*
X96885714Y50153571D01*
X96957143Y50010714D01*
X96957143Y49796429D01*
X96885714Y49653571D01*
X96814286Y49582143D01*
X96671428Y49510714D01*
X96100000Y49510714D01*
X98242857Y48796429D02*
X98242857Y49582143D01*
X98171428Y49725000D01*
X98028571Y49796429D01*
X97742857Y49796429D01*
X97600000Y49725000D01*
X98242857Y48867857D02*
X98100000Y48796429D01*
X97742857Y48796429D01*
X97600000Y48867857D01*
X97528571Y49010714D01*
X97528571Y49153571D01*
X97600000Y49296429D01*
X97742857Y49367857D01*
X98100000Y49367857D01*
X98242857Y49439286D01*
X98885714Y48867857D02*
X99028571Y48796429D01*
X99314286Y48796429D01*
X99457143Y48867857D01*
X99528571Y49010714D01*
X99528571Y49082143D01*
X99457143Y49225000D01*
X99314286Y49296429D01*
X99100000Y49296429D01*
X98957143Y49367857D01*
X98885714Y49510714D01*
X98885714Y49582143D01*
X98957143Y49725000D01*
X99100000Y49796429D01*
X99314286Y49796429D01*
X99457143Y49725000D01*
X99957143Y49796429D02*
X100528572Y49796429D01*
X100171429Y50296429D02*
X100171429Y49010714D01*
X100242857Y48867857D01*
X100385715Y48796429D01*
X100528572Y48796429D01*
X101600000Y48867857D02*
X101457143Y48796429D01*
X101171429Y48796429D01*
X101028572Y48867857D01*
X100957143Y49010714D01*
X100957143Y49582143D01*
X101028572Y49725000D01*
X101171429Y49796429D01*
X101457143Y49796429D01*
X101600000Y49725000D01*
X101671429Y49582143D01*
X101671429Y49439286D01*
X100957143Y49296429D01*
X91384286Y29582143D02*
X91598572Y29510714D01*
X91670000Y29439286D01*
X91741429Y29296429D01*
X91741429Y29082143D01*
X91670000Y28939286D01*
X91598572Y28867857D01*
X91455714Y28796429D01*
X90884286Y28796429D01*
X90884286Y30296429D01*
X91384286Y30296429D01*
X91527143Y30225000D01*
X91598572Y30153571D01*
X91670000Y30010714D01*
X91670000Y29867857D01*
X91598572Y29725000D01*
X91527143Y29653571D01*
X91384286Y29582143D01*
X90884286Y29582143D01*
X92598572Y28796429D02*
X92455714Y28867857D01*
X92384286Y28939286D01*
X92312857Y29082143D01*
X92312857Y29510714D01*
X92384286Y29653571D01*
X92455714Y29725000D01*
X92598572Y29796429D01*
X92812857Y29796429D01*
X92955714Y29725000D01*
X93027143Y29653571D01*
X93098572Y29510714D01*
X93098572Y29082143D01*
X93027143Y28939286D01*
X92955714Y28867857D01*
X92812857Y28796429D01*
X92598572Y28796429D01*
X93527143Y29796429D02*
X94098572Y29796429D01*
X93741429Y30296429D02*
X93741429Y29010714D01*
X93812857Y28867857D01*
X93955715Y28796429D01*
X94098572Y28796429D01*
X94384286Y29796429D02*
X94955715Y29796429D01*
X94598572Y30296429D02*
X94598572Y29010714D01*
X94670000Y28867857D01*
X94812858Y28796429D01*
X94955715Y28796429D01*
X95670001Y28796429D02*
X95527143Y28867857D01*
X95455715Y28939286D01*
X95384286Y29082143D01*
X95384286Y29510714D01*
X95455715Y29653571D01*
X95527143Y29725000D01*
X95670001Y29796429D01*
X95884286Y29796429D01*
X96027143Y29725000D01*
X96098572Y29653571D01*
X96170001Y29510714D01*
X96170001Y29082143D01*
X96098572Y28939286D01*
X96027143Y28867857D01*
X95884286Y28796429D01*
X95670001Y28796429D01*
X96812858Y28796429D02*
X96812858Y29796429D01*
X96812858Y29653571D02*
X96884286Y29725000D01*
X97027144Y29796429D01*
X97241429Y29796429D01*
X97384286Y29725000D01*
X97455715Y29582143D01*
X97455715Y28796429D01*
X97455715Y29582143D02*
X97527144Y29725000D01*
X97670001Y29796429D01*
X97884286Y29796429D01*
X98027144Y29725000D01*
X98098572Y29582143D01*
X98098572Y28796429D01*
X99955715Y28796429D02*
X99955715Y30296429D01*
X100527143Y30296429D01*
X100670001Y30225000D01*
X100741429Y30153571D01*
X100812858Y30010714D01*
X100812858Y29796429D01*
X100741429Y29653571D01*
X100670001Y29582143D01*
X100527143Y29510714D01*
X99955715Y29510714D01*
X102098572Y28796429D02*
X102098572Y29582143D01*
X102027143Y29725000D01*
X101884286Y29796429D01*
X101598572Y29796429D01*
X101455715Y29725000D01*
X102098572Y28867857D02*
X101955715Y28796429D01*
X101598572Y28796429D01*
X101455715Y28867857D01*
X101384286Y29010714D01*
X101384286Y29153571D01*
X101455715Y29296429D01*
X101598572Y29367857D01*
X101955715Y29367857D01*
X102098572Y29439286D01*
X102741429Y28867857D02*
X102884286Y28796429D01*
X103170001Y28796429D01*
X103312858Y28867857D01*
X103384286Y29010714D01*
X103384286Y29082143D01*
X103312858Y29225000D01*
X103170001Y29296429D01*
X102955715Y29296429D01*
X102812858Y29367857D01*
X102741429Y29510714D01*
X102741429Y29582143D01*
X102812858Y29725000D01*
X102955715Y29796429D01*
X103170001Y29796429D01*
X103312858Y29725000D01*
X103812858Y29796429D02*
X104384287Y29796429D01*
X104027144Y30296429D02*
X104027144Y29010714D01*
X104098572Y28867857D01*
X104241430Y28796429D01*
X104384287Y28796429D01*
X105455715Y28867857D02*
X105312858Y28796429D01*
X105027144Y28796429D01*
X104884287Y28867857D01*
X104812858Y29010714D01*
X104812858Y29582143D01*
X104884287Y29725000D01*
X105027144Y29796429D01*
X105312858Y29796429D01*
X105455715Y29725000D01*
X105527144Y29582143D01*
X105527144Y29439286D01*
X104812858Y29296429D01*
X91384286Y32082143D02*
X91598572Y32010714D01*
X91670000Y31939286D01*
X91741429Y31796429D01*
X91741429Y31582143D01*
X91670000Y31439286D01*
X91598572Y31367857D01*
X91455714Y31296429D01*
X90884286Y31296429D01*
X90884286Y32796429D01*
X91384286Y32796429D01*
X91527143Y32725000D01*
X91598572Y32653571D01*
X91670000Y32510714D01*
X91670000Y32367857D01*
X91598572Y32225000D01*
X91527143Y32153571D01*
X91384286Y32082143D01*
X90884286Y32082143D01*
X92598572Y31296429D02*
X92455714Y31367857D01*
X92384286Y31439286D01*
X92312857Y31582143D01*
X92312857Y32010714D01*
X92384286Y32153571D01*
X92455714Y32225000D01*
X92598572Y32296429D01*
X92812857Y32296429D01*
X92955714Y32225000D01*
X93027143Y32153571D01*
X93098572Y32010714D01*
X93098572Y31582143D01*
X93027143Y31439286D01*
X92955714Y31367857D01*
X92812857Y31296429D01*
X92598572Y31296429D01*
X93527143Y32296429D02*
X94098572Y32296429D01*
X93741429Y32796429D02*
X93741429Y31510714D01*
X93812857Y31367857D01*
X93955715Y31296429D01*
X94098572Y31296429D01*
X94384286Y32296429D02*
X94955715Y32296429D01*
X94598572Y32796429D02*
X94598572Y31510714D01*
X94670000Y31367857D01*
X94812858Y31296429D01*
X94955715Y31296429D01*
X95670001Y31296429D02*
X95527143Y31367857D01*
X95455715Y31439286D01*
X95384286Y31582143D01*
X95384286Y32010714D01*
X95455715Y32153571D01*
X95527143Y32225000D01*
X95670001Y32296429D01*
X95884286Y32296429D01*
X96027143Y32225000D01*
X96098572Y32153571D01*
X96170001Y32010714D01*
X96170001Y31582143D01*
X96098572Y31439286D01*
X96027143Y31367857D01*
X95884286Y31296429D01*
X95670001Y31296429D01*
X96812858Y31296429D02*
X96812858Y32296429D01*
X96812858Y32153571D02*
X96884286Y32225000D01*
X97027144Y32296429D01*
X97241429Y32296429D01*
X97384286Y32225000D01*
X97455715Y32082143D01*
X97455715Y31296429D01*
X97455715Y32082143D02*
X97527144Y32225000D01*
X97670001Y32296429D01*
X97884286Y32296429D01*
X98027144Y32225000D01*
X98098572Y32082143D01*
X98098572Y31296429D01*
X100241429Y32796429D02*
X100527143Y32796429D01*
X100670001Y32725000D01*
X100812858Y32582143D01*
X100884286Y32296429D01*
X100884286Y31796429D01*
X100812858Y31510714D01*
X100670001Y31367857D01*
X100527143Y31296429D01*
X100241429Y31296429D01*
X100098572Y31367857D01*
X99955715Y31510714D01*
X99884286Y31796429D01*
X99884286Y32296429D01*
X99955715Y32582143D01*
X100098572Y32725000D01*
X100241429Y32796429D01*
X101384287Y32296429D02*
X101741430Y31296429D01*
X102098572Y32296429D01*
X103241429Y31367857D02*
X103098572Y31296429D01*
X102812858Y31296429D01*
X102670001Y31367857D01*
X102598572Y31510714D01*
X102598572Y32082143D01*
X102670001Y32225000D01*
X102812858Y32296429D01*
X103098572Y32296429D01*
X103241429Y32225000D01*
X103312858Y32082143D01*
X103312858Y31939286D01*
X102598572Y31796429D01*
X103955715Y31296429D02*
X103955715Y32296429D01*
X103955715Y32010714D02*
X104027143Y32153571D01*
X104098572Y32225000D01*
X104241429Y32296429D01*
X104384286Y32296429D01*
X105098572Y31296429D02*
X104955714Y31367857D01*
X104884286Y31510714D01*
X104884286Y32796429D01*
X106312857Y31296429D02*
X106312857Y32082143D01*
X106241428Y32225000D01*
X106098571Y32296429D01*
X105812857Y32296429D01*
X105670000Y32225000D01*
X106312857Y31367857D02*
X106170000Y31296429D01*
X105812857Y31296429D01*
X105670000Y31367857D01*
X105598571Y31510714D01*
X105598571Y31653571D01*
X105670000Y31796429D01*
X105812857Y31867857D01*
X106170000Y31867857D01*
X106312857Y31939286D01*
X106884286Y32296429D02*
X107241429Y31296429D01*
X107598571Y32296429D02*
X107241429Y31296429D01*
X107098571Y30939286D01*
X107027143Y30867857D01*
X106884286Y30796429D01*
X90885715Y47796429D02*
X91742858Y47796429D01*
X91314287Y46296429D02*
X91314287Y47796429D01*
X92457144Y46296429D02*
X92314286Y46367857D01*
X92242858Y46439286D01*
X92171429Y46582143D01*
X92171429Y47010714D01*
X92242858Y47153571D01*
X92314286Y47225000D01*
X92457144Y47296429D01*
X92671429Y47296429D01*
X92814286Y47225000D01*
X92885715Y47153571D01*
X92957144Y47010714D01*
X92957144Y46582143D01*
X92885715Y46439286D01*
X92814286Y46367857D01*
X92671429Y46296429D01*
X92457144Y46296429D01*
X93600001Y47296429D02*
X93600001Y45796429D01*
X93600001Y47225000D02*
X93742858Y47296429D01*
X94028572Y47296429D01*
X94171429Y47225000D01*
X94242858Y47153571D01*
X94314287Y47010714D01*
X94314287Y46582143D01*
X94242858Y46439286D01*
X94171429Y46367857D01*
X94028572Y46296429D01*
X93742858Y46296429D01*
X93600001Y46367857D01*
X96385715Y47796429D02*
X96671429Y47796429D01*
X96814287Y47725000D01*
X96957144Y47582143D01*
X97028572Y47296429D01*
X97028572Y46796429D01*
X96957144Y46510714D01*
X96814287Y46367857D01*
X96671429Y46296429D01*
X96385715Y46296429D01*
X96242858Y46367857D01*
X96100001Y46510714D01*
X96028572Y46796429D01*
X96028572Y47296429D01*
X96100001Y47582143D01*
X96242858Y47725000D01*
X96385715Y47796429D01*
X97528573Y47296429D02*
X97885716Y46296429D01*
X98242858Y47296429D01*
X99385715Y46367857D02*
X99242858Y46296429D01*
X98957144Y46296429D01*
X98814287Y46367857D01*
X98742858Y46510714D01*
X98742858Y47082143D01*
X98814287Y47225000D01*
X98957144Y47296429D01*
X99242858Y47296429D01*
X99385715Y47225000D01*
X99457144Y47082143D01*
X99457144Y46939286D01*
X98742858Y46796429D01*
X100100001Y46296429D02*
X100100001Y47296429D01*
X100100001Y47010714D02*
X100171429Y47153571D01*
X100242858Y47225000D01*
X100385715Y47296429D01*
X100528572Y47296429D01*
X101242858Y46296429D02*
X101100000Y46367857D01*
X101028572Y46510714D01*
X101028572Y47796429D01*
X102457143Y46296429D02*
X102457143Y47082143D01*
X102385714Y47225000D01*
X102242857Y47296429D01*
X101957143Y47296429D01*
X101814286Y47225000D01*
X102457143Y46367857D02*
X102314286Y46296429D01*
X101957143Y46296429D01*
X101814286Y46367857D01*
X101742857Y46510714D01*
X101742857Y46653571D01*
X101814286Y46796429D01*
X101957143Y46867857D01*
X102314286Y46867857D01*
X102457143Y46939286D01*
X103028572Y47296429D02*
X103385715Y46296429D01*
X103742857Y47296429D02*
X103385715Y46296429D01*
X103242857Y45939286D01*
X103171429Y45867857D01*
X103028572Y45796429D01*
X90886429Y45296429D02*
X91743572Y45296429D01*
X91315001Y43796429D02*
X91315001Y45296429D01*
X92457858Y43796429D02*
X92315000Y43867857D01*
X92243572Y43939286D01*
X92172143Y44082143D01*
X92172143Y44510714D01*
X92243572Y44653571D01*
X92315000Y44725000D01*
X92457858Y44796429D01*
X92672143Y44796429D01*
X92815000Y44725000D01*
X92886429Y44653571D01*
X92957858Y44510714D01*
X92957858Y44082143D01*
X92886429Y43939286D01*
X92815000Y43867857D01*
X92672143Y43796429D01*
X92457858Y43796429D01*
X93600715Y44796429D02*
X93600715Y43296429D01*
X93600715Y44725000D02*
X93743572Y44796429D01*
X94029286Y44796429D01*
X94172143Y44725000D01*
X94243572Y44653571D01*
X94315001Y44510714D01*
X94315001Y44082143D01*
X94243572Y43939286D01*
X94172143Y43867857D01*
X94029286Y43796429D01*
X93743572Y43796429D01*
X93600715Y43867857D01*
X96029286Y43867857D02*
X96243572Y43796429D01*
X96600715Y43796429D01*
X96743572Y43867857D01*
X96815001Y43939286D01*
X96886429Y44082143D01*
X96886429Y44225000D01*
X96815001Y44367857D01*
X96743572Y44439286D01*
X96600715Y44510714D01*
X96315001Y44582143D01*
X96172143Y44653571D01*
X96100715Y44725000D01*
X96029286Y44867857D01*
X96029286Y45010714D01*
X96100715Y45153571D01*
X96172143Y45225000D01*
X96315001Y45296429D01*
X96672143Y45296429D01*
X96886429Y45225000D01*
X97743572Y43796429D02*
X97600714Y43867857D01*
X97529286Y43939286D01*
X97457857Y44082143D01*
X97457857Y44510714D01*
X97529286Y44653571D01*
X97600714Y44725000D01*
X97743572Y44796429D01*
X97957857Y44796429D01*
X98100714Y44725000D01*
X98172143Y44653571D01*
X98243572Y44510714D01*
X98243572Y44082143D01*
X98172143Y43939286D01*
X98100714Y43867857D01*
X97957857Y43796429D01*
X97743572Y43796429D01*
X99100715Y43796429D02*
X98957857Y43867857D01*
X98886429Y44010714D01*
X98886429Y45296429D01*
X100315000Y43796429D02*
X100315000Y45296429D01*
X100315000Y43867857D02*
X100172143Y43796429D01*
X99886429Y43796429D01*
X99743571Y43867857D01*
X99672143Y43939286D01*
X99600714Y44082143D01*
X99600714Y44510714D01*
X99672143Y44653571D01*
X99743571Y44725000D01*
X99886429Y44796429D01*
X100172143Y44796429D01*
X100315000Y44725000D01*
X101600714Y43867857D02*
X101457857Y43796429D01*
X101172143Y43796429D01*
X101029286Y43867857D01*
X100957857Y44010714D01*
X100957857Y44582143D01*
X101029286Y44725000D01*
X101172143Y44796429D01*
X101457857Y44796429D01*
X101600714Y44725000D01*
X101672143Y44582143D01*
X101672143Y44439286D01*
X100957857Y44296429D01*
X102315000Y43796429D02*
X102315000Y44796429D01*
X102315000Y44510714D02*
X102386428Y44653571D01*
X102457857Y44725000D01*
X102600714Y44796429D01*
X102743571Y44796429D01*
X90883572Y42796429D02*
X91740715Y42796429D01*
X91312144Y41296429D02*
X91312144Y42796429D01*
X92455001Y41296429D02*
X92312143Y41367857D01*
X92240715Y41439286D01*
X92169286Y41582143D01*
X92169286Y42010714D01*
X92240715Y42153571D01*
X92312143Y42225000D01*
X92455001Y42296429D01*
X92669286Y42296429D01*
X92812143Y42225000D01*
X92883572Y42153571D01*
X92955001Y42010714D01*
X92955001Y41582143D01*
X92883572Y41439286D01*
X92812143Y41367857D01*
X92669286Y41296429D01*
X92455001Y41296429D01*
X93597858Y42296429D02*
X93597858Y40796429D01*
X93597858Y42225000D02*
X93740715Y42296429D01*
X94026429Y42296429D01*
X94169286Y42225000D01*
X94240715Y42153571D01*
X94312144Y42010714D01*
X94312144Y41582143D01*
X94240715Y41439286D01*
X94169286Y41367857D01*
X94026429Y41296429D01*
X93740715Y41296429D01*
X93597858Y41367857D01*
X96812144Y41296429D02*
X96097858Y41296429D01*
X96097858Y42796429D01*
X97955001Y41296429D02*
X97955001Y42082143D01*
X97883572Y42225000D01*
X97740715Y42296429D01*
X97455001Y42296429D01*
X97312144Y42225000D01*
X97955001Y41367857D02*
X97812144Y41296429D01*
X97455001Y41296429D01*
X97312144Y41367857D01*
X97240715Y41510714D01*
X97240715Y41653571D01*
X97312144Y41796429D01*
X97455001Y41867857D01*
X97812144Y41867857D01*
X97955001Y41939286D01*
X98526430Y42296429D02*
X98883573Y41296429D01*
X99240715Y42296429D02*
X98883573Y41296429D01*
X98740715Y40939286D01*
X98669287Y40867857D01*
X98526430Y40796429D01*
X100383572Y41367857D02*
X100240715Y41296429D01*
X99955001Y41296429D01*
X99812144Y41367857D01*
X99740715Y41510714D01*
X99740715Y42082143D01*
X99812144Y42225000D01*
X99955001Y42296429D01*
X100240715Y42296429D01*
X100383572Y42225000D01*
X100455001Y42082143D01*
X100455001Y41939286D01*
X99740715Y41796429D01*
X101097858Y41296429D02*
X101097858Y42296429D01*
X101097858Y42010714D02*
X101169286Y42153571D01*
X101240715Y42225000D01*
X101383572Y42296429D01*
X101526429Y42296429D01*
X90885001Y38796429D02*
X90885001Y40296429D01*
X91242144Y40296429D01*
X91456429Y40225000D01*
X91599287Y40082143D01*
X91670715Y39939286D01*
X91742144Y39653571D01*
X91742144Y39439286D01*
X91670715Y39153571D01*
X91599287Y39010714D01*
X91456429Y38867857D01*
X91242144Y38796429D01*
X90885001Y38796429D01*
X92385001Y38796429D02*
X92385001Y39796429D01*
X92385001Y40296429D02*
X92313572Y40225000D01*
X92385001Y40153571D01*
X92456429Y40225000D01*
X92385001Y40296429D01*
X92385001Y40153571D01*
X93670715Y38867857D02*
X93527858Y38796429D01*
X93242144Y38796429D01*
X93099287Y38867857D01*
X93027858Y39010714D01*
X93027858Y39582143D01*
X93099287Y39725000D01*
X93242144Y39796429D01*
X93527858Y39796429D01*
X93670715Y39725000D01*
X93742144Y39582143D01*
X93742144Y39439286D01*
X93027858Y39296429D01*
X94599287Y38796429D02*
X94456429Y38867857D01*
X94385001Y39010714D01*
X94385001Y40296429D01*
X95742143Y38867857D02*
X95599286Y38796429D01*
X95313572Y38796429D01*
X95170715Y38867857D01*
X95099286Y39010714D01*
X95099286Y39582143D01*
X95170715Y39725000D01*
X95313572Y39796429D01*
X95599286Y39796429D01*
X95742143Y39725000D01*
X95813572Y39582143D01*
X95813572Y39439286D01*
X95099286Y39296429D01*
X97099286Y38867857D02*
X96956429Y38796429D01*
X96670715Y38796429D01*
X96527857Y38867857D01*
X96456429Y38939286D01*
X96385000Y39082143D01*
X96385000Y39510714D01*
X96456429Y39653571D01*
X96527857Y39725000D01*
X96670715Y39796429D01*
X96956429Y39796429D01*
X97099286Y39725000D01*
X97527857Y39796429D02*
X98099286Y39796429D01*
X97742143Y40296429D02*
X97742143Y39010714D01*
X97813571Y38867857D01*
X97956429Y38796429D01*
X98099286Y38796429D01*
X98599286Y38796429D02*
X98599286Y39796429D01*
X98599286Y39510714D02*
X98670714Y39653571D01*
X98742143Y39725000D01*
X98885000Y39796429D01*
X99027857Y39796429D01*
X99527857Y38796429D02*
X99527857Y39796429D01*
X99527857Y40296429D02*
X99456428Y40225000D01*
X99527857Y40153571D01*
X99599285Y40225000D01*
X99527857Y40296429D01*
X99527857Y40153571D01*
X100885000Y38867857D02*
X100742143Y38796429D01*
X100456429Y38796429D01*
X100313571Y38867857D01*
X100242143Y38939286D01*
X100170714Y39082143D01*
X100170714Y39510714D01*
X100242143Y39653571D01*
X100313571Y39725000D01*
X100456429Y39796429D01*
X100742143Y39796429D01*
X100885000Y39725000D01*
X103456428Y38796429D02*
X102599285Y38796429D01*
X103027857Y38796429D02*
X103027857Y40296429D01*
X102885000Y40082143D01*
X102742142Y39939286D01*
X102599285Y39867857D01*
X110221429Y36296429D02*
X109364286Y36296429D01*
X109792858Y36296429D02*
X109792858Y37796429D01*
X109650001Y37582143D01*
X109507143Y37439286D01*
X109364286Y37367857D01*
X111078572Y36296429D02*
X110935714Y36367857D01*
X110864286Y36439286D01*
X110792857Y36582143D01*
X110792857Y37010714D01*
X110864286Y37153571D01*
X110935714Y37225000D01*
X111078572Y37296429D01*
X111292857Y37296429D01*
X111435714Y37225000D01*
X111507143Y37153571D01*
X111578572Y37010714D01*
X111578572Y36582143D01*
X111507143Y36439286D01*
X111435714Y36367857D01*
X111292857Y36296429D01*
X111078572Y36296429D01*
X112078572Y37296429D02*
X112864286Y37296429D01*
X112078572Y36296429D01*
X112864286Y36296429D01*
X113435715Y36439286D02*
X113507143Y36367857D01*
X113435715Y36296429D01*
X113364286Y36367857D01*
X113435715Y36439286D01*
X113435715Y36296429D01*
X116150001Y36439286D02*
X116078572Y36367857D01*
X115864286Y36296429D01*
X115721429Y36296429D01*
X115507144Y36367857D01*
X115364286Y36510714D01*
X115292858Y36653571D01*
X115221429Y36939286D01*
X115221429Y37153571D01*
X115292858Y37439286D01*
X115364286Y37582143D01*
X115507144Y37725000D01*
X115721429Y37796429D01*
X115864286Y37796429D01*
X116078572Y37725000D01*
X116150001Y37653571D01*
X117007144Y36296429D02*
X116864286Y36367857D01*
X116792858Y36439286D01*
X116721429Y36582143D01*
X116721429Y37010714D01*
X116792858Y37153571D01*
X116864286Y37225000D01*
X117007144Y37296429D01*
X117221429Y37296429D01*
X117364286Y37225000D01*
X117435715Y37153571D01*
X117507144Y37010714D01*
X117507144Y36582143D01*
X117435715Y36439286D01*
X117364286Y36367857D01*
X117221429Y36296429D01*
X117007144Y36296429D01*
X118150001Y37296429D02*
X118150001Y35796429D01*
X118150001Y37225000D02*
X118292858Y37296429D01*
X118578572Y37296429D01*
X118721429Y37225000D01*
X118792858Y37153571D01*
X118864287Y37010714D01*
X118864287Y36582143D01*
X118792858Y36439286D01*
X118721429Y36367857D01*
X118578572Y36296429D01*
X118292858Y36296429D01*
X118150001Y36367857D01*
X119507144Y37296429D02*
X119507144Y35796429D01*
X119507144Y37225000D02*
X119650001Y37296429D01*
X119935715Y37296429D01*
X120078572Y37225000D01*
X120150001Y37153571D01*
X120221430Y37010714D01*
X120221430Y36582143D01*
X120150001Y36439286D01*
X120078572Y36367857D01*
X119935715Y36296429D01*
X119650001Y36296429D01*
X119507144Y36367857D01*
X121435715Y36367857D02*
X121292858Y36296429D01*
X121007144Y36296429D01*
X120864287Y36367857D01*
X120792858Y36510714D01*
X120792858Y37082143D01*
X120864287Y37225000D01*
X121007144Y37296429D01*
X121292858Y37296429D01*
X121435715Y37225000D01*
X121507144Y37082143D01*
X121507144Y36939286D01*
X120792858Y36796429D01*
X122150001Y36296429D02*
X122150001Y37296429D01*
X122150001Y37010714D02*
X122221429Y37153571D01*
X122292858Y37225000D01*
X122435715Y37296429D01*
X122578572Y37296429D01*
X91385001Y34582143D02*
X91599287Y34510714D01*
X91670715Y34439286D01*
X91742144Y34296429D01*
X91742144Y34082143D01*
X91670715Y33939286D01*
X91599287Y33867857D01*
X91456429Y33796429D01*
X90885001Y33796429D01*
X90885001Y35296429D01*
X91385001Y35296429D01*
X91527858Y35225000D01*
X91599287Y35153571D01*
X91670715Y35010714D01*
X91670715Y34867857D01*
X91599287Y34725000D01*
X91527858Y34653571D01*
X91385001Y34582143D01*
X90885001Y34582143D01*
X92599287Y33796429D02*
X92456429Y33867857D01*
X92385001Y33939286D01*
X92313572Y34082143D01*
X92313572Y34510714D01*
X92385001Y34653571D01*
X92456429Y34725000D01*
X92599287Y34796429D01*
X92813572Y34796429D01*
X92956429Y34725000D01*
X93027858Y34653571D01*
X93099287Y34510714D01*
X93099287Y34082143D01*
X93027858Y33939286D01*
X92956429Y33867857D01*
X92813572Y33796429D01*
X92599287Y33796429D01*
X93527858Y34796429D02*
X94099287Y34796429D01*
X93742144Y35296429D02*
X93742144Y34010714D01*
X93813572Y33867857D01*
X93956430Y33796429D01*
X94099287Y33796429D01*
X94385001Y34796429D02*
X94956430Y34796429D01*
X94599287Y35296429D02*
X94599287Y34010714D01*
X94670715Y33867857D01*
X94813573Y33796429D01*
X94956430Y33796429D01*
X95670716Y33796429D02*
X95527858Y33867857D01*
X95456430Y33939286D01*
X95385001Y34082143D01*
X95385001Y34510714D01*
X95456430Y34653571D01*
X95527858Y34725000D01*
X95670716Y34796429D01*
X95885001Y34796429D01*
X96027858Y34725000D01*
X96099287Y34653571D01*
X96170716Y34510714D01*
X96170716Y34082143D01*
X96099287Y33939286D01*
X96027858Y33867857D01*
X95885001Y33796429D01*
X95670716Y33796429D01*
X96813573Y33796429D02*
X96813573Y34796429D01*
X96813573Y34653571D02*
X96885001Y34725000D01*
X97027859Y34796429D01*
X97242144Y34796429D01*
X97385001Y34725000D01*
X97456430Y34582143D01*
X97456430Y33796429D01*
X97456430Y34582143D02*
X97527859Y34725000D01*
X97670716Y34796429D01*
X97885001Y34796429D01*
X98027859Y34725000D01*
X98099287Y34582143D01*
X98099287Y33796429D01*
X99885001Y33867857D02*
X100099287Y33796429D01*
X100456430Y33796429D01*
X100599287Y33867857D01*
X100670716Y33939286D01*
X100742144Y34082143D01*
X100742144Y34225000D01*
X100670716Y34367857D01*
X100599287Y34439286D01*
X100456430Y34510714D01*
X100170716Y34582143D01*
X100027858Y34653571D01*
X99956430Y34725000D01*
X99885001Y34867857D01*
X99885001Y35010714D01*
X99956430Y35153571D01*
X100027858Y35225000D01*
X100170716Y35296429D01*
X100527858Y35296429D01*
X100742144Y35225000D01*
X101599287Y33796429D02*
X101456429Y33867857D01*
X101385001Y33939286D01*
X101313572Y34082143D01*
X101313572Y34510714D01*
X101385001Y34653571D01*
X101456429Y34725000D01*
X101599287Y34796429D01*
X101813572Y34796429D01*
X101956429Y34725000D01*
X102027858Y34653571D01*
X102099287Y34510714D01*
X102099287Y34082143D01*
X102027858Y33939286D01*
X101956429Y33867857D01*
X101813572Y33796429D01*
X101599287Y33796429D01*
X102956430Y33796429D02*
X102813572Y33867857D01*
X102742144Y34010714D01*
X102742144Y35296429D01*
X104170715Y33796429D02*
X104170715Y35296429D01*
X104170715Y33867857D02*
X104027858Y33796429D01*
X103742144Y33796429D01*
X103599286Y33867857D01*
X103527858Y33939286D01*
X103456429Y34082143D01*
X103456429Y34510714D01*
X103527858Y34653571D01*
X103599286Y34725000D01*
X103742144Y34796429D01*
X104027858Y34796429D01*
X104170715Y34725000D01*
X105456429Y33867857D02*
X105313572Y33796429D01*
X105027858Y33796429D01*
X104885001Y33867857D01*
X104813572Y34010714D01*
X104813572Y34582143D01*
X104885001Y34725000D01*
X105027858Y34796429D01*
X105313572Y34796429D01*
X105456429Y34725000D01*
X105527858Y34582143D01*
X105527858Y34439286D01*
X104813572Y34296429D01*
X106170715Y33796429D02*
X106170715Y34796429D01*
X106170715Y34510714D02*
X106242143Y34653571D01*
X106313572Y34725000D01*
X106456429Y34796429D01*
X106599286Y34796429D01*
X109360000Y51296429D02*
X109360000Y52796429D01*
X109860000Y51725000D01*
X110360000Y52796429D01*
X110360000Y51296429D01*
X111717143Y51296429D02*
X111717143Y52082143D01*
X111645714Y52225000D01*
X111502857Y52296429D01*
X111217143Y52296429D01*
X111074286Y52225000D01*
X111717143Y51367857D02*
X111574286Y51296429D01*
X111217143Y51296429D01*
X111074286Y51367857D01*
X111002857Y51510714D01*
X111002857Y51653571D01*
X111074286Y51796429D01*
X111217143Y51867857D01*
X111574286Y51867857D01*
X111717143Y51939286D01*
X112217143Y52296429D02*
X112788572Y52296429D01*
X112431429Y52796429D02*
X112431429Y51510714D01*
X112502857Y51367857D01*
X112645715Y51296429D01*
X112788572Y51296429D01*
X113860000Y51367857D02*
X113717143Y51296429D01*
X113431429Y51296429D01*
X113288572Y51367857D01*
X113217143Y51510714D01*
X113217143Y52082143D01*
X113288572Y52225000D01*
X113431429Y52296429D01*
X113717143Y52296429D01*
X113860000Y52225000D01*
X113931429Y52082143D01*
X113931429Y51939286D01*
X113217143Y51796429D01*
X114574286Y51296429D02*
X114574286Y52296429D01*
X114574286Y52010714D02*
X114645714Y52153571D01*
X114717143Y52225000D01*
X114860000Y52296429D01*
X115002857Y52296429D01*
X115502857Y51296429D02*
X115502857Y52296429D01*
X115502857Y52796429D02*
X115431428Y52725000D01*
X115502857Y52653571D01*
X115574285Y52725000D01*
X115502857Y52796429D01*
X115502857Y52653571D01*
X116860000Y51296429D02*
X116860000Y52082143D01*
X116788571Y52225000D01*
X116645714Y52296429D01*
X116360000Y52296429D01*
X116217143Y52225000D01*
X116860000Y51367857D02*
X116717143Y51296429D01*
X116360000Y51296429D01*
X116217143Y51367857D01*
X116145714Y51510714D01*
X116145714Y51653571D01*
X116217143Y51796429D01*
X116360000Y51867857D01*
X116717143Y51867857D01*
X116860000Y51939286D01*
X117788572Y51296429D02*
X117645714Y51367857D01*
X117574286Y51510714D01*
X117574286Y52796429D01*
X118360000Y51439286D02*
X118431428Y51367857D01*
X118360000Y51296429D01*
X118288571Y51367857D01*
X118360000Y51439286D01*
X118360000Y51296429D01*
X118360000Y52225000D02*
X118431428Y52153571D01*
X118360000Y52082143D01*
X118288571Y52153571D01*
X118360000Y52225000D01*
X118360000Y52082143D01*
X125862857Y52796429D02*
X126720000Y52796429D01*
X126291429Y51296429D02*
X126291429Y52796429D01*
X127220000Y51296429D02*
X127220000Y52796429D01*
X127862857Y51296429D02*
X127862857Y52082143D01*
X127791428Y52225000D01*
X127648571Y52296429D01*
X127434286Y52296429D01*
X127291428Y52225000D01*
X127220000Y52153571D01*
X128577143Y51296429D02*
X128577143Y52296429D01*
X128577143Y52796429D02*
X128505714Y52725000D01*
X128577143Y52653571D01*
X128648571Y52725000D01*
X128577143Y52796429D01*
X128577143Y52653571D01*
X129934286Y51367857D02*
X129791429Y51296429D01*
X129505715Y51296429D01*
X129362857Y51367857D01*
X129291429Y51439286D01*
X129220000Y51582143D01*
X129220000Y52010714D01*
X129291429Y52153571D01*
X129362857Y52225000D01*
X129505715Y52296429D01*
X129791429Y52296429D01*
X129934286Y52225000D01*
X130577143Y51296429D02*
X130577143Y52796429D01*
X130720000Y51867857D02*
X131148571Y51296429D01*
X131148571Y52296429D02*
X130577143Y51725000D01*
X131791429Y52296429D02*
X131791429Y51296429D01*
X131791429Y52153571D02*
X131862857Y52225000D01*
X132005715Y52296429D01*
X132220000Y52296429D01*
X132362857Y52225000D01*
X132434286Y52082143D01*
X132434286Y51296429D01*
X133720000Y51367857D02*
X133577143Y51296429D01*
X133291429Y51296429D01*
X133148572Y51367857D01*
X133077143Y51510714D01*
X133077143Y52082143D01*
X133148572Y52225000D01*
X133291429Y52296429D01*
X133577143Y52296429D01*
X133720000Y52225000D01*
X133791429Y52082143D01*
X133791429Y51939286D01*
X133077143Y51796429D01*
X134362857Y51367857D02*
X134505714Y51296429D01*
X134791429Y51296429D01*
X134934286Y51367857D01*
X135005714Y51510714D01*
X135005714Y51582143D01*
X134934286Y51725000D01*
X134791429Y51796429D01*
X134577143Y51796429D01*
X134434286Y51867857D01*
X134362857Y52010714D01*
X134362857Y52082143D01*
X134434286Y52225000D01*
X134577143Y52296429D01*
X134791429Y52296429D01*
X134934286Y52225000D01*
X135577143Y51367857D02*
X135720000Y51296429D01*
X136005715Y51296429D01*
X136148572Y51367857D01*
X136220000Y51510714D01*
X136220000Y51582143D01*
X136148572Y51725000D01*
X136005715Y51796429D01*
X135791429Y51796429D01*
X135648572Y51867857D01*
X135577143Y52010714D01*
X135577143Y52082143D01*
X135648572Y52225000D01*
X135791429Y52296429D01*
X136005715Y52296429D01*
X136148572Y52225000D01*
X136862858Y51439286D02*
X136934286Y51367857D01*
X136862858Y51296429D01*
X136791429Y51367857D01*
X136862858Y51439286D01*
X136862858Y51296429D01*
X136862858Y52225000D02*
X136934286Y52153571D01*
X136862858Y52082143D01*
X136791429Y52153571D01*
X136862858Y52225000D01*
X136862858Y52082143D01*
X138867858Y52796429D02*
X139725001Y52796429D01*
X139296430Y51296429D02*
X139296430Y52796429D01*
X140439287Y51296429D02*
X140296429Y51367857D01*
X140225001Y51439286D01*
X140153572Y51582143D01*
X140153572Y52010714D01*
X140225001Y52153571D01*
X140296429Y52225000D01*
X140439287Y52296429D01*
X140653572Y52296429D01*
X140796429Y52225000D01*
X140867858Y52153571D01*
X140939287Y52010714D01*
X140939287Y51582143D01*
X140867858Y51439286D01*
X140796429Y51367857D01*
X140653572Y51296429D01*
X140439287Y51296429D01*
X141796430Y51296429D02*
X141653572Y51367857D01*
X141582144Y51510714D01*
X141582144Y52796429D01*
X142939286Y51367857D02*
X142796429Y51296429D01*
X142510715Y51296429D01*
X142367858Y51367857D01*
X142296429Y51510714D01*
X142296429Y52082143D01*
X142367858Y52225000D01*
X142510715Y52296429D01*
X142796429Y52296429D01*
X142939286Y52225000D01*
X143010715Y52082143D01*
X143010715Y51939286D01*
X142296429Y51796429D01*
X143653572Y51296429D02*
X143653572Y52296429D01*
X143653572Y52010714D02*
X143725000Y52153571D01*
X143796429Y52225000D01*
X143939286Y52296429D01*
X144082143Y52296429D01*
X145225000Y51296429D02*
X145225000Y52082143D01*
X145153571Y52225000D01*
X145010714Y52296429D01*
X144725000Y52296429D01*
X144582143Y52225000D01*
X145225000Y51367857D02*
X145082143Y51296429D01*
X144725000Y51296429D01*
X144582143Y51367857D01*
X144510714Y51510714D01*
X144510714Y51653571D01*
X144582143Y51796429D01*
X144725000Y51867857D01*
X145082143Y51867857D01*
X145225000Y51939286D01*
X145939286Y52296429D02*
X145939286Y51296429D01*
X145939286Y52153571D02*
X146010714Y52225000D01*
X146153572Y52296429D01*
X146367857Y52296429D01*
X146510714Y52225000D01*
X146582143Y52082143D01*
X146582143Y51296429D01*
X147939286Y51367857D02*
X147796429Y51296429D01*
X147510715Y51296429D01*
X147367857Y51367857D01*
X147296429Y51439286D01*
X147225000Y51582143D01*
X147225000Y52010714D01*
X147296429Y52153571D01*
X147367857Y52225000D01*
X147510715Y52296429D01*
X147796429Y52296429D01*
X147939286Y52225000D01*
X149153571Y51367857D02*
X149010714Y51296429D01*
X148725000Y51296429D01*
X148582143Y51367857D01*
X148510714Y51510714D01*
X148510714Y52082143D01*
X148582143Y52225000D01*
X148725000Y52296429D01*
X149010714Y52296429D01*
X149153571Y52225000D01*
X149225000Y52082143D01*
X149225000Y51939286D01*
X148510714Y51796429D01*
X149867857Y51439286D02*
X149939285Y51367857D01*
X149867857Y51296429D01*
X149796428Y51367857D01*
X149867857Y51439286D01*
X149867857Y51296429D01*
X149867857Y52225000D02*
X149939285Y52153571D01*
X149867857Y52082143D01*
X149796428Y52153571D01*
X149867857Y52225000D01*
X149867857Y52082143D01*
X109362144Y48796429D02*
X109362144Y50296429D01*
X109933572Y50296429D01*
X110076430Y50225000D01*
X110147858Y50153571D01*
X110219287Y50010714D01*
X110219287Y49796429D01*
X110147858Y49653571D01*
X110076430Y49582143D01*
X109933572Y49510714D01*
X109362144Y49510714D01*
X110862144Y48796429D02*
X110862144Y50296429D01*
X110862144Y49725000D02*
X111005001Y49796429D01*
X111290715Y49796429D01*
X111433572Y49725000D01*
X111505001Y49653571D01*
X111576430Y49510714D01*
X111576430Y49082143D01*
X111505001Y48939286D01*
X111433572Y48867857D01*
X111290715Y48796429D01*
X111005001Y48796429D01*
X110862144Y48867857D01*
X112219287Y49367857D02*
X113362144Y49367857D01*
X114576430Y49582143D02*
X114076430Y49582143D01*
X114076430Y48796429D02*
X114076430Y50296429D01*
X114790716Y50296429D01*
X115362144Y48796429D02*
X115362144Y49796429D01*
X115362144Y49510714D02*
X115433572Y49653571D01*
X115505001Y49725000D01*
X115647858Y49796429D01*
X115790715Y49796429D01*
X116862143Y48867857D02*
X116719286Y48796429D01*
X116433572Y48796429D01*
X116290715Y48867857D01*
X116219286Y49010714D01*
X116219286Y49582143D01*
X116290715Y49725000D01*
X116433572Y49796429D01*
X116719286Y49796429D01*
X116862143Y49725000D01*
X116933572Y49582143D01*
X116933572Y49439286D01*
X116219286Y49296429D01*
X118147857Y48867857D02*
X118005000Y48796429D01*
X117719286Y48796429D01*
X117576429Y48867857D01*
X117505000Y49010714D01*
X117505000Y49582143D01*
X117576429Y49725000D01*
X117719286Y49796429D01*
X118005000Y49796429D01*
X118147857Y49725000D01*
X118219286Y49582143D01*
X118219286Y49439286D01*
X117505000Y49296429D01*
X109363571Y47082143D02*
X109863571Y47082143D01*
X110077857Y46296429D02*
X109363571Y46296429D01*
X109363571Y47796429D01*
X110077857Y47796429D01*
X110720714Y47296429D02*
X110720714Y45796429D01*
X110720714Y47225000D02*
X110863571Y47296429D01*
X111149285Y47296429D01*
X111292142Y47225000D01*
X111363571Y47153571D01*
X111435000Y47010714D01*
X111435000Y46582143D01*
X111363571Y46439286D01*
X111292142Y46367857D01*
X111149285Y46296429D01*
X110863571Y46296429D01*
X110720714Y46367857D01*
X112292143Y46296429D02*
X112149285Y46367857D01*
X112077857Y46439286D01*
X112006428Y46582143D01*
X112006428Y47010714D01*
X112077857Y47153571D01*
X112149285Y47225000D01*
X112292143Y47296429D01*
X112506428Y47296429D01*
X112649285Y47225000D01*
X112720714Y47153571D01*
X112792143Y47010714D01*
X112792143Y46582143D01*
X112720714Y46439286D01*
X112649285Y46367857D01*
X112506428Y46296429D01*
X112292143Y46296429D01*
X113292143Y46296429D02*
X114077857Y47296429D01*
X113292143Y47296429D02*
X114077857Y46296429D01*
X114506429Y47296429D02*
X114863572Y46296429D01*
X115220714Y47296429D02*
X114863572Y46296429D01*
X114720714Y45939286D01*
X114649286Y45867857D01*
X114506429Y45796429D01*
X116935000Y46296429D02*
X116935000Y47796429D01*
X117649286Y47296429D02*
X117649286Y46296429D01*
X117649286Y47153571D02*
X117720714Y47225000D01*
X117863572Y47296429D01*
X118077857Y47296429D01*
X118220714Y47225000D01*
X118292143Y47082143D01*
X118292143Y46296429D01*
X119006429Y46296429D02*
X119006429Y47796429D01*
X119149286Y46867857D02*
X119577857Y46296429D01*
X119577857Y47296429D02*
X119006429Y46725000D01*
X109365000Y43867857D02*
X109579286Y43796429D01*
X109936429Y43796429D01*
X110079286Y43867857D01*
X110150715Y43939286D01*
X110222143Y44082143D01*
X110222143Y44225000D01*
X110150715Y44367857D01*
X110079286Y44439286D01*
X109936429Y44510714D01*
X109650715Y44582143D01*
X109507857Y44653571D01*
X109436429Y44725000D01*
X109365000Y44867857D01*
X109365000Y45010714D01*
X109436429Y45153571D01*
X109507857Y45225000D01*
X109650715Y45296429D01*
X110007857Y45296429D01*
X110222143Y45225000D01*
X111079286Y43796429D02*
X110936428Y43867857D01*
X110865000Y43939286D01*
X110793571Y44082143D01*
X110793571Y44510714D01*
X110865000Y44653571D01*
X110936428Y44725000D01*
X111079286Y44796429D01*
X111293571Y44796429D01*
X111436428Y44725000D01*
X111507857Y44653571D01*
X111579286Y44510714D01*
X111579286Y44082143D01*
X111507857Y43939286D01*
X111436428Y43867857D01*
X111293571Y43796429D01*
X111079286Y43796429D01*
X112436429Y43796429D02*
X112293571Y43867857D01*
X112222143Y44010714D01*
X112222143Y45296429D01*
X113650714Y43796429D02*
X113650714Y45296429D01*
X113650714Y43867857D02*
X113507857Y43796429D01*
X113222143Y43796429D01*
X113079285Y43867857D01*
X113007857Y43939286D01*
X112936428Y44082143D01*
X112936428Y44510714D01*
X113007857Y44653571D01*
X113079285Y44725000D01*
X113222143Y44796429D01*
X113507857Y44796429D01*
X113650714Y44725000D01*
X114936428Y43867857D02*
X114793571Y43796429D01*
X114507857Y43796429D01*
X114365000Y43867857D01*
X114293571Y44010714D01*
X114293571Y44582143D01*
X114365000Y44725000D01*
X114507857Y44796429D01*
X114793571Y44796429D01*
X114936428Y44725000D01*
X115007857Y44582143D01*
X115007857Y44439286D01*
X114293571Y44296429D01*
X115650714Y43796429D02*
X115650714Y44796429D01*
X115650714Y44510714D02*
X115722142Y44653571D01*
X115793571Y44725000D01*
X115936428Y44796429D01*
X116079285Y44796429D01*
X118579285Y43796429D02*
X118079285Y44510714D01*
X117722142Y43796429D02*
X117722142Y45296429D01*
X118293570Y45296429D01*
X118436428Y45225000D01*
X118507856Y45153571D01*
X118579285Y45010714D01*
X118579285Y44796429D01*
X118507856Y44653571D01*
X118436428Y44582143D01*
X118293570Y44510714D01*
X117722142Y44510714D01*
X119793570Y43867857D02*
X119650713Y43796429D01*
X119364999Y43796429D01*
X119222142Y43867857D01*
X119150713Y44010714D01*
X119150713Y44582143D01*
X119222142Y44725000D01*
X119364999Y44796429D01*
X119650713Y44796429D01*
X119793570Y44725000D01*
X119864999Y44582143D01*
X119864999Y44439286D01*
X119150713Y44296429D01*
X120436427Y43867857D02*
X120579284Y43796429D01*
X120864999Y43796429D01*
X121007856Y43867857D01*
X121079284Y44010714D01*
X121079284Y44082143D01*
X121007856Y44225000D01*
X120864999Y44296429D01*
X120650713Y44296429D01*
X120507856Y44367857D01*
X120436427Y44510714D01*
X120436427Y44582143D01*
X120507856Y44725000D01*
X120650713Y44796429D01*
X120864999Y44796429D01*
X121007856Y44725000D01*
X121722142Y43796429D02*
X121722142Y44796429D01*
X121722142Y45296429D02*
X121650713Y45225000D01*
X121722142Y45153571D01*
X121793570Y45225000D01*
X121722142Y45296429D01*
X121722142Y45153571D01*
X122364999Y43867857D02*
X122507856Y43796429D01*
X122793571Y43796429D01*
X122936428Y43867857D01*
X123007856Y44010714D01*
X123007856Y44082143D01*
X122936428Y44225000D01*
X122793571Y44296429D01*
X122579285Y44296429D01*
X122436428Y44367857D01*
X122364999Y44510714D01*
X122364999Y44582143D01*
X122436428Y44725000D01*
X122579285Y44796429D01*
X122793571Y44796429D01*
X122936428Y44725000D01*
X123436428Y44796429D02*
X124007857Y44796429D01*
X123650714Y45296429D02*
X123650714Y44010714D01*
X123722142Y43867857D01*
X123865000Y43796429D01*
X124007857Y43796429D01*
X126723572Y43796429D02*
X125866429Y43796429D01*
X126295001Y43796429D02*
X126295001Y45296429D01*
X126152144Y45082143D01*
X126009286Y44939286D01*
X125866429Y44867857D01*
X127366429Y43796429D02*
X127366429Y44796429D01*
X127366429Y44653571D02*
X127437857Y44725000D01*
X127580715Y44796429D01*
X127795000Y44796429D01*
X127937857Y44725000D01*
X128009286Y44582143D01*
X128009286Y43796429D01*
X128009286Y44582143D02*
X128080715Y44725000D01*
X128223572Y44796429D01*
X128437857Y44796429D01*
X128580715Y44725000D01*
X128652143Y44582143D01*
X128652143Y43796429D01*
X129366429Y43796429D02*
X129366429Y44796429D01*
X129366429Y45296429D02*
X129295000Y45225000D01*
X129366429Y45153571D01*
X129437857Y45225000D01*
X129366429Y45296429D01*
X129366429Y45153571D01*
X130295001Y43796429D02*
X130152143Y43867857D01*
X130080715Y44010714D01*
X130080715Y45296429D01*
X138867143Y44367857D02*
X140010000Y44367857D01*
X139438571Y43796429D02*
X139438571Y44939286D01*
X141795714Y45367857D02*
X140510000Y43439286D01*
X142295715Y44367857D02*
X143438572Y44367857D01*
X145581429Y45296429D02*
X145724286Y45296429D01*
X145867143Y45225000D01*
X145938572Y45153571D01*
X146010001Y45010714D01*
X146081429Y44725000D01*
X146081429Y44367857D01*
X146010001Y44082143D01*
X145938572Y43939286D01*
X145867143Y43867857D01*
X145724286Y43796429D01*
X145581429Y43796429D01*
X145438572Y43867857D01*
X145367143Y43939286D01*
X145295715Y44082143D01*
X145224286Y44367857D01*
X145224286Y44725000D01*
X145295715Y45010714D01*
X145367143Y45153571D01*
X145438572Y45225000D01*
X145581429Y45296429D01*
X146724286Y43939286D02*
X146795714Y43867857D01*
X146724286Y43796429D01*
X146652857Y43867857D01*
X146724286Y43939286D01*
X146724286Y43796429D01*
X147367143Y45153571D02*
X147438572Y45225000D01*
X147581429Y45296429D01*
X147938572Y45296429D01*
X148081429Y45225000D01*
X148152858Y45153571D01*
X148224286Y45010714D01*
X148224286Y44867857D01*
X148152858Y44653571D01*
X147295715Y43796429D01*
X148224286Y43796429D01*
X148867143Y43796429D02*
X148867143Y44796429D01*
X148867143Y44653571D02*
X148938571Y44725000D01*
X149081429Y44796429D01*
X149295714Y44796429D01*
X149438571Y44725000D01*
X149510000Y44582143D01*
X149510000Y43796429D01*
X149510000Y44582143D02*
X149581429Y44725000D01*
X149724286Y44796429D01*
X149938571Y44796429D01*
X150081429Y44725000D01*
X150152857Y44582143D01*
X150152857Y43796429D01*
X150867143Y43796429D02*
X150867143Y44796429D01*
X150867143Y45296429D02*
X150795714Y45225000D01*
X150867143Y45153571D01*
X150938571Y45225000D01*
X150867143Y45296429D01*
X150867143Y45153571D01*
X151795715Y43796429D02*
X151652857Y43867857D01*
X151581429Y44010714D01*
X151581429Y45296429D01*
X110216429Y41296429D02*
X109359286Y41296429D01*
X109787858Y41296429D02*
X109787858Y42796429D01*
X109645001Y42582143D01*
X109502143Y42439286D01*
X109359286Y42367857D01*
X111073572Y41296429D02*
X110930714Y41367857D01*
X110859286Y41439286D01*
X110787857Y41582143D01*
X110787857Y42010714D01*
X110859286Y42153571D01*
X110930714Y42225000D01*
X111073572Y42296429D01*
X111287857Y42296429D01*
X111430714Y42225000D01*
X111502143Y42153571D01*
X111573572Y42010714D01*
X111573572Y41582143D01*
X111502143Y41439286D01*
X111430714Y41367857D01*
X111287857Y41296429D01*
X111073572Y41296429D01*
X112073572Y42296429D02*
X112859286Y42296429D01*
X112073572Y41296429D01*
X112859286Y41296429D01*
X113430715Y41439286D02*
X113502143Y41367857D01*
X113430715Y41296429D01*
X113359286Y41367857D01*
X113430715Y41439286D01*
X113430715Y41296429D01*
X116145001Y41439286D02*
X116073572Y41367857D01*
X115859286Y41296429D01*
X115716429Y41296429D01*
X115502144Y41367857D01*
X115359286Y41510714D01*
X115287858Y41653571D01*
X115216429Y41939286D01*
X115216429Y42153571D01*
X115287858Y42439286D01*
X115359286Y42582143D01*
X115502144Y42725000D01*
X115716429Y42796429D01*
X115859286Y42796429D01*
X116073572Y42725000D01*
X116145001Y42653571D01*
X117002144Y41296429D02*
X116859286Y41367857D01*
X116787858Y41439286D01*
X116716429Y41582143D01*
X116716429Y42010714D01*
X116787858Y42153571D01*
X116859286Y42225000D01*
X117002144Y42296429D01*
X117216429Y42296429D01*
X117359286Y42225000D01*
X117430715Y42153571D01*
X117502144Y42010714D01*
X117502144Y41582143D01*
X117430715Y41439286D01*
X117359286Y41367857D01*
X117216429Y41296429D01*
X117002144Y41296429D01*
X118145001Y42296429D02*
X118145001Y40796429D01*
X118145001Y42225000D02*
X118287858Y42296429D01*
X118573572Y42296429D01*
X118716429Y42225000D01*
X118787858Y42153571D01*
X118859287Y42010714D01*
X118859287Y41582143D01*
X118787858Y41439286D01*
X118716429Y41367857D01*
X118573572Y41296429D01*
X118287858Y41296429D01*
X118145001Y41367857D01*
X119502144Y42296429D02*
X119502144Y40796429D01*
X119502144Y42225000D02*
X119645001Y42296429D01*
X119930715Y42296429D01*
X120073572Y42225000D01*
X120145001Y42153571D01*
X120216430Y42010714D01*
X120216430Y41582143D01*
X120145001Y41439286D01*
X120073572Y41367857D01*
X119930715Y41296429D01*
X119645001Y41296429D01*
X119502144Y41367857D01*
X121430715Y41367857D02*
X121287858Y41296429D01*
X121002144Y41296429D01*
X120859287Y41367857D01*
X120787858Y41510714D01*
X120787858Y42082143D01*
X120859287Y42225000D01*
X121002144Y42296429D01*
X121287858Y42296429D01*
X121430715Y42225000D01*
X121502144Y42082143D01*
X121502144Y41939286D01*
X120787858Y41796429D01*
X122145001Y41296429D02*
X122145001Y42296429D01*
X122145001Y42010714D02*
X122216429Y42153571D01*
X122287858Y42225000D01*
X122430715Y42296429D01*
X122573572Y42296429D01*
X126722858Y41296429D02*
X125865715Y41296429D01*
X126294287Y41296429D02*
X126294287Y42796429D01*
X126151430Y42582143D01*
X126008572Y42439286D01*
X125865715Y42367857D01*
X127365715Y41439286D02*
X127437143Y41367857D01*
X127365715Y41296429D01*
X127294286Y41367857D01*
X127365715Y41439286D01*
X127365715Y41296429D01*
X127937144Y42796429D02*
X128865715Y42796429D01*
X128365715Y42225000D01*
X128580001Y42225000D01*
X128722858Y42153571D01*
X128794287Y42082143D01*
X128865715Y41939286D01*
X128865715Y41582143D01*
X128794287Y41439286D01*
X128722858Y41367857D01*
X128580001Y41296429D01*
X128151429Y41296429D01*
X128008572Y41367857D01*
X127937144Y41439286D01*
X130222858Y42796429D02*
X129508572Y42796429D01*
X129437143Y42082143D01*
X129508572Y42153571D01*
X129651429Y42225000D01*
X130008572Y42225000D01*
X130151429Y42153571D01*
X130222858Y42082143D01*
X130294286Y41939286D01*
X130294286Y41582143D01*
X130222858Y41439286D01*
X130151429Y41367857D01*
X130008572Y41296429D01*
X129651429Y41296429D01*
X129508572Y41367857D01*
X129437143Y41439286D01*
X130937143Y41296429D02*
X130937143Y42296429D01*
X130937143Y42153571D02*
X131008571Y42225000D01*
X131151429Y42296429D01*
X131365714Y42296429D01*
X131508571Y42225000D01*
X131580000Y42082143D01*
X131580000Y41296429D01*
X131580000Y42082143D02*
X131651429Y42225000D01*
X131794286Y42296429D01*
X132008571Y42296429D01*
X132151429Y42225000D01*
X132222857Y42082143D01*
X132222857Y41296429D01*
X132937143Y41296429D02*
X132937143Y42296429D01*
X132937143Y42796429D02*
X132865714Y42725000D01*
X132937143Y42653571D01*
X133008571Y42725000D01*
X132937143Y42796429D01*
X132937143Y42653571D01*
X133865715Y41296429D02*
X133722857Y41367857D01*
X133651429Y41510714D01*
X133651429Y42796429D01*
X138868572Y41867857D02*
X140011429Y41867857D01*
X139440000Y41296429D02*
X139440000Y42439286D01*
X141797143Y42867857D02*
X140511429Y40939286D01*
X142297144Y41867857D02*
X143440001Y41867857D01*
X145582858Y42796429D02*
X145725715Y42796429D01*
X145868572Y42725000D01*
X145940001Y42653571D01*
X146011430Y42510714D01*
X146082858Y42225000D01*
X146082858Y41867857D01*
X146011430Y41582143D01*
X145940001Y41439286D01*
X145868572Y41367857D01*
X145725715Y41296429D01*
X145582858Y41296429D01*
X145440001Y41367857D01*
X145368572Y41439286D01*
X145297144Y41582143D01*
X145225715Y41867857D01*
X145225715Y42225000D01*
X145297144Y42510714D01*
X145368572Y42653571D01*
X145440001Y42725000D01*
X145582858Y42796429D01*
X146725715Y41439286D02*
X146797143Y41367857D01*
X146725715Y41296429D01*
X146654286Y41367857D01*
X146725715Y41439286D01*
X146725715Y41296429D01*
X148225715Y41296429D02*
X147368572Y41296429D01*
X147797144Y41296429D02*
X147797144Y42796429D01*
X147654287Y42582143D01*
X147511429Y42439286D01*
X147368572Y42367857D01*
X148725715Y42796429D02*
X149654286Y42796429D01*
X149154286Y42225000D01*
X149368572Y42225000D01*
X149511429Y42153571D01*
X149582858Y42082143D01*
X149654286Y41939286D01*
X149654286Y41582143D01*
X149582858Y41439286D01*
X149511429Y41367857D01*
X149368572Y41296429D01*
X148940000Y41296429D01*
X148797143Y41367857D01*
X148725715Y41439286D01*
X151011429Y42796429D02*
X150297143Y42796429D01*
X150225714Y42082143D01*
X150297143Y42153571D01*
X150440000Y42225000D01*
X150797143Y42225000D01*
X150940000Y42153571D01*
X151011429Y42082143D01*
X151082857Y41939286D01*
X151082857Y41582143D01*
X151011429Y41439286D01*
X150940000Y41367857D01*
X150797143Y41296429D01*
X150440000Y41296429D01*
X150297143Y41367857D01*
X150225714Y41439286D01*
X151725714Y41296429D02*
X151725714Y42296429D01*
X151725714Y42153571D02*
X151797142Y42225000D01*
X151940000Y42296429D01*
X152154285Y42296429D01*
X152297142Y42225000D01*
X152368571Y42082143D01*
X152368571Y41296429D01*
X152368571Y42082143D02*
X152440000Y42225000D01*
X152582857Y42296429D01*
X152797142Y42296429D01*
X152940000Y42225000D01*
X153011428Y42082143D01*
X153011428Y41296429D01*
X153725714Y41296429D02*
X153725714Y42296429D01*
X153725714Y42796429D02*
X153654285Y42725000D01*
X153725714Y42653571D01*
X153797142Y42725000D01*
X153725714Y42796429D01*
X153725714Y42653571D01*
X154654286Y41296429D02*
X154511428Y41367857D01*
X154440000Y41510714D01*
X154440000Y42796429D01*
X109865716Y39582143D02*
X109365716Y39582143D01*
X109365716Y38796429D02*
X109365716Y40296429D01*
X110080002Y40296429D01*
X111508573Y38796429D02*
X111008573Y39510714D01*
X110651430Y38796429D02*
X110651430Y40296429D01*
X111222858Y40296429D01*
X111365716Y40225000D01*
X111437144Y40153571D01*
X111508573Y40010714D01*
X111508573Y39796429D01*
X111437144Y39653571D01*
X111365716Y39582143D01*
X111222858Y39510714D01*
X110651430Y39510714D01*
X112151430Y39367857D02*
X113294287Y39367857D01*
X114651430Y39796429D02*
X114651430Y38796429D01*
X114294287Y40367857D02*
X113937144Y39296429D01*
X114865716Y39296429D01*
X116365715Y40296429D02*
X117222858Y40296429D01*
X116794287Y38796429D02*
X116794287Y40296429D01*
X118508572Y40225000D02*
X118365715Y40296429D01*
X118151429Y40296429D01*
X117937144Y40225000D01*
X117794286Y40082143D01*
X117722858Y39939286D01*
X117651429Y39653571D01*
X117651429Y39439286D01*
X117722858Y39153571D01*
X117794286Y39010714D01*
X117937144Y38867857D01*
X118151429Y38796429D01*
X118294286Y38796429D01*
X118508572Y38867857D01*
X118580001Y38939286D01*
X118580001Y39439286D01*
X118294286Y39439286D01*
X120008572Y38796429D02*
X119151429Y38796429D01*
X119580001Y38796429D02*
X119580001Y40296429D01*
X119437144Y40082143D01*
X119294286Y39939286D01*
X119151429Y39867857D01*
X120508572Y40296429D02*
X121437143Y40296429D01*
X120937143Y39725000D01*
X121151429Y39725000D01*
X121294286Y39653571D01*
X121365715Y39582143D01*
X121437143Y39439286D01*
X121437143Y39082143D01*
X121365715Y38939286D01*
X121294286Y38867857D01*
X121151429Y38796429D01*
X120722857Y38796429D01*
X120580000Y38867857D01*
X120508572Y38939286D01*
X122365714Y40296429D02*
X122508571Y40296429D01*
X122651428Y40225000D01*
X122722857Y40153571D01*
X122794286Y40010714D01*
X122865714Y39725000D01*
X122865714Y39367857D01*
X122794286Y39082143D01*
X122722857Y38939286D01*
X122651428Y38867857D01*
X122508571Y38796429D01*
X122365714Y38796429D01*
X122222857Y38867857D01*
X122151428Y38939286D01*
X122080000Y39082143D01*
X122008571Y39367857D01*
X122008571Y39725000D01*
X122080000Y40010714D01*
X122151428Y40153571D01*
X122222857Y40225000D01*
X122365714Y40296429D01*
X126581429Y40296429D02*
X126295715Y40296429D01*
X126152858Y40225000D01*
X126081429Y40153571D01*
X125938572Y39939286D01*
X125867143Y39653571D01*
X125867143Y39082143D01*
X125938572Y38939286D01*
X126010000Y38867857D01*
X126152858Y38796429D01*
X126438572Y38796429D01*
X126581429Y38867857D01*
X126652858Y38939286D01*
X126724286Y39082143D01*
X126724286Y39439286D01*
X126652858Y39582143D01*
X126581429Y39653571D01*
X126438572Y39725000D01*
X126152858Y39725000D01*
X126010000Y39653571D01*
X125938572Y39582143D01*
X125867143Y39439286D01*
X127652857Y40296429D02*
X127795714Y40296429D01*
X127938571Y40225000D01*
X128010000Y40153571D01*
X128081429Y40010714D01*
X128152857Y39725000D01*
X128152857Y39367857D01*
X128081429Y39082143D01*
X128010000Y38939286D01*
X127938571Y38867857D01*
X127795714Y38796429D01*
X127652857Y38796429D01*
X127510000Y38867857D01*
X127438571Y38939286D01*
X127367143Y39082143D01*
X127295714Y39367857D01*
X127295714Y39725000D01*
X127367143Y40010714D01*
X127438571Y40153571D01*
X127510000Y40225000D01*
X127652857Y40296429D01*
X128795714Y38796429D02*
X128795714Y39796429D01*
X128795714Y39653571D02*
X128867142Y39725000D01*
X129010000Y39796429D01*
X129224285Y39796429D01*
X129367142Y39725000D01*
X129438571Y39582143D01*
X129438571Y38796429D01*
X129438571Y39582143D02*
X129510000Y39725000D01*
X129652857Y39796429D01*
X129867142Y39796429D01*
X130010000Y39725000D01*
X130081428Y39582143D01*
X130081428Y38796429D01*
X130795714Y38796429D02*
X130795714Y39796429D01*
X130795714Y40296429D02*
X130724285Y40225000D01*
X130795714Y40153571D01*
X130867142Y40225000D01*
X130795714Y40296429D01*
X130795714Y40153571D01*
X131724286Y38796429D02*
X131581428Y38867857D01*
X131510000Y39010714D01*
X131510000Y40296429D01*
X138868572Y39367857D02*
X140011429Y39367857D01*
X139440000Y38796429D02*
X139440000Y39939286D01*
X141797143Y40367857D02*
X140511429Y38439286D01*
X142297144Y39367857D02*
X143440001Y39367857D01*
X145940001Y40296429D02*
X145654287Y40296429D01*
X145511430Y40225000D01*
X145440001Y40153571D01*
X145297144Y39939286D01*
X145225715Y39653571D01*
X145225715Y39082143D01*
X145297144Y38939286D01*
X145368572Y38867857D01*
X145511430Y38796429D01*
X145797144Y38796429D01*
X145940001Y38867857D01*
X146011430Y38939286D01*
X146082858Y39082143D01*
X146082858Y39439286D01*
X146011430Y39582143D01*
X145940001Y39653571D01*
X145797144Y39725000D01*
X145511430Y39725000D01*
X145368572Y39653571D01*
X145297144Y39582143D01*
X145225715Y39439286D01*
X146725715Y38796429D02*
X146725715Y39796429D01*
X146725715Y39653571D02*
X146797143Y39725000D01*
X146940001Y39796429D01*
X147154286Y39796429D01*
X147297143Y39725000D01*
X147368572Y39582143D01*
X147368572Y38796429D01*
X147368572Y39582143D02*
X147440001Y39725000D01*
X147582858Y39796429D01*
X147797143Y39796429D01*
X147940001Y39725000D01*
X148011429Y39582143D01*
X148011429Y38796429D01*
X148725715Y38796429D02*
X148725715Y39796429D01*
X148725715Y40296429D02*
X148654286Y40225000D01*
X148725715Y40153571D01*
X148797143Y40225000D01*
X148725715Y40296429D01*
X148725715Y40153571D01*
X149654287Y38796429D02*
X149511429Y38867857D01*
X149440001Y39010714D01*
X149440001Y40296429D01*
X91382143Y37082143D02*
X91596429Y37010714D01*
X91667857Y36939286D01*
X91739286Y36796429D01*
X91739286Y36582143D01*
X91667857Y36439286D01*
X91596429Y36367857D01*
X91453571Y36296429D01*
X90882143Y36296429D01*
X90882143Y37796429D01*
X91382143Y37796429D01*
X91525000Y37725000D01*
X91596429Y37653571D01*
X91667857Y37510714D01*
X91667857Y37367857D01*
X91596429Y37225000D01*
X91525000Y37153571D01*
X91382143Y37082143D01*
X90882143Y37082143D01*
X92596429Y36296429D02*
X92453571Y36367857D01*
X92382143Y36439286D01*
X92310714Y36582143D01*
X92310714Y37010714D01*
X92382143Y37153571D01*
X92453571Y37225000D01*
X92596429Y37296429D01*
X92810714Y37296429D01*
X92953571Y37225000D01*
X93025000Y37153571D01*
X93096429Y37010714D01*
X93096429Y36582143D01*
X93025000Y36439286D01*
X92953571Y36367857D01*
X92810714Y36296429D01*
X92596429Y36296429D01*
X93525000Y37296429D02*
X94096429Y37296429D01*
X93739286Y37796429D02*
X93739286Y36510714D01*
X93810714Y36367857D01*
X93953572Y36296429D01*
X94096429Y36296429D01*
X94382143Y37296429D02*
X94953572Y37296429D01*
X94596429Y37796429D02*
X94596429Y36510714D01*
X94667857Y36367857D01*
X94810715Y36296429D01*
X94953572Y36296429D01*
X95667858Y36296429D02*
X95525000Y36367857D01*
X95453572Y36439286D01*
X95382143Y36582143D01*
X95382143Y37010714D01*
X95453572Y37153571D01*
X95525000Y37225000D01*
X95667858Y37296429D01*
X95882143Y37296429D01*
X96025000Y37225000D01*
X96096429Y37153571D01*
X96167858Y37010714D01*
X96167858Y36582143D01*
X96096429Y36439286D01*
X96025000Y36367857D01*
X95882143Y36296429D01*
X95667858Y36296429D01*
X96810715Y36296429D02*
X96810715Y37296429D01*
X96810715Y37153571D02*
X96882143Y37225000D01*
X97025001Y37296429D01*
X97239286Y37296429D01*
X97382143Y37225000D01*
X97453572Y37082143D01*
X97453572Y36296429D01*
X97453572Y37082143D02*
X97525001Y37225000D01*
X97667858Y37296429D01*
X97882143Y37296429D01*
X98025001Y37225000D01*
X98096429Y37082143D01*
X98096429Y36296429D01*
X100667858Y36296429D02*
X99953572Y36296429D01*
X99953572Y37796429D01*
X101810715Y36296429D02*
X101810715Y37082143D01*
X101739286Y37225000D01*
X101596429Y37296429D01*
X101310715Y37296429D01*
X101167858Y37225000D01*
X101810715Y36367857D02*
X101667858Y36296429D01*
X101310715Y36296429D01*
X101167858Y36367857D01*
X101096429Y36510714D01*
X101096429Y36653571D01*
X101167858Y36796429D01*
X101310715Y36867857D01*
X101667858Y36867857D01*
X101810715Y36939286D01*
X102382144Y37296429D02*
X102739287Y36296429D01*
X103096429Y37296429D02*
X102739287Y36296429D01*
X102596429Y35939286D01*
X102525001Y35867857D01*
X102382144Y35796429D01*
X104239286Y36367857D02*
X104096429Y36296429D01*
X103810715Y36296429D01*
X103667858Y36367857D01*
X103596429Y36510714D01*
X103596429Y37082143D01*
X103667858Y37225000D01*
X103810715Y37296429D01*
X104096429Y37296429D01*
X104239286Y37225000D01*
X104310715Y37082143D01*
X104310715Y36939286D01*
X103596429Y36796429D01*
X104953572Y36296429D02*
X104953572Y37296429D01*
X104953572Y37010714D02*
X105025000Y37153571D01*
X105096429Y37225000D01*
X105239286Y37296429D01*
X105382143Y37296429D01*
X126722858Y36296429D02*
X125865715Y36296429D01*
X126294287Y36296429D02*
X126294287Y37796429D01*
X126151430Y37582143D01*
X126008572Y37439286D01*
X125865715Y37367857D01*
X127365715Y36439286D02*
X127437143Y36367857D01*
X127365715Y36296429D01*
X127294286Y36367857D01*
X127365715Y36439286D01*
X127365715Y36296429D01*
X127937144Y37796429D02*
X128865715Y37796429D01*
X128365715Y37225000D01*
X128580001Y37225000D01*
X128722858Y37153571D01*
X128794287Y37082143D01*
X128865715Y36939286D01*
X128865715Y36582143D01*
X128794287Y36439286D01*
X128722858Y36367857D01*
X128580001Y36296429D01*
X128151429Y36296429D01*
X128008572Y36367857D01*
X127937144Y36439286D01*
X130222858Y37796429D02*
X129508572Y37796429D01*
X129437143Y37082143D01*
X129508572Y37153571D01*
X129651429Y37225000D01*
X130008572Y37225000D01*
X130151429Y37153571D01*
X130222858Y37082143D01*
X130294286Y36939286D01*
X130294286Y36582143D01*
X130222858Y36439286D01*
X130151429Y36367857D01*
X130008572Y36296429D01*
X129651429Y36296429D01*
X129508572Y36367857D01*
X129437143Y36439286D01*
X130937143Y36296429D02*
X130937143Y37296429D01*
X130937143Y37153571D02*
X131008571Y37225000D01*
X131151429Y37296429D01*
X131365714Y37296429D01*
X131508571Y37225000D01*
X131580000Y37082143D01*
X131580000Y36296429D01*
X131580000Y37082143D02*
X131651429Y37225000D01*
X131794286Y37296429D01*
X132008571Y37296429D01*
X132151429Y37225000D01*
X132222857Y37082143D01*
X132222857Y36296429D01*
X132937143Y36296429D02*
X132937143Y37296429D01*
X132937143Y37796429D02*
X132865714Y37725000D01*
X132937143Y37653571D01*
X133008571Y37725000D01*
X132937143Y37796429D01*
X132937143Y37653571D01*
X133865715Y36296429D02*
X133722857Y36367857D01*
X133651429Y36510714D01*
X133651429Y37796429D01*
X138868572Y36867857D02*
X140011429Y36867857D01*
X139440000Y36296429D02*
X139440000Y37439286D01*
X141797143Y37867857D02*
X140511429Y35939286D01*
X142297144Y36867857D02*
X143440001Y36867857D01*
X145582858Y37796429D02*
X145725715Y37796429D01*
X145868572Y37725000D01*
X145940001Y37653571D01*
X146011430Y37510714D01*
X146082858Y37225000D01*
X146082858Y36867857D01*
X146011430Y36582143D01*
X145940001Y36439286D01*
X145868572Y36367857D01*
X145725715Y36296429D01*
X145582858Y36296429D01*
X145440001Y36367857D01*
X145368572Y36439286D01*
X145297144Y36582143D01*
X145225715Y36867857D01*
X145225715Y37225000D01*
X145297144Y37510714D01*
X145368572Y37653571D01*
X145440001Y37725000D01*
X145582858Y37796429D01*
X146725715Y36439286D02*
X146797143Y36367857D01*
X146725715Y36296429D01*
X146654286Y36367857D01*
X146725715Y36439286D01*
X146725715Y36296429D01*
X148225715Y36296429D02*
X147368572Y36296429D01*
X147797144Y36296429D02*
X147797144Y37796429D01*
X147654287Y37582143D01*
X147511429Y37439286D01*
X147368572Y37367857D01*
X148725715Y37796429D02*
X149654286Y37796429D01*
X149154286Y37225000D01*
X149368572Y37225000D01*
X149511429Y37153571D01*
X149582858Y37082143D01*
X149654286Y36939286D01*
X149654286Y36582143D01*
X149582858Y36439286D01*
X149511429Y36367857D01*
X149368572Y36296429D01*
X148940000Y36296429D01*
X148797143Y36367857D01*
X148725715Y36439286D01*
X151011429Y37796429D02*
X150297143Y37796429D01*
X150225714Y37082143D01*
X150297143Y37153571D01*
X150440000Y37225000D01*
X150797143Y37225000D01*
X150940000Y37153571D01*
X151011429Y37082143D01*
X151082857Y36939286D01*
X151082857Y36582143D01*
X151011429Y36439286D01*
X150940000Y36367857D01*
X150797143Y36296429D01*
X150440000Y36296429D01*
X150297143Y36367857D01*
X150225714Y36439286D01*
X151725714Y36296429D02*
X151725714Y37296429D01*
X151725714Y37153571D02*
X151797142Y37225000D01*
X151940000Y37296429D01*
X152154285Y37296429D01*
X152297142Y37225000D01*
X152368571Y37082143D01*
X152368571Y36296429D01*
X152368571Y37082143D02*
X152440000Y37225000D01*
X152582857Y37296429D01*
X152797142Y37296429D01*
X152940000Y37225000D01*
X153011428Y37082143D01*
X153011428Y36296429D01*
X153725714Y36296429D02*
X153725714Y37296429D01*
X153725714Y37796429D02*
X153654285Y37725000D01*
X153725714Y37653571D01*
X153797142Y37725000D01*
X153725714Y37796429D01*
X153725714Y37653571D01*
X154654286Y36296429D02*
X154511428Y36367857D01*
X154440000Y36510714D01*
X154440000Y37796429D01*
X109365000Y33867857D02*
X109579286Y33796429D01*
X109936429Y33796429D01*
X110079286Y33867857D01*
X110150715Y33939286D01*
X110222143Y34082143D01*
X110222143Y34225000D01*
X110150715Y34367857D01*
X110079286Y34439286D01*
X109936429Y34510714D01*
X109650715Y34582143D01*
X109507857Y34653571D01*
X109436429Y34725000D01*
X109365000Y34867857D01*
X109365000Y35010714D01*
X109436429Y35153571D01*
X109507857Y35225000D01*
X109650715Y35296429D01*
X110007857Y35296429D01*
X110222143Y35225000D01*
X111079286Y33796429D02*
X110936428Y33867857D01*
X110865000Y33939286D01*
X110793571Y34082143D01*
X110793571Y34510714D01*
X110865000Y34653571D01*
X110936428Y34725000D01*
X111079286Y34796429D01*
X111293571Y34796429D01*
X111436428Y34725000D01*
X111507857Y34653571D01*
X111579286Y34510714D01*
X111579286Y34082143D01*
X111507857Y33939286D01*
X111436428Y33867857D01*
X111293571Y33796429D01*
X111079286Y33796429D01*
X112436429Y33796429D02*
X112293571Y33867857D01*
X112222143Y34010714D01*
X112222143Y35296429D01*
X113650714Y33796429D02*
X113650714Y35296429D01*
X113650714Y33867857D02*
X113507857Y33796429D01*
X113222143Y33796429D01*
X113079285Y33867857D01*
X113007857Y33939286D01*
X112936428Y34082143D01*
X112936428Y34510714D01*
X113007857Y34653571D01*
X113079285Y34725000D01*
X113222143Y34796429D01*
X113507857Y34796429D01*
X113650714Y34725000D01*
X114936428Y33867857D02*
X114793571Y33796429D01*
X114507857Y33796429D01*
X114365000Y33867857D01*
X114293571Y34010714D01*
X114293571Y34582143D01*
X114365000Y34725000D01*
X114507857Y34796429D01*
X114793571Y34796429D01*
X114936428Y34725000D01*
X115007857Y34582143D01*
X115007857Y34439286D01*
X114293571Y34296429D01*
X115650714Y33796429D02*
X115650714Y34796429D01*
X115650714Y34510714D02*
X115722142Y34653571D01*
X115793571Y34725000D01*
X115936428Y34796429D01*
X116079285Y34796429D01*
X118579285Y33796429D02*
X118079285Y34510714D01*
X117722142Y33796429D02*
X117722142Y35296429D01*
X118293570Y35296429D01*
X118436428Y35225000D01*
X118507856Y35153571D01*
X118579285Y35010714D01*
X118579285Y34796429D01*
X118507856Y34653571D01*
X118436428Y34582143D01*
X118293570Y34510714D01*
X117722142Y34510714D01*
X119793570Y33867857D02*
X119650713Y33796429D01*
X119364999Y33796429D01*
X119222142Y33867857D01*
X119150713Y34010714D01*
X119150713Y34582143D01*
X119222142Y34725000D01*
X119364999Y34796429D01*
X119650713Y34796429D01*
X119793570Y34725000D01*
X119864999Y34582143D01*
X119864999Y34439286D01*
X119150713Y34296429D01*
X120436427Y33867857D02*
X120579284Y33796429D01*
X120864999Y33796429D01*
X121007856Y33867857D01*
X121079284Y34010714D01*
X121079284Y34082143D01*
X121007856Y34225000D01*
X120864999Y34296429D01*
X120650713Y34296429D01*
X120507856Y34367857D01*
X120436427Y34510714D01*
X120436427Y34582143D01*
X120507856Y34725000D01*
X120650713Y34796429D01*
X120864999Y34796429D01*
X121007856Y34725000D01*
X121722142Y33796429D02*
X121722142Y34796429D01*
X121722142Y35296429D02*
X121650713Y35225000D01*
X121722142Y35153571D01*
X121793570Y35225000D01*
X121722142Y35296429D01*
X121722142Y35153571D01*
X122364999Y33867857D02*
X122507856Y33796429D01*
X122793571Y33796429D01*
X122936428Y33867857D01*
X123007856Y34010714D01*
X123007856Y34082143D01*
X122936428Y34225000D01*
X122793571Y34296429D01*
X122579285Y34296429D01*
X122436428Y34367857D01*
X122364999Y34510714D01*
X122364999Y34582143D01*
X122436428Y34725000D01*
X122579285Y34796429D01*
X122793571Y34796429D01*
X122936428Y34725000D01*
X123436428Y34796429D02*
X124007857Y34796429D01*
X123650714Y35296429D02*
X123650714Y34010714D01*
X123722142Y33867857D01*
X123865000Y33796429D01*
X124007857Y33796429D01*
X126723572Y33796429D02*
X125866429Y33796429D01*
X126295001Y33796429D02*
X126295001Y35296429D01*
X126152144Y35082143D01*
X126009286Y34939286D01*
X125866429Y34867857D01*
X127366429Y33796429D02*
X127366429Y34796429D01*
X127366429Y34653571D02*
X127437857Y34725000D01*
X127580715Y34796429D01*
X127795000Y34796429D01*
X127937857Y34725000D01*
X128009286Y34582143D01*
X128009286Y33796429D01*
X128009286Y34582143D02*
X128080715Y34725000D01*
X128223572Y34796429D01*
X128437857Y34796429D01*
X128580715Y34725000D01*
X128652143Y34582143D01*
X128652143Y33796429D01*
X129366429Y33796429D02*
X129366429Y34796429D01*
X129366429Y35296429D02*
X129295000Y35225000D01*
X129366429Y35153571D01*
X129437857Y35225000D01*
X129366429Y35296429D01*
X129366429Y35153571D01*
X130295001Y33796429D02*
X130152143Y33867857D01*
X130080715Y34010714D01*
X130080715Y35296429D01*
X138867143Y34367857D02*
X140010000Y34367857D01*
X139438571Y33796429D02*
X139438571Y34939286D01*
X141795714Y35367857D02*
X140510000Y33439286D01*
X142295715Y34367857D02*
X143438572Y34367857D01*
X145581429Y35296429D02*
X145724286Y35296429D01*
X145867143Y35225000D01*
X145938572Y35153571D01*
X146010001Y35010714D01*
X146081429Y34725000D01*
X146081429Y34367857D01*
X146010001Y34082143D01*
X145938572Y33939286D01*
X145867143Y33867857D01*
X145724286Y33796429D01*
X145581429Y33796429D01*
X145438572Y33867857D01*
X145367143Y33939286D01*
X145295715Y34082143D01*
X145224286Y34367857D01*
X145224286Y34725000D01*
X145295715Y35010714D01*
X145367143Y35153571D01*
X145438572Y35225000D01*
X145581429Y35296429D01*
X146724286Y33939286D02*
X146795714Y33867857D01*
X146724286Y33796429D01*
X146652857Y33867857D01*
X146724286Y33939286D01*
X146724286Y33796429D01*
X147367143Y35153571D02*
X147438572Y35225000D01*
X147581429Y35296429D01*
X147938572Y35296429D01*
X148081429Y35225000D01*
X148152858Y35153571D01*
X148224286Y35010714D01*
X148224286Y34867857D01*
X148152858Y34653571D01*
X147295715Y33796429D01*
X148224286Y33796429D01*
X148867143Y33796429D02*
X148867143Y34796429D01*
X148867143Y34653571D02*
X148938571Y34725000D01*
X149081429Y34796429D01*
X149295714Y34796429D01*
X149438571Y34725000D01*
X149510000Y34582143D01*
X149510000Y33796429D01*
X149510000Y34582143D02*
X149581429Y34725000D01*
X149724286Y34796429D01*
X149938571Y34796429D01*
X150081429Y34725000D01*
X150152857Y34582143D01*
X150152857Y33796429D01*
X150867143Y33796429D02*
X150867143Y34796429D01*
X150867143Y35296429D02*
X150795714Y35225000D01*
X150867143Y35153571D01*
X150938571Y35225000D01*
X150867143Y35296429D01*
X150867143Y35153571D01*
X151795715Y33796429D02*
X151652857Y33867857D01*
X151581429Y34010714D01*
X151581429Y35296429D01*
X109363571Y32082143D02*
X109863571Y32082143D01*
X110077857Y31296429D02*
X109363571Y31296429D01*
X109363571Y32796429D01*
X110077857Y32796429D01*
X110720714Y32296429D02*
X110720714Y30796429D01*
X110720714Y32225000D02*
X110863571Y32296429D01*
X111149285Y32296429D01*
X111292142Y32225000D01*
X111363571Y32153571D01*
X111435000Y32010714D01*
X111435000Y31582143D01*
X111363571Y31439286D01*
X111292142Y31367857D01*
X111149285Y31296429D01*
X110863571Y31296429D01*
X110720714Y31367857D01*
X112292143Y31296429D02*
X112149285Y31367857D01*
X112077857Y31439286D01*
X112006428Y31582143D01*
X112006428Y32010714D01*
X112077857Y32153571D01*
X112149285Y32225000D01*
X112292143Y32296429D01*
X112506428Y32296429D01*
X112649285Y32225000D01*
X112720714Y32153571D01*
X112792143Y32010714D01*
X112792143Y31582143D01*
X112720714Y31439286D01*
X112649285Y31367857D01*
X112506428Y31296429D01*
X112292143Y31296429D01*
X113292143Y31296429D02*
X114077857Y32296429D01*
X113292143Y32296429D02*
X114077857Y31296429D01*
X114506429Y32296429D02*
X114863572Y31296429D01*
X115220714Y32296429D02*
X114863572Y31296429D01*
X114720714Y30939286D01*
X114649286Y30867857D01*
X114506429Y30796429D01*
X116935000Y31296429D02*
X116935000Y32796429D01*
X117649286Y32296429D02*
X117649286Y31296429D01*
X117649286Y32153571D02*
X117720714Y32225000D01*
X117863572Y32296429D01*
X118077857Y32296429D01*
X118220714Y32225000D01*
X118292143Y32082143D01*
X118292143Y31296429D01*
X119006429Y31296429D02*
X119006429Y32796429D01*
X119149286Y31867857D02*
X119577857Y31296429D01*
X119577857Y32296429D02*
X119006429Y31725000D01*
X109367144Y28796429D02*
X109367144Y30296429D01*
X109938572Y30296429D01*
X110081430Y30225000D01*
X110152858Y30153571D01*
X110224287Y30010714D01*
X110224287Y29796429D01*
X110152858Y29653571D01*
X110081430Y29582143D01*
X109938572Y29510714D01*
X109367144Y29510714D01*
X110867144Y28796429D02*
X110867144Y30296429D01*
X110867144Y29725000D02*
X111010001Y29796429D01*
X111295715Y29796429D01*
X111438572Y29725000D01*
X111510001Y29653571D01*
X111581430Y29510714D01*
X111581430Y29082143D01*
X111510001Y28939286D01*
X111438572Y28867857D01*
X111295715Y28796429D01*
X111010001Y28796429D01*
X110867144Y28867857D01*
X112224287Y29367857D02*
X113367144Y29367857D01*
X114581430Y29582143D02*
X114081430Y29582143D01*
X114081430Y28796429D02*
X114081430Y30296429D01*
X114795716Y30296429D01*
X115367144Y28796429D02*
X115367144Y29796429D01*
X115367144Y29510714D02*
X115438572Y29653571D01*
X115510001Y29725000D01*
X115652858Y29796429D01*
X115795715Y29796429D01*
X116867143Y28867857D02*
X116724286Y28796429D01*
X116438572Y28796429D01*
X116295715Y28867857D01*
X116224286Y29010714D01*
X116224286Y29582143D01*
X116295715Y29725000D01*
X116438572Y29796429D01*
X116724286Y29796429D01*
X116867143Y29725000D01*
X116938572Y29582143D01*
X116938572Y29439286D01*
X116224286Y29296429D01*
X118152857Y28867857D02*
X118010000Y28796429D01*
X117724286Y28796429D01*
X117581429Y28867857D01*
X117510000Y29010714D01*
X117510000Y29582143D01*
X117581429Y29725000D01*
X117724286Y29796429D01*
X118010000Y29796429D01*
X118152857Y29725000D01*
X118224286Y29582143D01*
X118224286Y29439286D01*
X117510000Y29296429D01*
D15*
X-97389282Y52796429D02*
X-98246425Y52796429D01*
X-97817853Y52796429D02*
X-97817853Y54296429D01*
X-97960710Y54082143D01*
X-98103568Y53939286D01*
X-98246425Y53867857D01*
X-96889282Y52225000D02*
X-96817854Y52296429D01*
X-96674997Y52510714D01*
X-96603568Y52653571D01*
X-96532139Y52867857D01*
X-96460711Y53225000D01*
X-96460711Y53510714D01*
X-96532139Y53867857D01*
X-96603568Y54082143D01*
X-96674997Y54225000D01*
X-96817854Y54439286D01*
X-96889282Y54510714D01*
X-94103568Y53582143D02*
X-94603568Y53582143D01*
X-94603568Y52796429D02*
X-94603568Y54296429D01*
X-93889282Y54296429D01*
X-92674997Y52796429D02*
X-92674997Y53582143D01*
X-92746426Y53725000D01*
X-92889283Y53796429D01*
X-93174997Y53796429D01*
X-93317854Y53725000D01*
X-92674997Y52867857D02*
X-92817854Y52796429D01*
X-93174997Y52796429D01*
X-93317854Y52867857D01*
X-93389283Y53010714D01*
X-93389283Y53153571D01*
X-93317854Y53296429D01*
X-93174997Y53367857D01*
X-92817854Y53367857D01*
X-92674997Y53439286D01*
X-91960711Y52796429D02*
X-91960711Y54296429D01*
X-91960711Y53725000D02*
X-91817854Y53796429D01*
X-91532140Y53796429D01*
X-91389283Y53725000D01*
X-91317854Y53653571D01*
X-91246425Y53510714D01*
X-91246425Y53082143D01*
X-91317854Y52939286D01*
X-91389283Y52867857D01*
X-91532140Y52796429D01*
X-91817854Y52796429D01*
X-91960711Y52867857D01*
X-90603568Y52796429D02*
X-90603568Y53796429D01*
X-90603568Y53510714D02*
X-90532140Y53653571D01*
X-90460711Y53725000D01*
X-90317854Y53796429D01*
X-90174997Y53796429D01*
X-89674997Y52796429D02*
X-89674997Y53796429D01*
X-89674997Y54296429D02*
X-89746426Y54225000D01*
X-89674997Y54153571D01*
X-89603569Y54225000D01*
X-89674997Y54296429D01*
X-89674997Y54153571D01*
X-88317854Y52867857D02*
X-88460711Y52796429D01*
X-88746425Y52796429D01*
X-88889283Y52867857D01*
X-88960711Y52939286D01*
X-89032140Y53082143D01*
X-89032140Y53510714D01*
X-88960711Y53653571D01*
X-88889283Y53725000D01*
X-88746425Y53796429D01*
X-88460711Y53796429D01*
X-88317854Y53725000D01*
X-87032140Y52796429D02*
X-87032140Y53582143D01*
X-87103569Y53725000D01*
X-87246426Y53796429D01*
X-87532140Y53796429D01*
X-87674997Y53725000D01*
X-87032140Y52867857D02*
X-87174997Y52796429D01*
X-87532140Y52796429D01*
X-87674997Y52867857D01*
X-87746426Y53010714D01*
X-87746426Y53153571D01*
X-87674997Y53296429D01*
X-87532140Y53367857D01*
X-87174997Y53367857D01*
X-87032140Y53439286D01*
X-86532140Y53796429D02*
X-85960711Y53796429D01*
X-86317854Y54296429D02*
X-86317854Y53010714D01*
X-86246426Y52867857D01*
X-86103568Y52796429D01*
X-85960711Y52796429D01*
X-84889283Y52867857D02*
X-85032140Y52796429D01*
X-85317854Y52796429D01*
X-85460711Y52867857D01*
X-85532140Y53010714D01*
X-85532140Y53582143D01*
X-85460711Y53725000D01*
X-85317854Y53796429D01*
X-85032140Y53796429D01*
X-84889283Y53725000D01*
X-84817854Y53582143D01*
X-84817854Y53439286D01*
X-85532140Y53296429D01*
X-83246426Y53796429D02*
X-82674997Y53796429D01*
X-83032140Y54296429D02*
X-83032140Y53010714D01*
X-82960712Y52867857D01*
X-82817854Y52796429D01*
X-82674997Y52796429D01*
X-81960711Y52796429D02*
X-82103569Y52867857D01*
X-82174997Y52939286D01*
X-82246426Y53082143D01*
X-82246426Y53510714D01*
X-82174997Y53653571D01*
X-82103569Y53725000D01*
X-81960711Y53796429D01*
X-81746426Y53796429D01*
X-81603569Y53725000D01*
X-81532140Y53653571D01*
X-81460711Y53510714D01*
X-81460711Y53082143D01*
X-81532140Y52939286D01*
X-81603569Y52867857D01*
X-81746426Y52796429D01*
X-81960711Y52796429D01*
X-79674997Y52796429D02*
X-79674997Y53796429D01*
X-79674997Y53653571D02*
X-79603569Y53725000D01*
X-79460711Y53796429D01*
X-79246426Y53796429D01*
X-79103569Y53725000D01*
X-79032140Y53582143D01*
X-79032140Y52796429D01*
X-79032140Y53582143D02*
X-78960711Y53725000D01*
X-78817854Y53796429D01*
X-78603569Y53796429D01*
X-78460711Y53725000D01*
X-78389283Y53582143D01*
X-78389283Y52796429D01*
X-77103569Y52867857D02*
X-77246426Y52796429D01*
X-77532140Y52796429D01*
X-77674997Y52867857D01*
X-77746426Y53010714D01*
X-77746426Y53582143D01*
X-77674997Y53725000D01*
X-77532140Y53796429D01*
X-77246426Y53796429D01*
X-77103569Y53725000D01*
X-77032140Y53582143D01*
X-77032140Y53439286D01*
X-77746426Y53296429D01*
X-75817855Y52867857D02*
X-75960712Y52796429D01*
X-76246426Y52796429D01*
X-76389283Y52867857D01*
X-76460712Y53010714D01*
X-76460712Y53582143D01*
X-76389283Y53725000D01*
X-76246426Y53796429D01*
X-75960712Y53796429D01*
X-75817855Y53725000D01*
X-75746426Y53582143D01*
X-75746426Y53439286D01*
X-76460712Y53296429D01*
X-75317855Y53796429D02*
X-74746426Y53796429D01*
X-75103569Y54296429D02*
X-75103569Y53010714D01*
X-75032141Y52867857D01*
X-74889283Y52796429D01*
X-74746426Y52796429D01*
X-72889283Y52796429D02*
X-73032141Y52867857D01*
X-73103569Y52939286D01*
X-73174998Y53082143D01*
X-73174998Y53510714D01*
X-73103569Y53653571D01*
X-73032141Y53725000D01*
X-72889283Y53796429D01*
X-72674998Y53796429D01*
X-72532141Y53725000D01*
X-72460712Y53653571D01*
X-72389283Y53510714D01*
X-72389283Y53082143D01*
X-72460712Y52939286D01*
X-72532141Y52867857D01*
X-72674998Y52796429D01*
X-72889283Y52796429D01*
X-71746426Y52796429D02*
X-71746426Y53796429D01*
X-71746426Y53510714D02*
X-71674998Y53653571D01*
X-71603569Y53725000D01*
X-71460712Y53796429D01*
X-71317855Y53796429D01*
X-69103570Y52867857D02*
X-69246427Y52796429D01*
X-69532141Y52796429D01*
X-69674998Y52867857D01*
X-69746427Y53010714D01*
X-69746427Y53582143D01*
X-69674998Y53725000D01*
X-69532141Y53796429D01*
X-69246427Y53796429D01*
X-69103570Y53725000D01*
X-69032141Y53582143D01*
X-69032141Y53439286D01*
X-69746427Y53296429D01*
X-68532141Y52796429D02*
X-67746427Y53796429D01*
X-68532141Y53796429D02*
X-67746427Y52796429D01*
X-66532141Y52867857D02*
X-66674998Y52796429D01*
X-66960712Y52796429D01*
X-67103570Y52867857D01*
X-67174998Y52939286D01*
X-67246427Y53082143D01*
X-67246427Y53510714D01*
X-67174998Y53653571D01*
X-67103570Y53725000D01*
X-66960712Y53796429D01*
X-66674998Y53796429D01*
X-66532141Y53725000D01*
X-65317856Y52867857D02*
X-65460713Y52796429D01*
X-65746427Y52796429D01*
X-65889284Y52867857D01*
X-65960713Y53010714D01*
X-65960713Y53582143D01*
X-65889284Y53725000D01*
X-65746427Y53796429D01*
X-65460713Y53796429D01*
X-65317856Y53725000D01*
X-65246427Y53582143D01*
X-65246427Y53439286D01*
X-65960713Y53296429D01*
X-64032142Y52867857D02*
X-64174999Y52796429D01*
X-64460713Y52796429D01*
X-64603570Y52867857D01*
X-64674999Y53010714D01*
X-64674999Y53582143D01*
X-64603570Y53725000D01*
X-64460713Y53796429D01*
X-64174999Y53796429D01*
X-64032142Y53725000D01*
X-63960713Y53582143D01*
X-63960713Y53439286D01*
X-64674999Y53296429D01*
X-62674999Y52796429D02*
X-62674999Y54296429D01*
X-62674999Y52867857D02*
X-62817856Y52796429D01*
X-63103570Y52796429D01*
X-63246428Y52867857D01*
X-63317856Y52939286D01*
X-63389285Y53082143D01*
X-63389285Y53510714D01*
X-63317856Y53653571D01*
X-63246428Y53725000D01*
X-63103570Y53796429D01*
X-62817856Y53796429D01*
X-62674999Y53725000D01*
X-60817856Y52796429D02*
X-60817856Y54296429D01*
X-60103570Y52796429D02*
X-60103570Y54296429D01*
X-59532142Y54296429D01*
X-59389284Y54225000D01*
X-59317856Y54153571D01*
X-59246427Y54010714D01*
X-59246427Y53796429D01*
X-59317856Y53653571D01*
X-59389284Y53582143D01*
X-59532142Y53510714D01*
X-60103570Y53510714D01*
X-57746427Y52939286D02*
X-57817856Y52867857D01*
X-58032142Y52796429D01*
X-58174999Y52796429D01*
X-58389284Y52867857D01*
X-58532142Y53010714D01*
X-58603570Y53153571D01*
X-58674999Y53439286D01*
X-58674999Y53653571D01*
X-58603570Y53939286D01*
X-58532142Y54082143D01*
X-58389284Y54225000D01*
X-58174999Y54296429D01*
X-58032142Y54296429D01*
X-57817856Y54225000D01*
X-57746427Y54153571D01*
X-55317856Y54296429D02*
X-55603570Y54296429D01*
X-55746427Y54225000D01*
X-55817856Y54153571D01*
X-55960713Y53939286D01*
X-56032142Y53653571D01*
X-56032142Y53082143D01*
X-55960713Y52939286D01*
X-55889285Y52867857D01*
X-55746427Y52796429D01*
X-55460713Y52796429D01*
X-55317856Y52867857D01*
X-55246427Y52939286D01*
X-55174999Y53082143D01*
X-55174999Y53439286D01*
X-55246427Y53582143D01*
X-55317856Y53653571D01*
X-55460713Y53725000D01*
X-55746427Y53725000D01*
X-55889285Y53653571D01*
X-55960713Y53582143D01*
X-56032142Y53439286D01*
X-54246428Y54296429D02*
X-54103571Y54296429D01*
X-53960714Y54225000D01*
X-53889285Y54153571D01*
X-53817856Y54010714D01*
X-53746428Y53725000D01*
X-53746428Y53367857D01*
X-53817856Y53082143D01*
X-53889285Y52939286D01*
X-53960714Y52867857D01*
X-54103571Y52796429D01*
X-54246428Y52796429D01*
X-54389285Y52867857D01*
X-54460714Y52939286D01*
X-54532142Y53082143D01*
X-54603571Y53367857D01*
X-54603571Y53725000D01*
X-54532142Y54010714D01*
X-54460714Y54153571D01*
X-54389285Y54225000D01*
X-54246428Y54296429D01*
X-52317857Y52796429D02*
X-53175000Y52796429D01*
X-52746428Y52796429D02*
X-52746428Y54296429D01*
X-52889285Y54082143D01*
X-53032143Y53939286D01*
X-53175000Y53867857D01*
X-50889286Y52796429D02*
X-51746429Y52796429D01*
X-51317857Y52796429D02*
X-51317857Y54296429D01*
X-51460714Y54082143D01*
X-51603572Y53939286D01*
X-51746429Y53867857D01*
X-49175001Y54367857D02*
X-50460715Y52439286D01*
X-48032143Y54296429D02*
X-48317857Y54296429D01*
X-48460714Y54225000D01*
X-48532143Y54153571D01*
X-48675000Y53939286D01*
X-48746429Y53653571D01*
X-48746429Y53082143D01*
X-48675000Y52939286D01*
X-48603572Y52867857D01*
X-48460714Y52796429D01*
X-48175000Y52796429D01*
X-48032143Y52867857D01*
X-47960714Y52939286D01*
X-47889286Y53082143D01*
X-47889286Y53439286D01*
X-47960714Y53582143D01*
X-48032143Y53653571D01*
X-48175000Y53725000D01*
X-48460714Y53725000D01*
X-48603572Y53653571D01*
X-48675000Y53582143D01*
X-48746429Y53439286D01*
X-46960715Y54296429D02*
X-46817858Y54296429D01*
X-46675001Y54225000D01*
X-46603572Y54153571D01*
X-46532143Y54010714D01*
X-46460715Y53725000D01*
X-46460715Y53367857D01*
X-46532143Y53082143D01*
X-46603572Y52939286D01*
X-46675001Y52867857D01*
X-46817858Y52796429D01*
X-46960715Y52796429D01*
X-47103572Y52867857D01*
X-47175001Y52939286D01*
X-47246429Y53082143D01*
X-47317858Y53367857D01*
X-47317858Y53725000D01*
X-47246429Y54010714D01*
X-47175001Y54153571D01*
X-47103572Y54225000D01*
X-46960715Y54296429D01*
X-45032144Y52796429D02*
X-45889287Y52796429D01*
X-45460715Y52796429D02*
X-45460715Y54296429D01*
X-45603572Y54082143D01*
X-45746430Y53939286D01*
X-45889287Y53867857D01*
X-44460716Y54153571D02*
X-44389287Y54225000D01*
X-44246430Y54296429D01*
X-43889287Y54296429D01*
X-43746430Y54225000D01*
X-43675001Y54153571D01*
X-43603573Y54010714D01*
X-43603573Y53867857D01*
X-43675001Y53653571D01*
X-44532144Y52796429D01*
X-43603573Y52796429D01*
X-40960716Y52939286D02*
X-41032145Y52867857D01*
X-41246431Y52796429D01*
X-41389288Y52796429D01*
X-41603573Y52867857D01*
X-41746431Y53010714D01*
X-41817859Y53153571D01*
X-41889288Y53439286D01*
X-41889288Y53653571D01*
X-41817859Y53939286D01*
X-41746431Y54082143D01*
X-41603573Y54225000D01*
X-41389288Y54296429D01*
X-41246431Y54296429D01*
X-41032145Y54225000D01*
X-40960716Y54153571D01*
X-40103573Y52796429D02*
X-40246431Y52867857D01*
X-40317859Y53010714D01*
X-40317859Y54296429D01*
X-38889288Y52796429D02*
X-38889288Y53582143D01*
X-38960717Y53725000D01*
X-39103574Y53796429D01*
X-39389288Y53796429D01*
X-39532145Y53725000D01*
X-38889288Y52867857D02*
X-39032145Y52796429D01*
X-39389288Y52796429D01*
X-39532145Y52867857D01*
X-39603574Y53010714D01*
X-39603574Y53153571D01*
X-39532145Y53296429D01*
X-39389288Y53367857D01*
X-39032145Y53367857D01*
X-38889288Y53439286D01*
X-38246431Y52867857D02*
X-38103574Y52796429D01*
X-37817859Y52796429D01*
X-37675002Y52867857D01*
X-37603574Y53010714D01*
X-37603574Y53082143D01*
X-37675002Y53225000D01*
X-37817859Y53296429D01*
X-38032145Y53296429D01*
X-38175002Y53367857D01*
X-38246431Y53510714D01*
X-38246431Y53582143D01*
X-38175002Y53725000D01*
X-38032145Y53796429D01*
X-37817859Y53796429D01*
X-37675002Y53725000D01*
X-37032145Y52867857D02*
X-36889288Y52796429D01*
X-36603573Y52796429D01*
X-36460716Y52867857D01*
X-36389288Y53010714D01*
X-36389288Y53082143D01*
X-36460716Y53225000D01*
X-36603573Y53296429D01*
X-36817859Y53296429D01*
X-36960716Y53367857D01*
X-37032145Y53510714D01*
X-37032145Y53582143D01*
X-36960716Y53725000D01*
X-36817859Y53796429D01*
X-36603573Y53796429D01*
X-36460716Y53725000D01*
X-34675002Y54153571D02*
X-34603573Y54225000D01*
X-34460716Y54296429D01*
X-34103573Y54296429D01*
X-33960716Y54225000D01*
X-33889287Y54153571D01*
X-33817859Y54010714D01*
X-33817859Y53867857D01*
X-33889287Y53653571D01*
X-34746430Y52796429D01*
X-33817859Y52796429D01*
X-33103574Y52867857D02*
X-33103574Y52796429D01*
X-33175002Y52653571D01*
X-33246431Y52582143D01*
X-30675002Y52796429D02*
X-30675002Y53582143D01*
X-30746431Y53725000D01*
X-30889288Y53796429D01*
X-31175002Y53796429D01*
X-31317859Y53725000D01*
X-30675002Y52867857D02*
X-30817859Y52796429D01*
X-31175002Y52796429D01*
X-31317859Y52867857D01*
X-31389288Y53010714D01*
X-31389288Y53153571D01*
X-31317859Y53296429D01*
X-31175002Y53367857D01*
X-30817859Y53367857D01*
X-30675002Y53439286D01*
X-30032145Y52867857D02*
X-29889288Y52796429D01*
X-29603573Y52796429D01*
X-29460716Y52867857D01*
X-29389288Y53010714D01*
X-29389288Y53082143D01*
X-29460716Y53225000D01*
X-29603573Y53296429D01*
X-29817859Y53296429D01*
X-29960716Y53367857D01*
X-30032145Y53510714D01*
X-30032145Y53582143D01*
X-29960716Y53725000D01*
X-29817859Y53796429D01*
X-29603573Y53796429D01*
X-29460716Y53725000D01*
X-26960716Y52796429D02*
X-26960716Y54296429D01*
X-26960716Y52867857D02*
X-27103573Y52796429D01*
X-27389287Y52796429D01*
X-27532145Y52867857D01*
X-27603573Y52939286D01*
X-27675002Y53082143D01*
X-27675002Y53510714D01*
X-27603573Y53653571D01*
X-27532145Y53725000D01*
X-27389287Y53796429D01*
X-27103573Y53796429D01*
X-26960716Y53725000D01*
X-25675002Y52867857D02*
X-25817859Y52796429D01*
X-26103573Y52796429D01*
X-26246430Y52867857D01*
X-26317859Y53010714D01*
X-26317859Y53582143D01*
X-26246430Y53725000D01*
X-26103573Y53796429D01*
X-25817859Y53796429D01*
X-25675002Y53725000D01*
X-25603573Y53582143D01*
X-25603573Y53439286D01*
X-26317859Y53296429D01*
X-25175002Y53796429D02*
X-24603573Y53796429D01*
X-24960716Y52796429D02*
X-24960716Y54082143D01*
X-24889288Y54225000D01*
X-24746430Y54296429D01*
X-24603573Y54296429D01*
X-24103573Y52796429D02*
X-24103573Y53796429D01*
X-24103573Y54296429D02*
X-24175002Y54225000D01*
X-24103573Y54153571D01*
X-24032145Y54225000D01*
X-24103573Y54296429D01*
X-24103573Y54153571D01*
X-23389287Y53796429D02*
X-23389287Y52796429D01*
X-23389287Y53653571D02*
X-23317859Y53725000D01*
X-23175001Y53796429D01*
X-22960716Y53796429D01*
X-22817859Y53725000D01*
X-22746430Y53582143D01*
X-22746430Y52796429D01*
X-21460716Y52867857D02*
X-21603573Y52796429D01*
X-21889287Y52796429D01*
X-22032144Y52867857D01*
X-22103573Y53010714D01*
X-22103573Y53582143D01*
X-22032144Y53725000D01*
X-21889287Y53796429D01*
X-21603573Y53796429D01*
X-21460716Y53725000D01*
X-21389287Y53582143D01*
X-21389287Y53439286D01*
X-22103573Y53296429D01*
X-20103573Y52796429D02*
X-20103573Y54296429D01*
X-20103573Y52867857D02*
X-20246430Y52796429D01*
X-20532144Y52796429D01*
X-20675002Y52867857D01*
X-20746430Y52939286D01*
X-20817859Y53082143D01*
X-20817859Y53510714D01*
X-20746430Y53653571D01*
X-20675002Y53725000D01*
X-20532144Y53796429D01*
X-20246430Y53796429D01*
X-20103573Y53725000D01*
X-18246430Y52796429D02*
X-18246430Y53796429D01*
X-18246430Y54296429D02*
X-18317859Y54225000D01*
X-18246430Y54153571D01*
X-18175002Y54225000D01*
X-18246430Y54296429D01*
X-18246430Y54153571D01*
X-17532144Y53796429D02*
X-17532144Y52796429D01*
X-17532144Y53653571D02*
X-17460716Y53725000D01*
X-17317858Y53796429D01*
X-17103573Y53796429D01*
X-16960716Y53725000D01*
X-16889287Y53582143D01*
X-16889287Y52796429D01*
X-15032144Y52796429D02*
X-15032144Y54296429D01*
X-14317858Y52796429D02*
X-14317858Y54296429D01*
X-13746430Y54296429D01*
X-13603572Y54225000D01*
X-13532144Y54153571D01*
X-13460715Y54010714D01*
X-13460715Y53796429D01*
X-13532144Y53653571D01*
X-13603572Y53582143D01*
X-13746430Y53510714D01*
X-14317858Y53510714D01*
X-11960715Y52939286D02*
X-12032144Y52867857D01*
X-12246430Y52796429D01*
X-12389287Y52796429D01*
X-12603572Y52867857D01*
X-12746430Y53010714D01*
X-12817858Y53153571D01*
X-12889287Y53439286D01*
X-12889287Y53653571D01*
X-12817858Y53939286D01*
X-12746430Y54082143D01*
X-12603572Y54225000D01*
X-12389287Y54296429D01*
X-12246430Y54296429D01*
X-12032144Y54225000D01*
X-11960715Y54153571D01*
X-10246430Y54153571D02*
X-10175001Y54225000D01*
X-10032144Y54296429D01*
X-9675001Y54296429D01*
X-9532144Y54225000D01*
X-9460715Y54153571D01*
X-9389287Y54010714D01*
X-9389287Y53867857D01*
X-9460715Y53653571D01*
X-10317858Y52796429D01*
X-9389287Y52796429D01*
X-8817859Y54153571D02*
X-8746430Y54225000D01*
X-8603573Y54296429D01*
X-8246430Y54296429D01*
X-8103573Y54225000D01*
X-8032144Y54153571D01*
X-7960716Y54010714D01*
X-7960716Y53867857D01*
X-8032144Y53653571D01*
X-8889287Y52796429D01*
X-7960716Y52796429D01*
X-7389288Y54153571D02*
X-7317859Y54225000D01*
X-7175002Y54296429D01*
X-6817859Y54296429D01*
X-6675002Y54225000D01*
X-6603573Y54153571D01*
X-6532145Y54010714D01*
X-6532145Y53867857D01*
X-6603573Y53653571D01*
X-7460716Y52796429D01*
X-6532145Y52796429D01*
X-5103574Y52796429D02*
X-5960717Y52796429D01*
X-5532145Y52796429D02*
X-5532145Y54296429D01*
X-5675002Y54082143D01*
X-5817860Y53939286D01*
X-5960717Y53867857D01*
X-97750000Y56332143D02*
X-98250000Y56332143D01*
X-98250000Y55546429D02*
X-98250000Y57046429D01*
X-97535714Y57046429D01*
X-96321429Y55546429D02*
X-96321429Y56332143D01*
X-96392858Y56475000D01*
X-96535715Y56546429D01*
X-96821429Y56546429D01*
X-96964286Y56475000D01*
X-96321429Y55617857D02*
X-96464286Y55546429D01*
X-96821429Y55546429D01*
X-96964286Y55617857D01*
X-97035715Y55760714D01*
X-97035715Y55903571D01*
X-96964286Y56046429D01*
X-96821429Y56117857D01*
X-96464286Y56117857D01*
X-96321429Y56189286D01*
X-95607143Y55546429D02*
X-95607143Y57046429D01*
X-95607143Y56475000D02*
X-95464286Y56546429D01*
X-95178572Y56546429D01*
X-95035715Y56475000D01*
X-94964286Y56403571D01*
X-94892857Y56260714D01*
X-94892857Y55832143D01*
X-94964286Y55689286D01*
X-95035715Y55617857D01*
X-95178572Y55546429D01*
X-95464286Y55546429D01*
X-95607143Y55617857D01*
X-94250000Y55546429D02*
X-94250000Y56546429D01*
X-94250000Y56260714D02*
X-94178572Y56403571D01*
X-94107143Y56475000D01*
X-93964286Y56546429D01*
X-93821429Y56546429D01*
X-93321429Y55546429D02*
X-93321429Y56546429D01*
X-93321429Y57046429D02*
X-93392858Y56975000D01*
X-93321429Y56903571D01*
X-93250001Y56975000D01*
X-93321429Y57046429D01*
X-93321429Y56903571D01*
X-91964286Y55617857D02*
X-92107143Y55546429D01*
X-92392857Y55546429D01*
X-92535715Y55617857D01*
X-92607143Y55689286D01*
X-92678572Y55832143D01*
X-92678572Y56260714D01*
X-92607143Y56403571D01*
X-92535715Y56475000D01*
X-92392857Y56546429D01*
X-92107143Y56546429D01*
X-91964286Y56475000D01*
X-90678572Y55546429D02*
X-90678572Y56332143D01*
X-90750001Y56475000D01*
X-90892858Y56546429D01*
X-91178572Y56546429D01*
X-91321429Y56475000D01*
X-90678572Y55617857D02*
X-90821429Y55546429D01*
X-91178572Y55546429D01*
X-91321429Y55617857D01*
X-91392858Y55760714D01*
X-91392858Y55903571D01*
X-91321429Y56046429D01*
X-91178572Y56117857D01*
X-90821429Y56117857D01*
X-90678572Y56189286D01*
X-90178572Y56546429D02*
X-89607143Y56546429D01*
X-89964286Y57046429D02*
X-89964286Y55760714D01*
X-89892858Y55617857D01*
X-89750000Y55546429D01*
X-89607143Y55546429D01*
X-89107143Y55546429D02*
X-89107143Y56546429D01*
X-89107143Y57046429D02*
X-89178572Y56975000D01*
X-89107143Y56903571D01*
X-89035715Y56975000D01*
X-89107143Y57046429D01*
X-89107143Y56903571D01*
X-88178571Y55546429D02*
X-88321429Y55617857D01*
X-88392857Y55689286D01*
X-88464286Y55832143D01*
X-88464286Y56260714D01*
X-88392857Y56403571D01*
X-88321429Y56475000D01*
X-88178571Y56546429D01*
X-87964286Y56546429D01*
X-87821429Y56475000D01*
X-87750000Y56403571D01*
X-87678571Y56260714D01*
X-87678571Y55832143D01*
X-87750000Y55689286D01*
X-87821429Y55617857D01*
X-87964286Y55546429D01*
X-88178571Y55546429D01*
X-87035714Y56546429D02*
X-87035714Y55546429D01*
X-87035714Y56403571D02*
X-86964286Y56475000D01*
X-86821428Y56546429D01*
X-86607143Y56546429D01*
X-86464286Y56475000D01*
X-86392857Y56332143D01*
X-86392857Y55546429D01*
X-84535714Y55546429D02*
X-84535714Y57046429D01*
X-83678571Y55546429D01*
X-83678571Y57046429D01*
X-82749999Y55546429D02*
X-82892857Y55617857D01*
X-82964285Y55689286D01*
X-83035714Y55832143D01*
X-83035714Y56260714D01*
X-82964285Y56403571D01*
X-82892857Y56475000D01*
X-82749999Y56546429D01*
X-82535714Y56546429D01*
X-82392857Y56475000D01*
X-82321428Y56403571D01*
X-82249999Y56260714D01*
X-82249999Y55832143D01*
X-82321428Y55689286D01*
X-82392857Y55617857D01*
X-82535714Y55546429D01*
X-82749999Y55546429D01*
X-81821428Y56546429D02*
X-81249999Y56546429D01*
X-81607142Y57046429D02*
X-81607142Y55760714D01*
X-81535714Y55617857D01*
X-81392856Y55546429D01*
X-81249999Y55546429D01*
X-80178571Y55617857D02*
X-80321428Y55546429D01*
X-80607142Y55546429D01*
X-80749999Y55617857D01*
X-80821428Y55760714D01*
X-80821428Y56332143D01*
X-80749999Y56475000D01*
X-80607142Y56546429D01*
X-80321428Y56546429D01*
X-80178571Y56475000D01*
X-80107142Y56332143D01*
X-80107142Y56189286D01*
X-80821428Y56046429D01*
X-79535714Y55617857D02*
X-79392857Y55546429D01*
X-79107142Y55546429D01*
X-78964285Y55617857D01*
X-78892857Y55760714D01*
X-78892857Y55832143D01*
X-78964285Y55975000D01*
X-79107142Y56046429D01*
X-79321428Y56046429D01*
X-79464285Y56117857D01*
X-79535714Y56260714D01*
X-79535714Y56332143D01*
X-79464285Y56475000D01*
X-79321428Y56546429D01*
X-79107142Y56546429D01*
X-78964285Y56475000D01*
X-78249999Y55689286D02*
X-78178571Y55617857D01*
X-78249999Y55546429D01*
X-78321428Y55617857D01*
X-78249999Y55689286D01*
X-78249999Y55546429D01*
X-78249999Y56475000D02*
X-78178571Y56403571D01*
X-78249999Y56332143D01*
X-78321428Y56403571D01*
X-78249999Y56475000D01*
X-78249999Y56332143D01*
X-98176426Y51403571D02*
X-98104997Y51475000D01*
X-97962140Y51546429D01*
X-97604997Y51546429D01*
X-97462140Y51475000D01*
X-97390711Y51403571D01*
X-97319283Y51260714D01*
X-97319283Y51117857D01*
X-97390711Y50903571D01*
X-98247854Y50046429D01*
X-97319283Y50046429D01*
X-96819283Y49475000D02*
X-96747855Y49546429D01*
X-96604998Y49760714D01*
X-96533569Y49903571D01*
X-96462140Y50117857D01*
X-96390712Y50475000D01*
X-96390712Y50760714D01*
X-96462140Y51117857D01*
X-96533569Y51332143D01*
X-96604998Y51475000D01*
X-96747855Y51689286D01*
X-96819283Y51760714D01*
X-94604998Y50117857D02*
X-94390712Y50046429D01*
X-94033569Y50046429D01*
X-93890712Y50117857D01*
X-93819283Y50189286D01*
X-93747855Y50332143D01*
X-93747855Y50475000D01*
X-93819283Y50617857D01*
X-93890712Y50689286D01*
X-94033569Y50760714D01*
X-94319283Y50832143D01*
X-94462141Y50903571D01*
X-94533569Y50975000D01*
X-94604998Y51117857D01*
X-94604998Y51260714D01*
X-94533569Y51403571D01*
X-94462141Y51475000D01*
X-94319283Y51546429D01*
X-93962141Y51546429D01*
X-93747855Y51475000D01*
X-92462141Y51046429D02*
X-92462141Y50046429D01*
X-93104998Y51046429D02*
X-93104998Y50260714D01*
X-93033570Y50117857D01*
X-92890712Y50046429D01*
X-92676427Y50046429D01*
X-92533570Y50117857D01*
X-92462141Y50189286D01*
X-91747855Y50046429D02*
X-91747855Y51546429D01*
X-91747855Y50975000D02*
X-91604998Y51046429D01*
X-91319284Y51046429D01*
X-91176427Y50975000D01*
X-91104998Y50903571D01*
X-91033569Y50760714D01*
X-91033569Y50332143D01*
X-91104998Y50189286D01*
X-91176427Y50117857D01*
X-91319284Y50046429D01*
X-91604998Y50046429D01*
X-91747855Y50117857D01*
X-90462141Y50117857D02*
X-90319284Y50046429D01*
X-90033569Y50046429D01*
X-89890712Y50117857D01*
X-89819284Y50260714D01*
X-89819284Y50332143D01*
X-89890712Y50475000D01*
X-90033569Y50546429D01*
X-90247855Y50546429D01*
X-90390712Y50617857D01*
X-90462141Y50760714D01*
X-90462141Y50832143D01*
X-90390712Y50975000D01*
X-90247855Y51046429D01*
X-90033569Y51046429D01*
X-89890712Y50975000D01*
X-89390712Y51046429D02*
X-88819283Y51046429D01*
X-89176426Y51546429D02*
X-89176426Y50260714D01*
X-89104998Y50117857D01*
X-88962140Y50046429D01*
X-88819283Y50046429D01*
X-88319283Y50046429D02*
X-88319283Y51046429D01*
X-88319283Y50760714D02*
X-88247855Y50903571D01*
X-88176426Y50975000D01*
X-88033569Y51046429D01*
X-87890712Y51046429D01*
X-86747855Y50046429D02*
X-86747855Y50832143D01*
X-86819284Y50975000D01*
X-86962141Y51046429D01*
X-87247855Y51046429D01*
X-87390712Y50975000D01*
X-86747855Y50117857D02*
X-86890712Y50046429D01*
X-87247855Y50046429D01*
X-87390712Y50117857D01*
X-87462141Y50260714D01*
X-87462141Y50403571D01*
X-87390712Y50546429D01*
X-87247855Y50617857D01*
X-86890712Y50617857D01*
X-86747855Y50689286D01*
X-86247855Y51046429D02*
X-85676426Y51046429D01*
X-86033569Y51546429D02*
X-86033569Y50260714D01*
X-85962141Y50117857D01*
X-85819283Y50046429D01*
X-85676426Y50046429D01*
X-84604998Y50117857D02*
X-84747855Y50046429D01*
X-85033569Y50046429D01*
X-85176426Y50117857D01*
X-85247855Y50260714D01*
X-85247855Y50832143D01*
X-85176426Y50975000D01*
X-85033569Y51046429D01*
X-84747855Y51046429D01*
X-84604998Y50975000D01*
X-84533569Y50832143D01*
X-84533569Y50689286D01*
X-85247855Y50546429D01*
X-82962141Y51046429D02*
X-82390712Y51046429D01*
X-82747855Y50046429D02*
X-82747855Y51332143D01*
X-82676427Y51475000D01*
X-82533569Y51546429D01*
X-82390712Y51546429D01*
X-81676426Y50046429D02*
X-81819284Y50117857D01*
X-81890712Y50189286D01*
X-81962141Y50332143D01*
X-81962141Y50760714D01*
X-81890712Y50903571D01*
X-81819284Y50975000D01*
X-81676426Y51046429D01*
X-81462141Y51046429D01*
X-81319284Y50975000D01*
X-81247855Y50903571D01*
X-81176426Y50760714D01*
X-81176426Y50332143D01*
X-81247855Y50189286D01*
X-81319284Y50117857D01*
X-81462141Y50046429D01*
X-81676426Y50046429D01*
X-80533569Y50046429D02*
X-80533569Y51046429D01*
X-80533569Y50760714D02*
X-80462141Y50903571D01*
X-80390712Y50975000D01*
X-80247855Y51046429D01*
X-80104998Y51046429D01*
X-77819284Y50117857D02*
X-77962141Y50046429D01*
X-78247855Y50046429D01*
X-78390713Y50117857D01*
X-78462141Y50189286D01*
X-78533570Y50332143D01*
X-78533570Y50760714D01*
X-78462141Y50903571D01*
X-78390713Y50975000D01*
X-78247855Y51046429D01*
X-77962141Y51046429D01*
X-77819284Y50975000D01*
X-76962141Y50046429D02*
X-77104999Y50117857D01*
X-77176427Y50189286D01*
X-77247856Y50332143D01*
X-77247856Y50760714D01*
X-77176427Y50903571D01*
X-77104999Y50975000D01*
X-76962141Y51046429D01*
X-76747856Y51046429D01*
X-76604999Y50975000D01*
X-76533570Y50903571D01*
X-76462141Y50760714D01*
X-76462141Y50332143D01*
X-76533570Y50189286D01*
X-76604999Y50117857D01*
X-76747856Y50046429D01*
X-76962141Y50046429D01*
X-75819284Y50046429D02*
X-75819284Y51046429D01*
X-75819284Y50760714D02*
X-75747856Y50903571D01*
X-75676427Y50975000D01*
X-75533570Y51046429D01*
X-75390713Y51046429D01*
X-74319285Y50117857D02*
X-74462142Y50046429D01*
X-74747856Y50046429D01*
X-74890713Y50117857D01*
X-74962142Y50260714D01*
X-74962142Y50832143D01*
X-74890713Y50975000D01*
X-74747856Y51046429D01*
X-74462142Y51046429D01*
X-74319285Y50975000D01*
X-74247856Y50832143D01*
X-74247856Y50689286D01*
X-74962142Y50546429D01*
X-71819285Y50046429D02*
X-71819285Y50832143D01*
X-71890714Y50975000D01*
X-72033571Y51046429D01*
X-72319285Y51046429D01*
X-72462142Y50975000D01*
X-71819285Y50117857D02*
X-71962142Y50046429D01*
X-72319285Y50046429D01*
X-72462142Y50117857D01*
X-72533571Y50260714D01*
X-72533571Y50403571D01*
X-72462142Y50546429D01*
X-72319285Y50617857D01*
X-71962142Y50617857D01*
X-71819285Y50689286D01*
X-71104999Y51046429D02*
X-71104999Y50046429D01*
X-71104999Y50903571D02*
X-71033571Y50975000D01*
X-70890713Y51046429D01*
X-70676428Y51046429D01*
X-70533571Y50975000D01*
X-70462142Y50832143D01*
X-70462142Y50046429D01*
X-69104999Y50046429D02*
X-69104999Y51546429D01*
X-69104999Y50117857D02*
X-69247856Y50046429D01*
X-69533570Y50046429D01*
X-69676428Y50117857D01*
X-69747856Y50189286D01*
X-69819285Y50332143D01*
X-69819285Y50760714D01*
X-69747856Y50903571D01*
X-69676428Y50975000D01*
X-69533570Y51046429D01*
X-69247856Y51046429D01*
X-69104999Y50975000D01*
X-67247856Y51046429D02*
X-67247856Y49546429D01*
X-67247856Y50975000D02*
X-67104999Y51046429D01*
X-66819285Y51046429D01*
X-66676428Y50975000D01*
X-66604999Y50903571D01*
X-66533570Y50760714D01*
X-66533570Y50332143D01*
X-66604999Y50189286D01*
X-66676428Y50117857D01*
X-66819285Y50046429D01*
X-67104999Y50046429D01*
X-67247856Y50117857D01*
X-65890713Y50046429D02*
X-65890713Y51046429D01*
X-65890713Y50760714D02*
X-65819285Y50903571D01*
X-65747856Y50975000D01*
X-65604999Y51046429D01*
X-65462142Y51046429D01*
X-64390714Y50117857D02*
X-64533571Y50046429D01*
X-64819285Y50046429D01*
X-64962142Y50117857D01*
X-65033571Y50260714D01*
X-65033571Y50832143D01*
X-64962142Y50975000D01*
X-64819285Y51046429D01*
X-64533571Y51046429D01*
X-64390714Y50975000D01*
X-64319285Y50832143D01*
X-64319285Y50689286D01*
X-65033571Y50546429D01*
X-63676428Y51046429D02*
X-63676428Y49546429D01*
X-63676428Y50975000D02*
X-63533571Y51046429D01*
X-63247857Y51046429D01*
X-63105000Y50975000D01*
X-63033571Y50903571D01*
X-62962142Y50760714D01*
X-62962142Y50332143D01*
X-63033571Y50189286D01*
X-63105000Y50117857D01*
X-63247857Y50046429D01*
X-63533571Y50046429D01*
X-63676428Y50117857D01*
X-62319285Y50046429D02*
X-62319285Y51046429D01*
X-62319285Y50760714D02*
X-62247857Y50903571D01*
X-62176428Y50975000D01*
X-62033571Y51046429D01*
X-61890714Y51046429D01*
X-60819286Y50117857D02*
X-60962143Y50046429D01*
X-61247857Y50046429D01*
X-61390714Y50117857D01*
X-61462143Y50260714D01*
X-61462143Y50832143D01*
X-61390714Y50975000D01*
X-61247857Y51046429D01*
X-60962143Y51046429D01*
X-60819286Y50975000D01*
X-60747857Y50832143D01*
X-60747857Y50689286D01*
X-61462143Y50546429D01*
X-59462143Y51046429D02*
X-59462143Y49832143D01*
X-59533572Y49689286D01*
X-59605000Y49617857D01*
X-59747857Y49546429D01*
X-59962143Y49546429D01*
X-60105000Y49617857D01*
X-59462143Y50117857D02*
X-59605000Y50046429D01*
X-59890714Y50046429D01*
X-60033572Y50117857D01*
X-60105000Y50189286D01*
X-60176429Y50332143D01*
X-60176429Y50760714D01*
X-60105000Y50903571D01*
X-60033572Y50975000D01*
X-59890714Y51046429D01*
X-59605000Y51046429D01*
X-59462143Y50975000D01*
X-57605000Y50046429D02*
X-57605000Y51046429D01*
X-57605000Y51546429D02*
X-57676429Y51475000D01*
X-57605000Y51403571D01*
X-57533572Y51475000D01*
X-57605000Y51546429D01*
X-57605000Y51403571D01*
X-56962143Y50117857D02*
X-56819286Y50046429D01*
X-56533571Y50046429D01*
X-56390714Y50117857D01*
X-56319286Y50260714D01*
X-56319286Y50332143D01*
X-56390714Y50475000D01*
X-56533571Y50546429D01*
X-56747857Y50546429D01*
X-56890714Y50617857D01*
X-56962143Y50760714D01*
X-56962143Y50832143D01*
X-56890714Y50975000D01*
X-56747857Y51046429D01*
X-56533571Y51046429D01*
X-56390714Y50975000D01*
X-54033571Y50832143D02*
X-54533571Y50832143D01*
X-54533571Y50046429D02*
X-54533571Y51546429D01*
X-53819285Y51546429D01*
X-52390714Y50046429D02*
X-52890714Y50760714D01*
X-53247857Y50046429D02*
X-53247857Y51546429D01*
X-52676429Y51546429D01*
X-52533571Y51475000D01*
X-52462143Y51403571D01*
X-52390714Y51260714D01*
X-52390714Y51046429D01*
X-52462143Y50903571D01*
X-52533571Y50832143D01*
X-52676429Y50760714D01*
X-53247857Y50760714D01*
X-51747857Y50617857D02*
X-50605000Y50617857D01*
X-49247857Y51046429D02*
X-49247857Y50046429D01*
X-49605000Y51617857D02*
X-49962143Y50546429D01*
X-49033571Y50546429D01*
X-47533572Y51546429D02*
X-46676429Y51546429D01*
X-47105000Y50046429D02*
X-47105000Y51546429D01*
X-45390715Y51475000D02*
X-45533572Y51546429D01*
X-45747858Y51546429D01*
X-45962143Y51475000D01*
X-46105001Y51332143D01*
X-46176429Y51189286D01*
X-46247858Y50903571D01*
X-46247858Y50689286D01*
X-46176429Y50403571D01*
X-46105001Y50260714D01*
X-45962143Y50117857D01*
X-45747858Y50046429D01*
X-45605001Y50046429D01*
X-45390715Y50117857D01*
X-45319286Y50189286D01*
X-45319286Y50689286D01*
X-45605001Y50689286D01*
X-43890715Y50046429D02*
X-44747858Y50046429D01*
X-44319286Y50046429D02*
X-44319286Y51546429D01*
X-44462143Y51332143D01*
X-44605001Y51189286D01*
X-44747858Y51117857D01*
X-43390715Y51546429D02*
X-42462144Y51546429D01*
X-42962144Y50975000D01*
X-42747858Y50975000D01*
X-42605001Y50903571D01*
X-42533572Y50832143D01*
X-42462144Y50689286D01*
X-42462144Y50332143D01*
X-42533572Y50189286D01*
X-42605001Y50117857D01*
X-42747858Y50046429D01*
X-43176430Y50046429D01*
X-43319287Y50117857D01*
X-43390715Y50189286D01*
X-41533573Y51546429D02*
X-41390716Y51546429D01*
X-41247859Y51475000D01*
X-41176430Y51403571D01*
X-41105001Y51260714D01*
X-41033573Y50975000D01*
X-41033573Y50617857D01*
X-41105001Y50332143D01*
X-41176430Y50189286D01*
X-41247859Y50117857D01*
X-41390716Y50046429D01*
X-41533573Y50046429D01*
X-41676430Y50117857D01*
X-41747859Y50189286D01*
X-41819287Y50332143D01*
X-41890716Y50617857D01*
X-41890716Y50975000D01*
X-41819287Y51260714D01*
X-41747859Y51403571D01*
X-41676430Y51475000D01*
X-41533573Y51546429D01*
X-98244999Y48796429D02*
X-97316428Y48796429D01*
X-97816428Y48225000D01*
X-97602142Y48225000D01*
X-97459285Y48153571D01*
X-97387856Y48082143D01*
X-97316428Y47939286D01*
X-97316428Y47582143D01*
X-97387856Y47439286D01*
X-97459285Y47367857D01*
X-97602142Y47296429D01*
X-98030714Y47296429D01*
X-98173571Y47367857D01*
X-98244999Y47439286D01*
X-96816428Y46725000D02*
X-96745000Y46796429D01*
X-96602143Y47010714D01*
X-96530714Y47153571D01*
X-96459285Y47367857D01*
X-96387857Y47725000D01*
X-96387857Y48010714D01*
X-96459285Y48367857D01*
X-96530714Y48582143D01*
X-96602143Y48725000D01*
X-96745000Y48939286D01*
X-96816428Y49010714D01*
X-94030714Y48082143D02*
X-93816428Y48010714D01*
X-93745000Y47939286D01*
X-93673571Y47796429D01*
X-93673571Y47582143D01*
X-93745000Y47439286D01*
X-93816428Y47367857D01*
X-93959286Y47296429D01*
X-94530714Y47296429D01*
X-94530714Y48796429D01*
X-94030714Y48796429D01*
X-93887857Y48725000D01*
X-93816428Y48653571D01*
X-93745000Y48510714D01*
X-93745000Y48367857D01*
X-93816428Y48225000D01*
X-93887857Y48153571D01*
X-94030714Y48082143D01*
X-94530714Y48082143D01*
X-92816428Y47296429D02*
X-92959286Y47367857D01*
X-93030714Y47439286D01*
X-93102143Y47582143D01*
X-93102143Y48010714D01*
X-93030714Y48153571D01*
X-92959286Y48225000D01*
X-92816428Y48296429D01*
X-92602143Y48296429D01*
X-92459286Y48225000D01*
X-92387857Y48153571D01*
X-92316428Y48010714D01*
X-92316428Y47582143D01*
X-92387857Y47439286D01*
X-92459286Y47367857D01*
X-92602143Y47296429D01*
X-92816428Y47296429D01*
X-91030714Y47296429D02*
X-91030714Y48082143D01*
X-91102143Y48225000D01*
X-91245000Y48296429D01*
X-91530714Y48296429D01*
X-91673571Y48225000D01*
X-91030714Y47367857D02*
X-91173571Y47296429D01*
X-91530714Y47296429D01*
X-91673571Y47367857D01*
X-91745000Y47510714D01*
X-91745000Y47653571D01*
X-91673571Y47796429D01*
X-91530714Y47867857D01*
X-91173571Y47867857D01*
X-91030714Y47939286D01*
X-90316428Y47296429D02*
X-90316428Y48296429D01*
X-90316428Y48010714D02*
X-90245000Y48153571D01*
X-90173571Y48225000D01*
X-90030714Y48296429D01*
X-89887857Y48296429D01*
X-88745000Y47296429D02*
X-88745000Y48796429D01*
X-88745000Y47367857D02*
X-88887857Y47296429D01*
X-89173571Y47296429D01*
X-89316429Y47367857D01*
X-89387857Y47439286D01*
X-89459286Y47582143D01*
X-89459286Y48010714D01*
X-89387857Y48153571D01*
X-89316429Y48225000D01*
X-89173571Y48296429D01*
X-88887857Y48296429D01*
X-88745000Y48225000D01*
X-87102143Y48296429D02*
X-86530714Y48296429D01*
X-86887857Y47296429D02*
X-86887857Y48582143D01*
X-86816429Y48725000D01*
X-86673571Y48796429D01*
X-86530714Y48796429D01*
X-86030714Y47296429D02*
X-86030714Y48296429D01*
X-86030714Y48796429D02*
X-86102143Y48725000D01*
X-86030714Y48653571D01*
X-85959286Y48725000D01*
X-86030714Y48796429D01*
X-86030714Y48653571D01*
X-85316428Y48296429D02*
X-85316428Y47296429D01*
X-85316428Y48153571D02*
X-85245000Y48225000D01*
X-85102142Y48296429D01*
X-84887857Y48296429D01*
X-84745000Y48225000D01*
X-84673571Y48082143D01*
X-84673571Y47296429D01*
X-83959285Y47296429D02*
X-83959285Y48296429D01*
X-83959285Y48796429D02*
X-84030714Y48725000D01*
X-83959285Y48653571D01*
X-83887857Y48725000D01*
X-83959285Y48796429D01*
X-83959285Y48653571D01*
X-83316428Y47367857D02*
X-83173571Y47296429D01*
X-82887856Y47296429D01*
X-82744999Y47367857D01*
X-82673571Y47510714D01*
X-82673571Y47582143D01*
X-82744999Y47725000D01*
X-82887856Y47796429D01*
X-83102142Y47796429D01*
X-83244999Y47867857D01*
X-83316428Y48010714D01*
X-83316428Y48082143D01*
X-83244999Y48225000D01*
X-83102142Y48296429D01*
X-82887856Y48296429D01*
X-82744999Y48225000D01*
X-82030713Y47296429D02*
X-82030713Y48796429D01*
X-81387856Y47296429D02*
X-81387856Y48082143D01*
X-81459285Y48225000D01*
X-81602142Y48296429D01*
X-81816427Y48296429D01*
X-81959285Y48225000D01*
X-82030713Y48153571D01*
X-79530713Y47296429D02*
X-79530713Y48296429D01*
X-79530713Y48796429D02*
X-79602142Y48725000D01*
X-79530713Y48653571D01*
X-79459285Y48725000D01*
X-79530713Y48796429D01*
X-79530713Y48653571D01*
X-78887856Y47367857D02*
X-78744999Y47296429D01*
X-78459284Y47296429D01*
X-78316427Y47367857D01*
X-78244999Y47510714D01*
X-78244999Y47582143D01*
X-78316427Y47725000D01*
X-78459284Y47796429D01*
X-78673570Y47796429D01*
X-78816427Y47867857D01*
X-78887856Y48010714D01*
X-78887856Y48082143D01*
X-78816427Y48225000D01*
X-78673570Y48296429D01*
X-78459284Y48296429D01*
X-78316427Y48225000D01*
X-76459284Y47296429D02*
X-76459284Y48796429D01*
X-76459284Y48082143D02*
X-75602141Y48082143D01*
X-75602141Y47296429D02*
X-75602141Y48796429D01*
X-74959284Y47725000D02*
X-74244998Y47725000D01*
X-75102141Y47296429D02*
X-74602141Y48796429D01*
X-74102141Y47296429D01*
X-73673570Y47367857D02*
X-73459284Y47296429D01*
X-73102141Y47296429D01*
X-72959284Y47367857D01*
X-72887855Y47439286D01*
X-72816427Y47582143D01*
X-72816427Y47725000D01*
X-72887855Y47867857D01*
X-72959284Y47939286D01*
X-73102141Y48010714D01*
X-73387855Y48082143D01*
X-73530713Y48153571D01*
X-73602141Y48225000D01*
X-73673570Y48367857D01*
X-73673570Y48510714D01*
X-73602141Y48653571D01*
X-73530713Y48725000D01*
X-73387855Y48796429D01*
X-73030713Y48796429D01*
X-72816427Y48725000D01*
X-71459284Y47296429D02*
X-72173570Y47296429D01*
X-72173570Y48796429D01*
X-69102141Y47296429D02*
X-69816427Y47296429D01*
X-69816427Y48796429D01*
X-68030713Y47367857D02*
X-68173570Y47296429D01*
X-68459284Y47296429D01*
X-68602141Y47367857D01*
X-68673570Y47510714D01*
X-68673570Y48082143D01*
X-68602141Y48225000D01*
X-68459284Y48296429D01*
X-68173570Y48296429D01*
X-68030713Y48225000D01*
X-67959284Y48082143D01*
X-67959284Y47939286D01*
X-68673570Y47796429D01*
X-66673570Y47296429D02*
X-66673570Y48082143D01*
X-66744999Y48225000D01*
X-66887856Y48296429D01*
X-67173570Y48296429D01*
X-67316427Y48225000D01*
X-66673570Y47367857D02*
X-66816427Y47296429D01*
X-67173570Y47296429D01*
X-67316427Y47367857D01*
X-67387856Y47510714D01*
X-67387856Y47653571D01*
X-67316427Y47796429D01*
X-67173570Y47867857D01*
X-66816427Y47867857D01*
X-66673570Y47939286D01*
X-65316427Y47296429D02*
X-65316427Y48796429D01*
X-65316427Y47367857D02*
X-65459284Y47296429D01*
X-65744998Y47296429D01*
X-65887856Y47367857D01*
X-65959284Y47439286D01*
X-66030713Y47582143D01*
X-66030713Y48010714D01*
X-65959284Y48153571D01*
X-65887856Y48225000D01*
X-65744998Y48296429D01*
X-65459284Y48296429D01*
X-65316427Y48225000D01*
X-62959284Y48082143D02*
X-63459284Y48082143D01*
X-63459284Y47296429D02*
X-63459284Y48796429D01*
X-62744998Y48796429D01*
X-62173570Y47296429D02*
X-62173570Y48296429D01*
X-62173570Y48010714D02*
X-62102142Y48153571D01*
X-62030713Y48225000D01*
X-61887856Y48296429D01*
X-61744999Y48296429D01*
X-60673571Y47367857D02*
X-60816428Y47296429D01*
X-61102142Y47296429D01*
X-61244999Y47367857D01*
X-61316428Y47510714D01*
X-61316428Y48082143D01*
X-61244999Y48225000D01*
X-61102142Y48296429D01*
X-60816428Y48296429D01*
X-60673571Y48225000D01*
X-60602142Y48082143D01*
X-60602142Y47939286D01*
X-61316428Y47796429D01*
X-59387857Y47367857D02*
X-59530714Y47296429D01*
X-59816428Y47296429D01*
X-59959285Y47367857D01*
X-60030714Y47510714D01*
X-60030714Y48082143D01*
X-59959285Y48225000D01*
X-59816428Y48296429D01*
X-59530714Y48296429D01*
X-59387857Y48225000D01*
X-59316428Y48082143D01*
X-59316428Y47939286D01*
X-60030714Y47796429D01*
X-97534285Y45546429D02*
X-97534285Y44546429D01*
X-97891428Y46117857D02*
X-98248571Y45046429D01*
X-97319999Y45046429D01*
X-96891428Y43975000D02*
X-96820000Y44046429D01*
X-96677143Y44260714D01*
X-96605714Y44403571D01*
X-96534285Y44617857D01*
X-96462857Y44975000D01*
X-96462857Y45260714D01*
X-96534285Y45617857D01*
X-96605714Y45832143D01*
X-96677143Y45975000D01*
X-96820000Y46189286D01*
X-96891428Y46260714D01*
X-94605714Y44546429D02*
X-94605714Y46046429D01*
X-94105714Y44975000D01*
X-93605714Y46046429D01*
X-93605714Y44546429D01*
X-92248571Y44546429D02*
X-92248571Y45332143D01*
X-92320000Y45475000D01*
X-92462857Y45546429D01*
X-92748571Y45546429D01*
X-92891428Y45475000D01*
X-92248571Y44617857D02*
X-92391428Y44546429D01*
X-92748571Y44546429D01*
X-92891428Y44617857D01*
X-92962857Y44760714D01*
X-92962857Y44903571D01*
X-92891428Y45046429D01*
X-92748571Y45117857D01*
X-92391428Y45117857D01*
X-92248571Y45189286D01*
X-91748571Y45546429D02*
X-91177142Y45546429D01*
X-91534285Y46046429D02*
X-91534285Y44760714D01*
X-91462857Y44617857D01*
X-91319999Y44546429D01*
X-91177142Y44546429D01*
X-90105714Y44617857D02*
X-90248571Y44546429D01*
X-90534285Y44546429D01*
X-90677142Y44617857D01*
X-90748571Y44760714D01*
X-90748571Y45332143D01*
X-90677142Y45475000D01*
X-90534285Y45546429D01*
X-90248571Y45546429D01*
X-90105714Y45475000D01*
X-90034285Y45332143D01*
X-90034285Y45189286D01*
X-90748571Y45046429D01*
X-89391428Y44546429D02*
X-89391428Y45546429D01*
X-89391428Y45260714D02*
X-89320000Y45403571D01*
X-89248571Y45475000D01*
X-89105714Y45546429D01*
X-88962857Y45546429D01*
X-88462857Y44546429D02*
X-88462857Y45546429D01*
X-88462857Y46046429D02*
X-88534286Y45975000D01*
X-88462857Y45903571D01*
X-88391429Y45975000D01*
X-88462857Y46046429D01*
X-88462857Y45903571D01*
X-87105714Y44546429D02*
X-87105714Y45332143D01*
X-87177143Y45475000D01*
X-87320000Y45546429D01*
X-87605714Y45546429D01*
X-87748571Y45475000D01*
X-87105714Y44617857D02*
X-87248571Y44546429D01*
X-87605714Y44546429D01*
X-87748571Y44617857D01*
X-87820000Y44760714D01*
X-87820000Y44903571D01*
X-87748571Y45046429D01*
X-87605714Y45117857D01*
X-87248571Y45117857D01*
X-87105714Y45189286D01*
X-86177142Y44546429D02*
X-86320000Y44617857D01*
X-86391428Y44760714D01*
X-86391428Y46046429D01*
X-85677143Y44617857D02*
X-85534286Y44546429D01*
X-85248571Y44546429D01*
X-85105714Y44617857D01*
X-85034286Y44760714D01*
X-85034286Y44832143D01*
X-85105714Y44975000D01*
X-85248571Y45046429D01*
X-85462857Y45046429D01*
X-85605714Y45117857D01*
X-85677143Y45260714D01*
X-85677143Y45332143D01*
X-85605714Y45475000D01*
X-85462857Y45546429D01*
X-85248571Y45546429D01*
X-85105714Y45475000D01*
X-83462857Y45546429D02*
X-82891428Y45546429D01*
X-83248571Y46046429D02*
X-83248571Y44760714D01*
X-83177143Y44617857D01*
X-83034285Y44546429D01*
X-82891428Y44546429D01*
X-82177142Y44546429D02*
X-82320000Y44617857D01*
X-82391428Y44689286D01*
X-82462857Y44832143D01*
X-82462857Y45260714D01*
X-82391428Y45403571D01*
X-82320000Y45475000D01*
X-82177142Y45546429D01*
X-81962857Y45546429D01*
X-81820000Y45475000D01*
X-81748571Y45403571D01*
X-81677142Y45260714D01*
X-81677142Y44832143D01*
X-81748571Y44689286D01*
X-81820000Y44617857D01*
X-81962857Y44546429D01*
X-82177142Y44546429D01*
X-79891428Y44546429D02*
X-79891428Y45546429D01*
X-79891428Y45403571D02*
X-79820000Y45475000D01*
X-79677142Y45546429D01*
X-79462857Y45546429D01*
X-79320000Y45475000D01*
X-79248571Y45332143D01*
X-79248571Y44546429D01*
X-79248571Y45332143D02*
X-79177142Y45475000D01*
X-79034285Y45546429D01*
X-78820000Y45546429D01*
X-78677142Y45475000D01*
X-78605714Y45332143D01*
X-78605714Y44546429D01*
X-77320000Y44617857D02*
X-77462857Y44546429D01*
X-77748571Y44546429D01*
X-77891428Y44617857D01*
X-77962857Y44760714D01*
X-77962857Y45332143D01*
X-77891428Y45475000D01*
X-77748571Y45546429D01*
X-77462857Y45546429D01*
X-77320000Y45475000D01*
X-77248571Y45332143D01*
X-77248571Y45189286D01*
X-77962857Y45046429D01*
X-76034286Y44617857D02*
X-76177143Y44546429D01*
X-76462857Y44546429D01*
X-76605714Y44617857D01*
X-76677143Y44760714D01*
X-76677143Y45332143D01*
X-76605714Y45475000D01*
X-76462857Y45546429D01*
X-76177143Y45546429D01*
X-76034286Y45475000D01*
X-75962857Y45332143D01*
X-75962857Y45189286D01*
X-76677143Y45046429D01*
X-75534286Y45546429D02*
X-74962857Y45546429D01*
X-75320000Y46046429D02*
X-75320000Y44760714D01*
X-75248572Y44617857D01*
X-75105714Y44546429D01*
X-74962857Y44546429D01*
X-73320000Y46046429D02*
X-73320000Y44832143D01*
X-73248572Y44689286D01*
X-73177143Y44617857D01*
X-73034286Y44546429D01*
X-72748572Y44546429D01*
X-72605714Y44617857D01*
X-72534286Y44689286D01*
X-72462857Y44832143D01*
X-72462857Y46046429D01*
X-71034285Y44546429D02*
X-71748571Y44546429D01*
X-71748571Y46046429D01*
X-69320000Y44546429D02*
X-69034285Y44546429D01*
X-68891428Y44617857D01*
X-68820000Y44689286D01*
X-68677142Y44903571D01*
X-68605714Y45189286D01*
X-68605714Y45760714D01*
X-68677142Y45903571D01*
X-68748571Y45975000D01*
X-68891428Y46046429D01*
X-69177142Y46046429D01*
X-69320000Y45975000D01*
X-69391428Y45903571D01*
X-69462857Y45760714D01*
X-69462857Y45403571D01*
X-69391428Y45260714D01*
X-69320000Y45189286D01*
X-69177142Y45117857D01*
X-68891428Y45117857D01*
X-68748571Y45189286D01*
X-68677142Y45260714D01*
X-68605714Y45403571D01*
X-67320000Y45546429D02*
X-67320000Y44546429D01*
X-67677143Y46117857D02*
X-68034286Y45046429D01*
X-67105714Y45046429D01*
X-65605715Y46046429D02*
X-65105715Y44546429D01*
X-64605715Y46046429D01*
X-64105715Y45117857D02*
X-62962858Y45117857D01*
X-61962858Y46046429D02*
X-61820001Y46046429D01*
X-61677144Y45975000D01*
X-61605715Y45903571D01*
X-61534286Y45760714D01*
X-61462858Y45475000D01*
X-61462858Y45117857D01*
X-61534286Y44832143D01*
X-61605715Y44689286D01*
X-61677144Y44617857D01*
X-61820001Y44546429D01*
X-61962858Y44546429D01*
X-62105715Y44617857D01*
X-62177144Y44689286D01*
X-62248572Y44832143D01*
X-62320001Y45117857D01*
X-62320001Y45475000D01*
X-62248572Y45760714D01*
X-62177144Y45903571D01*
X-62105715Y45975000D01*
X-61962858Y46046429D01*
X-59891430Y45546429D02*
X-59320001Y45546429D01*
X-59677144Y44546429D02*
X-59677144Y45832143D01*
X-59605716Y45975000D01*
X-59462858Y46046429D01*
X-59320001Y46046429D01*
X-58605715Y44546429D02*
X-58748573Y44617857D01*
X-58820001Y44760714D01*
X-58820001Y46046429D01*
X-57391430Y44546429D02*
X-57391430Y45332143D01*
X-57462859Y45475000D01*
X-57605716Y45546429D01*
X-57891430Y45546429D01*
X-58034287Y45475000D01*
X-57391430Y44617857D02*
X-57534287Y44546429D01*
X-57891430Y44546429D01*
X-58034287Y44617857D01*
X-58105716Y44760714D01*
X-58105716Y44903571D01*
X-58034287Y45046429D01*
X-57891430Y45117857D01*
X-57534287Y45117857D01*
X-57391430Y45189286D01*
X-56677144Y44546429D02*
X-56677144Y45546429D01*
X-56677144Y45403571D02*
X-56605716Y45475000D01*
X-56462858Y45546429D01*
X-56248573Y45546429D01*
X-56105716Y45475000D01*
X-56034287Y45332143D01*
X-56034287Y44546429D01*
X-56034287Y45332143D02*
X-55962858Y45475000D01*
X-55820001Y45546429D01*
X-55605716Y45546429D01*
X-55462858Y45475000D01*
X-55391430Y45332143D01*
X-55391430Y44546429D01*
X-54677144Y44546429D02*
X-54677144Y45546429D01*
X-54677144Y45403571D02*
X-54605716Y45475000D01*
X-54462858Y45546429D01*
X-54248573Y45546429D01*
X-54105716Y45475000D01*
X-54034287Y45332143D01*
X-54034287Y44546429D01*
X-54034287Y45332143D02*
X-53962858Y45475000D01*
X-53820001Y45546429D01*
X-53605716Y45546429D01*
X-53462858Y45475000D01*
X-53391430Y45332143D01*
X-53391430Y44546429D01*
X-52034287Y44546429D02*
X-52034287Y45332143D01*
X-52105716Y45475000D01*
X-52248573Y45546429D01*
X-52534287Y45546429D01*
X-52677144Y45475000D01*
X-52034287Y44617857D02*
X-52177144Y44546429D01*
X-52534287Y44546429D01*
X-52677144Y44617857D01*
X-52748573Y44760714D01*
X-52748573Y44903571D01*
X-52677144Y45046429D01*
X-52534287Y45117857D01*
X-52177144Y45117857D01*
X-52034287Y45189286D01*
X-51320001Y44546429D02*
X-51320001Y46046429D01*
X-51320001Y45475000D02*
X-51177144Y45546429D01*
X-50891430Y45546429D01*
X-50748573Y45475000D01*
X-50677144Y45403571D01*
X-50605715Y45260714D01*
X-50605715Y44832143D01*
X-50677144Y44689286D01*
X-50748573Y44617857D01*
X-50891430Y44546429D01*
X-51177144Y44546429D01*
X-51320001Y44617857D01*
X-49962858Y44546429D02*
X-49962858Y45546429D01*
X-49962858Y46046429D02*
X-50034287Y45975000D01*
X-49962858Y45903571D01*
X-49891430Y45975000D01*
X-49962858Y46046429D01*
X-49962858Y45903571D01*
X-49034286Y44546429D02*
X-49177144Y44617857D01*
X-49248572Y44760714D01*
X-49248572Y46046429D01*
X-48462858Y44546429D02*
X-48462858Y45546429D01*
X-48462858Y46046429D02*
X-48534287Y45975000D01*
X-48462858Y45903571D01*
X-48391430Y45975000D01*
X-48462858Y46046429D01*
X-48462858Y45903571D01*
X-47962858Y45546429D02*
X-47391429Y45546429D01*
X-47748572Y46046429D02*
X-47748572Y44760714D01*
X-47677144Y44617857D01*
X-47534286Y44546429D01*
X-47391429Y44546429D01*
X-47034286Y45546429D02*
X-46677143Y44546429D01*
X-46320001Y45546429D02*
X-46677143Y44546429D01*
X-46820001Y44189286D01*
X-46891429Y44117857D01*
X-47034286Y44046429D01*
X-44677144Y44617857D02*
X-44534287Y44546429D01*
X-44248572Y44546429D01*
X-44105715Y44617857D01*
X-44034287Y44760714D01*
X-44034287Y44832143D01*
X-44105715Y44975000D01*
X-44248572Y45046429D01*
X-44462858Y45046429D01*
X-44605715Y45117857D01*
X-44677144Y45260714D01*
X-44677144Y45332143D01*
X-44605715Y45475000D01*
X-44462858Y45546429D01*
X-44248572Y45546429D01*
X-44105715Y45475000D01*
X-43391429Y45546429D02*
X-43391429Y44046429D01*
X-43391429Y45475000D02*
X-43248572Y45546429D01*
X-42962858Y45546429D01*
X-42820001Y45475000D01*
X-42748572Y45403571D01*
X-42677143Y45260714D01*
X-42677143Y44832143D01*
X-42748572Y44689286D01*
X-42820001Y44617857D01*
X-42962858Y44546429D01*
X-43248572Y44546429D01*
X-43391429Y44617857D01*
X-41462858Y44617857D02*
X-41605715Y44546429D01*
X-41891429Y44546429D01*
X-42034286Y44617857D01*
X-42105715Y44760714D01*
X-42105715Y45332143D01*
X-42034286Y45475000D01*
X-41891429Y45546429D01*
X-41605715Y45546429D01*
X-41462858Y45475000D01*
X-41391429Y45332143D01*
X-41391429Y45189286D01*
X-42105715Y45046429D01*
X-40105715Y44617857D02*
X-40248572Y44546429D01*
X-40534286Y44546429D01*
X-40677144Y44617857D01*
X-40748572Y44689286D01*
X-40820001Y44832143D01*
X-40820001Y45260714D01*
X-40748572Y45403571D01*
X-40677144Y45475000D01*
X-40534286Y45546429D01*
X-40248572Y45546429D01*
X-40105715Y45475000D01*
X-39462858Y44546429D02*
X-39462858Y45546429D01*
X-39462858Y46046429D02*
X-39534287Y45975000D01*
X-39462858Y45903571D01*
X-39391430Y45975000D01*
X-39462858Y46046429D01*
X-39462858Y45903571D01*
X-38962858Y45546429D02*
X-38391429Y45546429D01*
X-38748572Y44546429D02*
X-38748572Y45832143D01*
X-38677144Y45975000D01*
X-38534286Y46046429D01*
X-38391429Y46046429D01*
X-37891429Y44546429D02*
X-37891429Y45546429D01*
X-37891429Y46046429D02*
X-37962858Y45975000D01*
X-37891429Y45903571D01*
X-37820001Y45975000D01*
X-37891429Y46046429D01*
X-37891429Y45903571D01*
X-36534286Y44617857D02*
X-36677143Y44546429D01*
X-36962857Y44546429D01*
X-37105715Y44617857D01*
X-37177143Y44689286D01*
X-37248572Y44832143D01*
X-37248572Y45260714D01*
X-37177143Y45403571D01*
X-37105715Y45475000D01*
X-36962857Y45546429D01*
X-36677143Y45546429D01*
X-36534286Y45475000D01*
X-35248572Y44546429D02*
X-35248572Y45332143D01*
X-35320001Y45475000D01*
X-35462858Y45546429D01*
X-35748572Y45546429D01*
X-35891429Y45475000D01*
X-35248572Y44617857D02*
X-35391429Y44546429D01*
X-35748572Y44546429D01*
X-35891429Y44617857D01*
X-35962858Y44760714D01*
X-35962858Y44903571D01*
X-35891429Y45046429D01*
X-35748572Y45117857D01*
X-35391429Y45117857D01*
X-35248572Y45189286D01*
X-34748572Y45546429D02*
X-34177143Y45546429D01*
X-34534286Y46046429D02*
X-34534286Y44760714D01*
X-34462858Y44617857D01*
X-34320000Y44546429D01*
X-34177143Y44546429D01*
X-33677143Y44546429D02*
X-33677143Y45546429D01*
X-33677143Y46046429D02*
X-33748572Y45975000D01*
X-33677143Y45903571D01*
X-33605715Y45975000D01*
X-33677143Y46046429D01*
X-33677143Y45903571D01*
X-32748571Y44546429D02*
X-32891429Y44617857D01*
X-32962857Y44689286D01*
X-33034286Y44832143D01*
X-33034286Y45260714D01*
X-32962857Y45403571D01*
X-32891429Y45475000D01*
X-32748571Y45546429D01*
X-32534286Y45546429D01*
X-32391429Y45475000D01*
X-32320000Y45403571D01*
X-32248571Y45260714D01*
X-32248571Y44832143D01*
X-32320000Y44689286D01*
X-32391429Y44617857D01*
X-32534286Y44546429D01*
X-32748571Y44546429D01*
X-31605714Y45546429D02*
X-31605714Y44546429D01*
X-31605714Y45403571D02*
X-31534286Y45475000D01*
X-31391428Y45546429D01*
X-31177143Y45546429D01*
X-31034286Y45475000D01*
X-30962857Y45332143D01*
X-30962857Y44546429D01*
X-97458571Y43296429D02*
X-98172857Y43296429D01*
X-98244286Y42582143D01*
X-98172857Y42653571D01*
X-98030000Y42725000D01*
X-97672857Y42725000D01*
X-97530000Y42653571D01*
X-97458571Y42582143D01*
X-97387143Y42439286D01*
X-97387143Y42082143D01*
X-97458571Y41939286D01*
X-97530000Y41867857D01*
X-97672857Y41796429D01*
X-98030000Y41796429D01*
X-98172857Y41867857D01*
X-98244286Y41939286D01*
X-96887143Y41225000D02*
X-96815715Y41296429D01*
X-96672858Y41510714D01*
X-96601429Y41653571D01*
X-96530000Y41867857D01*
X-96458572Y42225000D01*
X-96458572Y42510714D01*
X-96530000Y42867857D01*
X-96601429Y43082143D01*
X-96672858Y43225000D01*
X-96815715Y43439286D01*
X-96887143Y43510714D01*
X-94601429Y41796429D02*
X-94601429Y43296429D01*
X-94101429Y42225000D01*
X-93601429Y43296429D01*
X-93601429Y41796429D01*
X-92887143Y41796429D02*
X-92887143Y42796429D01*
X-92887143Y43296429D02*
X-92958572Y43225000D01*
X-92887143Y43153571D01*
X-92815715Y43225000D01*
X-92887143Y43296429D01*
X-92887143Y43153571D01*
X-92172857Y42796429D02*
X-92172857Y41796429D01*
X-92172857Y42653571D02*
X-92101429Y42725000D01*
X-91958571Y42796429D01*
X-91744286Y42796429D01*
X-91601429Y42725000D01*
X-91530000Y42582143D01*
X-91530000Y41796429D01*
X-90815714Y41796429D02*
X-90815714Y42796429D01*
X-90815714Y43296429D02*
X-90887143Y43225000D01*
X-90815714Y43153571D01*
X-90744286Y43225000D01*
X-90815714Y43296429D01*
X-90815714Y43153571D01*
X-90101428Y41796429D02*
X-90101428Y42796429D01*
X-90101428Y42653571D02*
X-90030000Y42725000D01*
X-89887142Y42796429D01*
X-89672857Y42796429D01*
X-89530000Y42725000D01*
X-89458571Y42582143D01*
X-89458571Y41796429D01*
X-89458571Y42582143D02*
X-89387142Y42725000D01*
X-89244285Y42796429D01*
X-89030000Y42796429D01*
X-88887142Y42725000D01*
X-88815714Y42582143D01*
X-88815714Y41796429D01*
X-87458571Y42796429D02*
X-87458571Y41796429D01*
X-88101428Y42796429D02*
X-88101428Y42010714D01*
X-88030000Y41867857D01*
X-87887142Y41796429D01*
X-87672857Y41796429D01*
X-87530000Y41867857D01*
X-87458571Y41939286D01*
X-86744285Y41796429D02*
X-86744285Y42796429D01*
X-86744285Y42653571D02*
X-86672857Y42725000D01*
X-86529999Y42796429D01*
X-86315714Y42796429D01*
X-86172857Y42725000D01*
X-86101428Y42582143D01*
X-86101428Y41796429D01*
X-86101428Y42582143D02*
X-86029999Y42725000D01*
X-85887142Y42796429D01*
X-85672857Y42796429D01*
X-85529999Y42725000D01*
X-85458571Y42582143D01*
X-85458571Y41796429D01*
X-83815714Y42796429D02*
X-83244285Y42796429D01*
X-83601428Y43296429D02*
X-83601428Y42010714D01*
X-83530000Y41867857D01*
X-83387142Y41796429D01*
X-83244285Y41796429D01*
X-82744285Y41796429D02*
X-82744285Y42796429D01*
X-82744285Y42510714D02*
X-82672857Y42653571D01*
X-82601428Y42725000D01*
X-82458571Y42796429D01*
X-82315714Y42796429D01*
X-81172857Y41796429D02*
X-81172857Y42582143D01*
X-81244286Y42725000D01*
X-81387143Y42796429D01*
X-81672857Y42796429D01*
X-81815714Y42725000D01*
X-81172857Y41867857D02*
X-81315714Y41796429D01*
X-81672857Y41796429D01*
X-81815714Y41867857D01*
X-81887143Y42010714D01*
X-81887143Y42153571D01*
X-81815714Y42296429D01*
X-81672857Y42367857D01*
X-81315714Y42367857D01*
X-81172857Y42439286D01*
X-79815714Y41867857D02*
X-79958571Y41796429D01*
X-80244285Y41796429D01*
X-80387143Y41867857D01*
X-80458571Y41939286D01*
X-80530000Y42082143D01*
X-80530000Y42510714D01*
X-80458571Y42653571D01*
X-80387143Y42725000D01*
X-80244285Y42796429D01*
X-79958571Y42796429D01*
X-79815714Y42725000D01*
X-78601429Y41867857D02*
X-78744286Y41796429D01*
X-79030000Y41796429D01*
X-79172857Y41867857D01*
X-79244286Y42010714D01*
X-79244286Y42582143D01*
X-79172857Y42725000D01*
X-79030000Y42796429D01*
X-78744286Y42796429D01*
X-78601429Y42725000D01*
X-78530000Y42582143D01*
X-78530000Y42439286D01*
X-79244286Y42296429D01*
X-76887143Y42796429D02*
X-76601429Y41796429D01*
X-76315715Y42510714D01*
X-76030000Y41796429D01*
X-75744286Y42796429D01*
X-75172857Y41796429D02*
X-75172857Y42796429D01*
X-75172857Y43296429D02*
X-75244286Y43225000D01*
X-75172857Y43153571D01*
X-75101429Y43225000D01*
X-75172857Y43296429D01*
X-75172857Y43153571D01*
X-73815714Y41796429D02*
X-73815714Y43296429D01*
X-73815714Y41867857D02*
X-73958571Y41796429D01*
X-74244285Y41796429D01*
X-74387143Y41867857D01*
X-74458571Y41939286D01*
X-74530000Y42082143D01*
X-74530000Y42510714D01*
X-74458571Y42653571D01*
X-74387143Y42725000D01*
X-74244285Y42796429D01*
X-73958571Y42796429D01*
X-73815714Y42725000D01*
X-73315714Y42796429D02*
X-72744285Y42796429D01*
X-73101428Y43296429D02*
X-73101428Y42010714D01*
X-73030000Y41867857D01*
X-72887142Y41796429D01*
X-72744285Y41796429D01*
X-72244285Y41796429D02*
X-72244285Y43296429D01*
X-71601428Y41796429D02*
X-71601428Y42582143D01*
X-71672857Y42725000D01*
X-71815714Y42796429D01*
X-72029999Y42796429D01*
X-72172857Y42725000D01*
X-72244285Y42653571D01*
X-69101428Y43296429D02*
X-69387142Y43296429D01*
X-69529999Y43225000D01*
X-69601428Y43153571D01*
X-69744285Y42939286D01*
X-69815714Y42653571D01*
X-69815714Y42082143D01*
X-69744285Y41939286D01*
X-69672857Y41867857D01*
X-69529999Y41796429D01*
X-69244285Y41796429D01*
X-69101428Y41867857D01*
X-69029999Y41939286D01*
X-68958571Y42082143D01*
X-68958571Y42439286D01*
X-69029999Y42582143D01*
X-69101428Y42653571D01*
X-69244285Y42725000D01*
X-69529999Y42725000D01*
X-69672857Y42653571D01*
X-69744285Y42582143D01*
X-69815714Y42439286D01*
X-67172857Y41796429D02*
X-67172857Y42796429D01*
X-67172857Y42653571D02*
X-67101429Y42725000D01*
X-66958571Y42796429D01*
X-66744286Y42796429D01*
X-66601429Y42725000D01*
X-66530000Y42582143D01*
X-66530000Y41796429D01*
X-66530000Y42582143D02*
X-66458571Y42725000D01*
X-66315714Y42796429D01*
X-66101429Y42796429D01*
X-65958571Y42725000D01*
X-65887143Y42582143D01*
X-65887143Y41796429D01*
X-65172857Y41796429D02*
X-65172857Y42796429D01*
X-65172857Y43296429D02*
X-65244286Y43225000D01*
X-65172857Y43153571D01*
X-65101429Y43225000D01*
X-65172857Y43296429D01*
X-65172857Y43153571D01*
X-64244285Y41796429D02*
X-64387143Y41867857D01*
X-64458571Y42010714D01*
X-64458571Y43296429D01*
X-63601429Y41867857D02*
X-63601429Y41796429D01*
X-63672857Y41653571D01*
X-63744286Y41582143D01*
X-61815714Y41796429D02*
X-61815714Y42796429D01*
X-61815714Y42653571D02*
X-61744286Y42725000D01*
X-61601428Y42796429D01*
X-61387143Y42796429D01*
X-61244286Y42725000D01*
X-61172857Y42582143D01*
X-61172857Y41796429D01*
X-61172857Y42582143D02*
X-61101428Y42725000D01*
X-60958571Y42796429D01*
X-60744286Y42796429D01*
X-60601428Y42725000D01*
X-60530000Y42582143D01*
X-60530000Y41796429D01*
X-59815714Y41796429D02*
X-59815714Y42796429D01*
X-59815714Y43296429D02*
X-59887143Y43225000D01*
X-59815714Y43153571D01*
X-59744286Y43225000D01*
X-59815714Y43296429D01*
X-59815714Y43153571D01*
X-59101428Y42796429D02*
X-59101428Y41796429D01*
X-59101428Y42653571D02*
X-59030000Y42725000D01*
X-58887142Y42796429D01*
X-58672857Y42796429D01*
X-58530000Y42725000D01*
X-58458571Y42582143D01*
X-58458571Y41796429D01*
X-57744285Y41796429D02*
X-57744285Y42796429D01*
X-57744285Y43296429D02*
X-57815714Y43225000D01*
X-57744285Y43153571D01*
X-57672857Y43225000D01*
X-57744285Y43296429D01*
X-57744285Y43153571D01*
X-57029999Y41796429D02*
X-57029999Y42796429D01*
X-57029999Y42653571D02*
X-56958571Y42725000D01*
X-56815713Y42796429D01*
X-56601428Y42796429D01*
X-56458571Y42725000D01*
X-56387142Y42582143D01*
X-56387142Y41796429D01*
X-56387142Y42582143D02*
X-56315713Y42725000D01*
X-56172856Y42796429D01*
X-55958571Y42796429D01*
X-55815713Y42725000D01*
X-55744285Y42582143D01*
X-55744285Y41796429D01*
X-54387142Y42796429D02*
X-54387142Y41796429D01*
X-55029999Y42796429D02*
X-55029999Y42010714D01*
X-54958571Y41867857D01*
X-54815713Y41796429D01*
X-54601428Y41796429D01*
X-54458571Y41867857D01*
X-54387142Y41939286D01*
X-53672856Y41796429D02*
X-53672856Y42796429D01*
X-53672856Y42653571D02*
X-53601428Y42725000D01*
X-53458570Y42796429D01*
X-53244285Y42796429D01*
X-53101428Y42725000D01*
X-53029999Y42582143D01*
X-53029999Y41796429D01*
X-53029999Y42582143D02*
X-52958570Y42725000D01*
X-52815713Y42796429D01*
X-52601428Y42796429D01*
X-52458570Y42725000D01*
X-52387142Y42582143D01*
X-52387142Y41796429D01*
X-50601428Y41867857D02*
X-50458571Y41796429D01*
X-50172856Y41796429D01*
X-50029999Y41867857D01*
X-49958571Y42010714D01*
X-49958571Y42082143D01*
X-50029999Y42225000D01*
X-50172856Y42296429D01*
X-50387142Y42296429D01*
X-50529999Y42367857D01*
X-50601428Y42510714D01*
X-50601428Y42582143D01*
X-50529999Y42725000D01*
X-50387142Y42796429D01*
X-50172856Y42796429D01*
X-50029999Y42725000D01*
X-49315713Y42796429D02*
X-49315713Y41296429D01*
X-49315713Y42725000D02*
X-49172856Y42796429D01*
X-48887142Y42796429D01*
X-48744285Y42725000D01*
X-48672856Y42653571D01*
X-48601427Y42510714D01*
X-48601427Y42082143D01*
X-48672856Y41939286D01*
X-48744285Y41867857D01*
X-48887142Y41796429D01*
X-49172856Y41796429D01*
X-49315713Y41867857D01*
X-47315713Y41796429D02*
X-47315713Y42582143D01*
X-47387142Y42725000D01*
X-47529999Y42796429D01*
X-47815713Y42796429D01*
X-47958570Y42725000D01*
X-47315713Y41867857D02*
X-47458570Y41796429D01*
X-47815713Y41796429D01*
X-47958570Y41867857D01*
X-48029999Y42010714D01*
X-48029999Y42153571D01*
X-47958570Y42296429D01*
X-47815713Y42367857D01*
X-47458570Y42367857D01*
X-47315713Y42439286D01*
X-45958570Y41867857D02*
X-46101427Y41796429D01*
X-46387141Y41796429D01*
X-46529999Y41867857D01*
X-46601427Y41939286D01*
X-46672856Y42082143D01*
X-46672856Y42510714D01*
X-46601427Y42653571D01*
X-46529999Y42725000D01*
X-46387141Y42796429D01*
X-46101427Y42796429D01*
X-45958570Y42725000D01*
X-45315713Y41796429D02*
X-45315713Y42796429D01*
X-45315713Y43296429D02*
X-45387142Y43225000D01*
X-45315713Y43153571D01*
X-45244285Y43225000D01*
X-45315713Y43296429D01*
X-45315713Y43153571D01*
X-44601427Y42796429D02*
X-44601427Y41796429D01*
X-44601427Y42653571D02*
X-44529999Y42725000D01*
X-44387141Y42796429D01*
X-44172856Y42796429D01*
X-44029999Y42725000D01*
X-43958570Y42582143D01*
X-43958570Y41796429D01*
X-42601427Y42796429D02*
X-42601427Y41582143D01*
X-42672856Y41439286D01*
X-42744284Y41367857D01*
X-42887141Y41296429D01*
X-43101427Y41296429D01*
X-43244284Y41367857D01*
X-42601427Y41867857D02*
X-42744284Y41796429D01*
X-43029998Y41796429D01*
X-43172856Y41867857D01*
X-43244284Y41939286D01*
X-43315713Y42082143D01*
X-43315713Y42510714D01*
X-43244284Y42653571D01*
X-43172856Y42725000D01*
X-43029998Y42796429D01*
X-42744284Y42796429D01*
X-42601427Y42725000D01*
X-40101427Y43296429D02*
X-40387141Y43296429D01*
X-40529998Y43225000D01*
X-40601427Y43153571D01*
X-40744284Y42939286D01*
X-40815713Y42653571D01*
X-40815713Y42082143D01*
X-40744284Y41939286D01*
X-40672856Y41867857D01*
X-40529998Y41796429D01*
X-40244284Y41796429D01*
X-40101427Y41867857D01*
X-40029998Y41939286D01*
X-39958570Y42082143D01*
X-39958570Y42439286D01*
X-40029998Y42582143D01*
X-40101427Y42653571D01*
X-40244284Y42725000D01*
X-40529998Y42725000D01*
X-40672856Y42653571D01*
X-40744284Y42582143D01*
X-40815713Y42439286D01*
X-38172856Y41796429D02*
X-38172856Y42796429D01*
X-38172856Y42653571D02*
X-38101428Y42725000D01*
X-37958570Y42796429D01*
X-37744285Y42796429D01*
X-37601428Y42725000D01*
X-37529999Y42582143D01*
X-37529999Y41796429D01*
X-37529999Y42582143D02*
X-37458570Y42725000D01*
X-37315713Y42796429D01*
X-37101428Y42796429D01*
X-36958570Y42725000D01*
X-36887142Y42582143D01*
X-36887142Y41796429D01*
X-36172856Y41796429D02*
X-36172856Y42796429D01*
X-36172856Y43296429D02*
X-36244285Y43225000D01*
X-36172856Y43153571D01*
X-36101428Y43225000D01*
X-36172856Y43296429D01*
X-36172856Y43153571D01*
X-35244284Y41796429D02*
X-35387142Y41867857D01*
X-35458570Y42010714D01*
X-35458570Y43296429D01*
X-97522142Y40546429D02*
X-97807856Y40546429D01*
X-97950713Y40475000D01*
X-98022142Y40403571D01*
X-98164999Y40189286D01*
X-98236428Y39903571D01*
X-98236428Y39332143D01*
X-98164999Y39189286D01*
X-98093571Y39117857D01*
X-97950713Y39046429D01*
X-97664999Y39046429D01*
X-97522142Y39117857D01*
X-97450713Y39189286D01*
X-97379285Y39332143D01*
X-97379285Y39689286D01*
X-97450713Y39832143D01*
X-97522142Y39903571D01*
X-97664999Y39975000D01*
X-97950713Y39975000D01*
X-98093571Y39903571D01*
X-98164999Y39832143D01*
X-98236428Y39689286D01*
X-96879285Y38475000D02*
X-96807857Y38546429D01*
X-96665000Y38760714D01*
X-96593571Y38903571D01*
X-96522142Y39117857D01*
X-96450714Y39475000D01*
X-96450714Y39760714D01*
X-96522142Y40117857D01*
X-96593571Y40332143D01*
X-96665000Y40475000D01*
X-96807857Y40689286D01*
X-96879285Y40760714D01*
X-94665000Y39475000D02*
X-93950714Y39475000D01*
X-94807857Y39046429D02*
X-94307857Y40546429D01*
X-93807857Y39046429D01*
X-93307857Y40046429D02*
X-93307857Y38546429D01*
X-93307857Y39975000D02*
X-93165000Y40046429D01*
X-92879286Y40046429D01*
X-92736429Y39975000D01*
X-92665000Y39903571D01*
X-92593571Y39760714D01*
X-92593571Y39332143D01*
X-92665000Y39189286D01*
X-92736429Y39117857D01*
X-92879286Y39046429D01*
X-93165000Y39046429D01*
X-93307857Y39117857D01*
X-91950714Y40046429D02*
X-91950714Y38546429D01*
X-91950714Y39975000D02*
X-91807857Y40046429D01*
X-91522143Y40046429D01*
X-91379286Y39975000D01*
X-91307857Y39903571D01*
X-91236428Y39760714D01*
X-91236428Y39332143D01*
X-91307857Y39189286D01*
X-91379286Y39117857D01*
X-91522143Y39046429D01*
X-91807857Y39046429D01*
X-91950714Y39117857D01*
X-90379285Y39046429D02*
X-90522143Y39117857D01*
X-90593571Y39260714D01*
X-90593571Y40546429D01*
X-89950714Y40046429D02*
X-89593571Y39046429D01*
X-89236429Y40046429D02*
X-89593571Y39046429D01*
X-89736429Y38689286D01*
X-89807857Y38617857D01*
X-89950714Y38546429D01*
X-86807857Y39046429D02*
X-87522143Y39046429D01*
X-87522143Y40546429D01*
X-86307857Y39046429D02*
X-86307857Y40546429D01*
X-85736429Y40546429D01*
X-85593571Y40475000D01*
X-85522143Y40403571D01*
X-85450714Y40260714D01*
X-85450714Y40046429D01*
X-85522143Y39903571D01*
X-85593571Y39832143D01*
X-85736429Y39760714D01*
X-86307857Y39760714D01*
X-84807857Y39046429D02*
X-84807857Y40546429D01*
X-83022143Y39117857D02*
X-82879286Y39046429D01*
X-82593571Y39046429D01*
X-82450714Y39117857D01*
X-82379286Y39260714D01*
X-82379286Y39332143D01*
X-82450714Y39475000D01*
X-82593571Y39546429D01*
X-82807857Y39546429D01*
X-82950714Y39617857D01*
X-83022143Y39760714D01*
X-83022143Y39832143D01*
X-82950714Y39975000D01*
X-82807857Y40046429D01*
X-82593571Y40046429D01*
X-82450714Y39975000D01*
X-81522142Y39046429D02*
X-81665000Y39117857D01*
X-81736428Y39189286D01*
X-81807857Y39332143D01*
X-81807857Y39760714D01*
X-81736428Y39903571D01*
X-81665000Y39975000D01*
X-81522142Y40046429D01*
X-81307857Y40046429D01*
X-81165000Y39975000D01*
X-81093571Y39903571D01*
X-81022142Y39760714D01*
X-81022142Y39332143D01*
X-81093571Y39189286D01*
X-81165000Y39117857D01*
X-81307857Y39046429D01*
X-81522142Y39046429D01*
X-80164999Y39046429D02*
X-80307857Y39117857D01*
X-80379285Y39260714D01*
X-80379285Y40546429D01*
X-78950714Y39046429D02*
X-78950714Y40546429D01*
X-78950714Y39117857D02*
X-79093571Y39046429D01*
X-79379285Y39046429D01*
X-79522143Y39117857D01*
X-79593571Y39189286D01*
X-79665000Y39332143D01*
X-79665000Y39760714D01*
X-79593571Y39903571D01*
X-79522143Y39975000D01*
X-79379285Y40046429D01*
X-79093571Y40046429D01*
X-78950714Y39975000D01*
X-77665000Y39117857D02*
X-77807857Y39046429D01*
X-78093571Y39046429D01*
X-78236428Y39117857D01*
X-78307857Y39260714D01*
X-78307857Y39832143D01*
X-78236428Y39975000D01*
X-78093571Y40046429D01*
X-77807857Y40046429D01*
X-77665000Y39975000D01*
X-77593571Y39832143D01*
X-77593571Y39689286D01*
X-78307857Y39546429D01*
X-76950714Y39046429D02*
X-76950714Y40046429D01*
X-76950714Y39760714D02*
X-76879286Y39903571D01*
X-76807857Y39975000D01*
X-76665000Y40046429D01*
X-76522143Y40046429D01*
X-76022143Y39046429D02*
X-76022143Y40046429D01*
X-76022143Y39903571D02*
X-75950715Y39975000D01*
X-75807857Y40046429D01*
X-75593572Y40046429D01*
X-75450715Y39975000D01*
X-75379286Y39832143D01*
X-75379286Y39046429D01*
X-75379286Y39832143D02*
X-75307857Y39975000D01*
X-75165000Y40046429D01*
X-74950715Y40046429D01*
X-74807857Y39975000D01*
X-74736429Y39832143D01*
X-74736429Y39046429D01*
X-73379286Y39046429D02*
X-73379286Y39832143D01*
X-73450715Y39975000D01*
X-73593572Y40046429D01*
X-73879286Y40046429D01*
X-74022143Y39975000D01*
X-73379286Y39117857D02*
X-73522143Y39046429D01*
X-73879286Y39046429D01*
X-74022143Y39117857D01*
X-74093572Y39260714D01*
X-74093572Y39403571D01*
X-74022143Y39546429D01*
X-73879286Y39617857D01*
X-73522143Y39617857D01*
X-73379286Y39689286D01*
X-72736429Y39117857D02*
X-72593572Y39046429D01*
X-72307857Y39046429D01*
X-72165000Y39117857D01*
X-72093572Y39260714D01*
X-72093572Y39332143D01*
X-72165000Y39475000D01*
X-72307857Y39546429D01*
X-72522143Y39546429D01*
X-72665000Y39617857D01*
X-72736429Y39760714D01*
X-72736429Y39832143D01*
X-72665000Y39975000D01*
X-72522143Y40046429D01*
X-72307857Y40046429D01*
X-72165000Y39975000D01*
X-71450714Y39046429D02*
X-71450714Y40546429D01*
X-71307857Y39617857D02*
X-70879286Y39046429D01*
X-70879286Y40046429D02*
X-71450714Y39475000D01*
X-69665000Y39117857D02*
X-69807857Y39046429D01*
X-70093571Y39046429D01*
X-70236428Y39117857D01*
X-70307857Y39260714D01*
X-70307857Y39832143D01*
X-70236428Y39975000D01*
X-70093571Y40046429D01*
X-69807857Y40046429D01*
X-69665000Y39975000D01*
X-69593571Y39832143D01*
X-69593571Y39689286D01*
X-70307857Y39546429D01*
X-68950714Y39046429D02*
X-68950714Y40046429D01*
X-68950714Y39760714D02*
X-68879286Y39903571D01*
X-68807857Y39975000D01*
X-68665000Y40046429D01*
X-68522143Y40046429D01*
X-66450715Y38475000D02*
X-66522143Y38546429D01*
X-66665000Y38760714D01*
X-66736429Y38903571D01*
X-66807858Y39117857D01*
X-66879286Y39475000D01*
X-66879286Y39760714D01*
X-66807858Y40117857D01*
X-66736429Y40332143D01*
X-66665000Y40475000D01*
X-66522143Y40689286D01*
X-66450715Y40760714D01*
X-65879286Y39046429D02*
X-65879286Y40546429D01*
X-65879286Y39975000D02*
X-65736429Y40046429D01*
X-65450715Y40046429D01*
X-65307858Y39975000D01*
X-65236429Y39903571D01*
X-65165000Y39760714D01*
X-65165000Y39332143D01*
X-65236429Y39189286D01*
X-65307858Y39117857D01*
X-65450715Y39046429D01*
X-65736429Y39046429D01*
X-65879286Y39117857D01*
X-64307857Y39046429D02*
X-64450715Y39117857D01*
X-64522143Y39260714D01*
X-64522143Y40546429D01*
X-63093572Y40046429D02*
X-63093572Y39046429D01*
X-63736429Y40046429D02*
X-63736429Y39260714D01*
X-63665001Y39117857D01*
X-63522143Y39046429D01*
X-63307858Y39046429D01*
X-63165001Y39117857D01*
X-63093572Y39189286D01*
X-61807858Y39117857D02*
X-61950715Y39046429D01*
X-62236429Y39046429D01*
X-62379286Y39117857D01*
X-62450715Y39260714D01*
X-62450715Y39832143D01*
X-62379286Y39975000D01*
X-62236429Y40046429D01*
X-61950715Y40046429D01*
X-61807858Y39975000D01*
X-61736429Y39832143D01*
X-61736429Y39689286D01*
X-62450715Y39546429D01*
X-61236429Y38475000D02*
X-61165001Y38546429D01*
X-61022144Y38760714D01*
X-60950715Y38903571D01*
X-60879286Y39117857D01*
X-60807858Y39475000D01*
X-60807858Y39760714D01*
X-60879286Y40117857D01*
X-60950715Y40332143D01*
X-61022144Y40475000D01*
X-61165001Y40689286D01*
X-61236429Y40760714D01*
X-58736429Y39046429D02*
X-58879287Y39117857D01*
X-58950715Y39189286D01*
X-59022144Y39332143D01*
X-59022144Y39760714D01*
X-58950715Y39903571D01*
X-58879287Y39975000D01*
X-58736429Y40046429D01*
X-58522144Y40046429D01*
X-58379287Y39975000D01*
X-58307858Y39903571D01*
X-58236429Y39760714D01*
X-58236429Y39332143D01*
X-58307858Y39189286D01*
X-58379287Y39117857D01*
X-58522144Y39046429D01*
X-58736429Y39046429D01*
X-57593572Y40046429D02*
X-57593572Y39046429D01*
X-57593572Y39903571D02*
X-57522144Y39975000D01*
X-57379286Y40046429D01*
X-57165001Y40046429D01*
X-57022144Y39975000D01*
X-56950715Y39832143D01*
X-56950715Y39046429D01*
X-55307858Y40046429D02*
X-54736429Y40046429D01*
X-55093572Y39046429D02*
X-55093572Y40332143D01*
X-55022144Y40475000D01*
X-54879286Y40546429D01*
X-54736429Y40546429D01*
X-54236429Y39046429D02*
X-54236429Y40046429D01*
X-54236429Y39760714D02*
X-54165001Y39903571D01*
X-54093572Y39975000D01*
X-53950715Y40046429D01*
X-53807858Y40046429D01*
X-53093572Y39046429D02*
X-53236430Y39117857D01*
X-53307858Y39189286D01*
X-53379287Y39332143D01*
X-53379287Y39760714D01*
X-53307858Y39903571D01*
X-53236430Y39975000D01*
X-53093572Y40046429D01*
X-52879287Y40046429D01*
X-52736430Y39975000D01*
X-52665001Y39903571D01*
X-52593572Y39760714D01*
X-52593572Y39332143D01*
X-52665001Y39189286D01*
X-52736430Y39117857D01*
X-52879287Y39046429D01*
X-53093572Y39046429D01*
X-51950715Y40046429D02*
X-51950715Y39046429D01*
X-51950715Y39903571D02*
X-51879287Y39975000D01*
X-51736429Y40046429D01*
X-51522144Y40046429D01*
X-51379287Y39975000D01*
X-51307858Y39832143D01*
X-51307858Y39046429D01*
X-50807858Y40046429D02*
X-50236429Y40046429D01*
X-50593572Y40546429D02*
X-50593572Y39260714D01*
X-50522144Y39117857D01*
X-50379286Y39046429D01*
X-50236429Y39046429D01*
X-47950715Y39046429D02*
X-47950715Y39832143D01*
X-48022144Y39975000D01*
X-48165001Y40046429D01*
X-48450715Y40046429D01*
X-48593572Y39975000D01*
X-47950715Y39117857D02*
X-48093572Y39046429D01*
X-48450715Y39046429D01*
X-48593572Y39117857D01*
X-48665001Y39260714D01*
X-48665001Y39403571D01*
X-48593572Y39546429D01*
X-48450715Y39617857D01*
X-48093572Y39617857D01*
X-47950715Y39689286D01*
X-47236429Y40046429D02*
X-47236429Y39046429D01*
X-47236429Y39903571D02*
X-47165001Y39975000D01*
X-47022143Y40046429D01*
X-46807858Y40046429D01*
X-46665001Y39975000D01*
X-46593572Y39832143D01*
X-46593572Y39046429D01*
X-45236429Y39046429D02*
X-45236429Y40546429D01*
X-45236429Y39117857D02*
X-45379286Y39046429D01*
X-45665000Y39046429D01*
X-45807858Y39117857D01*
X-45879286Y39189286D01*
X-45950715Y39332143D01*
X-45950715Y39760714D01*
X-45879286Y39903571D01*
X-45807858Y39975000D01*
X-45665000Y40046429D01*
X-45379286Y40046429D01*
X-45236429Y39975000D01*
X-43379286Y39046429D02*
X-43379286Y40546429D01*
X-43379286Y39975000D02*
X-43236429Y40046429D01*
X-42950715Y40046429D01*
X-42807858Y39975000D01*
X-42736429Y39903571D01*
X-42665000Y39760714D01*
X-42665000Y39332143D01*
X-42736429Y39189286D01*
X-42807858Y39117857D01*
X-42950715Y39046429D01*
X-43236429Y39046429D01*
X-43379286Y39117857D01*
X-41379286Y39046429D02*
X-41379286Y39832143D01*
X-41450715Y39975000D01*
X-41593572Y40046429D01*
X-41879286Y40046429D01*
X-42022143Y39975000D01*
X-41379286Y39117857D02*
X-41522143Y39046429D01*
X-41879286Y39046429D01*
X-42022143Y39117857D01*
X-42093572Y39260714D01*
X-42093572Y39403571D01*
X-42022143Y39546429D01*
X-41879286Y39617857D01*
X-41522143Y39617857D01*
X-41379286Y39689286D01*
X-40022143Y39117857D02*
X-40165000Y39046429D01*
X-40450714Y39046429D01*
X-40593572Y39117857D01*
X-40665000Y39189286D01*
X-40736429Y39332143D01*
X-40736429Y39760714D01*
X-40665000Y39903571D01*
X-40593572Y39975000D01*
X-40450714Y40046429D01*
X-40165000Y40046429D01*
X-40022143Y39975000D01*
X-39379286Y39046429D02*
X-39379286Y40546429D01*
X-39236429Y39617857D02*
X-38807858Y39046429D01*
X-38807858Y40046429D02*
X-39379286Y39475000D01*
X-37093572Y39117857D02*
X-36950715Y39046429D01*
X-36665000Y39046429D01*
X-36522143Y39117857D01*
X-36450715Y39260714D01*
X-36450715Y39332143D01*
X-36522143Y39475000D01*
X-36665000Y39546429D01*
X-36879286Y39546429D01*
X-37022143Y39617857D01*
X-37093572Y39760714D01*
X-37093572Y39832143D01*
X-37022143Y39975000D01*
X-36879286Y40046429D01*
X-36665000Y40046429D01*
X-36522143Y39975000D01*
X-35807857Y39046429D02*
X-35807857Y40046429D01*
X-35807857Y40546429D02*
X-35879286Y40475000D01*
X-35807857Y40403571D01*
X-35736429Y40475000D01*
X-35807857Y40546429D01*
X-35807857Y40403571D01*
X-34450714Y39046429D02*
X-34450714Y40546429D01*
X-34450714Y39117857D02*
X-34593571Y39046429D01*
X-34879285Y39046429D01*
X-35022143Y39117857D01*
X-35093571Y39189286D01*
X-35165000Y39332143D01*
X-35165000Y39760714D01*
X-35093571Y39903571D01*
X-35022143Y39975000D01*
X-34879285Y40046429D01*
X-34593571Y40046429D01*
X-34450714Y39975000D01*
X-33165000Y39117857D02*
X-33307857Y39046429D01*
X-33593571Y39046429D01*
X-33736428Y39117857D01*
X-33807857Y39260714D01*
X-33807857Y39832143D01*
X-33736428Y39975000D01*
X-33593571Y40046429D01*
X-33307857Y40046429D01*
X-33165000Y39975000D01*
X-33093571Y39832143D01*
X-33093571Y39689286D01*
X-33807857Y39546429D01*
X-98240715Y37796429D02*
X-97240715Y37796429D01*
X-97883572Y36296429D01*
X-96812144Y35725000D02*
X-96740716Y35796429D01*
X-96597859Y36010714D01*
X-96526430Y36153571D01*
X-96455001Y36367857D01*
X-96383573Y36725000D01*
X-96383573Y37010714D01*
X-96455001Y37367857D01*
X-96526430Y37582143D01*
X-96597859Y37725000D01*
X-96740716Y37939286D01*
X-96812144Y38010714D01*
X-94597859Y36367857D02*
X-94383573Y36296429D01*
X-94026430Y36296429D01*
X-93883573Y36367857D01*
X-93812144Y36439286D01*
X-93740716Y36582143D01*
X-93740716Y36725000D01*
X-93812144Y36867857D01*
X-93883573Y36939286D01*
X-94026430Y37010714D01*
X-94312144Y37082143D01*
X-94455002Y37153571D01*
X-94526430Y37225000D01*
X-94597859Y37367857D01*
X-94597859Y37510714D01*
X-94526430Y37653571D01*
X-94455002Y37725000D01*
X-94312144Y37796429D01*
X-93955002Y37796429D01*
X-93740716Y37725000D01*
X-93097859Y36296429D02*
X-93097859Y37296429D01*
X-93097859Y37796429D02*
X-93169288Y37725000D01*
X-93097859Y37653571D01*
X-93026431Y37725000D01*
X-93097859Y37796429D01*
X-93097859Y37653571D01*
X-92169287Y36296429D02*
X-92312145Y36367857D01*
X-92383573Y36510714D01*
X-92383573Y37796429D01*
X-91597859Y36296429D02*
X-91597859Y37796429D01*
X-91455002Y36867857D02*
X-91026431Y36296429D01*
X-91026431Y37296429D02*
X-91597859Y36725000D01*
X-90455002Y36367857D02*
X-90312145Y36296429D01*
X-90026430Y36296429D01*
X-89883573Y36367857D01*
X-89812145Y36510714D01*
X-89812145Y36582143D01*
X-89883573Y36725000D01*
X-90026430Y36796429D01*
X-90240716Y36796429D01*
X-90383573Y36867857D01*
X-90455002Y37010714D01*
X-90455002Y37082143D01*
X-90383573Y37225000D01*
X-90240716Y37296429D01*
X-90026430Y37296429D01*
X-89883573Y37225000D01*
X-88526430Y36367857D02*
X-88669287Y36296429D01*
X-88955001Y36296429D01*
X-89097859Y36367857D01*
X-89169287Y36439286D01*
X-89240716Y36582143D01*
X-89240716Y37010714D01*
X-89169287Y37153571D01*
X-89097859Y37225000D01*
X-88955001Y37296429D01*
X-88669287Y37296429D01*
X-88526430Y37225000D01*
X-87883573Y36296429D02*
X-87883573Y37296429D01*
X-87883573Y37010714D02*
X-87812145Y37153571D01*
X-87740716Y37225000D01*
X-87597859Y37296429D01*
X-87455002Y37296429D01*
X-86383574Y36367857D02*
X-86526431Y36296429D01*
X-86812145Y36296429D01*
X-86955002Y36367857D01*
X-87026431Y36510714D01*
X-87026431Y37082143D01*
X-86955002Y37225000D01*
X-86812145Y37296429D01*
X-86526431Y37296429D01*
X-86383574Y37225000D01*
X-86312145Y37082143D01*
X-86312145Y36939286D01*
X-87026431Y36796429D01*
X-85097860Y36367857D02*
X-85240717Y36296429D01*
X-85526431Y36296429D01*
X-85669288Y36367857D01*
X-85740717Y36510714D01*
X-85740717Y37082143D01*
X-85669288Y37225000D01*
X-85526431Y37296429D01*
X-85240717Y37296429D01*
X-85097860Y37225000D01*
X-85026431Y37082143D01*
X-85026431Y36939286D01*
X-85740717Y36796429D01*
X-84383574Y37296429D02*
X-84383574Y36296429D01*
X-84383574Y37153571D02*
X-84312146Y37225000D01*
X-84169288Y37296429D01*
X-83955003Y37296429D01*
X-83812146Y37225000D01*
X-83740717Y37082143D01*
X-83740717Y36296429D01*
X-81669288Y36296429D02*
X-81812146Y36367857D01*
X-81883574Y36439286D01*
X-81955003Y36582143D01*
X-81955003Y37010714D01*
X-81883574Y37153571D01*
X-81812146Y37225000D01*
X-81669288Y37296429D01*
X-81455003Y37296429D01*
X-81312146Y37225000D01*
X-81240717Y37153571D01*
X-81169288Y37010714D01*
X-81169288Y36582143D01*
X-81240717Y36439286D01*
X-81312146Y36367857D01*
X-81455003Y36296429D01*
X-81669288Y36296429D01*
X-80526431Y37296429D02*
X-80526431Y36296429D01*
X-80526431Y37153571D02*
X-80455003Y37225000D01*
X-80312145Y37296429D01*
X-80097860Y37296429D01*
X-79955003Y37225000D01*
X-79883574Y37082143D01*
X-79883574Y36296429D01*
X-78240717Y37296429D02*
X-77669288Y37296429D01*
X-78026431Y37796429D02*
X-78026431Y36510714D01*
X-77955003Y36367857D01*
X-77812145Y36296429D01*
X-77669288Y36296429D01*
X-76955002Y36296429D02*
X-77097860Y36367857D01*
X-77169288Y36439286D01*
X-77240717Y36582143D01*
X-77240717Y37010714D01*
X-77169288Y37153571D01*
X-77097860Y37225000D01*
X-76955002Y37296429D01*
X-76740717Y37296429D01*
X-76597860Y37225000D01*
X-76526431Y37153571D01*
X-76455002Y37010714D01*
X-76455002Y36582143D01*
X-76526431Y36439286D01*
X-76597860Y36367857D01*
X-76740717Y36296429D01*
X-76955002Y36296429D01*
X-75812145Y37296429D02*
X-75812145Y35796429D01*
X-75812145Y37225000D02*
X-75669288Y37296429D01*
X-75383574Y37296429D01*
X-75240717Y37225000D01*
X-75169288Y37153571D01*
X-75097859Y37010714D01*
X-75097859Y36582143D01*
X-75169288Y36439286D01*
X-75240717Y36367857D01*
X-75383574Y36296429D01*
X-75669288Y36296429D01*
X-75812145Y36367857D01*
X-72669288Y36296429D02*
X-72669288Y37082143D01*
X-72740717Y37225000D01*
X-72883574Y37296429D01*
X-73169288Y37296429D01*
X-73312145Y37225000D01*
X-72669288Y36367857D02*
X-72812145Y36296429D01*
X-73169288Y36296429D01*
X-73312145Y36367857D01*
X-73383574Y36510714D01*
X-73383574Y36653571D01*
X-73312145Y36796429D01*
X-73169288Y36867857D01*
X-72812145Y36867857D01*
X-72669288Y36939286D01*
X-71955002Y37296429D02*
X-71955002Y36296429D01*
X-71955002Y37153571D02*
X-71883574Y37225000D01*
X-71740716Y37296429D01*
X-71526431Y37296429D01*
X-71383574Y37225000D01*
X-71312145Y37082143D01*
X-71312145Y36296429D01*
X-69955002Y36296429D02*
X-69955002Y37796429D01*
X-69955002Y36367857D02*
X-70097859Y36296429D01*
X-70383573Y36296429D01*
X-70526431Y36367857D01*
X-70597859Y36439286D01*
X-70669288Y36582143D01*
X-70669288Y37010714D01*
X-70597859Y37153571D01*
X-70526431Y37225000D01*
X-70383573Y37296429D01*
X-70097859Y37296429D01*
X-69955002Y37225000D01*
X-68097859Y36296429D02*
X-68097859Y37796429D01*
X-68097859Y37225000D02*
X-67955002Y37296429D01*
X-67669288Y37296429D01*
X-67526431Y37225000D01*
X-67455002Y37153571D01*
X-67383573Y37010714D01*
X-67383573Y36582143D01*
X-67455002Y36439286D01*
X-67526431Y36367857D01*
X-67669288Y36296429D01*
X-67955002Y36296429D01*
X-68097859Y36367857D01*
X-66526430Y36296429D02*
X-66669288Y36367857D01*
X-66740716Y36439286D01*
X-66812145Y36582143D01*
X-66812145Y37010714D01*
X-66740716Y37153571D01*
X-66669288Y37225000D01*
X-66526430Y37296429D01*
X-66312145Y37296429D01*
X-66169288Y37225000D01*
X-66097859Y37153571D01*
X-66026430Y37010714D01*
X-66026430Y36582143D01*
X-66097859Y36439286D01*
X-66169288Y36367857D01*
X-66312145Y36296429D01*
X-66526430Y36296429D01*
X-65597859Y37296429D02*
X-65026430Y37296429D01*
X-65383573Y37796429D02*
X-65383573Y36510714D01*
X-65312145Y36367857D01*
X-65169287Y36296429D01*
X-65026430Y36296429D01*
X-64740716Y37296429D02*
X-64169287Y37296429D01*
X-64526430Y37796429D02*
X-64526430Y36510714D01*
X-64455002Y36367857D01*
X-64312144Y36296429D01*
X-64169287Y36296429D01*
X-63455001Y36296429D02*
X-63597859Y36367857D01*
X-63669287Y36439286D01*
X-63740716Y36582143D01*
X-63740716Y37010714D01*
X-63669287Y37153571D01*
X-63597859Y37225000D01*
X-63455001Y37296429D01*
X-63240716Y37296429D01*
X-63097859Y37225000D01*
X-63026430Y37153571D01*
X-62955001Y37010714D01*
X-62955001Y36582143D01*
X-63026430Y36439286D01*
X-63097859Y36367857D01*
X-63240716Y36296429D01*
X-63455001Y36296429D01*
X-62312144Y36296429D02*
X-62312144Y37296429D01*
X-62312144Y37153571D02*
X-62240716Y37225000D01*
X-62097858Y37296429D01*
X-61883573Y37296429D01*
X-61740716Y37225000D01*
X-61669287Y37082143D01*
X-61669287Y36296429D01*
X-61669287Y37082143D02*
X-61597858Y37225000D01*
X-61455001Y37296429D01*
X-61240716Y37296429D01*
X-61097858Y37225000D01*
X-61026430Y37082143D01*
X-61026430Y36296429D01*
X-59240716Y36367857D02*
X-59097859Y36296429D01*
X-58812144Y36296429D01*
X-58669287Y36367857D01*
X-58597859Y36510714D01*
X-58597859Y36582143D01*
X-58669287Y36725000D01*
X-58812144Y36796429D01*
X-59026430Y36796429D01*
X-59169287Y36867857D01*
X-59240716Y37010714D01*
X-59240716Y37082143D01*
X-59169287Y37225000D01*
X-59026430Y37296429D01*
X-58812144Y37296429D01*
X-58669287Y37225000D01*
X-57955001Y36296429D02*
X-57955001Y37296429D01*
X-57955001Y37796429D02*
X-58026430Y37725000D01*
X-57955001Y37653571D01*
X-57883573Y37725000D01*
X-57955001Y37796429D01*
X-57955001Y37653571D01*
X-56597858Y36296429D02*
X-56597858Y37796429D01*
X-56597858Y36367857D02*
X-56740715Y36296429D01*
X-57026429Y36296429D01*
X-57169287Y36367857D01*
X-57240715Y36439286D01*
X-57312144Y36582143D01*
X-57312144Y37010714D01*
X-57240715Y37153571D01*
X-57169287Y37225000D01*
X-57026429Y37296429D01*
X-56740715Y37296429D01*
X-56597858Y37225000D01*
X-55312144Y36367857D02*
X-55455001Y36296429D01*
X-55740715Y36296429D01*
X-55883572Y36367857D01*
X-55955001Y36510714D01*
X-55955001Y37082143D01*
X-55883572Y37225000D01*
X-55740715Y37296429D01*
X-55455001Y37296429D01*
X-55312144Y37225000D01*
X-55240715Y37082143D01*
X-55240715Y36939286D01*
X-55955001Y36796429D01*
X-52812144Y37296429D02*
X-52812144Y36296429D01*
X-53455001Y37296429D02*
X-53455001Y36510714D01*
X-53383573Y36367857D01*
X-53240715Y36296429D01*
X-53026430Y36296429D01*
X-52883573Y36367857D01*
X-52812144Y36439286D01*
X-52169287Y36367857D02*
X-52026430Y36296429D01*
X-51740715Y36296429D01*
X-51597858Y36367857D01*
X-51526430Y36510714D01*
X-51526430Y36582143D01*
X-51597858Y36725000D01*
X-51740715Y36796429D01*
X-51955001Y36796429D01*
X-52097858Y36867857D01*
X-52169287Y37010714D01*
X-52169287Y37082143D01*
X-52097858Y37225000D01*
X-51955001Y37296429D01*
X-51740715Y37296429D01*
X-51597858Y37225000D01*
X-50883572Y36296429D02*
X-50883572Y37296429D01*
X-50883572Y37796429D02*
X-50955001Y37725000D01*
X-50883572Y37653571D01*
X-50812144Y37725000D01*
X-50883572Y37796429D01*
X-50883572Y37653571D01*
X-50169286Y37296429D02*
X-50169286Y36296429D01*
X-50169286Y37153571D02*
X-50097858Y37225000D01*
X-49955000Y37296429D01*
X-49740715Y37296429D01*
X-49597858Y37225000D01*
X-49526429Y37082143D01*
X-49526429Y36296429D01*
X-48169286Y37296429D02*
X-48169286Y36082143D01*
X-48240715Y35939286D01*
X-48312143Y35867857D01*
X-48455000Y35796429D01*
X-48669286Y35796429D01*
X-48812143Y35867857D01*
X-48169286Y36367857D02*
X-48312143Y36296429D01*
X-48597857Y36296429D01*
X-48740715Y36367857D01*
X-48812143Y36439286D01*
X-48883572Y36582143D01*
X-48883572Y37010714D01*
X-48812143Y37153571D01*
X-48740715Y37225000D01*
X-48597857Y37296429D01*
X-48312143Y37296429D01*
X-48169286Y37225000D01*
X-45883572Y35725000D02*
X-45955000Y35796429D01*
X-46097857Y36010714D01*
X-46169286Y36153571D01*
X-46240715Y36367857D01*
X-46312143Y36725000D01*
X-46312143Y37010714D01*
X-46240715Y37367857D01*
X-46169286Y37582143D01*
X-46097857Y37725000D01*
X-45955000Y37939286D01*
X-45883572Y38010714D01*
X-45455000Y37296429D02*
X-45169286Y36296429D01*
X-44883572Y37010714D01*
X-44597857Y36296429D01*
X-44312143Y37296429D01*
X-43740714Y36296429D02*
X-43740714Y37796429D01*
X-43097857Y36296429D02*
X-43097857Y37082143D01*
X-43169286Y37225000D01*
X-43312143Y37296429D01*
X-43526428Y37296429D01*
X-43669286Y37225000D01*
X-43740714Y37153571D01*
X-42383571Y36296429D02*
X-42383571Y37296429D01*
X-42383571Y37796429D02*
X-42455000Y37725000D01*
X-42383571Y37653571D01*
X-42312143Y37725000D01*
X-42383571Y37796429D01*
X-42383571Y37653571D01*
X-41883571Y37296429D02*
X-41312142Y37296429D01*
X-41669285Y37796429D02*
X-41669285Y36510714D01*
X-41597857Y36367857D01*
X-41454999Y36296429D01*
X-41312142Y36296429D01*
X-40240714Y36367857D02*
X-40383571Y36296429D01*
X-40669285Y36296429D01*
X-40812142Y36367857D01*
X-40883571Y36510714D01*
X-40883571Y37082143D01*
X-40812142Y37225000D01*
X-40669285Y37296429D01*
X-40383571Y37296429D01*
X-40240714Y37225000D01*
X-40169285Y37082143D01*
X-40169285Y36939286D01*
X-40883571Y36796429D01*
X-39669285Y35725000D02*
X-39597857Y35796429D01*
X-39455000Y36010714D01*
X-39383571Y36153571D01*
X-39312142Y36367857D01*
X-39240714Y36725000D01*
X-39240714Y37010714D01*
X-39312142Y37367857D01*
X-39383571Y37582143D01*
X-39455000Y37725000D01*
X-39597857Y37939286D01*
X-39669285Y38010714D01*
X-36812143Y36367857D02*
X-36955000Y36296429D01*
X-37240714Y36296429D01*
X-37383571Y36367857D01*
X-37455000Y36510714D01*
X-37455000Y37082143D01*
X-37383571Y37225000D01*
X-37240714Y37296429D01*
X-36955000Y37296429D01*
X-36812143Y37225000D01*
X-36740714Y37082143D01*
X-36740714Y36939286D01*
X-37455000Y36796429D01*
X-36097857Y37296429D02*
X-36097857Y35796429D01*
X-36097857Y37225000D02*
X-35955000Y37296429D01*
X-35669286Y37296429D01*
X-35526429Y37225000D01*
X-35455000Y37153571D01*
X-35383571Y37010714D01*
X-35383571Y36582143D01*
X-35455000Y36439286D01*
X-35526429Y36367857D01*
X-35669286Y36296429D01*
X-35955000Y36296429D01*
X-36097857Y36367857D01*
X-34526428Y36296429D02*
X-34669286Y36367857D01*
X-34740714Y36439286D01*
X-34812143Y36582143D01*
X-34812143Y37010714D01*
X-34740714Y37153571D01*
X-34669286Y37225000D01*
X-34526428Y37296429D01*
X-34312143Y37296429D01*
X-34169286Y37225000D01*
X-34097857Y37153571D01*
X-34026428Y37010714D01*
X-34026428Y36582143D01*
X-34097857Y36439286D01*
X-34169286Y36367857D01*
X-34312143Y36296429D01*
X-34526428Y36296429D01*
X-33526428Y36296429D02*
X-32740714Y37296429D01*
X-33526428Y37296429D02*
X-32740714Y36296429D01*
X-32312142Y37296429D02*
X-31954999Y36296429D01*
X-31597857Y37296429D02*
X-31954999Y36296429D01*
X-32097857Y35939286D01*
X-32169285Y35867857D01*
X-32312142Y35796429D01*
X-29883571Y36296429D02*
X-29883571Y37296429D01*
X-29883571Y37796429D02*
X-29955000Y37725000D01*
X-29883571Y37653571D01*
X-29812143Y37725000D01*
X-29883571Y37796429D01*
X-29883571Y37653571D01*
X-29169285Y37296429D02*
X-29169285Y36296429D01*
X-29169285Y37153571D02*
X-29097857Y37225000D01*
X-28954999Y37296429D01*
X-28740714Y37296429D01*
X-28597857Y37225000D01*
X-28526428Y37082143D01*
X-28526428Y36296429D01*
X-27812142Y36296429D02*
X-27812142Y37796429D01*
X-27669285Y36867857D02*
X-27240714Y36296429D01*
X-27240714Y37296429D02*
X-27812142Y36725000D01*
X-97961428Y34403571D02*
X-98104286Y34475000D01*
X-98175714Y34546429D01*
X-98247143Y34689286D01*
X-98247143Y34760714D01*
X-98175714Y34903571D01*
X-98104286Y34975000D01*
X-97961428Y35046429D01*
X-97675714Y35046429D01*
X-97532857Y34975000D01*
X-97461428Y34903571D01*
X-97390000Y34760714D01*
X-97390000Y34689286D01*
X-97461428Y34546429D01*
X-97532857Y34475000D01*
X-97675714Y34403571D01*
X-97961428Y34403571D01*
X-98104286Y34332143D01*
X-98175714Y34260714D01*
X-98247143Y34117857D01*
X-98247143Y33832143D01*
X-98175714Y33689286D01*
X-98104286Y33617857D01*
X-97961428Y33546429D01*
X-97675714Y33546429D01*
X-97532857Y33617857D01*
X-97461428Y33689286D01*
X-97390000Y33832143D01*
X-97390000Y34117857D01*
X-97461428Y34260714D01*
X-97532857Y34332143D01*
X-97675714Y34403571D01*
X-96890000Y32975000D02*
X-96818572Y33046429D01*
X-96675715Y33260714D01*
X-96604286Y33403571D01*
X-96532857Y33617857D01*
X-96461429Y33975000D01*
X-96461429Y34260714D01*
X-96532857Y34617857D01*
X-96604286Y34832143D01*
X-96675715Y34975000D01*
X-96818572Y35189286D01*
X-96890000Y35260714D01*
X-94675715Y33975000D02*
X-93961429Y33975000D01*
X-94818572Y33546429D02*
X-94318572Y35046429D01*
X-93818572Y33546429D01*
X-93104286Y33546429D02*
X-93247144Y33617857D01*
X-93318572Y33760714D01*
X-93318572Y35046429D01*
X-92318572Y33546429D02*
X-92461430Y33617857D01*
X-92532858Y33760714D01*
X-92532858Y35046429D01*
X-89961430Y33546429D02*
X-89961430Y35046429D01*
X-89961430Y33617857D02*
X-90104287Y33546429D01*
X-90390001Y33546429D01*
X-90532859Y33617857D01*
X-90604287Y33689286D01*
X-90675716Y33832143D01*
X-90675716Y34260714D01*
X-90604287Y34403571D01*
X-90532859Y34475000D01*
X-90390001Y34546429D01*
X-90104287Y34546429D01*
X-89961430Y34475000D01*
X-89247144Y33546429D02*
X-89247144Y34546429D01*
X-89247144Y35046429D02*
X-89318573Y34975000D01*
X-89247144Y34903571D01*
X-89175716Y34975000D01*
X-89247144Y35046429D01*
X-89247144Y34903571D01*
X-88532858Y33546429D02*
X-88532858Y34546429D01*
X-88532858Y34403571D02*
X-88461430Y34475000D01*
X-88318572Y34546429D01*
X-88104287Y34546429D01*
X-87961430Y34475000D01*
X-87890001Y34332143D01*
X-87890001Y33546429D01*
X-87890001Y34332143D02*
X-87818572Y34475000D01*
X-87675715Y34546429D01*
X-87461430Y34546429D01*
X-87318572Y34475000D01*
X-87247144Y34332143D01*
X-87247144Y33546429D01*
X-85961430Y33617857D02*
X-86104287Y33546429D01*
X-86390001Y33546429D01*
X-86532858Y33617857D01*
X-86604287Y33760714D01*
X-86604287Y34332143D01*
X-86532858Y34475000D01*
X-86390001Y34546429D01*
X-86104287Y34546429D01*
X-85961430Y34475000D01*
X-85890001Y34332143D01*
X-85890001Y34189286D01*
X-86604287Y34046429D01*
X-85247144Y34546429D02*
X-85247144Y33546429D01*
X-85247144Y34403571D02*
X-85175716Y34475000D01*
X-85032858Y34546429D01*
X-84818573Y34546429D01*
X-84675716Y34475000D01*
X-84604287Y34332143D01*
X-84604287Y33546429D01*
X-83961430Y33617857D02*
X-83818573Y33546429D01*
X-83532858Y33546429D01*
X-83390001Y33617857D01*
X-83318573Y33760714D01*
X-83318573Y33832143D01*
X-83390001Y33975000D01*
X-83532858Y34046429D01*
X-83747144Y34046429D01*
X-83890001Y34117857D01*
X-83961430Y34260714D01*
X-83961430Y34332143D01*
X-83890001Y34475000D01*
X-83747144Y34546429D01*
X-83532858Y34546429D01*
X-83390001Y34475000D01*
X-82675715Y33546429D02*
X-82675715Y34546429D01*
X-82675715Y35046429D02*
X-82747144Y34975000D01*
X-82675715Y34903571D01*
X-82604287Y34975000D01*
X-82675715Y35046429D01*
X-82675715Y34903571D01*
X-81747143Y33546429D02*
X-81890001Y33617857D01*
X-81961429Y33689286D01*
X-82032858Y33832143D01*
X-82032858Y34260714D01*
X-81961429Y34403571D01*
X-81890001Y34475000D01*
X-81747143Y34546429D01*
X-81532858Y34546429D01*
X-81390001Y34475000D01*
X-81318572Y34403571D01*
X-81247143Y34260714D01*
X-81247143Y33832143D01*
X-81318572Y33689286D01*
X-81390001Y33617857D01*
X-81532858Y33546429D01*
X-81747143Y33546429D01*
X-80604286Y34546429D02*
X-80604286Y33546429D01*
X-80604286Y34403571D02*
X-80532858Y34475000D01*
X-80390000Y34546429D01*
X-80175715Y34546429D01*
X-80032858Y34475000D01*
X-79961429Y34332143D01*
X-79961429Y33546429D01*
X-79318572Y33617857D02*
X-79175715Y33546429D01*
X-78890000Y33546429D01*
X-78747143Y33617857D01*
X-78675715Y33760714D01*
X-78675715Y33832143D01*
X-78747143Y33975000D01*
X-78890000Y34046429D01*
X-79104286Y34046429D01*
X-79247143Y34117857D01*
X-79318572Y34260714D01*
X-79318572Y34332143D01*
X-79247143Y34475000D01*
X-79104286Y34546429D01*
X-78890000Y34546429D01*
X-78747143Y34475000D01*
X-76247143Y33546429D02*
X-76247143Y34332143D01*
X-76318572Y34475000D01*
X-76461429Y34546429D01*
X-76747143Y34546429D01*
X-76890000Y34475000D01*
X-76247143Y33617857D02*
X-76390000Y33546429D01*
X-76747143Y33546429D01*
X-76890000Y33617857D01*
X-76961429Y33760714D01*
X-76961429Y33903571D01*
X-76890000Y34046429D01*
X-76747143Y34117857D01*
X-76390000Y34117857D01*
X-76247143Y34189286D01*
X-75532857Y34546429D02*
X-75532857Y33546429D01*
X-75532857Y34403571D02*
X-75461429Y34475000D01*
X-75318571Y34546429D01*
X-75104286Y34546429D01*
X-74961429Y34475000D01*
X-74890000Y34332143D01*
X-74890000Y33546429D01*
X-73532857Y33546429D02*
X-73532857Y35046429D01*
X-73532857Y33617857D02*
X-73675714Y33546429D01*
X-73961428Y33546429D01*
X-74104286Y33617857D01*
X-74175714Y33689286D01*
X-74247143Y33832143D01*
X-74247143Y34260714D01*
X-74175714Y34403571D01*
X-74104286Y34475000D01*
X-73961428Y34546429D01*
X-73675714Y34546429D01*
X-73532857Y34475000D01*
X-71675714Y33546429D02*
X-71675714Y35046429D01*
X-71032857Y33546429D02*
X-71032857Y34332143D01*
X-71104286Y34475000D01*
X-71247143Y34546429D01*
X-71461428Y34546429D01*
X-71604286Y34475000D01*
X-71675714Y34403571D01*
X-70104285Y33546429D02*
X-70247143Y33617857D01*
X-70318571Y33689286D01*
X-70390000Y33832143D01*
X-70390000Y34260714D01*
X-70318571Y34403571D01*
X-70247143Y34475000D01*
X-70104285Y34546429D01*
X-69890000Y34546429D01*
X-69747143Y34475000D01*
X-69675714Y34403571D01*
X-69604285Y34260714D01*
X-69604285Y33832143D01*
X-69675714Y33689286D01*
X-69747143Y33617857D01*
X-69890000Y33546429D01*
X-70104285Y33546429D01*
X-68747142Y33546429D02*
X-68890000Y33617857D01*
X-68961428Y33760714D01*
X-68961428Y35046429D01*
X-67604286Y33617857D02*
X-67747143Y33546429D01*
X-68032857Y33546429D01*
X-68175714Y33617857D01*
X-68247143Y33760714D01*
X-68247143Y34332143D01*
X-68175714Y34475000D01*
X-68032857Y34546429D01*
X-67747143Y34546429D01*
X-67604286Y34475000D01*
X-67532857Y34332143D01*
X-67532857Y34189286D01*
X-68247143Y34046429D01*
X-65818572Y33617857D02*
X-65675715Y33546429D01*
X-65390000Y33546429D01*
X-65247143Y33617857D01*
X-65175715Y33760714D01*
X-65175715Y33832143D01*
X-65247143Y33975000D01*
X-65390000Y34046429D01*
X-65604286Y34046429D01*
X-65747143Y34117857D01*
X-65818572Y34260714D01*
X-65818572Y34332143D01*
X-65747143Y34475000D01*
X-65604286Y34546429D01*
X-65390000Y34546429D01*
X-65247143Y34475000D01*
X-64532857Y33546429D02*
X-64532857Y34546429D01*
X-64532857Y35046429D02*
X-64604286Y34975000D01*
X-64532857Y34903571D01*
X-64461429Y34975000D01*
X-64532857Y35046429D01*
X-64532857Y34903571D01*
X-63961428Y34546429D02*
X-63175714Y34546429D01*
X-63961428Y33546429D01*
X-63175714Y33546429D01*
X-62032857Y33617857D02*
X-62175714Y33546429D01*
X-62461428Y33546429D01*
X-62604285Y33617857D01*
X-62675714Y33760714D01*
X-62675714Y34332143D01*
X-62604285Y34475000D01*
X-62461428Y34546429D01*
X-62175714Y34546429D01*
X-62032857Y34475000D01*
X-61961428Y34332143D01*
X-61961428Y34189286D01*
X-62675714Y34046429D01*
X-61390000Y33617857D02*
X-61247143Y33546429D01*
X-60961428Y33546429D01*
X-60818571Y33617857D01*
X-60747143Y33760714D01*
X-60747143Y33832143D01*
X-60818571Y33975000D01*
X-60961428Y34046429D01*
X-61175714Y34046429D01*
X-61318571Y34117857D01*
X-61390000Y34260714D01*
X-61390000Y34332143D01*
X-61318571Y34475000D01*
X-61175714Y34546429D01*
X-60961428Y34546429D01*
X-60818571Y34475000D01*
X-58961428Y33546429D02*
X-58961428Y34546429D01*
X-58961428Y35046429D02*
X-59032857Y34975000D01*
X-58961428Y34903571D01*
X-58890000Y34975000D01*
X-58961428Y35046429D01*
X-58961428Y34903571D01*
X-58247142Y34546429D02*
X-58247142Y33546429D01*
X-58247142Y34403571D02*
X-58175714Y34475000D01*
X-58032856Y34546429D01*
X-57818571Y34546429D01*
X-57675714Y34475000D01*
X-57604285Y34332143D01*
X-57604285Y33546429D01*
X-55747142Y33546429D02*
X-55747142Y34546429D01*
X-55747142Y34403571D02*
X-55675714Y34475000D01*
X-55532856Y34546429D01*
X-55318571Y34546429D01*
X-55175714Y34475000D01*
X-55104285Y34332143D01*
X-55104285Y33546429D01*
X-55104285Y34332143D02*
X-55032856Y34475000D01*
X-54889999Y34546429D01*
X-54675714Y34546429D01*
X-54532856Y34475000D01*
X-54461428Y34332143D01*
X-54461428Y33546429D01*
X-53747142Y33546429D02*
X-53747142Y34546429D01*
X-53747142Y34403571D02*
X-53675714Y34475000D01*
X-53532856Y34546429D01*
X-53318571Y34546429D01*
X-53175714Y34475000D01*
X-53104285Y34332143D01*
X-53104285Y33546429D01*
X-53104285Y34332143D02*
X-53032856Y34475000D01*
X-52889999Y34546429D01*
X-52675714Y34546429D01*
X-52532856Y34475000D01*
X-52461428Y34332143D01*
X-52461428Y33546429D01*
X-50032857Y33617857D02*
X-50175714Y33546429D01*
X-50461428Y33546429D01*
X-50604285Y33617857D01*
X-50675714Y33760714D01*
X-50675714Y34332143D01*
X-50604285Y34475000D01*
X-50461428Y34546429D01*
X-50175714Y34546429D01*
X-50032857Y34475000D01*
X-49961428Y34332143D01*
X-49961428Y34189286D01*
X-50675714Y34046429D01*
X-49461428Y33546429D02*
X-48675714Y34546429D01*
X-49461428Y34546429D02*
X-48675714Y33546429D01*
X-47461428Y33617857D02*
X-47604285Y33546429D01*
X-47889999Y33546429D01*
X-48032857Y33617857D01*
X-48104285Y33689286D01*
X-48175714Y33832143D01*
X-48175714Y34260714D01*
X-48104285Y34403571D01*
X-48032857Y34475000D01*
X-47889999Y34546429D01*
X-47604285Y34546429D01*
X-47461428Y34475000D01*
X-46247143Y33617857D02*
X-46390000Y33546429D01*
X-46675714Y33546429D01*
X-46818571Y33617857D01*
X-46890000Y33760714D01*
X-46890000Y34332143D01*
X-46818571Y34475000D01*
X-46675714Y34546429D01*
X-46390000Y34546429D01*
X-46247143Y34475000D01*
X-46175714Y34332143D01*
X-46175714Y34189286D01*
X-46890000Y34046429D01*
X-45532857Y34546429D02*
X-45532857Y33046429D01*
X-45532857Y34475000D02*
X-45390000Y34546429D01*
X-45104286Y34546429D01*
X-44961429Y34475000D01*
X-44890000Y34403571D01*
X-44818571Y34260714D01*
X-44818571Y33832143D01*
X-44890000Y33689286D01*
X-44961429Y33617857D01*
X-45104286Y33546429D01*
X-45390000Y33546429D01*
X-45532857Y33617857D01*
X-44390000Y34546429D02*
X-43818571Y34546429D01*
X-44175714Y35046429D02*
X-44175714Y33760714D01*
X-44104286Y33617857D01*
X-43961428Y33546429D01*
X-43818571Y33546429D01*
X-42318571Y34546429D02*
X-42032857Y33546429D01*
X-41747143Y34260714D01*
X-41461428Y33546429D01*
X-41175714Y34546429D01*
X-40604285Y33546429D02*
X-40604285Y35046429D01*
X-39961428Y33546429D02*
X-39961428Y34332143D01*
X-40032857Y34475000D01*
X-40175714Y34546429D01*
X-40389999Y34546429D01*
X-40532857Y34475000D01*
X-40604285Y34403571D01*
X-38675714Y33617857D02*
X-38818571Y33546429D01*
X-39104285Y33546429D01*
X-39247142Y33617857D01*
X-39318571Y33760714D01*
X-39318571Y34332143D01*
X-39247142Y34475000D01*
X-39104285Y34546429D01*
X-38818571Y34546429D01*
X-38675714Y34475000D01*
X-38604285Y34332143D01*
X-38604285Y34189286D01*
X-39318571Y34046429D01*
X-37961428Y33546429D02*
X-37961428Y34546429D01*
X-37961428Y34260714D02*
X-37890000Y34403571D01*
X-37818571Y34475000D01*
X-37675714Y34546429D01*
X-37532857Y34546429D01*
X-36461429Y33617857D02*
X-36604286Y33546429D01*
X-36890000Y33546429D01*
X-37032857Y33617857D01*
X-37104286Y33760714D01*
X-37104286Y34332143D01*
X-37032857Y34475000D01*
X-36890000Y34546429D01*
X-36604286Y34546429D01*
X-36461429Y34475000D01*
X-36390000Y34332143D01*
X-36390000Y34189286D01*
X-37104286Y34046429D01*
X-34604286Y34546429D02*
X-34604286Y33546429D01*
X-34604286Y34403571D02*
X-34532858Y34475000D01*
X-34390000Y34546429D01*
X-34175715Y34546429D01*
X-34032858Y34475000D01*
X-33961429Y34332143D01*
X-33961429Y33546429D01*
X-33032857Y33546429D02*
X-33175715Y33617857D01*
X-33247143Y33689286D01*
X-33318572Y33832143D01*
X-33318572Y34260714D01*
X-33247143Y34403571D01*
X-33175715Y34475000D01*
X-33032857Y34546429D01*
X-32818572Y34546429D01*
X-32675715Y34475000D01*
X-32604286Y34403571D01*
X-32532857Y34260714D01*
X-32532857Y33832143D01*
X-32604286Y33689286D01*
X-32675715Y33617857D01*
X-32818572Y33546429D01*
X-33032857Y33546429D01*
X-32104286Y34546429D02*
X-31532857Y34546429D01*
X-31890000Y35046429D02*
X-31890000Y33760714D01*
X-31818572Y33617857D01*
X-31675714Y33546429D01*
X-31532857Y33546429D01*
X-30461429Y33617857D02*
X-30604286Y33546429D01*
X-30890000Y33546429D01*
X-31032857Y33617857D01*
X-31104286Y33760714D01*
X-31104286Y34332143D01*
X-31032857Y34475000D01*
X-30890000Y34546429D01*
X-30604286Y34546429D01*
X-30461429Y34475000D01*
X-30390000Y34332143D01*
X-30390000Y34189286D01*
X-31104286Y34046429D01*
X-29104286Y33546429D02*
X-29104286Y35046429D01*
X-29104286Y33617857D02*
X-29247143Y33546429D01*
X-29532857Y33546429D01*
X-29675715Y33617857D01*
X-29747143Y33689286D01*
X-29818572Y33832143D01*
X-29818572Y34260714D01*
X-29747143Y34403571D01*
X-29675715Y34475000D01*
X-29532857Y34546429D01*
X-29247143Y34546429D01*
X-29104286Y34475000D01*
X-98104286Y30796429D02*
X-97818571Y30796429D01*
X-97675714Y30867857D01*
X-97604286Y30939286D01*
X-97461428Y31153571D01*
X-97390000Y31439286D01*
X-97390000Y32010714D01*
X-97461428Y32153571D01*
X-97532857Y32225000D01*
X-97675714Y32296429D01*
X-97961428Y32296429D01*
X-98104286Y32225000D01*
X-98175714Y32153571D01*
X-98247143Y32010714D01*
X-98247143Y31653571D01*
X-98175714Y31510714D01*
X-98104286Y31439286D01*
X-97961428Y31367857D01*
X-97675714Y31367857D01*
X-97532857Y31439286D01*
X-97461428Y31510714D01*
X-97390000Y31653571D01*
X-96890000Y30225000D02*
X-96818572Y30296429D01*
X-96675715Y30510714D01*
X-96604286Y30653571D01*
X-96532857Y30867857D01*
X-96461429Y31225000D01*
X-96461429Y31510714D01*
X-96532857Y31867857D01*
X-96604286Y32082143D01*
X-96675715Y32225000D01*
X-96818572Y32439286D01*
X-96890000Y32510714D01*
X-94604286Y30796429D02*
X-94604286Y32296429D01*
X-93390000Y31582143D02*
X-93890000Y31582143D01*
X-93890000Y30796429D02*
X-93890000Y32296429D01*
X-93175714Y32296429D01*
X-91461429Y30796429D02*
X-91461429Y32296429D01*
X-90747143Y30796429D02*
X-90747143Y32296429D01*
X-89890000Y30796429D01*
X-89890000Y32296429D01*
X-88032857Y30796429D02*
X-88032857Y32296429D01*
X-87675714Y32296429D01*
X-87461429Y32225000D01*
X-87318571Y32082143D01*
X-87247143Y31939286D01*
X-87175714Y31653571D01*
X-87175714Y31439286D01*
X-87247143Y31153571D01*
X-87318571Y31010714D01*
X-87461429Y30867857D01*
X-87675714Y30796429D01*
X-88032857Y30796429D01*
X-86247143Y32296429D02*
X-85961429Y32296429D01*
X-85818571Y32225000D01*
X-85675714Y32082143D01*
X-85604286Y31796429D01*
X-85604286Y31296429D01*
X-85675714Y31010714D01*
X-85818571Y30867857D01*
X-85961429Y30796429D01*
X-86247143Y30796429D01*
X-86390000Y30867857D01*
X-86532857Y31010714D01*
X-86604286Y31296429D01*
X-86604286Y31796429D01*
X-86532857Y32082143D01*
X-86390000Y32225000D01*
X-86247143Y32296429D01*
X-84961428Y32296429D02*
X-84961428Y31082143D01*
X-84890000Y30939286D01*
X-84818571Y30867857D01*
X-84675714Y30796429D01*
X-84390000Y30796429D01*
X-84247142Y30867857D01*
X-84175714Y30939286D01*
X-84104285Y31082143D01*
X-84104285Y32296429D01*
X-82889999Y31582143D02*
X-82675713Y31510714D01*
X-82604285Y31439286D01*
X-82532856Y31296429D01*
X-82532856Y31082143D01*
X-82604285Y30939286D01*
X-82675713Y30867857D01*
X-82818571Y30796429D01*
X-83389999Y30796429D01*
X-83389999Y32296429D01*
X-82889999Y32296429D01*
X-82747142Y32225000D01*
X-82675713Y32153571D01*
X-82604285Y32010714D01*
X-82604285Y31867857D01*
X-82675713Y31725000D01*
X-82747142Y31653571D01*
X-82889999Y31582143D01*
X-83389999Y31582143D01*
X-82104285Y32296429D02*
X-81247142Y32296429D01*
X-81675713Y30796429D02*
X-81675713Y32296429D01*
X-79604285Y31367857D02*
X-78461428Y31367857D01*
X-76675714Y31225000D02*
X-75961428Y31225000D01*
X-76818571Y30796429D02*
X-76318571Y32296429D01*
X-75818571Y30796429D01*
X-75390000Y30867857D02*
X-75175714Y30796429D01*
X-74818571Y30796429D01*
X-74675714Y30867857D01*
X-74604285Y30939286D01*
X-74532857Y31082143D01*
X-74532857Y31225000D01*
X-74604285Y31367857D01*
X-74675714Y31439286D01*
X-74818571Y31510714D01*
X-75104285Y31582143D01*
X-75247143Y31653571D01*
X-75318571Y31725000D01*
X-75390000Y31867857D01*
X-75390000Y32010714D01*
X-75318571Y32153571D01*
X-75247143Y32225000D01*
X-75104285Y32296429D01*
X-74747143Y32296429D01*
X-74532857Y32225000D01*
X-73890000Y30796429D02*
X-73890000Y32296429D01*
X-73032857Y30796429D02*
X-73675714Y31653571D01*
X-73032857Y32296429D02*
X-73890000Y31439286D01*
M02*
