G04 #@! TF.FileFunction,Legend,Top*
%FSLAX46Y46*%
G04 Gerber Fmt 4.6, Leading zero omitted, Abs format (unit mm)*
G04 Created by KiCad (PCBNEW 4.0.7-e2-6376~58~ubuntu16.04.1) date Sun Dec 16 12:58:54 2018*
%MOMM*%
%LPD*%
G01*
G04 APERTURE LIST*
%ADD10C,0.100000*%
%ADD11C,0.300000*%
%ADD12C,1.250000*%
%ADD13C,0.250000*%
%ADD14C,0.150000*%
%ADD15C,0.010000*%
%ADD16C,0.127000*%
G04 APERTURE END LIST*
D10*
D11*
X57314286Y-7508571D02*
X57600001Y-7508571D01*
X57742858Y-7437143D01*
X57814286Y-7365714D01*
X57957144Y-7151429D01*
X58028572Y-6865714D01*
X58028572Y-6294286D01*
X57957144Y-6151429D01*
X57885715Y-6080000D01*
X57742858Y-6008571D01*
X57457144Y-6008571D01*
X57314286Y-6080000D01*
X57242858Y-6151429D01*
X57171429Y-6294286D01*
X57171429Y-6651429D01*
X57242858Y-6794286D01*
X57314286Y-6865714D01*
X57457144Y-6937143D01*
X57742858Y-6937143D01*
X57885715Y-6865714D01*
X57957144Y-6794286D01*
X58028572Y-6651429D01*
X50948571Y-22107144D02*
X51020000Y-21964286D01*
X51091429Y-21892858D01*
X51234286Y-21821429D01*
X51305714Y-21821429D01*
X51448571Y-21892858D01*
X51520000Y-21964286D01*
X51591429Y-22107144D01*
X51591429Y-22392858D01*
X51520000Y-22535715D01*
X51448571Y-22607144D01*
X51305714Y-22678572D01*
X51234286Y-22678572D01*
X51091429Y-22607144D01*
X51020000Y-22535715D01*
X50948571Y-22392858D01*
X50948571Y-22107144D01*
X50877143Y-21964286D01*
X50805714Y-21892858D01*
X50662857Y-21821429D01*
X50377143Y-21821429D01*
X50234286Y-21892858D01*
X50162857Y-21964286D01*
X50091429Y-22107144D01*
X50091429Y-22392858D01*
X50162857Y-22535715D01*
X50234286Y-22607144D01*
X50377143Y-22678572D01*
X50662857Y-22678572D01*
X50805714Y-22607144D01*
X50877143Y-22535715D01*
X50948571Y-22392858D01*
X51591429Y-40800001D02*
X51591429Y-41800001D01*
X50091429Y-41157144D01*
X51591429Y-60635715D02*
X51591429Y-60350001D01*
X51520000Y-60207144D01*
X51448571Y-60135715D01*
X51234286Y-59992858D01*
X50948571Y-59921429D01*
X50377143Y-59921429D01*
X50234286Y-59992858D01*
X50162857Y-60064286D01*
X50091429Y-60207144D01*
X50091429Y-60492858D01*
X50162857Y-60635715D01*
X50234286Y-60707144D01*
X50377143Y-60778572D01*
X50734286Y-60778572D01*
X50877143Y-60707144D01*
X50948571Y-60635715D01*
X51020000Y-60492858D01*
X51020000Y-60207144D01*
X50948571Y-60064286D01*
X50877143Y-59992858D01*
X50734286Y-59921429D01*
X46957144Y-64118571D02*
X46242858Y-64118571D01*
X46171429Y-64832857D01*
X46242858Y-64761429D01*
X46385715Y-64690000D01*
X46742858Y-64690000D01*
X46885715Y-64761429D01*
X46957144Y-64832857D01*
X47028572Y-64975714D01*
X47028572Y-65332857D01*
X46957144Y-65475714D01*
X46885715Y-65547143D01*
X46742858Y-65618571D01*
X46385715Y-65618571D01*
X46242858Y-65547143D01*
X46171429Y-65475714D01*
X-1714285Y-64618571D02*
X-1714285Y-65618571D01*
X-2071428Y-64047143D02*
X-2428571Y-65118571D01*
X-1499999Y-65118571D01*
X4008571Y-49849999D02*
X4008571Y-48921428D01*
X4580000Y-49421428D01*
X4580000Y-49207142D01*
X4651429Y-49064285D01*
X4722857Y-48992856D01*
X4865714Y-48921428D01*
X5222857Y-48921428D01*
X5365714Y-48992856D01*
X5437143Y-49064285D01*
X5508571Y-49207142D01*
X5508571Y-49635714D01*
X5437143Y-49778571D01*
X5365714Y-49849999D01*
X4151429Y-30728571D02*
X4080000Y-30657142D01*
X4008571Y-30514285D01*
X4008571Y-30157142D01*
X4080000Y-30014285D01*
X4151429Y-29942856D01*
X4294286Y-29871428D01*
X4437143Y-29871428D01*
X4651429Y-29942856D01*
X5508571Y-30799999D01*
X5508571Y-29871428D01*
X5508571Y-10821428D02*
X5508571Y-11678571D01*
X5508571Y-11249999D02*
X4008571Y-11249999D01*
X4222857Y-11392856D01*
X4365714Y-11535714D01*
X4437143Y-11678571D01*
X8928572Y-6008571D02*
X9071429Y-6008571D01*
X9214286Y-6080000D01*
X9285715Y-6151429D01*
X9357144Y-6294286D01*
X9428572Y-6580000D01*
X9428572Y-6937143D01*
X9357144Y-7222857D01*
X9285715Y-7365714D01*
X9214286Y-7437143D01*
X9071429Y-7508571D01*
X8928572Y-7508571D01*
X8785715Y-7437143D01*
X8714286Y-7365714D01*
X8642858Y-7222857D01*
X8571429Y-6937143D01*
X8571429Y-6580000D01*
X8642858Y-6294286D01*
X8714286Y-6151429D01*
X8785715Y-6080000D01*
X8928572Y-6008571D01*
D12*
X37745238Y-17339643D02*
X41554762Y-17339643D01*
X14040238Y-17339643D02*
X17849762Y-17339643D01*
X15945000Y-19244405D02*
X15945000Y-15434881D01*
D13*
X25990476Y-73977381D02*
X25990476Y-72977381D01*
X26323810Y-73691667D01*
X26657143Y-72977381D01*
X26657143Y-73977381D01*
X27323809Y-72977381D02*
X27514286Y-72977381D01*
X27609524Y-73025000D01*
X27704762Y-73120238D01*
X27752381Y-73310714D01*
X27752381Y-73644048D01*
X27704762Y-73834524D01*
X27609524Y-73929762D01*
X27514286Y-73977381D01*
X27323809Y-73977381D01*
X27228571Y-73929762D01*
X27133333Y-73834524D01*
X27085714Y-73644048D01*
X27085714Y-73310714D01*
X27133333Y-73120238D01*
X27228571Y-73025000D01*
X27323809Y-72977381D01*
X28180952Y-73977381D02*
X28180952Y-72977381D01*
X28419047Y-72977381D01*
X28561905Y-73025000D01*
X28657143Y-73120238D01*
X28704762Y-73215476D01*
X28752381Y-73405952D01*
X28752381Y-73548810D01*
X28704762Y-73739286D01*
X28657143Y-73834524D01*
X28561905Y-73929762D01*
X28419047Y-73977381D01*
X28180952Y-73977381D01*
X29180952Y-73453571D02*
X29514286Y-73453571D01*
X29657143Y-73977381D02*
X29180952Y-73977381D01*
X29180952Y-72977381D01*
X29657143Y-72977381D01*
D14*
X15050000Y-25625000D02*
X15050000Y-24925000D01*
X16250000Y-24925000D02*
X16250000Y-25625000D01*
X39350000Y-25625000D02*
X39350000Y-24925000D01*
X40550000Y-24925000D02*
X40550000Y-25625000D01*
X24000000Y-20525000D02*
X31600000Y-20525000D01*
X24000000Y-26175000D02*
X24000000Y-20525000D01*
X31600000Y-26175000D02*
X24000000Y-26175000D01*
X31600000Y-20525000D02*
X31600000Y-26175000D01*
X21450000Y-24745000D02*
X18900000Y-24745000D01*
X21450000Y-60805000D02*
X18900000Y-60805000D01*
X36700000Y-60805000D02*
X34150000Y-60805000D01*
X36700000Y-24745000D02*
X34150000Y-24745000D01*
X21450000Y-24745000D02*
X21450000Y-60805000D01*
X34150000Y-24745000D02*
X34150000Y-60805000D01*
X34700000Y-64375000D02*
G75*
G03X36700000Y-62375000I0J2000000D01*
G01*
X31600000Y-21175000D02*
X34700000Y-21175000D01*
X18900000Y-62375000D02*
X18900000Y-23175000D01*
X34700000Y-64375000D02*
X20900000Y-64375000D01*
X36700000Y-23175000D02*
X36700000Y-62375000D01*
X36700000Y-23175000D02*
G75*
G03X34700000Y-21175000I-2000000J0D01*
G01*
X20900000Y-21175000D02*
G75*
G03X18900000Y-23175000I0J-2000000D01*
G01*
X18900000Y-62375000D02*
G75*
G03X20900000Y-64375000I2000000J0D01*
G01*
X20900000Y-21175000D02*
X24000000Y-21175000D01*
X9100000Y-4980000D02*
G75*
G03X9100000Y-4980000I-100000J0D01*
G01*
X-4000000Y-2780000D02*
X-2750000Y-2780000D01*
X-4000000Y2720000D02*
X-4000000Y-2780000D01*
X11000000Y-2780000D02*
X9750000Y-2780000D01*
X11000000Y2720000D02*
X11000000Y-2780000D01*
X9750000Y2720000D02*
X9750000Y-4280000D01*
X-4000000Y2720000D02*
X11000000Y2720000D01*
X-2750000Y-4280000D02*
X-2750000Y2720000D01*
X9750000Y-4280000D02*
X-2750000Y-4280000D01*
X3080000Y-11250000D02*
G75*
G03X3080000Y-11250000I-100000J0D01*
G01*
X780000Y-24250000D02*
X780000Y-23000000D01*
X-4720000Y-24250000D02*
X780000Y-24250000D01*
X780000Y-9250000D02*
X780000Y-10500000D01*
X-4720000Y-9250000D02*
X780000Y-9250000D01*
X-4720000Y-10500000D02*
X2280000Y-10500000D01*
X-4720000Y-24250000D02*
X-4720000Y-9250000D01*
X2280000Y-23000000D02*
X-4720000Y-23000000D01*
X2280000Y-10500000D02*
X2280000Y-23000000D01*
X3080000Y-30300000D02*
G75*
G03X3080000Y-30300000I-100000J0D01*
G01*
X780000Y-43300000D02*
X780000Y-42050000D01*
X-4720000Y-43300000D02*
X780000Y-43300000D01*
X780000Y-28300000D02*
X780000Y-29550000D01*
X-4720000Y-28300000D02*
X780000Y-28300000D01*
X-4720000Y-29550000D02*
X2280000Y-29550000D01*
X-4720000Y-43300000D02*
X-4720000Y-28300000D01*
X2280000Y-42050000D02*
X-4720000Y-42050000D01*
X2280000Y-29550000D02*
X2280000Y-42050000D01*
X3080000Y-49350000D02*
G75*
G03X3080000Y-49350000I-100000J0D01*
G01*
X780000Y-62350000D02*
X780000Y-61100000D01*
X-4720000Y-62350000D02*
X780000Y-62350000D01*
X780000Y-47350000D02*
X780000Y-48600000D01*
X-4720000Y-47350000D02*
X780000Y-47350000D01*
X-4720000Y-48600000D02*
X2280000Y-48600000D01*
X-4720000Y-62350000D02*
X-4720000Y-47350000D01*
X2280000Y-61100000D02*
X-4720000Y-61100000D01*
X2280000Y-48600000D02*
X2280000Y-61100000D01*
X-1900000Y-66620000D02*
G75*
G03X-1900000Y-66620000I-100000J0D01*
G01*
X11000000Y-68820000D02*
X9750000Y-68820000D01*
X11000000Y-74320000D02*
X11000000Y-68820000D01*
X-4000000Y-68820000D02*
X-2750000Y-68820000D01*
X-4000000Y-74320000D02*
X-4000000Y-68820000D01*
X-2750000Y-74320000D02*
X-2750000Y-67320000D01*
X11000000Y-74320000D02*
X-4000000Y-74320000D01*
X9750000Y-67320000D02*
X9750000Y-74320000D01*
X-2750000Y-67320000D02*
X9750000Y-67320000D01*
X46700000Y-66620000D02*
G75*
G03X46700000Y-66620000I-100000J0D01*
G01*
X59600000Y-68820000D02*
X58350000Y-68820000D01*
X59600000Y-74320000D02*
X59600000Y-68820000D01*
X44600000Y-68820000D02*
X45850000Y-68820000D01*
X44600000Y-74320000D02*
X44600000Y-68820000D01*
X45850000Y-74320000D02*
X45850000Y-67320000D01*
X59600000Y-74320000D02*
X44600000Y-74320000D01*
X58350000Y-67320000D02*
X58350000Y-74320000D01*
X45850000Y-67320000D02*
X58350000Y-67320000D01*
X52720000Y-60350000D02*
G75*
G03X52720000Y-60350000I-100000J0D01*
G01*
X54820000Y-47350000D02*
X54820000Y-48600000D01*
X60320000Y-47350000D02*
X54820000Y-47350000D01*
X54820000Y-62350000D02*
X54820000Y-61100000D01*
X60320000Y-62350000D02*
X54820000Y-62350000D01*
X60320000Y-61100000D02*
X53320000Y-61100000D01*
X60320000Y-47350000D02*
X60320000Y-62350000D01*
X53320000Y-48600000D02*
X60320000Y-48600000D01*
X53320000Y-61100000D02*
X53320000Y-48600000D01*
X52720000Y-41300000D02*
G75*
G03X52720000Y-41300000I-100000J0D01*
G01*
X54820000Y-28300000D02*
X54820000Y-29550000D01*
X60320000Y-28300000D02*
X54820000Y-28300000D01*
X54820000Y-43300000D02*
X54820000Y-42050000D01*
X60320000Y-43300000D02*
X54820000Y-43300000D01*
X60320000Y-42050000D02*
X53320000Y-42050000D01*
X60320000Y-28300000D02*
X60320000Y-43300000D01*
X53320000Y-29550000D02*
X60320000Y-29550000D01*
X53320000Y-42050000D02*
X53320000Y-29550000D01*
X52720000Y-22250000D02*
G75*
G03X52720000Y-22250000I-100000J0D01*
G01*
X54820000Y-9250000D02*
X54820000Y-10500000D01*
X60320000Y-9250000D02*
X54820000Y-9250000D01*
X54820000Y-24250000D02*
X54820000Y-23000000D01*
X60320000Y-24250000D02*
X54820000Y-24250000D01*
X60320000Y-23000000D02*
X53320000Y-23000000D01*
X60320000Y-9250000D02*
X60320000Y-24250000D01*
X53320000Y-10500000D02*
X60320000Y-10500000D01*
X53320000Y-23000000D02*
X53320000Y-10500000D01*
X57700000Y-4980000D02*
G75*
G03X57700000Y-4980000I-100000J0D01*
G01*
X44600000Y-2780000D02*
X45850000Y-2780000D01*
X44600000Y2720000D02*
X44600000Y-2780000D01*
X59600000Y-2780000D02*
X58350000Y-2780000D01*
X59600000Y2720000D02*
X59600000Y-2780000D01*
X58350000Y2720000D02*
X58350000Y-4280000D01*
X44600000Y2720000D02*
X59600000Y2720000D01*
X45850000Y-4280000D02*
X45850000Y2720000D01*
X58350000Y-4280000D02*
X45850000Y-4280000D01*
X38900000Y-34250000D02*
G75*
G03X38900000Y-34250000I-50000J0D01*
G01*
X40650000Y-39025000D02*
X40650000Y-34025000D01*
X45050000Y-39025000D02*
X40650000Y-39025000D01*
X45050000Y-34025000D02*
X45050000Y-39025000D01*
X40650000Y-34025000D02*
X45050000Y-34025000D01*
X46900000Y-33350000D02*
G75*
G03X46900000Y-33350000I-50000J0D01*
G01*
X45050000Y-28575000D02*
X45050000Y-33575000D01*
X40650000Y-28575000D02*
X45050000Y-28575000D01*
X40650000Y-33575000D02*
X40650000Y-28575000D01*
X45050000Y-33575000D02*
X40650000Y-33575000D01*
X16800000Y-38800000D02*
G75*
G03X16800000Y-38800000I-50000J0D01*
G01*
X14950000Y-34025000D02*
X14950000Y-39025000D01*
X10550000Y-34025000D02*
X14950000Y-34025000D01*
X10550000Y-39025000D02*
X10550000Y-34025000D01*
X14950000Y-39025000D02*
X10550000Y-39025000D01*
X8800000Y-28800000D02*
G75*
G03X8800000Y-28800000I-50000J0D01*
G01*
X10550000Y-33575000D02*
X10550000Y-28575000D01*
X14950000Y-33575000D02*
X10550000Y-33575000D01*
X14950000Y-28575000D02*
X14950000Y-33575000D01*
X10550000Y-28575000D02*
X14950000Y-28575000D01*
X12000000Y3000000D02*
X12000000Y-13800000D01*
X43600000Y3000000D02*
X12000000Y3000000D01*
X43600000Y3000000D02*
X43600000Y-13800000D01*
X27800000Y3000000D02*
X27800000Y-13800000D01*
X19900000Y-13800000D02*
X19900000Y3000000D01*
X43600000Y-13800000D02*
X12000000Y-13800000D01*
X35700000Y3000000D02*
X35700000Y-13800000D01*
X28900000Y-22725000D02*
G75*
G03X28900000Y-22725000I-100000J0D01*
G01*
X31330000Y-33635000D02*
X24270000Y-33635000D01*
X31330000Y-26175000D02*
X31330000Y-33635000D01*
X24270000Y-26175000D02*
X31330000Y-26175000D01*
X24270000Y-33635000D02*
X24270000Y-26175000D01*
D15*
G36*
X43681261Y-47370453D02*
X43802587Y-47475776D01*
X43838667Y-47697917D01*
X43854780Y-47880245D01*
X43917195Y-48024283D01*
X44047026Y-48140170D01*
X44265390Y-48238043D01*
X44593400Y-48328042D01*
X45052171Y-48420305D01*
X45507491Y-48499215D01*
X46006849Y-48583386D01*
X46363761Y-48647978D01*
X46602817Y-48701206D01*
X46748606Y-48751285D01*
X46825719Y-48806429D01*
X46858746Y-48874855D01*
X46871124Y-48954784D01*
X46930119Y-49128455D01*
X47019291Y-49187000D01*
X47114173Y-49263285D01*
X47140667Y-49441000D01*
X47178531Y-49642652D01*
X47267667Y-49695000D01*
X47344255Y-49736807D01*
X47383686Y-49883503D01*
X47394667Y-50160667D01*
X47383265Y-50441492D01*
X47343257Y-50586072D01*
X47267667Y-50626334D01*
X47242113Y-50641836D01*
X47220171Y-50696116D01*
X47201575Y-50800834D01*
X47186058Y-50967651D01*
X47173352Y-51208227D01*
X47163189Y-51534222D01*
X47155304Y-51957298D01*
X47149428Y-52489113D01*
X47145295Y-53141329D01*
X47142637Y-53925606D01*
X47141188Y-54853604D01*
X47140679Y-55936984D01*
X47140667Y-56169021D01*
X47140770Y-57273233D01*
X47141326Y-58220392D01*
X47142704Y-59022780D01*
X47145273Y-59692676D01*
X47149401Y-60242362D01*
X47155459Y-60684119D01*
X47163816Y-61030227D01*
X47174840Y-61292967D01*
X47188901Y-61484619D01*
X47206367Y-61617465D01*
X47227609Y-61703786D01*
X47252995Y-61755861D01*
X47282894Y-61785972D01*
X47310000Y-61802334D01*
X47449133Y-61960850D01*
X47479334Y-62101646D01*
X47479334Y-62310334D01*
X39605334Y-62310334D01*
X39605334Y-62101646D01*
X39673537Y-61893676D01*
X39774667Y-61802334D01*
X39808400Y-61780900D01*
X39837327Y-61747221D01*
X39861818Y-61689017D01*
X39882242Y-61594006D01*
X39898968Y-61449908D01*
X39912365Y-61244442D01*
X39922802Y-60965328D01*
X39930649Y-60600284D01*
X39936274Y-60137030D01*
X39940047Y-59563286D01*
X39941314Y-59177667D01*
X40621334Y-59177667D01*
X40621334Y-61548334D01*
X42738000Y-61548334D01*
X42738000Y-59177667D01*
X40621334Y-59177667D01*
X39941314Y-59177667D01*
X39942337Y-58866769D01*
X39943512Y-58035200D01*
X39943944Y-57056298D01*
X39943986Y-56383667D01*
X40621334Y-56383667D01*
X40621334Y-58754334D01*
X42738000Y-58754334D01*
X42738000Y-56383667D01*
X40621334Y-56383667D01*
X39943986Y-56383667D01*
X39943997Y-56214334D01*
X43330667Y-56214334D01*
X43330761Y-57295760D01*
X43331304Y-58220168D01*
X43332688Y-58999874D01*
X43335302Y-59647190D01*
X43339538Y-60174434D01*
X43345787Y-60593920D01*
X43354440Y-60917962D01*
X43365888Y-61158877D01*
X43380521Y-61328978D01*
X43398732Y-61440582D01*
X43420909Y-61506003D01*
X43447446Y-61537556D01*
X43478732Y-61547556D01*
X43500000Y-61548334D01*
X43534331Y-61545366D01*
X43563677Y-61528252D01*
X43588430Y-61484678D01*
X43608980Y-61402328D01*
X43625718Y-61268887D01*
X43639035Y-61072041D01*
X43649322Y-60799473D01*
X43656970Y-60438870D01*
X43662370Y-59977915D01*
X43665913Y-59404295D01*
X43666586Y-59177667D01*
X44346667Y-59177667D01*
X44346667Y-61548334D01*
X46463334Y-61548334D01*
X46463334Y-59177667D01*
X44346667Y-59177667D01*
X43666586Y-59177667D01*
X43667990Y-58705693D01*
X43668991Y-57869796D01*
X43669309Y-56884287D01*
X43669327Y-56383667D01*
X44346667Y-56383667D01*
X44346667Y-58754334D01*
X46463334Y-58754334D01*
X46463334Y-56383667D01*
X44346667Y-56383667D01*
X43669327Y-56383667D01*
X43669334Y-56214334D01*
X43669239Y-55132907D01*
X43668696Y-54208499D01*
X43667599Y-53589667D01*
X44346667Y-53589667D01*
X44346667Y-55960334D01*
X46463334Y-55960334D01*
X46463334Y-53589667D01*
X44346667Y-53589667D01*
X43667599Y-53589667D01*
X43667313Y-53428793D01*
X43664698Y-52781477D01*
X43660462Y-52254233D01*
X43657653Y-52065667D01*
X44346667Y-52065667D01*
X44346667Y-53166334D01*
X45024000Y-53166334D01*
X45024000Y-52065667D01*
X45108667Y-52065667D01*
X45108667Y-53166334D01*
X45701334Y-53166334D01*
X45701334Y-52065667D01*
X45786000Y-52065667D01*
X45786000Y-53166334D01*
X46463334Y-53166334D01*
X46463334Y-52065667D01*
X45786000Y-52065667D01*
X45701334Y-52065667D01*
X45108667Y-52065667D01*
X45024000Y-52065667D01*
X44346667Y-52065667D01*
X43657653Y-52065667D01*
X43654213Y-51834747D01*
X43645560Y-51510705D01*
X43634112Y-51269790D01*
X43619479Y-51099689D01*
X43601269Y-50988085D01*
X43579091Y-50922664D01*
X43552555Y-50891111D01*
X43521269Y-50881111D01*
X43500000Y-50880334D01*
X44346667Y-50880334D01*
X44346667Y-51981000D01*
X45024000Y-51981000D01*
X45024000Y-50880334D01*
X45108667Y-50880334D01*
X45108667Y-51981000D01*
X45701334Y-51981000D01*
X45701334Y-50880334D01*
X45786000Y-50880334D01*
X45786000Y-51981000D01*
X46463334Y-51981000D01*
X46463334Y-50880334D01*
X45786000Y-50880334D01*
X45701334Y-50880334D01*
X45108667Y-50880334D01*
X45024000Y-50880334D01*
X44346667Y-50880334D01*
X43500000Y-50880334D01*
X43465669Y-50883301D01*
X43436323Y-50900415D01*
X43411570Y-50943989D01*
X43391021Y-51026339D01*
X43374283Y-51159780D01*
X43360966Y-51356626D01*
X43350679Y-51629194D01*
X43343031Y-51989797D01*
X43337630Y-52450752D01*
X43334088Y-53024372D01*
X43332011Y-53722974D01*
X43331009Y-54558871D01*
X43330692Y-55544380D01*
X43330667Y-56214334D01*
X39943997Y-56214334D01*
X39944000Y-56169021D01*
X39943645Y-55053754D01*
X39942401Y-54096159D01*
X39940904Y-53589667D01*
X40621334Y-53589667D01*
X40621334Y-55875667D01*
X42738000Y-55875667D01*
X42738000Y-53589667D01*
X40621334Y-53589667D01*
X39940904Y-53589667D01*
X39940002Y-53284575D01*
X39936180Y-52607342D01*
X39930795Y-52065667D01*
X40621334Y-52065667D01*
X40621334Y-53166334D01*
X41298667Y-53166334D01*
X41298667Y-52065667D01*
X41383334Y-52065667D01*
X41383334Y-53166334D01*
X41976000Y-53166334D01*
X41976000Y-52065667D01*
X42060667Y-52065667D01*
X42060667Y-53166334D01*
X42738000Y-53166334D01*
X42738000Y-52065667D01*
X42060667Y-52065667D01*
X41976000Y-52065667D01*
X41383334Y-52065667D01*
X41298667Y-52065667D01*
X40621334Y-52065667D01*
X39930795Y-52065667D01*
X39930667Y-52052800D01*
X39923198Y-51609288D01*
X39913504Y-51265146D01*
X39901318Y-51008713D01*
X39890683Y-50880334D01*
X40621334Y-50880334D01*
X40621334Y-51981000D01*
X41298667Y-51981000D01*
X41298667Y-50880334D01*
X41383334Y-50880334D01*
X41383334Y-51981000D01*
X41976000Y-51981000D01*
X41976000Y-50880334D01*
X42060667Y-50880334D01*
X42060667Y-51981000D01*
X42738000Y-51981000D01*
X42738000Y-50880334D01*
X42060667Y-50880334D01*
X41976000Y-50880334D01*
X41383334Y-50880334D01*
X41298667Y-50880334D01*
X40621334Y-50880334D01*
X39890683Y-50880334D01*
X39886374Y-50828330D01*
X39868404Y-50712335D01*
X39847140Y-50649069D01*
X39822317Y-50626871D01*
X39817000Y-50626334D01*
X39740412Y-50584527D01*
X39700981Y-50437830D01*
X39690000Y-50160667D01*
X39701402Y-49879842D01*
X39729122Y-49779667D01*
X40113334Y-49779667D01*
X40113334Y-50541667D01*
X46971334Y-50541667D01*
X46971334Y-49779667D01*
X40113334Y-49779667D01*
X39729122Y-49779667D01*
X39741410Y-49735262D01*
X39817000Y-49695000D01*
X39917826Y-49619272D01*
X39944000Y-49441000D01*
X39980453Y-49242442D01*
X40065376Y-49187000D01*
X40164838Y-49112884D01*
X40213543Y-48959005D01*
X40228485Y-48873170D01*
X40266507Y-48807108D01*
X40352115Y-48752571D01*
X40509815Y-48701314D01*
X40764111Y-48645092D01*
X41139511Y-48575657D01*
X41582946Y-48498214D01*
X42155270Y-48394086D01*
X42580763Y-48301325D01*
X42880556Y-48209804D01*
X43075781Y-48109396D01*
X43187571Y-47989974D01*
X43237056Y-47841413D01*
X43243038Y-47747667D01*
X43415334Y-47747667D01*
X43453198Y-47949319D01*
X43542334Y-48001667D01*
X43643160Y-47925939D01*
X43669334Y-47747667D01*
X43631469Y-47546015D01*
X43542334Y-47493667D01*
X43441507Y-47569395D01*
X43415334Y-47747667D01*
X43243038Y-47747667D01*
X43246000Y-47701270D01*
X43301392Y-47459183D01*
X43459652Y-47349020D01*
X43681261Y-47370453D01*
X43681261Y-47370453D01*
G37*
X43681261Y-47370453D02*
X43802587Y-47475776D01*
X43838667Y-47697917D01*
X43854780Y-47880245D01*
X43917195Y-48024283D01*
X44047026Y-48140170D01*
X44265390Y-48238043D01*
X44593400Y-48328042D01*
X45052171Y-48420305D01*
X45507491Y-48499215D01*
X46006849Y-48583386D01*
X46363761Y-48647978D01*
X46602817Y-48701206D01*
X46748606Y-48751285D01*
X46825719Y-48806429D01*
X46858746Y-48874855D01*
X46871124Y-48954784D01*
X46930119Y-49128455D01*
X47019291Y-49187000D01*
X47114173Y-49263285D01*
X47140667Y-49441000D01*
X47178531Y-49642652D01*
X47267667Y-49695000D01*
X47344255Y-49736807D01*
X47383686Y-49883503D01*
X47394667Y-50160667D01*
X47383265Y-50441492D01*
X47343257Y-50586072D01*
X47267667Y-50626334D01*
X47242113Y-50641836D01*
X47220171Y-50696116D01*
X47201575Y-50800834D01*
X47186058Y-50967651D01*
X47173352Y-51208227D01*
X47163189Y-51534222D01*
X47155304Y-51957298D01*
X47149428Y-52489113D01*
X47145295Y-53141329D01*
X47142637Y-53925606D01*
X47141188Y-54853604D01*
X47140679Y-55936984D01*
X47140667Y-56169021D01*
X47140770Y-57273233D01*
X47141326Y-58220392D01*
X47142704Y-59022780D01*
X47145273Y-59692676D01*
X47149401Y-60242362D01*
X47155459Y-60684119D01*
X47163816Y-61030227D01*
X47174840Y-61292967D01*
X47188901Y-61484619D01*
X47206367Y-61617465D01*
X47227609Y-61703786D01*
X47252995Y-61755861D01*
X47282894Y-61785972D01*
X47310000Y-61802334D01*
X47449133Y-61960850D01*
X47479334Y-62101646D01*
X47479334Y-62310334D01*
X39605334Y-62310334D01*
X39605334Y-62101646D01*
X39673537Y-61893676D01*
X39774667Y-61802334D01*
X39808400Y-61780900D01*
X39837327Y-61747221D01*
X39861818Y-61689017D01*
X39882242Y-61594006D01*
X39898968Y-61449908D01*
X39912365Y-61244442D01*
X39922802Y-60965328D01*
X39930649Y-60600284D01*
X39936274Y-60137030D01*
X39940047Y-59563286D01*
X39941314Y-59177667D01*
X40621334Y-59177667D01*
X40621334Y-61548334D01*
X42738000Y-61548334D01*
X42738000Y-59177667D01*
X40621334Y-59177667D01*
X39941314Y-59177667D01*
X39942337Y-58866769D01*
X39943512Y-58035200D01*
X39943944Y-57056298D01*
X39943986Y-56383667D01*
X40621334Y-56383667D01*
X40621334Y-58754334D01*
X42738000Y-58754334D01*
X42738000Y-56383667D01*
X40621334Y-56383667D01*
X39943986Y-56383667D01*
X39943997Y-56214334D01*
X43330667Y-56214334D01*
X43330761Y-57295760D01*
X43331304Y-58220168D01*
X43332688Y-58999874D01*
X43335302Y-59647190D01*
X43339538Y-60174434D01*
X43345787Y-60593920D01*
X43354440Y-60917962D01*
X43365888Y-61158877D01*
X43380521Y-61328978D01*
X43398732Y-61440582D01*
X43420909Y-61506003D01*
X43447446Y-61537556D01*
X43478732Y-61547556D01*
X43500000Y-61548334D01*
X43534331Y-61545366D01*
X43563677Y-61528252D01*
X43588430Y-61484678D01*
X43608980Y-61402328D01*
X43625718Y-61268887D01*
X43639035Y-61072041D01*
X43649322Y-60799473D01*
X43656970Y-60438870D01*
X43662370Y-59977915D01*
X43665913Y-59404295D01*
X43666586Y-59177667D01*
X44346667Y-59177667D01*
X44346667Y-61548334D01*
X46463334Y-61548334D01*
X46463334Y-59177667D01*
X44346667Y-59177667D01*
X43666586Y-59177667D01*
X43667990Y-58705693D01*
X43668991Y-57869796D01*
X43669309Y-56884287D01*
X43669327Y-56383667D01*
X44346667Y-56383667D01*
X44346667Y-58754334D01*
X46463334Y-58754334D01*
X46463334Y-56383667D01*
X44346667Y-56383667D01*
X43669327Y-56383667D01*
X43669334Y-56214334D01*
X43669239Y-55132907D01*
X43668696Y-54208499D01*
X43667599Y-53589667D01*
X44346667Y-53589667D01*
X44346667Y-55960334D01*
X46463334Y-55960334D01*
X46463334Y-53589667D01*
X44346667Y-53589667D01*
X43667599Y-53589667D01*
X43667313Y-53428793D01*
X43664698Y-52781477D01*
X43660462Y-52254233D01*
X43657653Y-52065667D01*
X44346667Y-52065667D01*
X44346667Y-53166334D01*
X45024000Y-53166334D01*
X45024000Y-52065667D01*
X45108667Y-52065667D01*
X45108667Y-53166334D01*
X45701334Y-53166334D01*
X45701334Y-52065667D01*
X45786000Y-52065667D01*
X45786000Y-53166334D01*
X46463334Y-53166334D01*
X46463334Y-52065667D01*
X45786000Y-52065667D01*
X45701334Y-52065667D01*
X45108667Y-52065667D01*
X45024000Y-52065667D01*
X44346667Y-52065667D01*
X43657653Y-52065667D01*
X43654213Y-51834747D01*
X43645560Y-51510705D01*
X43634112Y-51269790D01*
X43619479Y-51099689D01*
X43601269Y-50988085D01*
X43579091Y-50922664D01*
X43552555Y-50891111D01*
X43521269Y-50881111D01*
X43500000Y-50880334D01*
X44346667Y-50880334D01*
X44346667Y-51981000D01*
X45024000Y-51981000D01*
X45024000Y-50880334D01*
X45108667Y-50880334D01*
X45108667Y-51981000D01*
X45701334Y-51981000D01*
X45701334Y-50880334D01*
X45786000Y-50880334D01*
X45786000Y-51981000D01*
X46463334Y-51981000D01*
X46463334Y-50880334D01*
X45786000Y-50880334D01*
X45701334Y-50880334D01*
X45108667Y-50880334D01*
X45024000Y-50880334D01*
X44346667Y-50880334D01*
X43500000Y-50880334D01*
X43465669Y-50883301D01*
X43436323Y-50900415D01*
X43411570Y-50943989D01*
X43391021Y-51026339D01*
X43374283Y-51159780D01*
X43360966Y-51356626D01*
X43350679Y-51629194D01*
X43343031Y-51989797D01*
X43337630Y-52450752D01*
X43334088Y-53024372D01*
X43332011Y-53722974D01*
X43331009Y-54558871D01*
X43330692Y-55544380D01*
X43330667Y-56214334D01*
X39943997Y-56214334D01*
X39944000Y-56169021D01*
X39943645Y-55053754D01*
X39942401Y-54096159D01*
X39940904Y-53589667D01*
X40621334Y-53589667D01*
X40621334Y-55875667D01*
X42738000Y-55875667D01*
X42738000Y-53589667D01*
X40621334Y-53589667D01*
X39940904Y-53589667D01*
X39940002Y-53284575D01*
X39936180Y-52607342D01*
X39930795Y-52065667D01*
X40621334Y-52065667D01*
X40621334Y-53166334D01*
X41298667Y-53166334D01*
X41298667Y-52065667D01*
X41383334Y-52065667D01*
X41383334Y-53166334D01*
X41976000Y-53166334D01*
X41976000Y-52065667D01*
X42060667Y-52065667D01*
X42060667Y-53166334D01*
X42738000Y-53166334D01*
X42738000Y-52065667D01*
X42060667Y-52065667D01*
X41976000Y-52065667D01*
X41383334Y-52065667D01*
X41298667Y-52065667D01*
X40621334Y-52065667D01*
X39930795Y-52065667D01*
X39930667Y-52052800D01*
X39923198Y-51609288D01*
X39913504Y-51265146D01*
X39901318Y-51008713D01*
X39890683Y-50880334D01*
X40621334Y-50880334D01*
X40621334Y-51981000D01*
X41298667Y-51981000D01*
X41298667Y-50880334D01*
X41383334Y-50880334D01*
X41383334Y-51981000D01*
X41976000Y-51981000D01*
X41976000Y-50880334D01*
X42060667Y-50880334D01*
X42060667Y-51981000D01*
X42738000Y-51981000D01*
X42738000Y-50880334D01*
X42060667Y-50880334D01*
X41976000Y-50880334D01*
X41383334Y-50880334D01*
X41298667Y-50880334D01*
X40621334Y-50880334D01*
X39890683Y-50880334D01*
X39886374Y-50828330D01*
X39868404Y-50712335D01*
X39847140Y-50649069D01*
X39822317Y-50626871D01*
X39817000Y-50626334D01*
X39740412Y-50584527D01*
X39700981Y-50437830D01*
X39690000Y-50160667D01*
X39701402Y-49879842D01*
X39729122Y-49779667D01*
X40113334Y-49779667D01*
X40113334Y-50541667D01*
X46971334Y-50541667D01*
X46971334Y-49779667D01*
X40113334Y-49779667D01*
X39729122Y-49779667D01*
X39741410Y-49735262D01*
X39817000Y-49695000D01*
X39917826Y-49619272D01*
X39944000Y-49441000D01*
X39980453Y-49242442D01*
X40065376Y-49187000D01*
X40164838Y-49112884D01*
X40213543Y-48959005D01*
X40228485Y-48873170D01*
X40266507Y-48807108D01*
X40352115Y-48752571D01*
X40509815Y-48701314D01*
X40764111Y-48645092D01*
X41139511Y-48575657D01*
X41582946Y-48498214D01*
X42155270Y-48394086D01*
X42580763Y-48301325D01*
X42880556Y-48209804D01*
X43075781Y-48109396D01*
X43187571Y-47989974D01*
X43237056Y-47841413D01*
X43243038Y-47747667D01*
X43415334Y-47747667D01*
X43453198Y-47949319D01*
X43542334Y-48001667D01*
X43643160Y-47925939D01*
X43669334Y-47747667D01*
X43631469Y-47546015D01*
X43542334Y-47493667D01*
X43441507Y-47569395D01*
X43415334Y-47747667D01*
X43243038Y-47747667D01*
X43246000Y-47701270D01*
X43301392Y-47459183D01*
X43459652Y-47349020D01*
X43681261Y-47370453D01*
G36*
X42568667Y-61379000D02*
X40790667Y-61379000D01*
X40790667Y-59262334D01*
X42568667Y-59262334D01*
X42568667Y-61379000D01*
X42568667Y-61379000D01*
G37*
X42568667Y-61379000D02*
X40790667Y-61379000D01*
X40790667Y-59262334D01*
X42568667Y-59262334D01*
X42568667Y-61379000D01*
G36*
X46294000Y-61379000D02*
X44516000Y-61379000D01*
X44516000Y-59262334D01*
X46294000Y-59262334D01*
X46294000Y-61379000D01*
X46294000Y-61379000D01*
G37*
X46294000Y-61379000D02*
X44516000Y-61379000D01*
X44516000Y-59262334D01*
X46294000Y-59262334D01*
X46294000Y-61379000D01*
G36*
X42568667Y-58585000D02*
X40790667Y-58585000D01*
X40790667Y-56468334D01*
X42568667Y-56468334D01*
X42568667Y-58585000D01*
X42568667Y-58585000D01*
G37*
X42568667Y-58585000D02*
X40790667Y-58585000D01*
X40790667Y-56468334D01*
X42568667Y-56468334D01*
X42568667Y-58585000D01*
G36*
X46294000Y-58585000D02*
X44516000Y-58585000D01*
X44516000Y-56468334D01*
X46294000Y-56468334D01*
X46294000Y-58585000D01*
X46294000Y-58585000D01*
G37*
X46294000Y-58585000D02*
X44516000Y-58585000D01*
X44516000Y-56468334D01*
X46294000Y-56468334D01*
X46294000Y-58585000D01*
G36*
X46294000Y-55791000D02*
X44516000Y-55791000D01*
X44516000Y-53674334D01*
X46294000Y-53674334D01*
X46294000Y-55791000D01*
X46294000Y-55791000D01*
G37*
X46294000Y-55791000D02*
X44516000Y-55791000D01*
X44516000Y-53674334D01*
X46294000Y-53674334D01*
X46294000Y-55791000D01*
G36*
X46886667Y-50457000D02*
X40198000Y-50457000D01*
X40198000Y-49864334D01*
X46886667Y-49864334D01*
X46886667Y-50457000D01*
X46886667Y-50457000D01*
G37*
X46886667Y-50457000D02*
X40198000Y-50457000D01*
X40198000Y-49864334D01*
X46886667Y-49864334D01*
X46886667Y-50457000D01*
D16*
X30800000Y-66525000D02*
X30800000Y-72525000D01*
X24800000Y-66525000D02*
X30800000Y-66525000D01*
X24800000Y-72525000D02*
X24800000Y-66525000D01*
X30800000Y-72525000D02*
X24800000Y-72525000D01*
D15*
G36*
X13171780Y-49167542D02*
X13851873Y-49302864D01*
X14098663Y-49379523D01*
X14989763Y-49779191D01*
X15783243Y-50308661D01*
X16468048Y-50953342D01*
X17033126Y-51698645D01*
X17467423Y-52529978D01*
X17759885Y-53432750D01*
X17899460Y-54392370D01*
X17899740Y-54397029D01*
X17875785Y-55328320D01*
X17700046Y-56218562D01*
X17386309Y-57055025D01*
X16948364Y-57824978D01*
X16399996Y-58515690D01*
X15754992Y-59114432D01*
X15027141Y-59608473D01*
X14230230Y-59985082D01*
X13378044Y-60231529D01*
X12484373Y-60335084D01*
X11563003Y-60283015D01*
X11530334Y-60278204D01*
X10943759Y-60165256D01*
X10419016Y-60002294D01*
X9873870Y-59762162D01*
X9698249Y-59673191D01*
X8896291Y-59166926D01*
X8207802Y-58548341D01*
X7639041Y-57835611D01*
X7196270Y-57046910D01*
X6885748Y-56200410D01*
X6713735Y-55314286D01*
X6686492Y-54406710D01*
X6690852Y-54374625D01*
X7038150Y-54374625D01*
X7040331Y-55076559D01*
X7111831Y-55746632D01*
X7231021Y-56256667D01*
X7590293Y-57119992D01*
X8087026Y-57896588D01*
X8706214Y-58573403D01*
X9432856Y-59137384D01*
X10251947Y-59575481D01*
X11148483Y-59874641D01*
X11467967Y-59942330D01*
X11938689Y-59986730D01*
X12500975Y-59976850D01*
X13087822Y-59917838D01*
X13632232Y-59814840D01*
X13827756Y-59761049D01*
X14316290Y-59595792D01*
X14715359Y-59419078D01*
X15095429Y-59194754D01*
X15516282Y-58894700D01*
X16185481Y-58288772D01*
X16732314Y-57579065D01*
X17149268Y-56786229D01*
X17428831Y-55930915D01*
X17563489Y-55033772D01*
X17545730Y-54115453D01*
X17457810Y-53558264D01*
X17196699Y-52722819D01*
X16788303Y-51940250D01*
X16251273Y-51229672D01*
X15604257Y-50610197D01*
X14865905Y-50100940D01*
X14054866Y-49721013D01*
X13565712Y-49569273D01*
X13083533Y-49486758D01*
X12507299Y-49448691D01*
X11906349Y-49455072D01*
X11350024Y-49505900D01*
X11018955Y-49569273D01*
X10156466Y-49870050D01*
X9370024Y-50317379D01*
X8646504Y-50918811D01*
X8608988Y-50955802D01*
X8103417Y-51507602D01*
X7719132Y-52051072D01*
X7420789Y-52642229D01*
X7240961Y-53124000D01*
X7105093Y-53703036D01*
X7038150Y-54374625D01*
X6690852Y-54374625D01*
X6810279Y-53495857D01*
X7091357Y-52599901D01*
X7186457Y-52381408D01*
X7662202Y-51546897D01*
X8268113Y-50808937D01*
X8986072Y-50182357D01*
X9797966Y-49681987D01*
X10685678Y-49322656D01*
X11041488Y-49225614D01*
X11699679Y-49125549D01*
X12432079Y-49107314D01*
X13171780Y-49167542D01*
X13171780Y-49167542D01*
G37*
X13171780Y-49167542D02*
X13851873Y-49302864D01*
X14098663Y-49379523D01*
X14989763Y-49779191D01*
X15783243Y-50308661D01*
X16468048Y-50953342D01*
X17033126Y-51698645D01*
X17467423Y-52529978D01*
X17759885Y-53432750D01*
X17899460Y-54392370D01*
X17899740Y-54397029D01*
X17875785Y-55328320D01*
X17700046Y-56218562D01*
X17386309Y-57055025D01*
X16948364Y-57824978D01*
X16399996Y-58515690D01*
X15754992Y-59114432D01*
X15027141Y-59608473D01*
X14230230Y-59985082D01*
X13378044Y-60231529D01*
X12484373Y-60335084D01*
X11563003Y-60283015D01*
X11530334Y-60278204D01*
X10943759Y-60165256D01*
X10419016Y-60002294D01*
X9873870Y-59762162D01*
X9698249Y-59673191D01*
X8896291Y-59166926D01*
X8207802Y-58548341D01*
X7639041Y-57835611D01*
X7196270Y-57046910D01*
X6885748Y-56200410D01*
X6713735Y-55314286D01*
X6686492Y-54406710D01*
X6690852Y-54374625D01*
X7038150Y-54374625D01*
X7040331Y-55076559D01*
X7111831Y-55746632D01*
X7231021Y-56256667D01*
X7590293Y-57119992D01*
X8087026Y-57896588D01*
X8706214Y-58573403D01*
X9432856Y-59137384D01*
X10251947Y-59575481D01*
X11148483Y-59874641D01*
X11467967Y-59942330D01*
X11938689Y-59986730D01*
X12500975Y-59976850D01*
X13087822Y-59917838D01*
X13632232Y-59814840D01*
X13827756Y-59761049D01*
X14316290Y-59595792D01*
X14715359Y-59419078D01*
X15095429Y-59194754D01*
X15516282Y-58894700D01*
X16185481Y-58288772D01*
X16732314Y-57579065D01*
X17149268Y-56786229D01*
X17428831Y-55930915D01*
X17563489Y-55033772D01*
X17545730Y-54115453D01*
X17457810Y-53558264D01*
X17196699Y-52722819D01*
X16788303Y-51940250D01*
X16251273Y-51229672D01*
X15604257Y-50610197D01*
X14865905Y-50100940D01*
X14054866Y-49721013D01*
X13565712Y-49569273D01*
X13083533Y-49486758D01*
X12507299Y-49448691D01*
X11906349Y-49455072D01*
X11350024Y-49505900D01*
X11018955Y-49569273D01*
X10156466Y-49870050D01*
X9370024Y-50317379D01*
X8646504Y-50918811D01*
X8608988Y-50955802D01*
X8103417Y-51507602D01*
X7719132Y-52051072D01*
X7420789Y-52642229D01*
X7240961Y-53124000D01*
X7105093Y-53703036D01*
X7038150Y-54374625D01*
X6690852Y-54374625D01*
X6810279Y-53495857D01*
X7091357Y-52599901D01*
X7186457Y-52381408D01*
X7662202Y-51546897D01*
X8268113Y-50808937D01*
X8986072Y-50182357D01*
X9797966Y-49681987D01*
X10685678Y-49322656D01*
X11041488Y-49225614D01*
X11699679Y-49125549D01*
X12432079Y-49107314D01*
X13171780Y-49167542D01*
G36*
X11719047Y-49638578D02*
X11683030Y-49704061D01*
X11550610Y-49777904D01*
X11413102Y-49819854D01*
X11037068Y-49978243D01*
X10673837Y-50267041D01*
X10364392Y-50649686D01*
X10243296Y-50863454D01*
X10097211Y-51206920D01*
X10028656Y-51520672D01*
X10015959Y-51898250D01*
X10049987Y-52307901D01*
X10149791Y-52661795D01*
X10335484Y-52997620D01*
X10627179Y-53353064D01*
X10980304Y-53705201D01*
X11290760Y-54014425D01*
X11471721Y-54240852D01*
X11530548Y-54401404D01*
X11474601Y-54513003D01*
X11359041Y-54575801D01*
X11225566Y-54543610D01*
X10994919Y-54380123D01*
X10664710Y-54083607D01*
X10616287Y-54037076D01*
X10331258Y-53777863D01*
X10064465Y-53563864D01*
X9854515Y-53424740D01*
X9774213Y-53390095D01*
X9456150Y-53388109D01*
X9151353Y-53512076D01*
X8921876Y-53731752D01*
X8868328Y-53831608D01*
X8790530Y-54156592D01*
X8861680Y-54401941D01*
X9083564Y-54571792D01*
X9207837Y-54617418D01*
X9567573Y-54793010D01*
X9817581Y-55052386D01*
X9944427Y-55363074D01*
X9934677Y-55692603D01*
X9780451Y-56001508D01*
X9478660Y-56258963D01*
X9085644Y-56418525D01*
X8655418Y-56469361D01*
X8241999Y-56400635D01*
X8097129Y-56339159D01*
X7927390Y-56259979D01*
X7859185Y-56267164D01*
X7847334Y-56348474D01*
X7894145Y-56529198D01*
X8018295Y-56802189D01*
X8195353Y-57124373D01*
X8400890Y-57452677D01*
X8610476Y-57744027D01*
X8700258Y-57852348D01*
X8916753Y-58074603D01*
X9163547Y-58292734D01*
X9405729Y-58480342D01*
X9608385Y-58611032D01*
X9736604Y-58658406D01*
X9756743Y-58651145D01*
X9764675Y-58550520D01*
X9736665Y-58341908D01*
X9706504Y-58194068D01*
X9645715Y-57654309D01*
X9691374Y-57104064D01*
X9835053Y-56604185D01*
X9960458Y-56360555D01*
X10109075Y-56158224D01*
X10346588Y-55871294D01*
X10642472Y-55535219D01*
X10966203Y-55185452D01*
X11027330Y-55121426D01*
X11855690Y-54258393D01*
X12027947Y-54430651D01*
X12200204Y-54602908D01*
X11347150Y-55472120D01*
X10912782Y-55928166D01*
X10591970Y-56303114D01*
X10368682Y-56624862D01*
X10226888Y-56921312D01*
X10150555Y-57220363D01*
X10123653Y-57549915D01*
X10122898Y-57602715D01*
X10191372Y-58225281D01*
X10399965Y-58770630D01*
X10738332Y-59222566D01*
X11196128Y-59564893D01*
X11452543Y-59684464D01*
X11664853Y-59778336D01*
X11729548Y-59832608D01*
X11663477Y-59848006D01*
X11483486Y-59825254D01*
X11206423Y-59765079D01*
X10849136Y-59668205D01*
X10810667Y-59656832D01*
X10140509Y-59419627D01*
X9571471Y-59125341D01*
X9044613Y-58738555D01*
X8608718Y-58333539D01*
X8053841Y-57694534D01*
X7643958Y-57024629D01*
X7355044Y-56282580D01*
X7300676Y-56087788D01*
X7223442Y-55652096D01*
X7181539Y-55114782D01*
X7175077Y-54537876D01*
X7204166Y-53983407D01*
X7268916Y-53513405D01*
X7295912Y-53395836D01*
X7317572Y-53335667D01*
X8064000Y-53335667D01*
X8084228Y-53750889D01*
X8145530Y-54063654D01*
X8256221Y-54330500D01*
X8370666Y-54540238D01*
X8451674Y-54669927D01*
X8471626Y-54690333D01*
X8480404Y-54614564D01*
X8471990Y-54420782D01*
X8459227Y-54267980D01*
X8482055Y-53789267D01*
X8643679Y-53397517D01*
X8934597Y-53106354D01*
X9345301Y-52929401D01*
X9402210Y-52916483D01*
X9583786Y-52858410D01*
X9638004Y-52759178D01*
X9625694Y-52653996D01*
X9596241Y-52396029D01*
X9584731Y-52048041D01*
X9590222Y-51674841D01*
X9611770Y-51341235D01*
X9648113Y-51113166D01*
X9672959Y-50947628D01*
X9641375Y-50880333D01*
X9514544Y-50941427D01*
X9313458Y-51103585D01*
X9068988Y-51335119D01*
X8812003Y-51604344D01*
X8573375Y-51879573D01*
X8383972Y-52129119D01*
X8310731Y-52246169D01*
X8174344Y-52517037D01*
X8098716Y-52755648D01*
X8067642Y-53033553D01*
X8064000Y-53335667D01*
X7317572Y-53335667D01*
X7601860Y-52545956D01*
X8050438Y-51779831D01*
X8632099Y-51106953D01*
X9337294Y-50536814D01*
X10156473Y-50078906D01*
X10925419Y-49788020D01*
X11230497Y-49699648D01*
X11481448Y-49636023D01*
X11625865Y-49610382D01*
X11628915Y-49610333D01*
X11719047Y-49638578D01*
X11719047Y-49638578D01*
G37*
X11719047Y-49638578D02*
X11683030Y-49704061D01*
X11550610Y-49777904D01*
X11413102Y-49819854D01*
X11037068Y-49978243D01*
X10673837Y-50267041D01*
X10364392Y-50649686D01*
X10243296Y-50863454D01*
X10097211Y-51206920D01*
X10028656Y-51520672D01*
X10015959Y-51898250D01*
X10049987Y-52307901D01*
X10149791Y-52661795D01*
X10335484Y-52997620D01*
X10627179Y-53353064D01*
X10980304Y-53705201D01*
X11290760Y-54014425D01*
X11471721Y-54240852D01*
X11530548Y-54401404D01*
X11474601Y-54513003D01*
X11359041Y-54575801D01*
X11225566Y-54543610D01*
X10994919Y-54380123D01*
X10664710Y-54083607D01*
X10616287Y-54037076D01*
X10331258Y-53777863D01*
X10064465Y-53563864D01*
X9854515Y-53424740D01*
X9774213Y-53390095D01*
X9456150Y-53388109D01*
X9151353Y-53512076D01*
X8921876Y-53731752D01*
X8868328Y-53831608D01*
X8790530Y-54156592D01*
X8861680Y-54401941D01*
X9083564Y-54571792D01*
X9207837Y-54617418D01*
X9567573Y-54793010D01*
X9817581Y-55052386D01*
X9944427Y-55363074D01*
X9934677Y-55692603D01*
X9780451Y-56001508D01*
X9478660Y-56258963D01*
X9085644Y-56418525D01*
X8655418Y-56469361D01*
X8241999Y-56400635D01*
X8097129Y-56339159D01*
X7927390Y-56259979D01*
X7859185Y-56267164D01*
X7847334Y-56348474D01*
X7894145Y-56529198D01*
X8018295Y-56802189D01*
X8195353Y-57124373D01*
X8400890Y-57452677D01*
X8610476Y-57744027D01*
X8700258Y-57852348D01*
X8916753Y-58074603D01*
X9163547Y-58292734D01*
X9405729Y-58480342D01*
X9608385Y-58611032D01*
X9736604Y-58658406D01*
X9756743Y-58651145D01*
X9764675Y-58550520D01*
X9736665Y-58341908D01*
X9706504Y-58194068D01*
X9645715Y-57654309D01*
X9691374Y-57104064D01*
X9835053Y-56604185D01*
X9960458Y-56360555D01*
X10109075Y-56158224D01*
X10346588Y-55871294D01*
X10642472Y-55535219D01*
X10966203Y-55185452D01*
X11027330Y-55121426D01*
X11855690Y-54258393D01*
X12027947Y-54430651D01*
X12200204Y-54602908D01*
X11347150Y-55472120D01*
X10912782Y-55928166D01*
X10591970Y-56303114D01*
X10368682Y-56624862D01*
X10226888Y-56921312D01*
X10150555Y-57220363D01*
X10123653Y-57549915D01*
X10122898Y-57602715D01*
X10191372Y-58225281D01*
X10399965Y-58770630D01*
X10738332Y-59222566D01*
X11196128Y-59564893D01*
X11452543Y-59684464D01*
X11664853Y-59778336D01*
X11729548Y-59832608D01*
X11663477Y-59848006D01*
X11483486Y-59825254D01*
X11206423Y-59765079D01*
X10849136Y-59668205D01*
X10810667Y-59656832D01*
X10140509Y-59419627D01*
X9571471Y-59125341D01*
X9044613Y-58738555D01*
X8608718Y-58333539D01*
X8053841Y-57694534D01*
X7643958Y-57024629D01*
X7355044Y-56282580D01*
X7300676Y-56087788D01*
X7223442Y-55652096D01*
X7181539Y-55114782D01*
X7175077Y-54537876D01*
X7204166Y-53983407D01*
X7268916Y-53513405D01*
X7295912Y-53395836D01*
X7317572Y-53335667D01*
X8064000Y-53335667D01*
X8084228Y-53750889D01*
X8145530Y-54063654D01*
X8256221Y-54330500D01*
X8370666Y-54540238D01*
X8451674Y-54669927D01*
X8471626Y-54690333D01*
X8480404Y-54614564D01*
X8471990Y-54420782D01*
X8459227Y-54267980D01*
X8482055Y-53789267D01*
X8643679Y-53397517D01*
X8934597Y-53106354D01*
X9345301Y-52929401D01*
X9402210Y-52916483D01*
X9583786Y-52858410D01*
X9638004Y-52759178D01*
X9625694Y-52653996D01*
X9596241Y-52396029D01*
X9584731Y-52048041D01*
X9590222Y-51674841D01*
X9611770Y-51341235D01*
X9648113Y-51113166D01*
X9672959Y-50947628D01*
X9641375Y-50880333D01*
X9514544Y-50941427D01*
X9313458Y-51103585D01*
X9068988Y-51335119D01*
X8812003Y-51604344D01*
X8573375Y-51879573D01*
X8383972Y-52129119D01*
X8310731Y-52246169D01*
X8174344Y-52517037D01*
X8098716Y-52755648D01*
X8067642Y-53033553D01*
X8064000Y-53335667D01*
X7317572Y-53335667D01*
X7601860Y-52545956D01*
X8050438Y-51779831D01*
X8632099Y-51106953D01*
X9337294Y-50536814D01*
X10156473Y-50078906D01*
X10925419Y-49788020D01*
X11230497Y-49699648D01*
X11481448Y-49636023D01*
X11625865Y-49610382D01*
X11628915Y-49610333D01*
X11719047Y-49638578D01*
G36*
X12936099Y-49637669D02*
X13244933Y-49698657D01*
X13625732Y-49797583D01*
X14035847Y-49922017D01*
X14432632Y-50059529D01*
X14773440Y-50197686D01*
X14890389Y-50253300D01*
X15460083Y-50624522D01*
X16002957Y-51136002D01*
X16494899Y-51758685D01*
X16911800Y-52463519D01*
X17132194Y-52954667D01*
X17234829Y-53232659D01*
X17302437Y-53477597D01*
X17342209Y-53738719D01*
X17361337Y-54065263D01*
X17367011Y-54506469D01*
X17367121Y-54563333D01*
X17363088Y-55028462D01*
X17344882Y-55375726D01*
X17305495Y-55656440D01*
X17237920Y-55921921D01*
X17143560Y-56200330D01*
X16733340Y-57104612D01*
X16201079Y-57900035D01*
X15555961Y-58577648D01*
X14807175Y-59128500D01*
X13963904Y-59543637D01*
X13574582Y-59678178D01*
X13169396Y-59793454D01*
X12911702Y-59846384D01*
X12792051Y-59838217D01*
X12793575Y-59781269D01*
X12902673Y-59711555D01*
X13073738Y-59659154D01*
X13521538Y-59485213D01*
X13923350Y-59176065D01*
X14254892Y-58764439D01*
X14491881Y-58283064D01*
X14610034Y-57764671D01*
X14618807Y-57576643D01*
X14579899Y-57140276D01*
X14454476Y-56750033D01*
X14352511Y-56582449D01*
X14899185Y-56582449D01*
X14917998Y-56670767D01*
X14984573Y-56988601D01*
X15019407Y-57379570D01*
X15019455Y-57767360D01*
X14981675Y-58075654D01*
X14975048Y-58101550D01*
X14935622Y-58321080D01*
X14979920Y-58410028D01*
X15115768Y-58368804D01*
X15350990Y-58197819D01*
X15436867Y-58125769D01*
X15657207Y-57894480D01*
X15892218Y-57582192D01*
X16065940Y-57300269D01*
X16206996Y-57026967D01*
X16292979Y-56805382D01*
X16337212Y-56575575D01*
X16353013Y-56277607D01*
X16354307Y-56002667D01*
X16335495Y-55501374D01*
X16278965Y-55131368D01*
X16205029Y-54910167D01*
X16091158Y-54689392D01*
X16024595Y-54629009D01*
X16013673Y-54724622D01*
X16066725Y-54971836D01*
X16069431Y-54981693D01*
X16099813Y-55385483D01*
X15985056Y-55770934D01*
X15748429Y-56101999D01*
X15413199Y-56342631D01*
X15129038Y-56438626D01*
X14948223Y-56493642D01*
X14899185Y-56582449D01*
X14352511Y-56582449D01*
X14223947Y-56371152D01*
X13869716Y-55968870D01*
X13641024Y-55748667D01*
X13327352Y-55445901D01*
X13136125Y-55229141D01*
X13054606Y-55082418D01*
X13055385Y-55014379D01*
X13135224Y-54880426D01*
X13250060Y-54841219D01*
X13418800Y-54904386D01*
X13660352Y-55077554D01*
X13993626Y-55368350D01*
X14041256Y-55412042D01*
X14413787Y-55736930D01*
X14702033Y-55949402D01*
X14895058Y-56041622D01*
X14924669Y-56045000D01*
X15283774Y-55966794D01*
X15566398Y-55744842D01*
X15682297Y-55560426D01*
X15780430Y-55234294D01*
X15728200Y-54985880D01*
X15525469Y-54814756D01*
X15427809Y-54775927D01*
X15073610Y-54588536D01*
X14835564Y-54318234D01*
X14724730Y-53998288D01*
X14752167Y-53661965D01*
X14928935Y-53342532D01*
X14945111Y-53323981D01*
X15123977Y-53156143D01*
X15320772Y-53065518D01*
X15607180Y-53020753D01*
X15646109Y-53017376D01*
X16159474Y-53035586D01*
X16432672Y-53115064D01*
X16642855Y-53199576D01*
X16776553Y-53247161D01*
X16794293Y-53251000D01*
X16774020Y-53181669D01*
X16689686Y-52995521D01*
X16556596Y-52725321D01*
X16468027Y-52552500D01*
X16283797Y-52236585D01*
X16060808Y-51913833D01*
X15815014Y-51599630D01*
X15562365Y-51309366D01*
X15318816Y-51058429D01*
X15100318Y-50862206D01*
X14922825Y-50736086D01*
X14802288Y-50695456D01*
X14754660Y-50755707D01*
X14795895Y-50932224D01*
X14800362Y-50943833D01*
X14845031Y-51142837D01*
X14877202Y-51447697D01*
X14890369Y-51795042D01*
X14890409Y-51820895D01*
X14872240Y-52199580D01*
X14808537Y-52535056D01*
X14684001Y-52855362D01*
X14483332Y-53188538D01*
X14191228Y-53562625D01*
X13792391Y-54005663D01*
X13572001Y-54237086D01*
X13231264Y-54588646D01*
X12986576Y-54832387D01*
X12817613Y-54983500D01*
X12704052Y-55057174D01*
X12625570Y-55068601D01*
X12561843Y-55032970D01*
X12537404Y-55010385D01*
X12485270Y-54947184D01*
X12474895Y-54876196D01*
X12521015Y-54776013D01*
X12638364Y-54625230D01*
X12841678Y-54402441D01*
X13145691Y-54086238D01*
X13241108Y-53988076D01*
X13676390Y-53528614D01*
X13999610Y-53152335D01*
X14226479Y-52831301D01*
X14372705Y-52537572D01*
X14453998Y-52243208D01*
X14486068Y-51920270D01*
X14488638Y-51769333D01*
X14419433Y-51169959D01*
X14211493Y-50667467D01*
X13864332Y-50261205D01*
X13377465Y-49950524D01*
X13024710Y-49811863D01*
X12772880Y-49722573D01*
X12674218Y-49664978D01*
X12717167Y-49631529D01*
X12741874Y-49627051D01*
X12936099Y-49637669D01*
X12936099Y-49637669D01*
G37*
X12936099Y-49637669D02*
X13244933Y-49698657D01*
X13625732Y-49797583D01*
X14035847Y-49922017D01*
X14432632Y-50059529D01*
X14773440Y-50197686D01*
X14890389Y-50253300D01*
X15460083Y-50624522D01*
X16002957Y-51136002D01*
X16494899Y-51758685D01*
X16911800Y-52463519D01*
X17132194Y-52954667D01*
X17234829Y-53232659D01*
X17302437Y-53477597D01*
X17342209Y-53738719D01*
X17361337Y-54065263D01*
X17367011Y-54506469D01*
X17367121Y-54563333D01*
X17363088Y-55028462D01*
X17344882Y-55375726D01*
X17305495Y-55656440D01*
X17237920Y-55921921D01*
X17143560Y-56200330D01*
X16733340Y-57104612D01*
X16201079Y-57900035D01*
X15555961Y-58577648D01*
X14807175Y-59128500D01*
X13963904Y-59543637D01*
X13574582Y-59678178D01*
X13169396Y-59793454D01*
X12911702Y-59846384D01*
X12792051Y-59838217D01*
X12793575Y-59781269D01*
X12902673Y-59711555D01*
X13073738Y-59659154D01*
X13521538Y-59485213D01*
X13923350Y-59176065D01*
X14254892Y-58764439D01*
X14491881Y-58283064D01*
X14610034Y-57764671D01*
X14618807Y-57576643D01*
X14579899Y-57140276D01*
X14454476Y-56750033D01*
X14352511Y-56582449D01*
X14899185Y-56582449D01*
X14917998Y-56670767D01*
X14984573Y-56988601D01*
X15019407Y-57379570D01*
X15019455Y-57767360D01*
X14981675Y-58075654D01*
X14975048Y-58101550D01*
X14935622Y-58321080D01*
X14979920Y-58410028D01*
X15115768Y-58368804D01*
X15350990Y-58197819D01*
X15436867Y-58125769D01*
X15657207Y-57894480D01*
X15892218Y-57582192D01*
X16065940Y-57300269D01*
X16206996Y-57026967D01*
X16292979Y-56805382D01*
X16337212Y-56575575D01*
X16353013Y-56277607D01*
X16354307Y-56002667D01*
X16335495Y-55501374D01*
X16278965Y-55131368D01*
X16205029Y-54910167D01*
X16091158Y-54689392D01*
X16024595Y-54629009D01*
X16013673Y-54724622D01*
X16066725Y-54971836D01*
X16069431Y-54981693D01*
X16099813Y-55385483D01*
X15985056Y-55770934D01*
X15748429Y-56101999D01*
X15413199Y-56342631D01*
X15129038Y-56438626D01*
X14948223Y-56493642D01*
X14899185Y-56582449D01*
X14352511Y-56582449D01*
X14223947Y-56371152D01*
X13869716Y-55968870D01*
X13641024Y-55748667D01*
X13327352Y-55445901D01*
X13136125Y-55229141D01*
X13054606Y-55082418D01*
X13055385Y-55014379D01*
X13135224Y-54880426D01*
X13250060Y-54841219D01*
X13418800Y-54904386D01*
X13660352Y-55077554D01*
X13993626Y-55368350D01*
X14041256Y-55412042D01*
X14413787Y-55736930D01*
X14702033Y-55949402D01*
X14895058Y-56041622D01*
X14924669Y-56045000D01*
X15283774Y-55966794D01*
X15566398Y-55744842D01*
X15682297Y-55560426D01*
X15780430Y-55234294D01*
X15728200Y-54985880D01*
X15525469Y-54814756D01*
X15427809Y-54775927D01*
X15073610Y-54588536D01*
X14835564Y-54318234D01*
X14724730Y-53998288D01*
X14752167Y-53661965D01*
X14928935Y-53342532D01*
X14945111Y-53323981D01*
X15123977Y-53156143D01*
X15320772Y-53065518D01*
X15607180Y-53020753D01*
X15646109Y-53017376D01*
X16159474Y-53035586D01*
X16432672Y-53115064D01*
X16642855Y-53199576D01*
X16776553Y-53247161D01*
X16794293Y-53251000D01*
X16774020Y-53181669D01*
X16689686Y-52995521D01*
X16556596Y-52725321D01*
X16468027Y-52552500D01*
X16283797Y-52236585D01*
X16060808Y-51913833D01*
X15815014Y-51599630D01*
X15562365Y-51309366D01*
X15318816Y-51058429D01*
X15100318Y-50862206D01*
X14922825Y-50736086D01*
X14802288Y-50695456D01*
X14754660Y-50755707D01*
X14795895Y-50932224D01*
X14800362Y-50943833D01*
X14845031Y-51142837D01*
X14877202Y-51447697D01*
X14890369Y-51795042D01*
X14890409Y-51820895D01*
X14872240Y-52199580D01*
X14808537Y-52535056D01*
X14684001Y-52855362D01*
X14483332Y-53188538D01*
X14191228Y-53562625D01*
X13792391Y-54005663D01*
X13572001Y-54237086D01*
X13231264Y-54588646D01*
X12986576Y-54832387D01*
X12817613Y-54983500D01*
X12704052Y-55057174D01*
X12625570Y-55068601D01*
X12561843Y-55032970D01*
X12537404Y-55010385D01*
X12485270Y-54947184D01*
X12474895Y-54876196D01*
X12521015Y-54776013D01*
X12638364Y-54625230D01*
X12841678Y-54402441D01*
X13145691Y-54086238D01*
X13241108Y-53988076D01*
X13676390Y-53528614D01*
X13999610Y-53152335D01*
X14226479Y-52831301D01*
X14372705Y-52537572D01*
X14453998Y-52243208D01*
X14486068Y-51920270D01*
X14488638Y-51769333D01*
X14419433Y-51169959D01*
X14211493Y-50667467D01*
X13864332Y-50261205D01*
X13377465Y-49950524D01*
X13024710Y-49811863D01*
X12772880Y-49722573D01*
X12674218Y-49664978D01*
X12717167Y-49631529D01*
X12741874Y-49627051D01*
X12936099Y-49637669D01*
G36*
X12222050Y-54962755D02*
X12366827Y-55064898D01*
X12581635Y-55248044D01*
X12889143Y-55526421D01*
X13039939Y-55664651D01*
X13470270Y-56073384D01*
X13782240Y-56409506D01*
X13993329Y-56701505D01*
X14121017Y-56977867D01*
X14182785Y-57267082D01*
X14196506Y-57549547D01*
X14115267Y-58094068D01*
X13886858Y-58582935D01*
X13530756Y-58990562D01*
X13066433Y-59291367D01*
X12790695Y-59396470D01*
X12427702Y-59485914D01*
X12137136Y-59500205D01*
X11841107Y-59442160D01*
X11806689Y-59432029D01*
X11314904Y-59202045D01*
X10926008Y-58853402D01*
X10654029Y-58411587D01*
X10512992Y-57902084D01*
X10516925Y-57350378D01*
X10554136Y-57156217D01*
X10632371Y-56915581D01*
X10762063Y-56674107D01*
X10967811Y-56393268D01*
X11260516Y-56049967D01*
X11527912Y-55750789D01*
X11708466Y-55561713D01*
X11827275Y-55465789D01*
X11909438Y-55446064D01*
X11980051Y-55485587D01*
X12028127Y-55531497D01*
X12109607Y-55623440D01*
X12125482Y-55706301D01*
X12060374Y-55818105D01*
X11898907Y-55996871D01*
X11797142Y-56102636D01*
X11484642Y-56482091D01*
X11320610Y-56831212D01*
X11294610Y-57178170D01*
X11330687Y-57361737D01*
X11496762Y-57660049D01*
X11796503Y-57894999D01*
X12190010Y-58040086D01*
X12416726Y-58043029D01*
X12619849Y-57917825D01*
X12637929Y-57901157D01*
X12780370Y-57728062D01*
X12842565Y-57574681D01*
X12842667Y-57570206D01*
X12783191Y-57402498D01*
X12642795Y-57220951D01*
X12478526Y-57089429D01*
X12387813Y-57061000D01*
X12239293Y-57102892D01*
X12237374Y-57221787D01*
X12344604Y-57367911D01*
X12465493Y-57565938D01*
X12452868Y-57720785D01*
X12341317Y-57809637D01*
X12165430Y-57809684D01*
X11959797Y-57698111D01*
X11911334Y-57653667D01*
X11770224Y-57402993D01*
X11759154Y-57102925D01*
X11873801Y-56825839D01*
X12011368Y-56697041D01*
X12221023Y-56643440D01*
X12375288Y-56637667D01*
X12651946Y-56664668D01*
X12863399Y-56771484D01*
X13014744Y-56907436D01*
X13176478Y-57087281D01*
X13248254Y-57247374D01*
X13255214Y-57463830D01*
X13243801Y-57600908D01*
X13190620Y-57903257D01*
X13078565Y-58116397D01*
X12938864Y-58260694D01*
X12562006Y-58501275D01*
X12157815Y-58575013D01*
X11728034Y-58481884D01*
X11359589Y-58282243D01*
X11124015Y-58141346D01*
X11007777Y-58119790D01*
X11010024Y-58217631D01*
X11050521Y-58302582D01*
X11272868Y-58588948D01*
X11582249Y-58838382D01*
X11908139Y-58996052D01*
X11960194Y-59009805D01*
X12440164Y-59039506D01*
X12882117Y-58921126D01*
X13261046Y-58675418D01*
X13551945Y-58323135D01*
X13729807Y-57885028D01*
X13774000Y-57504557D01*
X13756437Y-57254679D01*
X13690146Y-57034750D01*
X13554727Y-56812644D01*
X13329776Y-56556229D01*
X12994893Y-56233376D01*
X12927334Y-56171196D01*
X12637492Y-55905816D01*
X12325311Y-55620335D01*
X12179591Y-55487225D01*
X11977497Y-55297979D01*
X11884954Y-55182672D01*
X11885851Y-55101738D01*
X11964080Y-55015612D01*
X11981226Y-55000037D01*
X12051917Y-54944554D01*
X12124636Y-54927383D01*
X12222050Y-54962755D01*
X12222050Y-54962755D01*
G37*
X12222050Y-54962755D02*
X12366827Y-55064898D01*
X12581635Y-55248044D01*
X12889143Y-55526421D01*
X13039939Y-55664651D01*
X13470270Y-56073384D01*
X13782240Y-56409506D01*
X13993329Y-56701505D01*
X14121017Y-56977867D01*
X14182785Y-57267082D01*
X14196506Y-57549547D01*
X14115267Y-58094068D01*
X13886858Y-58582935D01*
X13530756Y-58990562D01*
X13066433Y-59291367D01*
X12790695Y-59396470D01*
X12427702Y-59485914D01*
X12137136Y-59500205D01*
X11841107Y-59442160D01*
X11806689Y-59432029D01*
X11314904Y-59202045D01*
X10926008Y-58853402D01*
X10654029Y-58411587D01*
X10512992Y-57902084D01*
X10516925Y-57350378D01*
X10554136Y-57156217D01*
X10632371Y-56915581D01*
X10762063Y-56674107D01*
X10967811Y-56393268D01*
X11260516Y-56049967D01*
X11527912Y-55750789D01*
X11708466Y-55561713D01*
X11827275Y-55465789D01*
X11909438Y-55446064D01*
X11980051Y-55485587D01*
X12028127Y-55531497D01*
X12109607Y-55623440D01*
X12125482Y-55706301D01*
X12060374Y-55818105D01*
X11898907Y-55996871D01*
X11797142Y-56102636D01*
X11484642Y-56482091D01*
X11320610Y-56831212D01*
X11294610Y-57178170D01*
X11330687Y-57361737D01*
X11496762Y-57660049D01*
X11796503Y-57894999D01*
X12190010Y-58040086D01*
X12416726Y-58043029D01*
X12619849Y-57917825D01*
X12637929Y-57901157D01*
X12780370Y-57728062D01*
X12842565Y-57574681D01*
X12842667Y-57570206D01*
X12783191Y-57402498D01*
X12642795Y-57220951D01*
X12478526Y-57089429D01*
X12387813Y-57061000D01*
X12239293Y-57102892D01*
X12237374Y-57221787D01*
X12344604Y-57367911D01*
X12465493Y-57565938D01*
X12452868Y-57720785D01*
X12341317Y-57809637D01*
X12165430Y-57809684D01*
X11959797Y-57698111D01*
X11911334Y-57653667D01*
X11770224Y-57402993D01*
X11759154Y-57102925D01*
X11873801Y-56825839D01*
X12011368Y-56697041D01*
X12221023Y-56643440D01*
X12375288Y-56637667D01*
X12651946Y-56664668D01*
X12863399Y-56771484D01*
X13014744Y-56907436D01*
X13176478Y-57087281D01*
X13248254Y-57247374D01*
X13255214Y-57463830D01*
X13243801Y-57600908D01*
X13190620Y-57903257D01*
X13078565Y-58116397D01*
X12938864Y-58260694D01*
X12562006Y-58501275D01*
X12157815Y-58575013D01*
X11728034Y-58481884D01*
X11359589Y-58282243D01*
X11124015Y-58141346D01*
X11007777Y-58119790D01*
X11010024Y-58217631D01*
X11050521Y-58302582D01*
X11272868Y-58588948D01*
X11582249Y-58838382D01*
X11908139Y-58996052D01*
X11960194Y-59009805D01*
X12440164Y-59039506D01*
X12882117Y-58921126D01*
X13261046Y-58675418D01*
X13551945Y-58323135D01*
X13729807Y-57885028D01*
X13774000Y-57504557D01*
X13756437Y-57254679D01*
X13690146Y-57034750D01*
X13554727Y-56812644D01*
X13329776Y-56556229D01*
X12994893Y-56233376D01*
X12927334Y-56171196D01*
X12637492Y-55905816D01*
X12325311Y-55620335D01*
X12179591Y-55487225D01*
X11977497Y-55297979D01*
X11884954Y-55182672D01*
X11885851Y-55101738D01*
X11964080Y-55015612D01*
X11981226Y-55000037D01*
X12051917Y-54944554D01*
X12124636Y-54927383D01*
X12222050Y-54962755D01*
G36*
X12753233Y-50069108D02*
X13195636Y-50204710D01*
X13567877Y-50466824D01*
X13729345Y-50639015D01*
X13964804Y-50972360D01*
X14089151Y-51309405D01*
X14128153Y-51723838D01*
X14128330Y-51780062D01*
X14095389Y-52130219D01*
X13987608Y-52461994D01*
X13787522Y-52809026D01*
X13477670Y-53204954D01*
X13264037Y-53444963D01*
X13014486Y-53713181D01*
X12849495Y-53872835D01*
X12740844Y-53941669D01*
X12660311Y-53937430D01*
X12579676Y-53877862D01*
X12577993Y-53876340D01*
X12457071Y-53743970D01*
X12419334Y-53668034D01*
X12472695Y-53578939D01*
X12614016Y-53401487D01*
X12815157Y-53170583D01*
X12862087Y-53118870D01*
X13093846Y-52853069D01*
X13227099Y-52658050D01*
X13286319Y-52488197D01*
X13296319Y-52309487D01*
X13212315Y-51908705D01*
X12991426Y-51598920D01*
X12711801Y-51423595D01*
X12348744Y-51323313D01*
X12072045Y-51354911D01*
X11893998Y-51512981D01*
X11826896Y-51792117D01*
X11826667Y-51812913D01*
X11886025Y-52031169D01*
X12031221Y-52200732D01*
X12212933Y-52275020D01*
X12302053Y-52261888D01*
X12411663Y-52174286D01*
X12363296Y-52077492D01*
X12245064Y-52021767D01*
X12113651Y-51914568D01*
X12097510Y-51759342D01*
X12187248Y-51622660D01*
X12308294Y-51573627D01*
X12543489Y-51610005D01*
X12716808Y-51764831D01*
X12816205Y-51994716D01*
X12829633Y-52256271D01*
X12745046Y-52506108D01*
X12609860Y-52659835D01*
X12328525Y-52789174D01*
X12030101Y-52779886D01*
X11744894Y-52655910D01*
X11503207Y-52441185D01*
X11335343Y-52159650D01*
X11271607Y-51835245D01*
X11297640Y-51623216D01*
X11470454Y-51238814D01*
X11750325Y-50970595D01*
X12114283Y-50826266D01*
X12539356Y-50813535D01*
X13002575Y-50940111D01*
X13141664Y-51004431D01*
X13376938Y-51111909D01*
X13546594Y-51167839D01*
X13600227Y-51166996D01*
X13570566Y-51089215D01*
X13444004Y-50941182D01*
X13336017Y-50836327D01*
X12923792Y-50552506D01*
X12490120Y-50413863D01*
X12061284Y-50409868D01*
X11663567Y-50529991D01*
X11323254Y-50763703D01*
X11066626Y-51100474D01*
X10919968Y-51529775D01*
X10895650Y-51813994D01*
X10901630Y-52036186D01*
X10930853Y-52223346D01*
X10999744Y-52401426D01*
X11124727Y-52596377D01*
X11322225Y-52834151D01*
X11608661Y-53140697D01*
X11968961Y-53509948D01*
X12288330Y-53836627D01*
X12503139Y-54065723D01*
X12628277Y-54219679D01*
X12678630Y-54320941D01*
X12669085Y-54391951D01*
X12614528Y-54455154D01*
X12602935Y-54465754D01*
X12536948Y-54515591D01*
X12466618Y-54527557D01*
X12371698Y-54486917D01*
X12231939Y-54378934D01*
X12027093Y-54188875D01*
X11736910Y-53902004D01*
X11497769Y-53661512D01*
X11082854Y-53232912D01*
X10780395Y-52888122D01*
X10575674Y-52599144D01*
X10453974Y-52337982D01*
X10400577Y-52076640D01*
X10400765Y-51787121D01*
X10418131Y-51607801D01*
X10560021Y-51105115D01*
X10849734Y-50658236D01*
X11248253Y-50310518D01*
X11491645Y-50174042D01*
X11749322Y-50094793D01*
X12089020Y-50054183D01*
X12207760Y-50047220D01*
X12753233Y-50069108D01*
X12753233Y-50069108D01*
G37*
X12753233Y-50069108D02*
X13195636Y-50204710D01*
X13567877Y-50466824D01*
X13729345Y-50639015D01*
X13964804Y-50972360D01*
X14089151Y-51309405D01*
X14128153Y-51723838D01*
X14128330Y-51780062D01*
X14095389Y-52130219D01*
X13987608Y-52461994D01*
X13787522Y-52809026D01*
X13477670Y-53204954D01*
X13264037Y-53444963D01*
X13014486Y-53713181D01*
X12849495Y-53872835D01*
X12740844Y-53941669D01*
X12660311Y-53937430D01*
X12579676Y-53877862D01*
X12577993Y-53876340D01*
X12457071Y-53743970D01*
X12419334Y-53668034D01*
X12472695Y-53578939D01*
X12614016Y-53401487D01*
X12815157Y-53170583D01*
X12862087Y-53118870D01*
X13093846Y-52853069D01*
X13227099Y-52658050D01*
X13286319Y-52488197D01*
X13296319Y-52309487D01*
X13212315Y-51908705D01*
X12991426Y-51598920D01*
X12711801Y-51423595D01*
X12348744Y-51323313D01*
X12072045Y-51354911D01*
X11893998Y-51512981D01*
X11826896Y-51792117D01*
X11826667Y-51812913D01*
X11886025Y-52031169D01*
X12031221Y-52200732D01*
X12212933Y-52275020D01*
X12302053Y-52261888D01*
X12411663Y-52174286D01*
X12363296Y-52077492D01*
X12245064Y-52021767D01*
X12113651Y-51914568D01*
X12097510Y-51759342D01*
X12187248Y-51622660D01*
X12308294Y-51573627D01*
X12543489Y-51610005D01*
X12716808Y-51764831D01*
X12816205Y-51994716D01*
X12829633Y-52256271D01*
X12745046Y-52506108D01*
X12609860Y-52659835D01*
X12328525Y-52789174D01*
X12030101Y-52779886D01*
X11744894Y-52655910D01*
X11503207Y-52441185D01*
X11335343Y-52159650D01*
X11271607Y-51835245D01*
X11297640Y-51623216D01*
X11470454Y-51238814D01*
X11750325Y-50970595D01*
X12114283Y-50826266D01*
X12539356Y-50813535D01*
X13002575Y-50940111D01*
X13141664Y-51004431D01*
X13376938Y-51111909D01*
X13546594Y-51167839D01*
X13600227Y-51166996D01*
X13570566Y-51089215D01*
X13444004Y-50941182D01*
X13336017Y-50836327D01*
X12923792Y-50552506D01*
X12490120Y-50413863D01*
X12061284Y-50409868D01*
X11663567Y-50529991D01*
X11323254Y-50763703D01*
X11066626Y-51100474D01*
X10919968Y-51529775D01*
X10895650Y-51813994D01*
X10901630Y-52036186D01*
X10930853Y-52223346D01*
X10999744Y-52401426D01*
X11124727Y-52596377D01*
X11322225Y-52834151D01*
X11608661Y-53140697D01*
X11968961Y-53509948D01*
X12288330Y-53836627D01*
X12503139Y-54065723D01*
X12628277Y-54219679D01*
X12678630Y-54320941D01*
X12669085Y-54391951D01*
X12614528Y-54455154D01*
X12602935Y-54465754D01*
X12536948Y-54515591D01*
X12466618Y-54527557D01*
X12371698Y-54486917D01*
X12231939Y-54378934D01*
X12027093Y-54188875D01*
X11736910Y-53902004D01*
X11497769Y-53661512D01*
X11082854Y-53232912D01*
X10780395Y-52888122D01*
X10575674Y-52599144D01*
X10453974Y-52337982D01*
X10400577Y-52076640D01*
X10400765Y-51787121D01*
X10418131Y-51607801D01*
X10560021Y-51105115D01*
X10849734Y-50658236D01*
X11248253Y-50310518D01*
X11491645Y-50174042D01*
X11749322Y-50094793D01*
X12089020Y-50054183D01*
X12207760Y-50047220D01*
X12753233Y-50069108D01*
D14*
X14530953Y-23132143D02*
X14483334Y-23179762D01*
X14340477Y-23227381D01*
X14245239Y-23227381D01*
X14102381Y-23179762D01*
X14007143Y-23084524D01*
X13959524Y-22989286D01*
X13911905Y-22798810D01*
X13911905Y-22655952D01*
X13959524Y-22465476D01*
X14007143Y-22370238D01*
X14102381Y-22275000D01*
X14245239Y-22227381D01*
X14340477Y-22227381D01*
X14483334Y-22275000D01*
X14530953Y-22322619D01*
X15102381Y-22655952D02*
X15007143Y-22608333D01*
X14959524Y-22560714D01*
X14911905Y-22465476D01*
X14911905Y-22417857D01*
X14959524Y-22322619D01*
X15007143Y-22275000D01*
X15102381Y-22227381D01*
X15292858Y-22227381D01*
X15388096Y-22275000D01*
X15435715Y-22322619D01*
X15483334Y-22417857D01*
X15483334Y-22465476D01*
X15435715Y-22560714D01*
X15388096Y-22608333D01*
X15292858Y-22655952D01*
X15102381Y-22655952D01*
X15007143Y-22703571D01*
X14959524Y-22751190D01*
X14911905Y-22846429D01*
X14911905Y-23036905D01*
X14959524Y-23132143D01*
X15007143Y-23179762D01*
X15102381Y-23227381D01*
X15292858Y-23227381D01*
X15388096Y-23179762D01*
X15435715Y-23132143D01*
X15483334Y-23036905D01*
X15483334Y-22846429D01*
X15435715Y-22751190D01*
X15388096Y-22703571D01*
X15292858Y-22655952D01*
X16102381Y-22227381D02*
X16197620Y-22227381D01*
X16292858Y-22275000D01*
X16340477Y-22322619D01*
X16388096Y-22417857D01*
X16435715Y-22608333D01*
X16435715Y-22846429D01*
X16388096Y-23036905D01*
X16340477Y-23132143D01*
X16292858Y-23179762D01*
X16197620Y-23227381D01*
X16102381Y-23227381D01*
X16007143Y-23179762D01*
X15959524Y-23132143D01*
X15911905Y-23036905D01*
X15864286Y-22846429D01*
X15864286Y-22608333D01*
X15911905Y-22417857D01*
X15959524Y-22322619D01*
X16007143Y-22275000D01*
X16102381Y-22227381D01*
X17388096Y-23227381D02*
X16816667Y-23227381D01*
X17102381Y-23227381D02*
X17102381Y-22227381D01*
X17007143Y-22370238D01*
X16911905Y-22465476D01*
X16816667Y-22513095D01*
X38830953Y-23132143D02*
X38783334Y-23179762D01*
X38640477Y-23227381D01*
X38545239Y-23227381D01*
X38402381Y-23179762D01*
X38307143Y-23084524D01*
X38259524Y-22989286D01*
X38211905Y-22798810D01*
X38211905Y-22655952D01*
X38259524Y-22465476D01*
X38307143Y-22370238D01*
X38402381Y-22275000D01*
X38545239Y-22227381D01*
X38640477Y-22227381D01*
X38783334Y-22275000D01*
X38830953Y-22322619D01*
X39402381Y-22655952D02*
X39307143Y-22608333D01*
X39259524Y-22560714D01*
X39211905Y-22465476D01*
X39211905Y-22417857D01*
X39259524Y-22322619D01*
X39307143Y-22275000D01*
X39402381Y-22227381D01*
X39592858Y-22227381D01*
X39688096Y-22275000D01*
X39735715Y-22322619D01*
X39783334Y-22417857D01*
X39783334Y-22465476D01*
X39735715Y-22560714D01*
X39688096Y-22608333D01*
X39592858Y-22655952D01*
X39402381Y-22655952D01*
X39307143Y-22703571D01*
X39259524Y-22751190D01*
X39211905Y-22846429D01*
X39211905Y-23036905D01*
X39259524Y-23132143D01*
X39307143Y-23179762D01*
X39402381Y-23227381D01*
X39592858Y-23227381D01*
X39688096Y-23179762D01*
X39735715Y-23132143D01*
X39783334Y-23036905D01*
X39783334Y-22846429D01*
X39735715Y-22751190D01*
X39688096Y-22703571D01*
X39592858Y-22655952D01*
X40402381Y-22227381D02*
X40497620Y-22227381D01*
X40592858Y-22275000D01*
X40640477Y-22322619D01*
X40688096Y-22417857D01*
X40735715Y-22608333D01*
X40735715Y-22846429D01*
X40688096Y-23036905D01*
X40640477Y-23132143D01*
X40592858Y-23179762D01*
X40497620Y-23227381D01*
X40402381Y-23227381D01*
X40307143Y-23179762D01*
X40259524Y-23132143D01*
X40211905Y-23036905D01*
X40164286Y-22846429D01*
X40164286Y-22608333D01*
X40211905Y-22417857D01*
X40259524Y-22322619D01*
X40307143Y-22275000D01*
X40402381Y-22227381D01*
X41116667Y-22322619D02*
X41164286Y-22275000D01*
X41259524Y-22227381D01*
X41497620Y-22227381D01*
X41592858Y-22275000D01*
X41640477Y-22322619D01*
X41688096Y-22417857D01*
X41688096Y-22513095D01*
X41640477Y-22655952D01*
X41069048Y-23227381D01*
X41688096Y-23227381D01*
X26085714Y-42227381D02*
X26085714Y-43036905D01*
X26133333Y-43132143D01*
X26180952Y-43179762D01*
X26276190Y-43227381D01*
X26466667Y-43227381D01*
X26561905Y-43179762D01*
X26609524Y-43132143D01*
X26657143Y-43036905D01*
X26657143Y-42227381D01*
X27657143Y-43227381D02*
X27085714Y-43227381D01*
X27371428Y-43227381D02*
X27371428Y-42227381D01*
X27276190Y-42370238D01*
X27180952Y-42465476D01*
X27085714Y-42513095D01*
X28276190Y-42227381D02*
X28371429Y-42227381D01*
X28466667Y-42275000D01*
X28514286Y-42322619D01*
X28561905Y-42417857D01*
X28609524Y-42608333D01*
X28609524Y-42846429D01*
X28561905Y-43036905D01*
X28514286Y-43132143D01*
X28466667Y-43179762D01*
X28371429Y-43227381D01*
X28276190Y-43227381D01*
X28180952Y-43179762D01*
X28133333Y-43132143D01*
X28085714Y-43036905D01*
X28038095Y-42846429D01*
X28038095Y-42608333D01*
X28085714Y-42417857D01*
X28133333Y-42322619D01*
X28180952Y-42275000D01*
X28276190Y-42227381D01*
X29561905Y-43227381D02*
X28990476Y-43227381D01*
X29276190Y-43227381D02*
X29276190Y-42227381D01*
X29180952Y-42370238D01*
X29085714Y-42465476D01*
X28990476Y-42513095D01*
X2214286Y-32381D02*
X2214286Y-746667D01*
X2166666Y-889524D01*
X2071428Y-984762D01*
X1928571Y-1032381D01*
X1833333Y-1032381D01*
X3166667Y-32381D02*
X2690476Y-32381D01*
X2642857Y-508571D01*
X2690476Y-460952D01*
X2785714Y-413333D01*
X3023810Y-413333D01*
X3119048Y-460952D01*
X3166667Y-508571D01*
X3214286Y-603810D01*
X3214286Y-841905D01*
X3166667Y-937143D01*
X3119048Y-984762D01*
X3023810Y-1032381D01*
X2785714Y-1032381D01*
X2690476Y-984762D01*
X2642857Y-937143D01*
X3833333Y-32381D02*
X3928572Y-32381D01*
X4023810Y-80000D01*
X4071429Y-127619D01*
X4119048Y-222857D01*
X4166667Y-413333D01*
X4166667Y-651429D01*
X4119048Y-841905D01*
X4071429Y-937143D01*
X4023810Y-984762D01*
X3928572Y-1032381D01*
X3833333Y-1032381D01*
X3738095Y-984762D01*
X3690476Y-937143D01*
X3642857Y-841905D01*
X3595238Y-651429D01*
X3595238Y-413333D01*
X3642857Y-222857D01*
X3690476Y-127619D01*
X3738095Y-80000D01*
X3833333Y-32381D01*
X5023810Y-365714D02*
X5023810Y-1032381D01*
X4785714Y15238D02*
X4547619Y-699048D01*
X5166667Y-699048D01*
X-1967619Y-18035714D02*
X-1253333Y-18035714D01*
X-1110476Y-18083334D01*
X-1015238Y-18178572D01*
X-967619Y-18321429D01*
X-967619Y-18416667D01*
X-1967619Y-17083333D02*
X-1967619Y-17559524D01*
X-1491429Y-17607143D01*
X-1539048Y-17559524D01*
X-1586667Y-17464286D01*
X-1586667Y-17226190D01*
X-1539048Y-17130952D01*
X-1491429Y-17083333D01*
X-1396190Y-17035714D01*
X-1158095Y-17035714D01*
X-1062857Y-17083333D01*
X-1015238Y-17130952D01*
X-967619Y-17226190D01*
X-967619Y-17464286D01*
X-1015238Y-17559524D01*
X-1062857Y-17607143D01*
X-1967619Y-16416667D02*
X-1967619Y-16321428D01*
X-1920000Y-16226190D01*
X-1872381Y-16178571D01*
X-1777143Y-16130952D01*
X-1586667Y-16083333D01*
X-1348571Y-16083333D01*
X-1158095Y-16130952D01*
X-1062857Y-16178571D01*
X-1015238Y-16226190D01*
X-967619Y-16321428D01*
X-967619Y-16416667D01*
X-1015238Y-16511905D01*
X-1062857Y-16559524D01*
X-1158095Y-16607143D01*
X-1348571Y-16654762D01*
X-1586667Y-16654762D01*
X-1777143Y-16607143D01*
X-1872381Y-16559524D01*
X-1920000Y-16511905D01*
X-1967619Y-16416667D01*
X-1967619Y-15178571D02*
X-1967619Y-15654762D01*
X-1491429Y-15702381D01*
X-1539048Y-15654762D01*
X-1586667Y-15559524D01*
X-1586667Y-15321428D01*
X-1539048Y-15226190D01*
X-1491429Y-15178571D01*
X-1396190Y-15130952D01*
X-1158095Y-15130952D01*
X-1062857Y-15178571D01*
X-1015238Y-15226190D01*
X-967619Y-15321428D01*
X-967619Y-15559524D01*
X-1015238Y-15654762D01*
X-1062857Y-15702381D01*
X-1967619Y-37085714D02*
X-1253333Y-37085714D01*
X-1110476Y-37133334D01*
X-1015238Y-37228572D01*
X-967619Y-37371429D01*
X-967619Y-37466667D01*
X-1967619Y-36133333D02*
X-1967619Y-36609524D01*
X-1491429Y-36657143D01*
X-1539048Y-36609524D01*
X-1586667Y-36514286D01*
X-1586667Y-36276190D01*
X-1539048Y-36180952D01*
X-1491429Y-36133333D01*
X-1396190Y-36085714D01*
X-1158095Y-36085714D01*
X-1062857Y-36133333D01*
X-1015238Y-36180952D01*
X-967619Y-36276190D01*
X-967619Y-36514286D01*
X-1015238Y-36609524D01*
X-1062857Y-36657143D01*
X-1967619Y-35466667D02*
X-1967619Y-35371428D01*
X-1920000Y-35276190D01*
X-1872381Y-35228571D01*
X-1777143Y-35180952D01*
X-1586667Y-35133333D01*
X-1348571Y-35133333D01*
X-1158095Y-35180952D01*
X-1062857Y-35228571D01*
X-1015238Y-35276190D01*
X-967619Y-35371428D01*
X-967619Y-35466667D01*
X-1015238Y-35561905D01*
X-1062857Y-35609524D01*
X-1158095Y-35657143D01*
X-1348571Y-35704762D01*
X-1586667Y-35704762D01*
X-1777143Y-35657143D01*
X-1872381Y-35609524D01*
X-1920000Y-35561905D01*
X-1967619Y-35466667D01*
X-1967619Y-34276190D02*
X-1967619Y-34466667D01*
X-1920000Y-34561905D01*
X-1872381Y-34609524D01*
X-1729524Y-34704762D01*
X-1539048Y-34752381D01*
X-1158095Y-34752381D01*
X-1062857Y-34704762D01*
X-1015238Y-34657143D01*
X-967619Y-34561905D01*
X-967619Y-34371428D01*
X-1015238Y-34276190D01*
X-1062857Y-34228571D01*
X-1158095Y-34180952D01*
X-1396190Y-34180952D01*
X-1491429Y-34228571D01*
X-1539048Y-34276190D01*
X-1586667Y-34371428D01*
X-1586667Y-34561905D01*
X-1539048Y-34657143D01*
X-1491429Y-34704762D01*
X-1396190Y-34752381D01*
X-1967619Y-56135714D02*
X-1253333Y-56135714D01*
X-1110476Y-56183334D01*
X-1015238Y-56278572D01*
X-967619Y-56421429D01*
X-967619Y-56516667D01*
X-1967619Y-55183333D02*
X-1967619Y-55659524D01*
X-1491429Y-55707143D01*
X-1539048Y-55659524D01*
X-1586667Y-55564286D01*
X-1586667Y-55326190D01*
X-1539048Y-55230952D01*
X-1491429Y-55183333D01*
X-1396190Y-55135714D01*
X-1158095Y-55135714D01*
X-1062857Y-55183333D01*
X-1015238Y-55230952D01*
X-967619Y-55326190D01*
X-967619Y-55564286D01*
X-1015238Y-55659524D01*
X-1062857Y-55707143D01*
X-1967619Y-54516667D02*
X-1967619Y-54421428D01*
X-1920000Y-54326190D01*
X-1872381Y-54278571D01*
X-1777143Y-54230952D01*
X-1586667Y-54183333D01*
X-1348571Y-54183333D01*
X-1158095Y-54230952D01*
X-1062857Y-54278571D01*
X-1015238Y-54326190D01*
X-967619Y-54421428D01*
X-967619Y-54516667D01*
X-1015238Y-54611905D01*
X-1062857Y-54659524D01*
X-1158095Y-54707143D01*
X-1348571Y-54754762D01*
X-1586667Y-54754762D01*
X-1777143Y-54707143D01*
X-1872381Y-54659524D01*
X-1920000Y-54611905D01*
X-1967619Y-54516667D01*
X-1967619Y-53850000D02*
X-1967619Y-53183333D01*
X-967619Y-53611905D01*
X2214286Y-70472381D02*
X2214286Y-71186667D01*
X2166666Y-71329524D01*
X2071428Y-71424762D01*
X1928571Y-71472381D01*
X1833333Y-71472381D01*
X3166667Y-70472381D02*
X2690476Y-70472381D01*
X2642857Y-70948571D01*
X2690476Y-70900952D01*
X2785714Y-70853333D01*
X3023810Y-70853333D01*
X3119048Y-70900952D01*
X3166667Y-70948571D01*
X3214286Y-71043810D01*
X3214286Y-71281905D01*
X3166667Y-71377143D01*
X3119048Y-71424762D01*
X3023810Y-71472381D01*
X2785714Y-71472381D01*
X2690476Y-71424762D01*
X2642857Y-71377143D01*
X3833333Y-70472381D02*
X3928572Y-70472381D01*
X4023810Y-70520000D01*
X4071429Y-70567619D01*
X4119048Y-70662857D01*
X4166667Y-70853333D01*
X4166667Y-71091429D01*
X4119048Y-71281905D01*
X4071429Y-71377143D01*
X4023810Y-71424762D01*
X3928572Y-71472381D01*
X3833333Y-71472381D01*
X3738095Y-71424762D01*
X3690476Y-71377143D01*
X3642857Y-71281905D01*
X3595238Y-71091429D01*
X3595238Y-70853333D01*
X3642857Y-70662857D01*
X3690476Y-70567619D01*
X3738095Y-70520000D01*
X3833333Y-70472381D01*
X4738095Y-70900952D02*
X4642857Y-70853333D01*
X4595238Y-70805714D01*
X4547619Y-70710476D01*
X4547619Y-70662857D01*
X4595238Y-70567619D01*
X4642857Y-70520000D01*
X4738095Y-70472381D01*
X4928572Y-70472381D01*
X5023810Y-70520000D01*
X5071429Y-70567619D01*
X5119048Y-70662857D01*
X5119048Y-70710476D01*
X5071429Y-70805714D01*
X5023810Y-70853333D01*
X4928572Y-70900952D01*
X4738095Y-70900952D01*
X4642857Y-70948571D01*
X4595238Y-70996190D01*
X4547619Y-71091429D01*
X4547619Y-71281905D01*
X4595238Y-71377143D01*
X4642857Y-71424762D01*
X4738095Y-71472381D01*
X4928572Y-71472381D01*
X5023810Y-71424762D01*
X5071429Y-71377143D01*
X5119048Y-71281905D01*
X5119048Y-71091429D01*
X5071429Y-70996190D01*
X5023810Y-70948571D01*
X4928572Y-70900952D01*
X50814286Y-70472381D02*
X50814286Y-71186667D01*
X50766666Y-71329524D01*
X50671428Y-71424762D01*
X50528571Y-71472381D01*
X50433333Y-71472381D01*
X51766667Y-70472381D02*
X51290476Y-70472381D01*
X51242857Y-70948571D01*
X51290476Y-70900952D01*
X51385714Y-70853333D01*
X51623810Y-70853333D01*
X51719048Y-70900952D01*
X51766667Y-70948571D01*
X51814286Y-71043810D01*
X51814286Y-71281905D01*
X51766667Y-71377143D01*
X51719048Y-71424762D01*
X51623810Y-71472381D01*
X51385714Y-71472381D01*
X51290476Y-71424762D01*
X51242857Y-71377143D01*
X52433333Y-70472381D02*
X52528572Y-70472381D01*
X52623810Y-70520000D01*
X52671429Y-70567619D01*
X52719048Y-70662857D01*
X52766667Y-70853333D01*
X52766667Y-71091429D01*
X52719048Y-71281905D01*
X52671429Y-71377143D01*
X52623810Y-71424762D01*
X52528572Y-71472381D01*
X52433333Y-71472381D01*
X52338095Y-71424762D01*
X52290476Y-71377143D01*
X52242857Y-71281905D01*
X52195238Y-71091429D01*
X52195238Y-70853333D01*
X52242857Y-70662857D01*
X52290476Y-70567619D01*
X52338095Y-70520000D01*
X52433333Y-70472381D01*
X53242857Y-71472381D02*
X53433333Y-71472381D01*
X53528572Y-71424762D01*
X53576191Y-71377143D01*
X53671429Y-71234286D01*
X53719048Y-71043810D01*
X53719048Y-70662857D01*
X53671429Y-70567619D01*
X53623810Y-70520000D01*
X53528572Y-70472381D01*
X53338095Y-70472381D01*
X53242857Y-70520000D01*
X53195238Y-70567619D01*
X53147619Y-70662857D01*
X53147619Y-70900952D01*
X53195238Y-70996190D01*
X53242857Y-71043810D01*
X53338095Y-71091429D01*
X53528572Y-71091429D01*
X53623810Y-71043810D01*
X53671429Y-70996190D01*
X53719048Y-70900952D01*
X56472381Y-56135714D02*
X57186667Y-56135714D01*
X57329524Y-56183334D01*
X57424762Y-56278572D01*
X57472381Y-56421429D01*
X57472381Y-56516667D01*
X56472381Y-55183333D02*
X56472381Y-55659524D01*
X56948571Y-55707143D01*
X56900952Y-55659524D01*
X56853333Y-55564286D01*
X56853333Y-55326190D01*
X56900952Y-55230952D01*
X56948571Y-55183333D01*
X57043810Y-55135714D01*
X57281905Y-55135714D01*
X57377143Y-55183333D01*
X57424762Y-55230952D01*
X57472381Y-55326190D01*
X57472381Y-55564286D01*
X57424762Y-55659524D01*
X57377143Y-55707143D01*
X57472381Y-54183333D02*
X57472381Y-54754762D01*
X57472381Y-54469048D02*
X56472381Y-54469048D01*
X56615238Y-54564286D01*
X56710476Y-54659524D01*
X56758095Y-54754762D01*
X56472381Y-53564286D02*
X56472381Y-53469047D01*
X56520000Y-53373809D01*
X56567619Y-53326190D01*
X56662857Y-53278571D01*
X56853333Y-53230952D01*
X57091429Y-53230952D01*
X57281905Y-53278571D01*
X57377143Y-53326190D01*
X57424762Y-53373809D01*
X57472381Y-53469047D01*
X57472381Y-53564286D01*
X57424762Y-53659524D01*
X57377143Y-53707143D01*
X57281905Y-53754762D01*
X57091429Y-53802381D01*
X56853333Y-53802381D01*
X56662857Y-53754762D01*
X56567619Y-53707143D01*
X56520000Y-53659524D01*
X56472381Y-53564286D01*
X56472381Y-37085714D02*
X57186667Y-37085714D01*
X57329524Y-37133334D01*
X57424762Y-37228572D01*
X57472381Y-37371429D01*
X57472381Y-37466667D01*
X56472381Y-36133333D02*
X56472381Y-36609524D01*
X56948571Y-36657143D01*
X56900952Y-36609524D01*
X56853333Y-36514286D01*
X56853333Y-36276190D01*
X56900952Y-36180952D01*
X56948571Y-36133333D01*
X57043810Y-36085714D01*
X57281905Y-36085714D01*
X57377143Y-36133333D01*
X57424762Y-36180952D01*
X57472381Y-36276190D01*
X57472381Y-36514286D01*
X57424762Y-36609524D01*
X57377143Y-36657143D01*
X57472381Y-35133333D02*
X57472381Y-35704762D01*
X57472381Y-35419048D02*
X56472381Y-35419048D01*
X56615238Y-35514286D01*
X56710476Y-35609524D01*
X56758095Y-35704762D01*
X57472381Y-34180952D02*
X57472381Y-34752381D01*
X57472381Y-34466667D02*
X56472381Y-34466667D01*
X56615238Y-34561905D01*
X56710476Y-34657143D01*
X56758095Y-34752381D01*
X56472381Y-18035714D02*
X57186667Y-18035714D01*
X57329524Y-18083334D01*
X57424762Y-18178572D01*
X57472381Y-18321429D01*
X57472381Y-18416667D01*
X56472381Y-17083333D02*
X56472381Y-17559524D01*
X56948571Y-17607143D01*
X56900952Y-17559524D01*
X56853333Y-17464286D01*
X56853333Y-17226190D01*
X56900952Y-17130952D01*
X56948571Y-17083333D01*
X57043810Y-17035714D01*
X57281905Y-17035714D01*
X57377143Y-17083333D01*
X57424762Y-17130952D01*
X57472381Y-17226190D01*
X57472381Y-17464286D01*
X57424762Y-17559524D01*
X57377143Y-17607143D01*
X57472381Y-16083333D02*
X57472381Y-16654762D01*
X57472381Y-16369048D02*
X56472381Y-16369048D01*
X56615238Y-16464286D01*
X56710476Y-16559524D01*
X56758095Y-16654762D01*
X56567619Y-15702381D02*
X56520000Y-15654762D01*
X56472381Y-15559524D01*
X56472381Y-15321428D01*
X56520000Y-15226190D01*
X56567619Y-15178571D01*
X56662857Y-15130952D01*
X56758095Y-15130952D01*
X56900952Y-15178571D01*
X57472381Y-15750000D01*
X57472381Y-15130952D01*
X50814286Y-32381D02*
X50814286Y-746667D01*
X50766666Y-889524D01*
X50671428Y-984762D01*
X50528571Y-1032381D01*
X50433333Y-1032381D01*
X51766667Y-32381D02*
X51290476Y-32381D01*
X51242857Y-508571D01*
X51290476Y-460952D01*
X51385714Y-413333D01*
X51623810Y-413333D01*
X51719048Y-460952D01*
X51766667Y-508571D01*
X51814286Y-603810D01*
X51814286Y-841905D01*
X51766667Y-937143D01*
X51719048Y-984762D01*
X51623810Y-1032381D01*
X51385714Y-1032381D01*
X51290476Y-984762D01*
X51242857Y-937143D01*
X52766667Y-1032381D02*
X52195238Y-1032381D01*
X52480952Y-1032381D02*
X52480952Y-32381D01*
X52385714Y-175238D01*
X52290476Y-270476D01*
X52195238Y-318095D01*
X53100000Y-32381D02*
X53719048Y-32381D01*
X53385714Y-413333D01*
X53528572Y-413333D01*
X53623810Y-460952D01*
X53671429Y-508571D01*
X53719048Y-603810D01*
X53719048Y-841905D01*
X53671429Y-937143D01*
X53623810Y-984762D01*
X53528572Y-1032381D01*
X53242857Y-1032381D01*
X53147619Y-984762D01*
X53100000Y-937143D01*
X41135714Y-39477381D02*
X41135714Y-40286905D01*
X41183333Y-40382143D01*
X41230952Y-40429762D01*
X41326190Y-40477381D01*
X41516667Y-40477381D01*
X41611905Y-40429762D01*
X41659524Y-40382143D01*
X41707143Y-40286905D01*
X41707143Y-39477381D01*
X42707143Y-40477381D02*
X42135714Y-40477381D01*
X42421428Y-40477381D02*
X42421428Y-39477381D01*
X42326190Y-39620238D01*
X42230952Y-39715476D01*
X42135714Y-39763095D01*
X43326190Y-39477381D02*
X43421429Y-39477381D01*
X43516667Y-39525000D01*
X43564286Y-39572619D01*
X43611905Y-39667857D01*
X43659524Y-39858333D01*
X43659524Y-40096429D01*
X43611905Y-40286905D01*
X43564286Y-40382143D01*
X43516667Y-40429762D01*
X43421429Y-40477381D01*
X43326190Y-40477381D01*
X43230952Y-40429762D01*
X43183333Y-40382143D01*
X43135714Y-40286905D01*
X43088095Y-40096429D01*
X43088095Y-39858333D01*
X43135714Y-39667857D01*
X43183333Y-39572619D01*
X43230952Y-39525000D01*
X43326190Y-39477381D01*
X44564286Y-39477381D02*
X44088095Y-39477381D01*
X44040476Y-39953571D01*
X44088095Y-39905952D01*
X44183333Y-39858333D01*
X44421429Y-39858333D01*
X44516667Y-39905952D01*
X44564286Y-39953571D01*
X44611905Y-40048810D01*
X44611905Y-40286905D01*
X44564286Y-40382143D01*
X44516667Y-40429762D01*
X44421429Y-40477381D01*
X44183333Y-40477381D01*
X44088095Y-40429762D01*
X44040476Y-40382143D01*
X41135714Y-27027381D02*
X41135714Y-27836905D01*
X41183333Y-27932143D01*
X41230952Y-27979762D01*
X41326190Y-28027381D01*
X41516667Y-28027381D01*
X41611905Y-27979762D01*
X41659524Y-27932143D01*
X41707143Y-27836905D01*
X41707143Y-27027381D01*
X42707143Y-28027381D02*
X42135714Y-28027381D01*
X42421428Y-28027381D02*
X42421428Y-27027381D01*
X42326190Y-27170238D01*
X42230952Y-27265476D01*
X42135714Y-27313095D01*
X43326190Y-27027381D02*
X43421429Y-27027381D01*
X43516667Y-27075000D01*
X43564286Y-27122619D01*
X43611905Y-27217857D01*
X43659524Y-27408333D01*
X43659524Y-27646429D01*
X43611905Y-27836905D01*
X43564286Y-27932143D01*
X43516667Y-27979762D01*
X43421429Y-28027381D01*
X43326190Y-28027381D01*
X43230952Y-27979762D01*
X43183333Y-27932143D01*
X43135714Y-27836905D01*
X43088095Y-27646429D01*
X43088095Y-27408333D01*
X43135714Y-27217857D01*
X43183333Y-27122619D01*
X43230952Y-27075000D01*
X43326190Y-27027381D01*
X43992857Y-27027381D02*
X44611905Y-27027381D01*
X44278571Y-27408333D01*
X44421429Y-27408333D01*
X44516667Y-27455952D01*
X44564286Y-27503571D01*
X44611905Y-27598810D01*
X44611905Y-27836905D01*
X44564286Y-27932143D01*
X44516667Y-27979762D01*
X44421429Y-28027381D01*
X44135714Y-28027381D01*
X44040476Y-27979762D01*
X43992857Y-27932143D01*
X11035714Y-39477381D02*
X11035714Y-40286905D01*
X11083333Y-40382143D01*
X11130952Y-40429762D01*
X11226190Y-40477381D01*
X11416667Y-40477381D01*
X11511905Y-40429762D01*
X11559524Y-40382143D01*
X11607143Y-40286905D01*
X11607143Y-39477381D01*
X12607143Y-40477381D02*
X12035714Y-40477381D01*
X12321428Y-40477381D02*
X12321428Y-39477381D01*
X12226190Y-39620238D01*
X12130952Y-39715476D01*
X12035714Y-39763095D01*
X13226190Y-39477381D02*
X13321429Y-39477381D01*
X13416667Y-39525000D01*
X13464286Y-39572619D01*
X13511905Y-39667857D01*
X13559524Y-39858333D01*
X13559524Y-40096429D01*
X13511905Y-40286905D01*
X13464286Y-40382143D01*
X13416667Y-40429762D01*
X13321429Y-40477381D01*
X13226190Y-40477381D01*
X13130952Y-40429762D01*
X13083333Y-40382143D01*
X13035714Y-40286905D01*
X12988095Y-40096429D01*
X12988095Y-39858333D01*
X13035714Y-39667857D01*
X13083333Y-39572619D01*
X13130952Y-39525000D01*
X13226190Y-39477381D01*
X14416667Y-39810714D02*
X14416667Y-40477381D01*
X14178571Y-39429762D02*
X13940476Y-40144048D01*
X14559524Y-40144048D01*
X11035714Y-27027381D02*
X11035714Y-27836905D01*
X11083333Y-27932143D01*
X11130952Y-27979762D01*
X11226190Y-28027381D01*
X11416667Y-28027381D01*
X11511905Y-27979762D01*
X11559524Y-27932143D01*
X11607143Y-27836905D01*
X11607143Y-27027381D01*
X12607143Y-28027381D02*
X12035714Y-28027381D01*
X12321428Y-28027381D02*
X12321428Y-27027381D01*
X12226190Y-27170238D01*
X12130952Y-27265476D01*
X12035714Y-27313095D01*
X13226190Y-27027381D02*
X13321429Y-27027381D01*
X13416667Y-27075000D01*
X13464286Y-27122619D01*
X13511905Y-27217857D01*
X13559524Y-27408333D01*
X13559524Y-27646429D01*
X13511905Y-27836905D01*
X13464286Y-27932143D01*
X13416667Y-27979762D01*
X13321429Y-28027381D01*
X13226190Y-28027381D01*
X13130952Y-27979762D01*
X13083333Y-27932143D01*
X13035714Y-27836905D01*
X12988095Y-27646429D01*
X12988095Y-27408333D01*
X13035714Y-27217857D01*
X13083333Y-27122619D01*
X13130952Y-27075000D01*
X13226190Y-27027381D01*
X13940476Y-27122619D02*
X13988095Y-27075000D01*
X14083333Y-27027381D01*
X14321429Y-27027381D01*
X14416667Y-27075000D01*
X14464286Y-27122619D01*
X14511905Y-27217857D01*
X14511905Y-27313095D01*
X14464286Y-27455952D01*
X13892857Y-28027381D01*
X14511905Y-28027381D01*
X26514286Y-14252381D02*
X26514286Y-14966667D01*
X26466666Y-15109524D01*
X26371428Y-15204762D01*
X26228571Y-15252381D01*
X26133333Y-15252381D01*
X26895238Y-14252381D02*
X27561905Y-14252381D01*
X27133333Y-15252381D01*
X28133333Y-14252381D02*
X28228572Y-14252381D01*
X28323810Y-14300000D01*
X28371429Y-14347619D01*
X28419048Y-14442857D01*
X28466667Y-14633333D01*
X28466667Y-14871429D01*
X28419048Y-15061905D01*
X28371429Y-15157143D01*
X28323810Y-15204762D01*
X28228572Y-15252381D01*
X28133333Y-15252381D01*
X28038095Y-15204762D01*
X27990476Y-15157143D01*
X27942857Y-15061905D01*
X27895238Y-14871429D01*
X27895238Y-14633333D01*
X27942857Y-14442857D01*
X27990476Y-14347619D01*
X28038095Y-14300000D01*
X28133333Y-14252381D01*
X29419048Y-15252381D02*
X28847619Y-15252381D01*
X29133333Y-15252381D02*
X29133333Y-14252381D01*
X29038095Y-14395238D01*
X28942857Y-14490476D01*
X28847619Y-14538095D01*
X26085714Y-34007381D02*
X26085714Y-34816905D01*
X26133333Y-34912143D01*
X26180952Y-34959762D01*
X26276190Y-35007381D01*
X26466667Y-35007381D01*
X26561905Y-34959762D01*
X26609524Y-34912143D01*
X26657143Y-34816905D01*
X26657143Y-34007381D01*
X27657143Y-35007381D02*
X27085714Y-35007381D01*
X27371428Y-35007381D02*
X27371428Y-34007381D01*
X27276190Y-34150238D01*
X27180952Y-34245476D01*
X27085714Y-34293095D01*
X28276190Y-34007381D02*
X28371429Y-34007381D01*
X28466667Y-34055000D01*
X28514286Y-34102619D01*
X28561905Y-34197857D01*
X28609524Y-34388333D01*
X28609524Y-34626429D01*
X28561905Y-34816905D01*
X28514286Y-34912143D01*
X28466667Y-34959762D01*
X28371429Y-35007381D01*
X28276190Y-35007381D01*
X28180952Y-34959762D01*
X28133333Y-34912143D01*
X28085714Y-34816905D01*
X28038095Y-34626429D01*
X28038095Y-34388333D01*
X28085714Y-34197857D01*
X28133333Y-34102619D01*
X28180952Y-34055000D01*
X28276190Y-34007381D01*
X29466667Y-34007381D02*
X29276190Y-34007381D01*
X29180952Y-34055000D01*
X29133333Y-34102619D01*
X29038095Y-34245476D01*
X28990476Y-34435952D01*
X28990476Y-34816905D01*
X29038095Y-34912143D01*
X29085714Y-34959762D01*
X29180952Y-35007381D01*
X29371429Y-35007381D01*
X29466667Y-34959762D01*
X29514286Y-34912143D01*
X29561905Y-34816905D01*
X29561905Y-34578810D01*
X29514286Y-34483571D01*
X29466667Y-34435952D01*
X29371429Y-34388333D01*
X29180952Y-34388333D01*
X29085714Y-34435952D01*
X29038095Y-34483571D01*
X28990476Y-34578810D01*
X25514286Y-65929762D02*
X25657143Y-65977381D01*
X25895239Y-65977381D01*
X25990477Y-65929762D01*
X26038096Y-65882143D01*
X26085715Y-65786905D01*
X26085715Y-65691667D01*
X26038096Y-65596429D01*
X25990477Y-65548810D01*
X25895239Y-65501190D01*
X25704762Y-65453571D01*
X25609524Y-65405952D01*
X25561905Y-65358333D01*
X25514286Y-65263095D01*
X25514286Y-65167857D01*
X25561905Y-65072619D01*
X25609524Y-65025000D01*
X25704762Y-64977381D01*
X25942858Y-64977381D01*
X26085715Y-65025000D01*
X26419048Y-64977381D02*
X26657143Y-65977381D01*
X26847620Y-65263095D01*
X27038096Y-65977381D01*
X27276191Y-64977381D01*
X28133334Y-64977381D02*
X27657143Y-64977381D01*
X27609524Y-65453571D01*
X27657143Y-65405952D01*
X27752381Y-65358333D01*
X27990477Y-65358333D01*
X28085715Y-65405952D01*
X28133334Y-65453571D01*
X28180953Y-65548810D01*
X28180953Y-65786905D01*
X28133334Y-65882143D01*
X28085715Y-65929762D01*
X27990477Y-65977381D01*
X27752381Y-65977381D01*
X27657143Y-65929762D01*
X27609524Y-65882143D01*
X28800000Y-64977381D02*
X28895239Y-64977381D01*
X28990477Y-65025000D01*
X29038096Y-65072619D01*
X29085715Y-65167857D01*
X29133334Y-65358333D01*
X29133334Y-65596429D01*
X29085715Y-65786905D01*
X29038096Y-65882143D01*
X28990477Y-65929762D01*
X28895239Y-65977381D01*
X28800000Y-65977381D01*
X28704762Y-65929762D01*
X28657143Y-65882143D01*
X28609524Y-65786905D01*
X28561905Y-65596429D01*
X28561905Y-65358333D01*
X28609524Y-65167857D01*
X28657143Y-65072619D01*
X28704762Y-65025000D01*
X28800000Y-64977381D01*
X30085715Y-65977381D02*
X29514286Y-65977381D01*
X29800000Y-65977381D02*
X29800000Y-64977381D01*
X29704762Y-65120238D01*
X29609524Y-65215476D01*
X29514286Y-65263095D01*
M02*
