G04 #@! TF.FileFunction,Copper,L1,Top,Signal*
%FSLAX46Y46*%
G04 Gerber Fmt 4.6, Leading zero omitted, Abs format (unit mm)*
G04 Created by KiCad (PCBNEW 4.0.7-e2-6376~58~ubuntu16.04.1) date Sun Dec 16 12:58:54 2018*
%MOMM*%
%LPD*%
G01*
G04 APERTURE LIST*
%ADD10C,0.100000*%
%ADD11C,0.685800*%
%ADD12C,5.300000*%
%ADD13R,1.200000X1.000000*%
%ADD14C,1.000000*%
%ADD15C,1.700000*%
%ADD16R,1.800000X3.900000*%
%ADD17R,1.300000X4.000000*%
%ADD18R,3.900000X1.800000*%
%ADD19R,4.000000X1.300000*%
%ADD20R,1.500000X0.450000*%
%ADD21O,5.270000X2.540000*%
%ADD22C,2.000000*%
%ADD23R,5.800000X6.200000*%
%ADD24R,1.600000X3.000000*%
%ADD25R,1.550000X1.300000*%
%ADD26C,0.600000*%
%ADD27C,0.300000*%
%ADD28C,0.800000*%
%ADD29C,0.400000*%
%ADD30C,0.200000*%
%ADD31C,0.250000*%
%ADD32C,1.300000*%
%ADD33C,0.254000*%
G04 APERTURE END LIST*
D10*
D11*
X27800000Y-47275000D03*
X27800000Y900000D03*
X13900000Y-20500000D03*
X41700000Y-20500000D03*
X23750000Y-30075000D03*
X27800000Y-71275000D03*
X38200000Y-36850000D03*
X17400000Y-36200000D03*
X38200000Y-38150000D03*
X17400000Y-34900000D03*
X41700000Y-30750000D03*
X13900000Y-30100000D03*
X47500000Y-29450000D03*
X8100000Y-32700000D03*
X9250000Y-66020000D03*
X3580000Y-60600000D03*
X3580000Y-41550000D03*
X3580000Y-22500000D03*
X-2250000Y-5580000D03*
X46350000Y-5580000D03*
X52020000Y-11000000D03*
X52020000Y-30050000D03*
X57850000Y-66020000D03*
D12*
X8750000Y-24275000D03*
X46850000Y-24275000D03*
X8750000Y-43325000D03*
X46850000Y-43325000D03*
D13*
X15650000Y-26275000D03*
X15650000Y-24275000D03*
X39950000Y-26275000D03*
X39950000Y-24275000D03*
D14*
X0Y0D03*
X0Y-71600000D03*
X55600000Y-71600000D03*
D15*
X35420000Y-59285000D03*
X35420000Y-56745000D03*
X35420000Y-54205000D03*
X35420000Y-51665000D03*
X35420000Y-49125000D03*
X35420000Y-46585000D03*
X35420000Y-44045000D03*
X35420000Y-41505000D03*
X35420000Y-38965000D03*
X35420000Y-36425000D03*
X35420000Y-33885000D03*
X35420000Y-31345000D03*
X35420000Y-28805000D03*
X35420000Y-26265000D03*
X20180000Y-59285000D03*
X20180000Y-56745000D03*
X20180000Y-54205000D03*
X20180000Y-51665000D03*
X20180000Y-49125000D03*
X20180000Y-46585000D03*
X20180000Y-44045000D03*
X20180000Y-41505000D03*
X20180000Y-38965000D03*
X20180000Y-36425000D03*
X20180000Y-33885000D03*
X20180000Y-31345000D03*
X20180000Y-28805000D03*
X20180000Y-26265000D03*
D16*
X10450000Y950000D03*
D17*
X7250000Y-5580000D03*
D16*
X-3450000Y950000D03*
D17*
X4750000Y-5580000D03*
X2250000Y-5580000D03*
X-250000Y-5580000D03*
D18*
X-2950000Y-9800000D03*
D19*
X3580000Y-13000000D03*
D18*
X-2950000Y-23700000D03*
D19*
X3580000Y-15500000D03*
X3580000Y-18000000D03*
X3580000Y-20500000D03*
D18*
X-2950000Y-28850000D03*
D19*
X3580000Y-32050000D03*
D18*
X-2950000Y-42750000D03*
D19*
X3580000Y-34550000D03*
X3580000Y-37050000D03*
X3580000Y-39550000D03*
D18*
X-2950000Y-47900000D03*
D19*
X3580000Y-51100000D03*
D18*
X-2950000Y-61800000D03*
D19*
X3580000Y-53600000D03*
X3580000Y-56100000D03*
X3580000Y-58600000D03*
D16*
X-3450000Y-72550000D03*
D17*
X-250000Y-66020000D03*
D16*
X10450000Y-72550000D03*
D17*
X2250000Y-66020000D03*
X4750000Y-66020000D03*
X7250000Y-66020000D03*
D16*
X45150000Y-72550000D03*
D17*
X48350000Y-66020000D03*
D16*
X59050000Y-72550000D03*
D17*
X50850000Y-66020000D03*
X53350000Y-66020000D03*
X55850000Y-66020000D03*
D18*
X58550000Y-61800000D03*
D19*
X52020000Y-58600000D03*
D18*
X58550000Y-47900000D03*
D19*
X52020000Y-56100000D03*
X52020000Y-53600000D03*
X52020000Y-51100000D03*
D18*
X58550000Y-42750000D03*
D19*
X52020000Y-39550000D03*
D18*
X58550000Y-28850000D03*
D19*
X52020000Y-37050000D03*
X52020000Y-34550000D03*
X52020000Y-32050000D03*
D18*
X58550000Y-23700000D03*
D19*
X52020000Y-20500000D03*
D18*
X58550000Y-9800000D03*
D19*
X52020000Y-18000000D03*
X52020000Y-15500000D03*
X52020000Y-13000000D03*
D16*
X59050000Y950000D03*
D17*
X55850000Y-5580000D03*
D16*
X45150000Y950000D03*
D17*
X53350000Y-5580000D03*
X50850000Y-5580000D03*
X48350000Y-5580000D03*
D20*
X39950000Y-34250000D03*
X39950000Y-34900000D03*
X39950000Y-35550000D03*
X39950000Y-36200000D03*
X39950000Y-36850000D03*
X39950000Y-37500000D03*
X39950000Y-38150000D03*
X39950000Y-38800000D03*
X45750000Y-34250000D03*
X45750000Y-34900000D03*
X45750000Y-35550000D03*
X45750000Y-36200000D03*
X45750000Y-36850000D03*
X45750000Y-37500000D03*
X45750000Y-38150000D03*
X45750000Y-38800000D03*
X45750000Y-33350000D03*
X45750000Y-32700000D03*
X45750000Y-32050000D03*
X45750000Y-31400000D03*
X45750000Y-30750000D03*
X45750000Y-30100000D03*
X45750000Y-29450000D03*
X45750000Y-28800000D03*
X39950000Y-33350000D03*
X39950000Y-32700000D03*
X39950000Y-32050000D03*
X39950000Y-31400000D03*
X39950000Y-30750000D03*
X39950000Y-30100000D03*
X39950000Y-29450000D03*
X39950000Y-28800000D03*
X15650000Y-38800000D03*
X15650000Y-38150000D03*
X15650000Y-37500000D03*
X15650000Y-36850000D03*
X15650000Y-36200000D03*
X15650000Y-35550000D03*
X15650000Y-34900000D03*
X15650000Y-34250000D03*
X9850000Y-38800000D03*
X9850000Y-38150000D03*
X9850000Y-37500000D03*
X9850000Y-36850000D03*
X9850000Y-36200000D03*
X9850000Y-35550000D03*
X9850000Y-34900000D03*
X9850000Y-34250000D03*
X9850000Y-28800000D03*
X9850000Y-29450000D03*
X9850000Y-30100000D03*
X9850000Y-30750000D03*
X9850000Y-31400000D03*
X9850000Y-32050000D03*
X9850000Y-32700000D03*
X9850000Y-33350000D03*
X15650000Y-28800000D03*
X15650000Y-29450000D03*
X15650000Y-30100000D03*
X15650000Y-30750000D03*
X15650000Y-31400000D03*
X15650000Y-32050000D03*
X15650000Y-32700000D03*
X15650000Y-33350000D03*
D11*
X52020000Y-49100000D03*
D21*
X23850000Y-17340000D03*
D22*
X20410000Y900000D03*
D21*
X31750000Y-17340000D03*
D22*
X35190000Y900000D03*
D23*
X27800000Y-29905000D03*
D24*
X25515000Y-22725000D03*
X30085000Y-22725000D03*
D25*
X31775000Y-71775000D03*
X23825000Y-71775000D03*
X31775000Y-67275000D03*
X23825000Y-67275000D03*
D26*
X39950000Y-27775000D03*
X15650000Y-27775000D03*
X38200000Y-33350000D03*
X17400000Y-32700000D03*
X35420000Y-23795000D03*
X4750000Y-2325000D03*
X2250000Y-2325000D03*
X8100000Y-36200000D03*
X6835000Y-15500000D03*
X6835000Y-34550000D03*
X6835000Y-53600000D03*
X2250000Y-69275000D03*
X50850000Y-69275000D03*
X48765000Y-37050000D03*
X48765000Y-18000000D03*
X53350000Y-8835000D03*
X6835000Y-18000000D03*
X12750000Y-38750000D03*
X6835000Y-56100000D03*
X6835000Y-39550000D03*
X48765000Y-39550000D03*
X53350000Y-69275000D03*
X52020000Y-27275000D03*
X48765000Y-15500000D03*
X47500000Y-32700000D03*
X48765000Y-20500000D03*
D27*
X31440000Y-29905000D02*
X35420000Y-33885000D01*
X31440000Y-29905000D02*
X27800000Y-29905000D01*
D28*
X27800000Y-29905000D02*
X27800000Y-37455000D01*
D27*
X35420000Y-33885000D02*
X37665000Y-33885000D01*
X37665000Y-33885000D02*
X38200000Y-33350000D01*
D28*
X20180000Y-41505000D02*
X23750000Y-41505000D01*
X27800000Y-37455000D02*
X23750000Y-41505000D01*
D27*
X39950000Y-29450000D02*
X40950000Y-29450000D01*
X40950000Y-27775000D02*
X39950000Y-27775000D01*
X41250000Y-28075000D02*
X40950000Y-27775000D01*
X40950000Y-29450000D02*
X41250000Y-29150000D01*
X41250000Y-29150000D02*
X41250000Y-28075000D01*
X17400000Y-32700000D02*
X18675000Y-33975000D01*
X18675000Y-33975000D02*
X18675000Y-40000000D01*
X19330001Y-40655001D02*
X20180000Y-41505000D01*
X18675000Y-40000000D02*
X19330001Y-40655001D01*
X39950000Y-26275000D02*
X39950000Y-27775000D01*
X15650000Y-27775000D02*
X15650000Y-28800000D01*
X15650000Y-26275000D02*
X15650000Y-27775000D01*
X15650000Y-32700000D02*
X17400000Y-32700000D01*
X38200000Y-33350000D02*
X39950000Y-33350000D01*
D29*
X9850000Y-33350000D02*
X8750000Y-33350000D01*
X8750000Y-33350000D02*
X8100000Y-32700000D01*
X15650000Y-34250000D02*
X16750000Y-34250000D01*
X16750000Y-34250000D02*
X17400000Y-34900000D01*
X39950000Y-38800000D02*
X38850000Y-38800000D01*
X38850000Y-38800000D02*
X38200000Y-38150000D01*
X45750000Y-28800000D02*
X46850000Y-28800000D01*
X46850000Y-28800000D02*
X47500000Y-29450000D01*
X41700000Y-30750000D02*
X41050000Y-31400000D01*
X41050000Y-31400000D02*
X39950000Y-31400000D01*
X13900000Y-30100000D02*
X14550000Y-30750000D01*
X14550000Y-30750000D02*
X15650000Y-30750000D01*
D30*
X9850000Y-28800000D02*
X10850000Y-28800000D01*
X10850000Y-28800000D02*
X14250000Y-32200000D01*
X14250000Y-32200000D02*
X14250000Y-34500000D01*
X14250000Y-34500000D02*
X14650000Y-34900000D01*
X14650000Y-34900000D02*
X15650000Y-34900000D01*
X9850000Y-29450000D02*
X10850000Y-29450000D01*
X10850000Y-29450000D02*
X13750000Y-32350000D01*
X13750000Y-32350000D02*
X13750000Y-34650000D01*
X13750000Y-34650000D02*
X14650000Y-35550000D01*
X14650000Y-35550000D02*
X15650000Y-35550000D01*
X9850000Y-30100000D02*
X10850000Y-30100000D01*
X10850000Y-30100000D02*
X13250000Y-32500000D01*
X13250000Y-32500000D02*
X13250000Y-34800000D01*
X13250000Y-34800000D02*
X14650000Y-36200000D01*
X14650000Y-36200000D02*
X15650000Y-36200000D01*
X15650000Y-36850000D02*
X14650000Y-36850000D01*
X14650000Y-36850000D02*
X12750000Y-34950000D01*
X12750000Y-34950000D02*
X12750000Y-32650000D01*
X12750000Y-32650000D02*
X10850000Y-30750000D01*
X10850000Y-30750000D02*
X9850000Y-30750000D01*
X9850000Y-31400000D02*
X10850000Y-31400000D01*
X10850000Y-31400000D02*
X12250000Y-32800000D01*
X12250000Y-32800000D02*
X12250000Y-35100000D01*
X12250000Y-35100000D02*
X14650000Y-37500000D01*
X14650000Y-37500000D02*
X15650000Y-37500000D01*
D31*
X15650000Y-37500000D02*
X15040000Y-37500000D01*
X15040000Y-37500000D02*
X15035000Y-37505000D01*
D30*
X9850000Y-32050000D02*
X10850000Y-32050000D01*
X10850000Y-32050000D02*
X11750000Y-32950000D01*
X11750000Y-32950000D02*
X11750000Y-35250000D01*
X11750000Y-35250000D02*
X14650000Y-38150000D01*
X14650000Y-38150000D02*
X15650000Y-38150000D01*
X9850000Y-32700000D02*
X10860000Y-32700000D01*
X10860000Y-32700000D02*
X11250000Y-33090000D01*
X11250000Y-33090000D02*
X11250000Y-35400000D01*
X14650000Y-38800000D02*
X15650000Y-38800000D01*
X11250000Y-35400000D02*
X14650000Y-38800000D01*
D31*
X39950000Y-32050000D02*
X36125000Y-32050000D01*
X36125000Y-32050000D02*
X35420000Y-31345000D01*
X39950000Y-30100000D02*
X38510000Y-30100000D01*
X38510000Y-30100000D02*
X36900000Y-28490000D01*
X36900000Y-28490000D02*
X36900000Y-27745000D01*
X36900000Y-27745000D02*
X35420000Y-26265000D01*
X35420000Y-26265000D02*
X22720000Y-26265000D01*
X22720000Y-26265000D02*
X21000000Y-24545000D01*
X21000000Y-24545000D02*
X19360000Y-24545000D01*
X19360000Y-24545000D02*
X18700000Y-25205000D01*
X17425000Y-32050000D02*
X15650000Y-32050000D01*
X18700000Y-25205000D02*
X18700000Y-30775000D01*
X18700000Y-30775000D02*
X17425000Y-32050000D01*
X35420000Y-23795000D02*
X34290000Y-23795000D01*
X34290000Y-23795000D02*
X32570000Y-25515000D01*
X15650000Y-31400000D02*
X16650000Y-31400000D01*
X21310000Y-23795000D02*
X23030000Y-25515000D01*
X16650000Y-31400000D02*
X17950000Y-30100000D01*
X17950000Y-30100000D02*
X17950000Y-24895000D01*
X19050000Y-23795000D02*
X21310000Y-23795000D01*
X17950000Y-24895000D02*
X19050000Y-23795000D01*
X23030000Y-25515000D02*
X32570000Y-25515000D01*
X39950000Y-30750000D02*
X37365000Y-30750000D01*
X37365000Y-30750000D02*
X35420000Y-28805000D01*
D30*
X45750000Y-33350000D02*
X44750000Y-33350000D01*
X44350000Y-34750000D02*
X40950000Y-38150000D01*
X40950000Y-38150000D02*
X39950000Y-38150000D01*
X44750000Y-33350000D02*
X44350000Y-33750000D01*
X44350000Y-33750000D02*
X44350000Y-34750000D01*
X45750000Y-32700000D02*
X44750000Y-32700000D01*
X44750000Y-32700000D02*
X43850000Y-33600000D01*
X43850000Y-33600000D02*
X43850000Y-34600000D01*
X43850000Y-34600000D02*
X40950000Y-37500000D01*
X40950000Y-37500000D02*
X39950000Y-37500000D01*
X45750000Y-32050000D02*
X44750000Y-32050000D01*
X44750000Y-32050000D02*
X43350000Y-33450000D01*
X43350000Y-34450000D02*
X40950000Y-36850000D01*
X43350000Y-33450000D02*
X43350000Y-34450000D01*
X40950000Y-36850000D02*
X39950000Y-36850000D01*
X39950000Y-36200000D02*
X40950000Y-36200000D01*
X42850000Y-34300000D02*
X42850000Y-33300000D01*
X40950000Y-36200000D02*
X42850000Y-34300000D01*
X42850000Y-33300000D02*
X44750000Y-31400000D01*
X44750000Y-31400000D02*
X45750000Y-31400000D01*
X39950000Y-35550000D02*
X40950000Y-35550000D01*
X40950000Y-35550000D02*
X42350000Y-34150000D01*
X42350000Y-34150000D02*
X42350000Y-33150000D01*
X42350000Y-33150000D02*
X44750000Y-30750000D01*
X44750000Y-30750000D02*
X45750000Y-30750000D01*
X41850000Y-33000000D02*
X41850000Y-34000000D01*
X41850000Y-34000000D02*
X40950000Y-34900000D01*
X45750000Y-30100000D02*
X44750000Y-30100000D01*
X44750000Y-30100000D02*
X41850000Y-33000000D01*
X40950000Y-34900000D02*
X39950000Y-34900000D01*
X39950000Y-34250000D02*
X40950000Y-34250000D01*
X40950000Y-34250000D02*
X41350000Y-33850000D01*
X41350000Y-33850000D02*
X41350000Y-32850000D01*
X41350000Y-32850000D02*
X44750000Y-29450000D01*
X44750000Y-29450000D02*
X45750000Y-29450000D01*
D28*
X55310000Y-58600000D02*
X55310000Y-60135000D01*
X48350000Y-62765000D02*
X48350000Y-66020000D01*
X55310000Y-60135000D02*
X53645000Y-61800000D01*
X53645000Y-61800000D02*
X49315000Y-61800000D01*
X49315000Y-61800000D02*
X48350000Y-62765000D01*
D32*
X25515000Y-22725000D02*
X25515000Y-20750000D01*
X25515000Y-20750000D02*
X23850000Y-19085000D01*
X23850000Y-19085000D02*
X23850000Y-17340000D01*
D28*
X290000Y-62765000D02*
X-250000Y-63305000D01*
X-250000Y-63305000D02*
X-250000Y-66020000D01*
X55310000Y-8835000D02*
X55850000Y-8295000D01*
X55310000Y-20500000D02*
X55310000Y-8835000D01*
X55850000Y-8295000D02*
X55850000Y-5580000D01*
X23850000Y-17340000D02*
X23850000Y-14660000D01*
X23850000Y-14660000D02*
X36220000Y-2290000D01*
X55200000Y-2290000D02*
X55850000Y-2940000D01*
X36220000Y-2290000D02*
X55200000Y-2290000D01*
X55850000Y-2940000D02*
X55850000Y-5580000D01*
X7250000Y-9885000D02*
X10440000Y-9885000D01*
X10440000Y-9885000D02*
X17895000Y-17340000D01*
X17895000Y-17340000D02*
X23850000Y-17340000D01*
X1905000Y-9885000D02*
X7250000Y-9885000D01*
X7250000Y-5580000D02*
X7250000Y-9885000D01*
X290000Y-32025000D02*
X290000Y-12995000D01*
X290000Y-12995000D02*
X290000Y-11500000D01*
X3580000Y-13000000D02*
X290000Y-13000000D01*
X290000Y-51100000D02*
X290000Y-32025000D01*
X3580000Y-32050000D02*
X290000Y-32050000D01*
X290000Y-62765000D02*
X290000Y-51100000D01*
X3580000Y-51100000D02*
X290000Y-51100000D01*
X55310000Y-39550000D02*
X55310000Y-20500000D01*
X52020000Y-20500000D02*
X55310000Y-20500000D01*
X55310000Y-58600000D02*
X55310000Y-39550000D01*
X52020000Y-39550000D02*
X55310000Y-39550000D01*
X52020000Y-58600000D02*
X55310000Y-58600000D01*
X290000Y-11500000D02*
X1905000Y-9885000D01*
D31*
X4750000Y-5580000D02*
X4750000Y-3330000D01*
X4750000Y-3330000D02*
X4750000Y-2325000D01*
D29*
X2250000Y-5580000D02*
X2250000Y-2325000D01*
X8100000Y-36200000D02*
X9850000Y-36200000D01*
D31*
X20180000Y-59285000D02*
X23825000Y-62930000D01*
X23825000Y-62930000D02*
X23825000Y-67275000D01*
X23825000Y-67275000D02*
X31775000Y-67275000D01*
X3580000Y-15500000D02*
X6835000Y-15500000D01*
X3580000Y-34550000D02*
X6835000Y-34550000D01*
X3580000Y-53600000D02*
X6835000Y-53600000D01*
X2250000Y-66020000D02*
X2250000Y-68270000D01*
X2250000Y-68270000D02*
X2250000Y-69275000D01*
X50850000Y-66020000D02*
X50850000Y-69275000D01*
X35420000Y-46585000D02*
X44935000Y-56100000D01*
X44935000Y-56100000D02*
X52020000Y-56100000D01*
X48765000Y-37050000D02*
X52020000Y-37050000D01*
X48765000Y-18000000D02*
X52020000Y-18000000D01*
X53350000Y-5580000D02*
X53350000Y-7830000D01*
X53350000Y-7830000D02*
X53350000Y-8835000D01*
D29*
X3580000Y-18000000D02*
X6835000Y-18000000D01*
X10850000Y-36850000D02*
X12750000Y-38750000D01*
X9850000Y-36850000D02*
X10850000Y-36850000D01*
X6835000Y-37050000D02*
X7285000Y-37500000D01*
X3580000Y-37050000D02*
X6835000Y-37050000D01*
X7285000Y-37500000D02*
X9850000Y-37500000D01*
X3580000Y-56100000D02*
X5830000Y-56100000D01*
X5830000Y-56100000D02*
X6835000Y-56100000D01*
X9850000Y-38150000D02*
X8235000Y-38150000D01*
X8235000Y-38150000D02*
X6835000Y-39550000D01*
X4750000Y-66020000D02*
X4750000Y-63190000D01*
X4750000Y-63190000D02*
X12750000Y-55190000D01*
X12750000Y-55190000D02*
X12750000Y-40700000D01*
X12750000Y-40700000D02*
X10850000Y-38800000D01*
X10850000Y-38800000D02*
X9850000Y-38800000D01*
X45750000Y-36850000D02*
X46750000Y-36850000D01*
X46750000Y-36850000D02*
X48765000Y-38865000D01*
X48765000Y-38865000D02*
X48765000Y-39125736D01*
X48765000Y-39125736D02*
X48765000Y-39550000D01*
X53350000Y-66020000D02*
X53350000Y-69275000D01*
X45750000Y-36200000D02*
X44750000Y-36200000D01*
X44750000Y-36200000D02*
X42850000Y-38100000D01*
X42850000Y-38100000D02*
X42850000Y-48625000D01*
X42850000Y-48625000D02*
X47825000Y-53600000D01*
X47825000Y-53600000D02*
X52020000Y-53600000D01*
X45750000Y-35550000D02*
X48415000Y-35550000D01*
X48415000Y-35550000D02*
X49415000Y-34550000D01*
X49415000Y-34550000D02*
X52020000Y-34550000D01*
X45750000Y-34900000D02*
X47535000Y-34900000D01*
X47535000Y-34900000D02*
X49030000Y-33405000D01*
X49030000Y-33405000D02*
X49030000Y-30265000D01*
X49030000Y-30265000D02*
X52020000Y-27275000D01*
X48765000Y-15500000D02*
X52020000Y-15500000D01*
X50850000Y-5580000D02*
X50850000Y-8835000D01*
X50850000Y-8835000D02*
X46850000Y-12835000D01*
X46850000Y-12835000D02*
X46850000Y-18585000D01*
X46850000Y-18585000D02*
X48139999Y-19874999D01*
X48139999Y-19874999D02*
X48765000Y-20500000D01*
X46750000Y-34250000D02*
X47500000Y-33500000D01*
X45750000Y-34250000D02*
X46750000Y-34250000D01*
X47500000Y-33500000D02*
X47500000Y-32700000D01*
D31*
X39950000Y-28800000D02*
X38875000Y-28800000D01*
X17200000Y-24585000D02*
X17200000Y-29550000D01*
X38875000Y-28800000D02*
X38400000Y-28325000D01*
X38400000Y-28325000D02*
X38400000Y-24565000D01*
X38400000Y-24565000D02*
X36880000Y-23045000D01*
X36880000Y-23045000D02*
X33980000Y-23045000D01*
X33980000Y-23045000D02*
X32260000Y-24765000D01*
X32260000Y-24765000D02*
X23340000Y-24765000D01*
X21620000Y-23045000D02*
X18740000Y-23045000D01*
X23340000Y-24765000D02*
X21620000Y-23045000D01*
X16650000Y-30100000D02*
X15650000Y-30100000D01*
X18740000Y-23045000D02*
X17200000Y-24585000D01*
X17200000Y-29550000D02*
X16650000Y-30100000D01*
D33*
G36*
X33958115Y-33533273D02*
X33935258Y-33588319D01*
X33934743Y-34179089D01*
X34160344Y-34725086D01*
X34577717Y-35143188D01*
X34605557Y-35154748D01*
X34579914Y-35165344D01*
X34161812Y-35582717D01*
X33935258Y-36128319D01*
X33934743Y-36719089D01*
X34160344Y-37265086D01*
X34577717Y-37683188D01*
X34605557Y-37694748D01*
X34579914Y-37705344D01*
X34161812Y-38122717D01*
X33935258Y-38668319D01*
X33934743Y-39259089D01*
X34160344Y-39805086D01*
X34577717Y-40223188D01*
X34605557Y-40234748D01*
X34579914Y-40245344D01*
X34161812Y-40662717D01*
X33935258Y-41208319D01*
X33934743Y-41799089D01*
X34160344Y-42345086D01*
X34577717Y-42763188D01*
X34605557Y-42774748D01*
X34579914Y-42785344D01*
X34161812Y-43202717D01*
X33935258Y-43748319D01*
X33934743Y-44339089D01*
X34160344Y-44885086D01*
X34577717Y-45303188D01*
X34605557Y-45314748D01*
X34579914Y-45325344D01*
X34161812Y-45742717D01*
X33935258Y-46288319D01*
X33934743Y-46879089D01*
X34160344Y-47425086D01*
X34577717Y-47843188D01*
X34605557Y-47854748D01*
X34579914Y-47865344D01*
X34161812Y-48282717D01*
X33935258Y-48828319D01*
X33934743Y-49419089D01*
X34160344Y-49965086D01*
X34577717Y-50383188D01*
X34605557Y-50394748D01*
X34579914Y-50405344D01*
X34161812Y-50822717D01*
X33935258Y-51368319D01*
X33934743Y-51959089D01*
X34160344Y-52505086D01*
X34577717Y-52923188D01*
X34605557Y-52934748D01*
X34579914Y-52945344D01*
X34161812Y-53362717D01*
X33935258Y-53908319D01*
X33934743Y-54499089D01*
X34160344Y-55045086D01*
X34577717Y-55463188D01*
X34605557Y-55474748D01*
X34579914Y-55485344D01*
X34161812Y-55902717D01*
X33935258Y-56448319D01*
X33934743Y-57039089D01*
X34160344Y-57585086D01*
X34577717Y-58003188D01*
X34605557Y-58014748D01*
X34579914Y-58025344D01*
X34161812Y-58442717D01*
X33935258Y-58988319D01*
X33934743Y-59579089D01*
X34160344Y-60125086D01*
X34577717Y-60543188D01*
X35123319Y-60769742D01*
X35714089Y-60770257D01*
X36260086Y-60544656D01*
X36678188Y-60127283D01*
X36904742Y-59581681D01*
X36905257Y-58990911D01*
X36679656Y-58444914D01*
X36262283Y-58026812D01*
X36234443Y-58015252D01*
X36260086Y-58004656D01*
X36678188Y-57587283D01*
X36904742Y-57041681D01*
X36905257Y-56450911D01*
X36679656Y-55904914D01*
X36262283Y-55486812D01*
X36234443Y-55475252D01*
X36260086Y-55464656D01*
X36678188Y-55047283D01*
X36904742Y-54501681D01*
X36905257Y-53910911D01*
X36679656Y-53364914D01*
X36262283Y-52946812D01*
X36234443Y-52935252D01*
X36260086Y-52924656D01*
X36678188Y-52507283D01*
X36904742Y-51961681D01*
X36905257Y-51370911D01*
X36679656Y-50824914D01*
X36262283Y-50406812D01*
X36234443Y-50395252D01*
X36260086Y-50384656D01*
X36678188Y-49967283D01*
X36904742Y-49421681D01*
X36904983Y-49144785D01*
X44397599Y-56637401D01*
X44644161Y-56802148D01*
X44935000Y-56860000D01*
X49393258Y-56860000D01*
X49416838Y-56985317D01*
X49555910Y-57201441D01*
X49768110Y-57346431D01*
X49781197Y-57349081D01*
X49568559Y-57485910D01*
X49423569Y-57698110D01*
X49372560Y-57950000D01*
X49372560Y-59250000D01*
X49416838Y-59485317D01*
X49555910Y-59701441D01*
X49768110Y-59846431D01*
X50020000Y-59897440D01*
X54020000Y-59897440D01*
X54098647Y-59882641D01*
X53216288Y-60765000D01*
X49315005Y-60765000D01*
X49315000Y-60764999D01*
X48918923Y-60843785D01*
X48583144Y-61068144D01*
X48583142Y-61068147D01*
X47618144Y-62033144D01*
X47393785Y-62368923D01*
X47314999Y-62765000D01*
X47315000Y-62765005D01*
X47315000Y-63513156D01*
X47248559Y-63555910D01*
X47103569Y-63768110D01*
X47052560Y-64020000D01*
X47052560Y-68020000D01*
X47096838Y-68255317D01*
X47235910Y-68471441D01*
X47448110Y-68616431D01*
X47700000Y-68667440D01*
X49000000Y-68667440D01*
X49235317Y-68623162D01*
X49451441Y-68484090D01*
X49596431Y-68271890D01*
X49599081Y-68258803D01*
X49735910Y-68471441D01*
X49948110Y-68616431D01*
X50090000Y-68645164D01*
X50090000Y-68712537D01*
X50057808Y-68744673D01*
X49915162Y-69088201D01*
X49914838Y-69460167D01*
X50056883Y-69803943D01*
X50319673Y-70067192D01*
X50663201Y-70209838D01*
X51035167Y-70210162D01*
X51378943Y-70068117D01*
X51642192Y-69805327D01*
X51784838Y-69461799D01*
X51785162Y-69089833D01*
X51643117Y-68746057D01*
X51610000Y-68712882D01*
X51610000Y-68646742D01*
X51735317Y-68623162D01*
X51951441Y-68484090D01*
X52096431Y-68271890D01*
X52099081Y-68258803D01*
X52235910Y-68471441D01*
X52448110Y-68616431D01*
X52515000Y-68629977D01*
X52515000Y-68847766D01*
X52415162Y-69088201D01*
X52414838Y-69460167D01*
X52556883Y-69803943D01*
X52819673Y-70067192D01*
X53163201Y-70209838D01*
X53535167Y-70210162D01*
X53878943Y-70068117D01*
X54142192Y-69805327D01*
X54284838Y-69461799D01*
X54285162Y-69089833D01*
X54185000Y-68847422D01*
X54185000Y-68632630D01*
X54235317Y-68623162D01*
X54451441Y-68484090D01*
X54596431Y-68271890D01*
X54603191Y-68238510D01*
X54661673Y-68379699D01*
X54840302Y-68558327D01*
X55073691Y-68655000D01*
X55564250Y-68655000D01*
X55723000Y-68496250D01*
X55723000Y-66147000D01*
X55977000Y-66147000D01*
X55977000Y-68496250D01*
X56135750Y-68655000D01*
X56626309Y-68655000D01*
X56859698Y-68558327D01*
X57038327Y-68379699D01*
X57135000Y-68146310D01*
X57135000Y-66305750D01*
X56976250Y-66147000D01*
X55977000Y-66147000D01*
X55723000Y-66147000D01*
X55703000Y-66147000D01*
X55703000Y-65893000D01*
X55723000Y-65893000D01*
X55723000Y-63543750D01*
X55977000Y-63543750D01*
X55977000Y-65893000D01*
X56976250Y-65893000D01*
X57135000Y-65734250D01*
X57135000Y-63893690D01*
X57038327Y-63660301D01*
X56859698Y-63481673D01*
X56626309Y-63385000D01*
X56135750Y-63385000D01*
X55977000Y-63543750D01*
X55723000Y-63543750D01*
X55564250Y-63385000D01*
X55073691Y-63385000D01*
X54840302Y-63481673D01*
X54661673Y-63660301D01*
X54605346Y-63796287D01*
X54603162Y-63784683D01*
X54464090Y-63568559D01*
X54251890Y-63423569D01*
X54000000Y-63372560D01*
X52700000Y-63372560D01*
X52464683Y-63416838D01*
X52248559Y-63555910D01*
X52103569Y-63768110D01*
X52100919Y-63781197D01*
X51964090Y-63568559D01*
X51751890Y-63423569D01*
X51500000Y-63372560D01*
X50200000Y-63372560D01*
X49964683Y-63416838D01*
X49748559Y-63555910D01*
X49603569Y-63768110D01*
X49600919Y-63781197D01*
X49464090Y-63568559D01*
X49385000Y-63514519D01*
X49385000Y-63193712D01*
X49743711Y-62835000D01*
X53644995Y-62835000D01*
X53645000Y-62835001D01*
X54041077Y-62756215D01*
X54376856Y-62531856D01*
X55952560Y-60956151D01*
X55952560Y-62700000D01*
X55996838Y-62935317D01*
X56135910Y-63151441D01*
X56348110Y-63296431D01*
X56600000Y-63347440D01*
X59890000Y-63347440D01*
X59890000Y-69952560D01*
X58150000Y-69952560D01*
X57914683Y-69996838D01*
X57698559Y-70135910D01*
X57553569Y-70348110D01*
X57502560Y-70600000D01*
X57502560Y-73890000D01*
X46697440Y-73890000D01*
X46697440Y-71902407D01*
X54072735Y-71902407D01*
X54304717Y-72463846D01*
X54733894Y-72893773D01*
X55294928Y-73126735D01*
X55902407Y-73127265D01*
X56463846Y-72895283D01*
X56893773Y-72466106D01*
X57126735Y-71905072D01*
X57127265Y-71297593D01*
X56895283Y-70736154D01*
X56466106Y-70306227D01*
X55905072Y-70073265D01*
X55297593Y-70072735D01*
X54736154Y-70304717D01*
X54306227Y-70733894D01*
X54073265Y-71294928D01*
X54072735Y-71902407D01*
X46697440Y-71902407D01*
X46697440Y-70600000D01*
X46653162Y-70364683D01*
X46514090Y-70148559D01*
X46301890Y-70003569D01*
X46050000Y-69952560D01*
X44250000Y-69952560D01*
X44014683Y-69996838D01*
X43798559Y-70135910D01*
X43653569Y-70348110D01*
X43602560Y-70600000D01*
X43602560Y-73890000D01*
X11997440Y-73890000D01*
X11997440Y-72060750D01*
X22415000Y-72060750D01*
X22415000Y-72551310D01*
X22511673Y-72784699D01*
X22690302Y-72963327D01*
X22923691Y-73060000D01*
X23539250Y-73060000D01*
X23698000Y-72901250D01*
X23698000Y-71902000D01*
X23952000Y-71902000D01*
X23952000Y-72901250D01*
X24110750Y-73060000D01*
X24726309Y-73060000D01*
X24959698Y-72963327D01*
X25138327Y-72784699D01*
X25235000Y-72551310D01*
X25235000Y-72060750D01*
X30365000Y-72060750D01*
X30365000Y-72551310D01*
X30461673Y-72784699D01*
X30640302Y-72963327D01*
X30873691Y-73060000D01*
X31489250Y-73060000D01*
X31648000Y-72901250D01*
X31648000Y-71902000D01*
X31902000Y-71902000D01*
X31902000Y-72901250D01*
X32060750Y-73060000D01*
X32676309Y-73060000D01*
X32909698Y-72963327D01*
X33088327Y-72784699D01*
X33185000Y-72551310D01*
X33185000Y-72060750D01*
X33026250Y-71902000D01*
X31902000Y-71902000D01*
X31648000Y-71902000D01*
X30523750Y-71902000D01*
X30365000Y-72060750D01*
X25235000Y-72060750D01*
X25076250Y-71902000D01*
X23952000Y-71902000D01*
X23698000Y-71902000D01*
X22573750Y-71902000D01*
X22415000Y-72060750D01*
X11997440Y-72060750D01*
X11997440Y-70998690D01*
X22415000Y-70998690D01*
X22415000Y-71489250D01*
X22573750Y-71648000D01*
X23698000Y-71648000D01*
X23698000Y-70648750D01*
X23952000Y-70648750D01*
X23952000Y-71648000D01*
X25076250Y-71648000D01*
X25235000Y-71489250D01*
X25235000Y-70998690D01*
X30365000Y-70998690D01*
X30365000Y-71489250D01*
X30523750Y-71648000D01*
X31648000Y-71648000D01*
X31648000Y-70648750D01*
X31902000Y-70648750D01*
X31902000Y-71648000D01*
X33026250Y-71648000D01*
X33185000Y-71489250D01*
X33185000Y-70998690D01*
X33088327Y-70765301D01*
X32909698Y-70586673D01*
X32676309Y-70490000D01*
X32060750Y-70490000D01*
X31902000Y-70648750D01*
X31648000Y-70648750D01*
X31489250Y-70490000D01*
X30873691Y-70490000D01*
X30640302Y-70586673D01*
X30461673Y-70765301D01*
X30365000Y-70998690D01*
X25235000Y-70998690D01*
X25138327Y-70765301D01*
X24959698Y-70586673D01*
X24726309Y-70490000D01*
X24110750Y-70490000D01*
X23952000Y-70648750D01*
X23698000Y-70648750D01*
X23539250Y-70490000D01*
X22923691Y-70490000D01*
X22690302Y-70586673D01*
X22511673Y-70765301D01*
X22415000Y-70998690D01*
X11997440Y-70998690D01*
X11997440Y-70600000D01*
X11953162Y-70364683D01*
X11814090Y-70148559D01*
X11601890Y-70003569D01*
X11350000Y-69952560D01*
X9550000Y-69952560D01*
X9314683Y-69996838D01*
X9098559Y-70135910D01*
X8953569Y-70348110D01*
X8902560Y-70600000D01*
X8902560Y-73890000D01*
X-1902560Y-73890000D01*
X-1902560Y-71902407D01*
X-1527265Y-71902407D01*
X-1295283Y-72463846D01*
X-866106Y-72893773D01*
X-305072Y-73126735D01*
X302407Y-73127265D01*
X863846Y-72895283D01*
X1293773Y-72466106D01*
X1526735Y-71905072D01*
X1527265Y-71297593D01*
X1295283Y-70736154D01*
X866106Y-70306227D01*
X305072Y-70073265D01*
X-302407Y-70072735D01*
X-863846Y-70304717D01*
X-1293773Y-70733894D01*
X-1526735Y-71294928D01*
X-1527265Y-71902407D01*
X-1902560Y-71902407D01*
X-1902560Y-70600000D01*
X-1946838Y-70364683D01*
X-2085910Y-70148559D01*
X-2298110Y-70003569D01*
X-2550000Y-69952560D01*
X-4290000Y-69952560D01*
X-4290000Y-63347440D01*
X-1285000Y-63347440D01*
X-1285000Y-63513156D01*
X-1351441Y-63555910D01*
X-1496431Y-63768110D01*
X-1547440Y-64020000D01*
X-1547440Y-68020000D01*
X-1503162Y-68255317D01*
X-1364090Y-68471441D01*
X-1151890Y-68616431D01*
X-900000Y-68667440D01*
X400000Y-68667440D01*
X635317Y-68623162D01*
X851441Y-68484090D01*
X996431Y-68271890D01*
X999081Y-68258803D01*
X1135910Y-68471441D01*
X1348110Y-68616431D01*
X1490000Y-68645164D01*
X1490000Y-68712537D01*
X1457808Y-68744673D01*
X1315162Y-69088201D01*
X1314838Y-69460167D01*
X1456883Y-69803943D01*
X1719673Y-70067192D01*
X2063201Y-70209838D01*
X2435167Y-70210162D01*
X2778943Y-70068117D01*
X3042192Y-69805327D01*
X3184838Y-69461799D01*
X3185162Y-69089833D01*
X3043117Y-68746057D01*
X3010000Y-68712882D01*
X3010000Y-68646742D01*
X3135317Y-68623162D01*
X3351441Y-68484090D01*
X3496431Y-68271890D01*
X3499081Y-68258803D01*
X3635910Y-68471441D01*
X3848110Y-68616431D01*
X4100000Y-68667440D01*
X5400000Y-68667440D01*
X5635317Y-68623162D01*
X5851441Y-68484090D01*
X5996431Y-68271890D01*
X6003191Y-68238510D01*
X6061673Y-68379699D01*
X6240302Y-68558327D01*
X6473691Y-68655000D01*
X6964250Y-68655000D01*
X7123000Y-68496250D01*
X7123000Y-66147000D01*
X7377000Y-66147000D01*
X7377000Y-68496250D01*
X7535750Y-68655000D01*
X8026309Y-68655000D01*
X8259698Y-68558327D01*
X8438327Y-68379699D01*
X8535000Y-68146310D01*
X8535000Y-66305750D01*
X8376250Y-66147000D01*
X7377000Y-66147000D01*
X7123000Y-66147000D01*
X7103000Y-66147000D01*
X7103000Y-65893000D01*
X7123000Y-65893000D01*
X7123000Y-63543750D01*
X7377000Y-63543750D01*
X7377000Y-65893000D01*
X8376250Y-65893000D01*
X8535000Y-65734250D01*
X8535000Y-63893690D01*
X8438327Y-63660301D01*
X8259698Y-63481673D01*
X8026309Y-63385000D01*
X7535750Y-63385000D01*
X7377000Y-63543750D01*
X7123000Y-63543750D01*
X6964250Y-63385000D01*
X6473691Y-63385000D01*
X6240302Y-63481673D01*
X6061673Y-63660301D01*
X6005346Y-63796287D01*
X6003162Y-63784683D01*
X5864090Y-63568559D01*
X5678867Y-63442001D01*
X13340434Y-55780435D01*
X13481260Y-55569673D01*
X13521439Y-55509541D01*
X13585000Y-55190000D01*
X13585000Y-40700000D01*
X13557092Y-40559698D01*
X13521440Y-40380460D01*
X13340434Y-40109566D01*
X12916013Y-39685145D01*
X12935167Y-39685162D01*
X13278943Y-39543117D01*
X13542192Y-39280327D01*
X13684838Y-38936799D01*
X13684892Y-38874339D01*
X14130276Y-39319723D01*
X14333383Y-39455434D01*
X14368728Y-39479051D01*
X14468889Y-39498974D01*
X14648110Y-39621431D01*
X14900000Y-39672440D01*
X16400000Y-39672440D01*
X16635317Y-39628162D01*
X16851441Y-39489090D01*
X16996431Y-39276890D01*
X17047440Y-39025000D01*
X17047440Y-38575000D01*
X17027933Y-38471329D01*
X17047440Y-38375000D01*
X17047440Y-37925000D01*
X17027933Y-37821329D01*
X17047440Y-37725000D01*
X17047440Y-37275000D01*
X17027933Y-37171329D01*
X17047440Y-37075000D01*
X17047440Y-36625000D01*
X17027933Y-36521329D01*
X17047440Y-36425000D01*
X17047440Y-35975000D01*
X17027933Y-35871329D01*
X17047440Y-35775000D01*
X17047440Y-35325000D01*
X17027933Y-35221329D01*
X17047440Y-35125000D01*
X17047440Y-34675000D01*
X17003162Y-34439683D01*
X16864090Y-34223559D01*
X16718917Y-34124367D01*
X16851441Y-34039090D01*
X16996431Y-33826890D01*
X17047440Y-33575000D01*
X17047440Y-33566008D01*
X17213201Y-33634838D01*
X17224690Y-33634848D01*
X17890000Y-34300158D01*
X17890000Y-40000000D01*
X17949755Y-40300407D01*
X18119921Y-40555079D01*
X18718115Y-41153273D01*
X18695258Y-41208319D01*
X18694743Y-41799089D01*
X18920344Y-42345086D01*
X19337717Y-42763188D01*
X19365557Y-42774748D01*
X19339914Y-42785344D01*
X18921812Y-43202717D01*
X18695258Y-43748319D01*
X18694743Y-44339089D01*
X18920344Y-44885086D01*
X19337717Y-45303188D01*
X19365557Y-45314748D01*
X19339914Y-45325344D01*
X18921812Y-45742717D01*
X18695258Y-46288319D01*
X18694743Y-46879089D01*
X18920344Y-47425086D01*
X19337717Y-47843188D01*
X19365557Y-47854748D01*
X19339914Y-47865344D01*
X18921812Y-48282717D01*
X18695258Y-48828319D01*
X18694743Y-49419089D01*
X18920344Y-49965086D01*
X19337717Y-50383188D01*
X19365557Y-50394748D01*
X19339914Y-50405344D01*
X18921812Y-50822717D01*
X18695258Y-51368319D01*
X18694743Y-51959089D01*
X18920344Y-52505086D01*
X19337717Y-52923188D01*
X19365557Y-52934748D01*
X19339914Y-52945344D01*
X18921812Y-53362717D01*
X18695258Y-53908319D01*
X18694743Y-54499089D01*
X18920344Y-55045086D01*
X19337717Y-55463188D01*
X19365557Y-55474748D01*
X19339914Y-55485344D01*
X18921812Y-55902717D01*
X18695258Y-56448319D01*
X18694743Y-57039089D01*
X18920344Y-57585086D01*
X19337717Y-58003188D01*
X19365557Y-58014748D01*
X19339914Y-58025344D01*
X18921812Y-58442717D01*
X18695258Y-58988319D01*
X18694743Y-59579089D01*
X18920344Y-60125086D01*
X19337717Y-60543188D01*
X19883319Y-60769742D01*
X20474089Y-60770257D01*
X20556432Y-60736234D01*
X23065000Y-63244802D01*
X23065000Y-65977560D01*
X23050000Y-65977560D01*
X22814683Y-66021838D01*
X22598559Y-66160910D01*
X22453569Y-66373110D01*
X22402560Y-66625000D01*
X22402560Y-67925000D01*
X22446838Y-68160317D01*
X22585910Y-68376441D01*
X22798110Y-68521431D01*
X23050000Y-68572440D01*
X24600000Y-68572440D01*
X24835317Y-68528162D01*
X25051441Y-68389090D01*
X25196431Y-68176890D01*
X25225164Y-68035000D01*
X30373258Y-68035000D01*
X30396838Y-68160317D01*
X30535910Y-68376441D01*
X30748110Y-68521431D01*
X31000000Y-68572440D01*
X32550000Y-68572440D01*
X32785317Y-68528162D01*
X33001441Y-68389090D01*
X33146431Y-68176890D01*
X33197440Y-67925000D01*
X33197440Y-66625000D01*
X33153162Y-66389683D01*
X33014090Y-66173559D01*
X32801890Y-66028569D01*
X32550000Y-65977560D01*
X31000000Y-65977560D01*
X30764683Y-66021838D01*
X30548559Y-66160910D01*
X30403569Y-66373110D01*
X30374836Y-66515000D01*
X25226742Y-66515000D01*
X25203162Y-66389683D01*
X25064090Y-66173559D01*
X24851890Y-66028569D01*
X24600000Y-65977560D01*
X24585000Y-65977560D01*
X24585000Y-62930000D01*
X24527148Y-62639161D01*
X24527148Y-62639160D01*
X24362401Y-62392599D01*
X21631511Y-59661709D01*
X21664742Y-59581681D01*
X21665257Y-58990911D01*
X21439656Y-58444914D01*
X21022283Y-58026812D01*
X20994443Y-58015252D01*
X21020086Y-58004656D01*
X21438188Y-57587283D01*
X21664742Y-57041681D01*
X21665257Y-56450911D01*
X21439656Y-55904914D01*
X21022283Y-55486812D01*
X20994443Y-55475252D01*
X21020086Y-55464656D01*
X21438188Y-55047283D01*
X21664742Y-54501681D01*
X21665257Y-53910911D01*
X21439656Y-53364914D01*
X21022283Y-52946812D01*
X20994443Y-52935252D01*
X21020086Y-52924656D01*
X21438188Y-52507283D01*
X21664742Y-51961681D01*
X21665257Y-51370911D01*
X21439656Y-50824914D01*
X21022283Y-50406812D01*
X20994443Y-50395252D01*
X21020086Y-50384656D01*
X21438188Y-49967283D01*
X21664742Y-49421681D01*
X21665257Y-48830911D01*
X21439656Y-48284914D01*
X21022283Y-47866812D01*
X20994443Y-47855252D01*
X21020086Y-47844656D01*
X21438188Y-47427283D01*
X21664742Y-46881681D01*
X21665257Y-46290911D01*
X21439656Y-45744914D01*
X21022283Y-45326812D01*
X20994443Y-45315252D01*
X21020086Y-45304656D01*
X21438188Y-44887283D01*
X21664742Y-44341681D01*
X21665257Y-43750911D01*
X21439656Y-43204914D01*
X21022283Y-42786812D01*
X20994443Y-42775252D01*
X21020086Y-42764656D01*
X21245134Y-42540000D01*
X23749995Y-42540000D01*
X23750000Y-42540001D01*
X24146077Y-42461215D01*
X24481856Y-42236856D01*
X28531853Y-38186858D01*
X28531856Y-38186856D01*
X28756215Y-37851077D01*
X28763359Y-37815162D01*
X28835001Y-37455000D01*
X28835000Y-37454995D01*
X28835000Y-33652440D01*
X30700000Y-33652440D01*
X30935317Y-33608162D01*
X31151441Y-33469090D01*
X31296431Y-33256890D01*
X31347440Y-33005000D01*
X31347440Y-30922598D01*
X33958115Y-33533273D01*
X33958115Y-33533273D01*
G37*
X33958115Y-33533273D02*
X33935258Y-33588319D01*
X33934743Y-34179089D01*
X34160344Y-34725086D01*
X34577717Y-35143188D01*
X34605557Y-35154748D01*
X34579914Y-35165344D01*
X34161812Y-35582717D01*
X33935258Y-36128319D01*
X33934743Y-36719089D01*
X34160344Y-37265086D01*
X34577717Y-37683188D01*
X34605557Y-37694748D01*
X34579914Y-37705344D01*
X34161812Y-38122717D01*
X33935258Y-38668319D01*
X33934743Y-39259089D01*
X34160344Y-39805086D01*
X34577717Y-40223188D01*
X34605557Y-40234748D01*
X34579914Y-40245344D01*
X34161812Y-40662717D01*
X33935258Y-41208319D01*
X33934743Y-41799089D01*
X34160344Y-42345086D01*
X34577717Y-42763188D01*
X34605557Y-42774748D01*
X34579914Y-42785344D01*
X34161812Y-43202717D01*
X33935258Y-43748319D01*
X33934743Y-44339089D01*
X34160344Y-44885086D01*
X34577717Y-45303188D01*
X34605557Y-45314748D01*
X34579914Y-45325344D01*
X34161812Y-45742717D01*
X33935258Y-46288319D01*
X33934743Y-46879089D01*
X34160344Y-47425086D01*
X34577717Y-47843188D01*
X34605557Y-47854748D01*
X34579914Y-47865344D01*
X34161812Y-48282717D01*
X33935258Y-48828319D01*
X33934743Y-49419089D01*
X34160344Y-49965086D01*
X34577717Y-50383188D01*
X34605557Y-50394748D01*
X34579914Y-50405344D01*
X34161812Y-50822717D01*
X33935258Y-51368319D01*
X33934743Y-51959089D01*
X34160344Y-52505086D01*
X34577717Y-52923188D01*
X34605557Y-52934748D01*
X34579914Y-52945344D01*
X34161812Y-53362717D01*
X33935258Y-53908319D01*
X33934743Y-54499089D01*
X34160344Y-55045086D01*
X34577717Y-55463188D01*
X34605557Y-55474748D01*
X34579914Y-55485344D01*
X34161812Y-55902717D01*
X33935258Y-56448319D01*
X33934743Y-57039089D01*
X34160344Y-57585086D01*
X34577717Y-58003188D01*
X34605557Y-58014748D01*
X34579914Y-58025344D01*
X34161812Y-58442717D01*
X33935258Y-58988319D01*
X33934743Y-59579089D01*
X34160344Y-60125086D01*
X34577717Y-60543188D01*
X35123319Y-60769742D01*
X35714089Y-60770257D01*
X36260086Y-60544656D01*
X36678188Y-60127283D01*
X36904742Y-59581681D01*
X36905257Y-58990911D01*
X36679656Y-58444914D01*
X36262283Y-58026812D01*
X36234443Y-58015252D01*
X36260086Y-58004656D01*
X36678188Y-57587283D01*
X36904742Y-57041681D01*
X36905257Y-56450911D01*
X36679656Y-55904914D01*
X36262283Y-55486812D01*
X36234443Y-55475252D01*
X36260086Y-55464656D01*
X36678188Y-55047283D01*
X36904742Y-54501681D01*
X36905257Y-53910911D01*
X36679656Y-53364914D01*
X36262283Y-52946812D01*
X36234443Y-52935252D01*
X36260086Y-52924656D01*
X36678188Y-52507283D01*
X36904742Y-51961681D01*
X36905257Y-51370911D01*
X36679656Y-50824914D01*
X36262283Y-50406812D01*
X36234443Y-50395252D01*
X36260086Y-50384656D01*
X36678188Y-49967283D01*
X36904742Y-49421681D01*
X36904983Y-49144785D01*
X44397599Y-56637401D01*
X44644161Y-56802148D01*
X44935000Y-56860000D01*
X49393258Y-56860000D01*
X49416838Y-56985317D01*
X49555910Y-57201441D01*
X49768110Y-57346431D01*
X49781197Y-57349081D01*
X49568559Y-57485910D01*
X49423569Y-57698110D01*
X49372560Y-57950000D01*
X49372560Y-59250000D01*
X49416838Y-59485317D01*
X49555910Y-59701441D01*
X49768110Y-59846431D01*
X50020000Y-59897440D01*
X54020000Y-59897440D01*
X54098647Y-59882641D01*
X53216288Y-60765000D01*
X49315005Y-60765000D01*
X49315000Y-60764999D01*
X48918923Y-60843785D01*
X48583144Y-61068144D01*
X48583142Y-61068147D01*
X47618144Y-62033144D01*
X47393785Y-62368923D01*
X47314999Y-62765000D01*
X47315000Y-62765005D01*
X47315000Y-63513156D01*
X47248559Y-63555910D01*
X47103569Y-63768110D01*
X47052560Y-64020000D01*
X47052560Y-68020000D01*
X47096838Y-68255317D01*
X47235910Y-68471441D01*
X47448110Y-68616431D01*
X47700000Y-68667440D01*
X49000000Y-68667440D01*
X49235317Y-68623162D01*
X49451441Y-68484090D01*
X49596431Y-68271890D01*
X49599081Y-68258803D01*
X49735910Y-68471441D01*
X49948110Y-68616431D01*
X50090000Y-68645164D01*
X50090000Y-68712537D01*
X50057808Y-68744673D01*
X49915162Y-69088201D01*
X49914838Y-69460167D01*
X50056883Y-69803943D01*
X50319673Y-70067192D01*
X50663201Y-70209838D01*
X51035167Y-70210162D01*
X51378943Y-70068117D01*
X51642192Y-69805327D01*
X51784838Y-69461799D01*
X51785162Y-69089833D01*
X51643117Y-68746057D01*
X51610000Y-68712882D01*
X51610000Y-68646742D01*
X51735317Y-68623162D01*
X51951441Y-68484090D01*
X52096431Y-68271890D01*
X52099081Y-68258803D01*
X52235910Y-68471441D01*
X52448110Y-68616431D01*
X52515000Y-68629977D01*
X52515000Y-68847766D01*
X52415162Y-69088201D01*
X52414838Y-69460167D01*
X52556883Y-69803943D01*
X52819673Y-70067192D01*
X53163201Y-70209838D01*
X53535167Y-70210162D01*
X53878943Y-70068117D01*
X54142192Y-69805327D01*
X54284838Y-69461799D01*
X54285162Y-69089833D01*
X54185000Y-68847422D01*
X54185000Y-68632630D01*
X54235317Y-68623162D01*
X54451441Y-68484090D01*
X54596431Y-68271890D01*
X54603191Y-68238510D01*
X54661673Y-68379699D01*
X54840302Y-68558327D01*
X55073691Y-68655000D01*
X55564250Y-68655000D01*
X55723000Y-68496250D01*
X55723000Y-66147000D01*
X55977000Y-66147000D01*
X55977000Y-68496250D01*
X56135750Y-68655000D01*
X56626309Y-68655000D01*
X56859698Y-68558327D01*
X57038327Y-68379699D01*
X57135000Y-68146310D01*
X57135000Y-66305750D01*
X56976250Y-66147000D01*
X55977000Y-66147000D01*
X55723000Y-66147000D01*
X55703000Y-66147000D01*
X55703000Y-65893000D01*
X55723000Y-65893000D01*
X55723000Y-63543750D01*
X55977000Y-63543750D01*
X55977000Y-65893000D01*
X56976250Y-65893000D01*
X57135000Y-65734250D01*
X57135000Y-63893690D01*
X57038327Y-63660301D01*
X56859698Y-63481673D01*
X56626309Y-63385000D01*
X56135750Y-63385000D01*
X55977000Y-63543750D01*
X55723000Y-63543750D01*
X55564250Y-63385000D01*
X55073691Y-63385000D01*
X54840302Y-63481673D01*
X54661673Y-63660301D01*
X54605346Y-63796287D01*
X54603162Y-63784683D01*
X54464090Y-63568559D01*
X54251890Y-63423569D01*
X54000000Y-63372560D01*
X52700000Y-63372560D01*
X52464683Y-63416838D01*
X52248559Y-63555910D01*
X52103569Y-63768110D01*
X52100919Y-63781197D01*
X51964090Y-63568559D01*
X51751890Y-63423569D01*
X51500000Y-63372560D01*
X50200000Y-63372560D01*
X49964683Y-63416838D01*
X49748559Y-63555910D01*
X49603569Y-63768110D01*
X49600919Y-63781197D01*
X49464090Y-63568559D01*
X49385000Y-63514519D01*
X49385000Y-63193712D01*
X49743711Y-62835000D01*
X53644995Y-62835000D01*
X53645000Y-62835001D01*
X54041077Y-62756215D01*
X54376856Y-62531856D01*
X55952560Y-60956151D01*
X55952560Y-62700000D01*
X55996838Y-62935317D01*
X56135910Y-63151441D01*
X56348110Y-63296431D01*
X56600000Y-63347440D01*
X59890000Y-63347440D01*
X59890000Y-69952560D01*
X58150000Y-69952560D01*
X57914683Y-69996838D01*
X57698559Y-70135910D01*
X57553569Y-70348110D01*
X57502560Y-70600000D01*
X57502560Y-73890000D01*
X46697440Y-73890000D01*
X46697440Y-71902407D01*
X54072735Y-71902407D01*
X54304717Y-72463846D01*
X54733894Y-72893773D01*
X55294928Y-73126735D01*
X55902407Y-73127265D01*
X56463846Y-72895283D01*
X56893773Y-72466106D01*
X57126735Y-71905072D01*
X57127265Y-71297593D01*
X56895283Y-70736154D01*
X56466106Y-70306227D01*
X55905072Y-70073265D01*
X55297593Y-70072735D01*
X54736154Y-70304717D01*
X54306227Y-70733894D01*
X54073265Y-71294928D01*
X54072735Y-71902407D01*
X46697440Y-71902407D01*
X46697440Y-70600000D01*
X46653162Y-70364683D01*
X46514090Y-70148559D01*
X46301890Y-70003569D01*
X46050000Y-69952560D01*
X44250000Y-69952560D01*
X44014683Y-69996838D01*
X43798559Y-70135910D01*
X43653569Y-70348110D01*
X43602560Y-70600000D01*
X43602560Y-73890000D01*
X11997440Y-73890000D01*
X11997440Y-72060750D01*
X22415000Y-72060750D01*
X22415000Y-72551310D01*
X22511673Y-72784699D01*
X22690302Y-72963327D01*
X22923691Y-73060000D01*
X23539250Y-73060000D01*
X23698000Y-72901250D01*
X23698000Y-71902000D01*
X23952000Y-71902000D01*
X23952000Y-72901250D01*
X24110750Y-73060000D01*
X24726309Y-73060000D01*
X24959698Y-72963327D01*
X25138327Y-72784699D01*
X25235000Y-72551310D01*
X25235000Y-72060750D01*
X30365000Y-72060750D01*
X30365000Y-72551310D01*
X30461673Y-72784699D01*
X30640302Y-72963327D01*
X30873691Y-73060000D01*
X31489250Y-73060000D01*
X31648000Y-72901250D01*
X31648000Y-71902000D01*
X31902000Y-71902000D01*
X31902000Y-72901250D01*
X32060750Y-73060000D01*
X32676309Y-73060000D01*
X32909698Y-72963327D01*
X33088327Y-72784699D01*
X33185000Y-72551310D01*
X33185000Y-72060750D01*
X33026250Y-71902000D01*
X31902000Y-71902000D01*
X31648000Y-71902000D01*
X30523750Y-71902000D01*
X30365000Y-72060750D01*
X25235000Y-72060750D01*
X25076250Y-71902000D01*
X23952000Y-71902000D01*
X23698000Y-71902000D01*
X22573750Y-71902000D01*
X22415000Y-72060750D01*
X11997440Y-72060750D01*
X11997440Y-70998690D01*
X22415000Y-70998690D01*
X22415000Y-71489250D01*
X22573750Y-71648000D01*
X23698000Y-71648000D01*
X23698000Y-70648750D01*
X23952000Y-70648750D01*
X23952000Y-71648000D01*
X25076250Y-71648000D01*
X25235000Y-71489250D01*
X25235000Y-70998690D01*
X30365000Y-70998690D01*
X30365000Y-71489250D01*
X30523750Y-71648000D01*
X31648000Y-71648000D01*
X31648000Y-70648750D01*
X31902000Y-70648750D01*
X31902000Y-71648000D01*
X33026250Y-71648000D01*
X33185000Y-71489250D01*
X33185000Y-70998690D01*
X33088327Y-70765301D01*
X32909698Y-70586673D01*
X32676309Y-70490000D01*
X32060750Y-70490000D01*
X31902000Y-70648750D01*
X31648000Y-70648750D01*
X31489250Y-70490000D01*
X30873691Y-70490000D01*
X30640302Y-70586673D01*
X30461673Y-70765301D01*
X30365000Y-70998690D01*
X25235000Y-70998690D01*
X25138327Y-70765301D01*
X24959698Y-70586673D01*
X24726309Y-70490000D01*
X24110750Y-70490000D01*
X23952000Y-70648750D01*
X23698000Y-70648750D01*
X23539250Y-70490000D01*
X22923691Y-70490000D01*
X22690302Y-70586673D01*
X22511673Y-70765301D01*
X22415000Y-70998690D01*
X11997440Y-70998690D01*
X11997440Y-70600000D01*
X11953162Y-70364683D01*
X11814090Y-70148559D01*
X11601890Y-70003569D01*
X11350000Y-69952560D01*
X9550000Y-69952560D01*
X9314683Y-69996838D01*
X9098559Y-70135910D01*
X8953569Y-70348110D01*
X8902560Y-70600000D01*
X8902560Y-73890000D01*
X-1902560Y-73890000D01*
X-1902560Y-71902407D01*
X-1527265Y-71902407D01*
X-1295283Y-72463846D01*
X-866106Y-72893773D01*
X-305072Y-73126735D01*
X302407Y-73127265D01*
X863846Y-72895283D01*
X1293773Y-72466106D01*
X1526735Y-71905072D01*
X1527265Y-71297593D01*
X1295283Y-70736154D01*
X866106Y-70306227D01*
X305072Y-70073265D01*
X-302407Y-70072735D01*
X-863846Y-70304717D01*
X-1293773Y-70733894D01*
X-1526735Y-71294928D01*
X-1527265Y-71902407D01*
X-1902560Y-71902407D01*
X-1902560Y-70600000D01*
X-1946838Y-70364683D01*
X-2085910Y-70148559D01*
X-2298110Y-70003569D01*
X-2550000Y-69952560D01*
X-4290000Y-69952560D01*
X-4290000Y-63347440D01*
X-1285000Y-63347440D01*
X-1285000Y-63513156D01*
X-1351441Y-63555910D01*
X-1496431Y-63768110D01*
X-1547440Y-64020000D01*
X-1547440Y-68020000D01*
X-1503162Y-68255317D01*
X-1364090Y-68471441D01*
X-1151890Y-68616431D01*
X-900000Y-68667440D01*
X400000Y-68667440D01*
X635317Y-68623162D01*
X851441Y-68484090D01*
X996431Y-68271890D01*
X999081Y-68258803D01*
X1135910Y-68471441D01*
X1348110Y-68616431D01*
X1490000Y-68645164D01*
X1490000Y-68712537D01*
X1457808Y-68744673D01*
X1315162Y-69088201D01*
X1314838Y-69460167D01*
X1456883Y-69803943D01*
X1719673Y-70067192D01*
X2063201Y-70209838D01*
X2435167Y-70210162D01*
X2778943Y-70068117D01*
X3042192Y-69805327D01*
X3184838Y-69461799D01*
X3185162Y-69089833D01*
X3043117Y-68746057D01*
X3010000Y-68712882D01*
X3010000Y-68646742D01*
X3135317Y-68623162D01*
X3351441Y-68484090D01*
X3496431Y-68271890D01*
X3499081Y-68258803D01*
X3635910Y-68471441D01*
X3848110Y-68616431D01*
X4100000Y-68667440D01*
X5400000Y-68667440D01*
X5635317Y-68623162D01*
X5851441Y-68484090D01*
X5996431Y-68271890D01*
X6003191Y-68238510D01*
X6061673Y-68379699D01*
X6240302Y-68558327D01*
X6473691Y-68655000D01*
X6964250Y-68655000D01*
X7123000Y-68496250D01*
X7123000Y-66147000D01*
X7377000Y-66147000D01*
X7377000Y-68496250D01*
X7535750Y-68655000D01*
X8026309Y-68655000D01*
X8259698Y-68558327D01*
X8438327Y-68379699D01*
X8535000Y-68146310D01*
X8535000Y-66305750D01*
X8376250Y-66147000D01*
X7377000Y-66147000D01*
X7123000Y-66147000D01*
X7103000Y-66147000D01*
X7103000Y-65893000D01*
X7123000Y-65893000D01*
X7123000Y-63543750D01*
X7377000Y-63543750D01*
X7377000Y-65893000D01*
X8376250Y-65893000D01*
X8535000Y-65734250D01*
X8535000Y-63893690D01*
X8438327Y-63660301D01*
X8259698Y-63481673D01*
X8026309Y-63385000D01*
X7535750Y-63385000D01*
X7377000Y-63543750D01*
X7123000Y-63543750D01*
X6964250Y-63385000D01*
X6473691Y-63385000D01*
X6240302Y-63481673D01*
X6061673Y-63660301D01*
X6005346Y-63796287D01*
X6003162Y-63784683D01*
X5864090Y-63568559D01*
X5678867Y-63442001D01*
X13340434Y-55780435D01*
X13481260Y-55569673D01*
X13521439Y-55509541D01*
X13585000Y-55190000D01*
X13585000Y-40700000D01*
X13557092Y-40559698D01*
X13521440Y-40380460D01*
X13340434Y-40109566D01*
X12916013Y-39685145D01*
X12935167Y-39685162D01*
X13278943Y-39543117D01*
X13542192Y-39280327D01*
X13684838Y-38936799D01*
X13684892Y-38874339D01*
X14130276Y-39319723D01*
X14333383Y-39455434D01*
X14368728Y-39479051D01*
X14468889Y-39498974D01*
X14648110Y-39621431D01*
X14900000Y-39672440D01*
X16400000Y-39672440D01*
X16635317Y-39628162D01*
X16851441Y-39489090D01*
X16996431Y-39276890D01*
X17047440Y-39025000D01*
X17047440Y-38575000D01*
X17027933Y-38471329D01*
X17047440Y-38375000D01*
X17047440Y-37925000D01*
X17027933Y-37821329D01*
X17047440Y-37725000D01*
X17047440Y-37275000D01*
X17027933Y-37171329D01*
X17047440Y-37075000D01*
X17047440Y-36625000D01*
X17027933Y-36521329D01*
X17047440Y-36425000D01*
X17047440Y-35975000D01*
X17027933Y-35871329D01*
X17047440Y-35775000D01*
X17047440Y-35325000D01*
X17027933Y-35221329D01*
X17047440Y-35125000D01*
X17047440Y-34675000D01*
X17003162Y-34439683D01*
X16864090Y-34223559D01*
X16718917Y-34124367D01*
X16851441Y-34039090D01*
X16996431Y-33826890D01*
X17047440Y-33575000D01*
X17047440Y-33566008D01*
X17213201Y-33634838D01*
X17224690Y-33634848D01*
X17890000Y-34300158D01*
X17890000Y-40000000D01*
X17949755Y-40300407D01*
X18119921Y-40555079D01*
X18718115Y-41153273D01*
X18695258Y-41208319D01*
X18694743Y-41799089D01*
X18920344Y-42345086D01*
X19337717Y-42763188D01*
X19365557Y-42774748D01*
X19339914Y-42785344D01*
X18921812Y-43202717D01*
X18695258Y-43748319D01*
X18694743Y-44339089D01*
X18920344Y-44885086D01*
X19337717Y-45303188D01*
X19365557Y-45314748D01*
X19339914Y-45325344D01*
X18921812Y-45742717D01*
X18695258Y-46288319D01*
X18694743Y-46879089D01*
X18920344Y-47425086D01*
X19337717Y-47843188D01*
X19365557Y-47854748D01*
X19339914Y-47865344D01*
X18921812Y-48282717D01*
X18695258Y-48828319D01*
X18694743Y-49419089D01*
X18920344Y-49965086D01*
X19337717Y-50383188D01*
X19365557Y-50394748D01*
X19339914Y-50405344D01*
X18921812Y-50822717D01*
X18695258Y-51368319D01*
X18694743Y-51959089D01*
X18920344Y-52505086D01*
X19337717Y-52923188D01*
X19365557Y-52934748D01*
X19339914Y-52945344D01*
X18921812Y-53362717D01*
X18695258Y-53908319D01*
X18694743Y-54499089D01*
X18920344Y-55045086D01*
X19337717Y-55463188D01*
X19365557Y-55474748D01*
X19339914Y-55485344D01*
X18921812Y-55902717D01*
X18695258Y-56448319D01*
X18694743Y-57039089D01*
X18920344Y-57585086D01*
X19337717Y-58003188D01*
X19365557Y-58014748D01*
X19339914Y-58025344D01*
X18921812Y-58442717D01*
X18695258Y-58988319D01*
X18694743Y-59579089D01*
X18920344Y-60125086D01*
X19337717Y-60543188D01*
X19883319Y-60769742D01*
X20474089Y-60770257D01*
X20556432Y-60736234D01*
X23065000Y-63244802D01*
X23065000Y-65977560D01*
X23050000Y-65977560D01*
X22814683Y-66021838D01*
X22598559Y-66160910D01*
X22453569Y-66373110D01*
X22402560Y-66625000D01*
X22402560Y-67925000D01*
X22446838Y-68160317D01*
X22585910Y-68376441D01*
X22798110Y-68521431D01*
X23050000Y-68572440D01*
X24600000Y-68572440D01*
X24835317Y-68528162D01*
X25051441Y-68389090D01*
X25196431Y-68176890D01*
X25225164Y-68035000D01*
X30373258Y-68035000D01*
X30396838Y-68160317D01*
X30535910Y-68376441D01*
X30748110Y-68521431D01*
X31000000Y-68572440D01*
X32550000Y-68572440D01*
X32785317Y-68528162D01*
X33001441Y-68389090D01*
X33146431Y-68176890D01*
X33197440Y-67925000D01*
X33197440Y-66625000D01*
X33153162Y-66389683D01*
X33014090Y-66173559D01*
X32801890Y-66028569D01*
X32550000Y-65977560D01*
X31000000Y-65977560D01*
X30764683Y-66021838D01*
X30548559Y-66160910D01*
X30403569Y-66373110D01*
X30374836Y-66515000D01*
X25226742Y-66515000D01*
X25203162Y-66389683D01*
X25064090Y-66173559D01*
X24851890Y-66028569D01*
X24600000Y-65977560D01*
X24585000Y-65977560D01*
X24585000Y-62930000D01*
X24527148Y-62639161D01*
X24527148Y-62639160D01*
X24362401Y-62392599D01*
X21631511Y-59661709D01*
X21664742Y-59581681D01*
X21665257Y-58990911D01*
X21439656Y-58444914D01*
X21022283Y-58026812D01*
X20994443Y-58015252D01*
X21020086Y-58004656D01*
X21438188Y-57587283D01*
X21664742Y-57041681D01*
X21665257Y-56450911D01*
X21439656Y-55904914D01*
X21022283Y-55486812D01*
X20994443Y-55475252D01*
X21020086Y-55464656D01*
X21438188Y-55047283D01*
X21664742Y-54501681D01*
X21665257Y-53910911D01*
X21439656Y-53364914D01*
X21022283Y-52946812D01*
X20994443Y-52935252D01*
X21020086Y-52924656D01*
X21438188Y-52507283D01*
X21664742Y-51961681D01*
X21665257Y-51370911D01*
X21439656Y-50824914D01*
X21022283Y-50406812D01*
X20994443Y-50395252D01*
X21020086Y-50384656D01*
X21438188Y-49967283D01*
X21664742Y-49421681D01*
X21665257Y-48830911D01*
X21439656Y-48284914D01*
X21022283Y-47866812D01*
X20994443Y-47855252D01*
X21020086Y-47844656D01*
X21438188Y-47427283D01*
X21664742Y-46881681D01*
X21665257Y-46290911D01*
X21439656Y-45744914D01*
X21022283Y-45326812D01*
X20994443Y-45315252D01*
X21020086Y-45304656D01*
X21438188Y-44887283D01*
X21664742Y-44341681D01*
X21665257Y-43750911D01*
X21439656Y-43204914D01*
X21022283Y-42786812D01*
X20994443Y-42775252D01*
X21020086Y-42764656D01*
X21245134Y-42540000D01*
X23749995Y-42540000D01*
X23750000Y-42540001D01*
X24146077Y-42461215D01*
X24481856Y-42236856D01*
X28531853Y-38186858D01*
X28531856Y-38186856D01*
X28756215Y-37851077D01*
X28763359Y-37815162D01*
X28835001Y-37455000D01*
X28835000Y-37454995D01*
X28835000Y-33652440D01*
X30700000Y-33652440D01*
X30935317Y-33608162D01*
X31151441Y-33469090D01*
X31296431Y-33256890D01*
X31347440Y-33005000D01*
X31347440Y-30922598D01*
X33958115Y-33533273D01*
G36*
X8496838Y-39260317D02*
X8635910Y-39476441D01*
X8848110Y-39621431D01*
X9100000Y-39672440D01*
X10541572Y-39672440D01*
X11915000Y-41045868D01*
X11915000Y-42382641D01*
X11536511Y-41466628D01*
X10613233Y-40541736D01*
X9406294Y-40040571D01*
X8099440Y-40039431D01*
X6891628Y-40538489D01*
X5966736Y-41461767D01*
X5465571Y-42668706D01*
X5464431Y-43975560D01*
X5963489Y-45183372D01*
X6886767Y-46108264D01*
X8093706Y-46609429D01*
X9400560Y-46610569D01*
X10608372Y-46111511D01*
X11533264Y-45188233D01*
X11915000Y-44268911D01*
X11915000Y-54844131D01*
X4159566Y-62599566D01*
X3978561Y-62870459D01*
X3915000Y-63190000D01*
X3915000Y-63407370D01*
X3864683Y-63416838D01*
X3648559Y-63555910D01*
X3503569Y-63768110D01*
X3500919Y-63781197D01*
X3364090Y-63568559D01*
X3151890Y-63423569D01*
X2900000Y-63372560D01*
X1600000Y-63372560D01*
X1364683Y-63416838D01*
X1148559Y-63555910D01*
X1003569Y-63768110D01*
X1000919Y-63781197D01*
X897786Y-63620925D01*
X1021853Y-63496858D01*
X1021856Y-63496856D01*
X1206284Y-63220839D01*
X1246215Y-63161078D01*
X1325000Y-62765000D01*
X1325000Y-59831695D01*
X1453690Y-59885000D01*
X3294250Y-59885000D01*
X3453000Y-59726250D01*
X3453000Y-58727000D01*
X3707000Y-58727000D01*
X3707000Y-59726250D01*
X3865750Y-59885000D01*
X5706310Y-59885000D01*
X5939699Y-59788327D01*
X6118327Y-59609698D01*
X6215000Y-59376309D01*
X6215000Y-58885750D01*
X6056250Y-58727000D01*
X3707000Y-58727000D01*
X3453000Y-58727000D01*
X3433000Y-58727000D01*
X3433000Y-58473000D01*
X3453000Y-58473000D01*
X3453000Y-58453000D01*
X3707000Y-58453000D01*
X3707000Y-58473000D01*
X6056250Y-58473000D01*
X6215000Y-58314250D01*
X6215000Y-57823691D01*
X6118327Y-57590302D01*
X5939699Y-57411673D01*
X5803713Y-57355346D01*
X5815317Y-57353162D01*
X6031441Y-57214090D01*
X6176431Y-57001890D01*
X6189977Y-56935000D01*
X6407766Y-56935000D01*
X6648201Y-57034838D01*
X7020167Y-57035162D01*
X7363943Y-56893117D01*
X7627192Y-56630327D01*
X7769838Y-56286799D01*
X7770162Y-55914833D01*
X7628117Y-55571057D01*
X7365327Y-55307808D01*
X7021799Y-55165162D01*
X6649833Y-55164838D01*
X6407422Y-55265000D01*
X6192630Y-55265000D01*
X6183162Y-55214683D01*
X6044090Y-54998559D01*
X5831890Y-54853569D01*
X5818803Y-54850919D01*
X6031441Y-54714090D01*
X6176431Y-54501890D01*
X6205164Y-54360000D01*
X6272537Y-54360000D01*
X6304673Y-54392192D01*
X6648201Y-54534838D01*
X7020167Y-54535162D01*
X7363943Y-54393117D01*
X7627192Y-54130327D01*
X7769838Y-53786799D01*
X7770162Y-53414833D01*
X7628117Y-53071057D01*
X7365327Y-52807808D01*
X7021799Y-52665162D01*
X6649833Y-52664838D01*
X6306057Y-52806883D01*
X6272882Y-52840000D01*
X6206742Y-52840000D01*
X6183162Y-52714683D01*
X6044090Y-52498559D01*
X5831890Y-52353569D01*
X5818803Y-52350919D01*
X6031441Y-52214090D01*
X6176431Y-52001890D01*
X6227440Y-51750000D01*
X6227440Y-50450000D01*
X6183162Y-50214683D01*
X6044090Y-49998559D01*
X5831890Y-49853569D01*
X5580000Y-49802560D01*
X1580000Y-49802560D01*
X1344683Y-49846838D01*
X1325000Y-49859504D01*
X1325000Y-40781695D01*
X1453690Y-40835000D01*
X3294250Y-40835000D01*
X3453000Y-40676250D01*
X3453000Y-39677000D01*
X3433000Y-39677000D01*
X3433000Y-39423000D01*
X3453000Y-39423000D01*
X3453000Y-39403000D01*
X3707000Y-39403000D01*
X3707000Y-39423000D01*
X3727000Y-39423000D01*
X3727000Y-39677000D01*
X3707000Y-39677000D01*
X3707000Y-40676250D01*
X3865750Y-40835000D01*
X5706310Y-40835000D01*
X5939699Y-40738327D01*
X6118327Y-40559698D01*
X6215000Y-40326309D01*
X6215000Y-40252362D01*
X6304673Y-40342192D01*
X6648201Y-40484838D01*
X7020167Y-40485162D01*
X7363943Y-40343117D01*
X7627192Y-40080327D01*
X7727778Y-39838090D01*
X8466545Y-39099323D01*
X8496838Y-39260317D01*
X8496838Y-39260317D01*
G37*
X8496838Y-39260317D02*
X8635910Y-39476441D01*
X8848110Y-39621431D01*
X9100000Y-39672440D01*
X10541572Y-39672440D01*
X11915000Y-41045868D01*
X11915000Y-42382641D01*
X11536511Y-41466628D01*
X10613233Y-40541736D01*
X9406294Y-40040571D01*
X8099440Y-40039431D01*
X6891628Y-40538489D01*
X5966736Y-41461767D01*
X5465571Y-42668706D01*
X5464431Y-43975560D01*
X5963489Y-45183372D01*
X6886767Y-46108264D01*
X8093706Y-46609429D01*
X9400560Y-46610569D01*
X10608372Y-46111511D01*
X11533264Y-45188233D01*
X11915000Y-44268911D01*
X11915000Y-54844131D01*
X4159566Y-62599566D01*
X3978561Y-62870459D01*
X3915000Y-63190000D01*
X3915000Y-63407370D01*
X3864683Y-63416838D01*
X3648559Y-63555910D01*
X3503569Y-63768110D01*
X3500919Y-63781197D01*
X3364090Y-63568559D01*
X3151890Y-63423569D01*
X2900000Y-63372560D01*
X1600000Y-63372560D01*
X1364683Y-63416838D01*
X1148559Y-63555910D01*
X1003569Y-63768110D01*
X1000919Y-63781197D01*
X897786Y-63620925D01*
X1021853Y-63496858D01*
X1021856Y-63496856D01*
X1206284Y-63220839D01*
X1246215Y-63161078D01*
X1325000Y-62765000D01*
X1325000Y-59831695D01*
X1453690Y-59885000D01*
X3294250Y-59885000D01*
X3453000Y-59726250D01*
X3453000Y-58727000D01*
X3707000Y-58727000D01*
X3707000Y-59726250D01*
X3865750Y-59885000D01*
X5706310Y-59885000D01*
X5939699Y-59788327D01*
X6118327Y-59609698D01*
X6215000Y-59376309D01*
X6215000Y-58885750D01*
X6056250Y-58727000D01*
X3707000Y-58727000D01*
X3453000Y-58727000D01*
X3433000Y-58727000D01*
X3433000Y-58473000D01*
X3453000Y-58473000D01*
X3453000Y-58453000D01*
X3707000Y-58453000D01*
X3707000Y-58473000D01*
X6056250Y-58473000D01*
X6215000Y-58314250D01*
X6215000Y-57823691D01*
X6118327Y-57590302D01*
X5939699Y-57411673D01*
X5803713Y-57355346D01*
X5815317Y-57353162D01*
X6031441Y-57214090D01*
X6176431Y-57001890D01*
X6189977Y-56935000D01*
X6407766Y-56935000D01*
X6648201Y-57034838D01*
X7020167Y-57035162D01*
X7363943Y-56893117D01*
X7627192Y-56630327D01*
X7769838Y-56286799D01*
X7770162Y-55914833D01*
X7628117Y-55571057D01*
X7365327Y-55307808D01*
X7021799Y-55165162D01*
X6649833Y-55164838D01*
X6407422Y-55265000D01*
X6192630Y-55265000D01*
X6183162Y-55214683D01*
X6044090Y-54998559D01*
X5831890Y-54853569D01*
X5818803Y-54850919D01*
X6031441Y-54714090D01*
X6176431Y-54501890D01*
X6205164Y-54360000D01*
X6272537Y-54360000D01*
X6304673Y-54392192D01*
X6648201Y-54534838D01*
X7020167Y-54535162D01*
X7363943Y-54393117D01*
X7627192Y-54130327D01*
X7769838Y-53786799D01*
X7770162Y-53414833D01*
X7628117Y-53071057D01*
X7365327Y-52807808D01*
X7021799Y-52665162D01*
X6649833Y-52664838D01*
X6306057Y-52806883D01*
X6272882Y-52840000D01*
X6206742Y-52840000D01*
X6183162Y-52714683D01*
X6044090Y-52498559D01*
X5831890Y-52353569D01*
X5818803Y-52350919D01*
X6031441Y-52214090D01*
X6176431Y-52001890D01*
X6227440Y-51750000D01*
X6227440Y-50450000D01*
X6183162Y-50214683D01*
X6044090Y-49998559D01*
X5831890Y-49853569D01*
X5580000Y-49802560D01*
X1580000Y-49802560D01*
X1344683Y-49846838D01*
X1325000Y-49859504D01*
X1325000Y-40781695D01*
X1453690Y-40835000D01*
X3294250Y-40835000D01*
X3453000Y-40676250D01*
X3453000Y-39677000D01*
X3433000Y-39677000D01*
X3433000Y-39423000D01*
X3453000Y-39423000D01*
X3453000Y-39403000D01*
X3707000Y-39403000D01*
X3707000Y-39423000D01*
X3727000Y-39423000D01*
X3727000Y-39677000D01*
X3707000Y-39677000D01*
X3707000Y-40676250D01*
X3865750Y-40835000D01*
X5706310Y-40835000D01*
X5939699Y-40738327D01*
X6118327Y-40559698D01*
X6215000Y-40326309D01*
X6215000Y-40252362D01*
X6304673Y-40342192D01*
X6648201Y-40484838D01*
X7020167Y-40485162D01*
X7363943Y-40343117D01*
X7627192Y-40080327D01*
X7727778Y-39838090D01*
X8466545Y-39099323D01*
X8496838Y-39260317D01*
G36*
X38552560Y-34475000D02*
X38572067Y-34578671D01*
X38552560Y-34675000D01*
X38552560Y-35125000D01*
X38572067Y-35228671D01*
X38552560Y-35325000D01*
X38552560Y-35775000D01*
X38572067Y-35878671D01*
X38552560Y-35975000D01*
X38552560Y-36425000D01*
X38572067Y-36528671D01*
X38552560Y-36625000D01*
X38552560Y-37075000D01*
X38572067Y-37178671D01*
X38552560Y-37275000D01*
X38552560Y-37725000D01*
X38572067Y-37828671D01*
X38552560Y-37925000D01*
X38552560Y-38375000D01*
X38565980Y-38446323D01*
X38565000Y-38448690D01*
X38565000Y-38528750D01*
X38585312Y-38549062D01*
X38596838Y-38610317D01*
X38735910Y-38826441D01*
X38861862Y-38912500D01*
X38723750Y-38912500D01*
X38565000Y-39071250D01*
X38565000Y-39151310D01*
X38661673Y-39384699D01*
X38840302Y-39563327D01*
X39073691Y-39660000D01*
X39664250Y-39660000D01*
X39823000Y-39501250D01*
X39823000Y-39022440D01*
X40077000Y-39022440D01*
X40077000Y-39501250D01*
X40235750Y-39660000D01*
X40826309Y-39660000D01*
X41059698Y-39563327D01*
X41238327Y-39384699D01*
X41335000Y-39151310D01*
X41335000Y-39071250D01*
X41176250Y-38912500D01*
X41037359Y-38912500D01*
X41138303Y-38847544D01*
X41231272Y-38829051D01*
X41469723Y-38669723D01*
X42015000Y-38124446D01*
X42015000Y-48625000D01*
X42078561Y-48944541D01*
X42259566Y-49215434D01*
X47234566Y-54190434D01*
X47505459Y-54371439D01*
X47825000Y-54435000D01*
X49407370Y-54435000D01*
X49416838Y-54485317D01*
X49555910Y-54701441D01*
X49768110Y-54846431D01*
X49781197Y-54849081D01*
X49568559Y-54985910D01*
X49423569Y-55198110D01*
X49394836Y-55340000D01*
X45249802Y-55340000D01*
X36871511Y-46961709D01*
X36904742Y-46881681D01*
X36905257Y-46290911D01*
X36679656Y-45744914D01*
X36262283Y-45326812D01*
X36234443Y-45315252D01*
X36260086Y-45304656D01*
X36678188Y-44887283D01*
X36904742Y-44341681D01*
X36905257Y-43750911D01*
X36679656Y-43204914D01*
X36262283Y-42786812D01*
X36234443Y-42775252D01*
X36260086Y-42764656D01*
X36678188Y-42347283D01*
X36904742Y-41801681D01*
X36905257Y-41210911D01*
X36679656Y-40664914D01*
X36262283Y-40246812D01*
X36234443Y-40235252D01*
X36260086Y-40224656D01*
X36678188Y-39807283D01*
X36904742Y-39261681D01*
X36905257Y-38670911D01*
X36679656Y-38124914D01*
X36262283Y-37706812D01*
X36234443Y-37695252D01*
X36260086Y-37684656D01*
X36678188Y-37267283D01*
X36904742Y-36721681D01*
X36905257Y-36130911D01*
X36679656Y-35584914D01*
X36262283Y-35166812D01*
X36234443Y-35155252D01*
X36260086Y-35144656D01*
X36678188Y-34727283D01*
X36701974Y-34670000D01*
X37665000Y-34670000D01*
X37965407Y-34610245D01*
X38220079Y-34440079D01*
X38375005Y-34285153D01*
X38385167Y-34285162D01*
X38552560Y-34215997D01*
X38552560Y-34475000D01*
X38552560Y-34475000D01*
G37*
X38552560Y-34475000D02*
X38572067Y-34578671D01*
X38552560Y-34675000D01*
X38552560Y-35125000D01*
X38572067Y-35228671D01*
X38552560Y-35325000D01*
X38552560Y-35775000D01*
X38572067Y-35878671D01*
X38552560Y-35975000D01*
X38552560Y-36425000D01*
X38572067Y-36528671D01*
X38552560Y-36625000D01*
X38552560Y-37075000D01*
X38572067Y-37178671D01*
X38552560Y-37275000D01*
X38552560Y-37725000D01*
X38572067Y-37828671D01*
X38552560Y-37925000D01*
X38552560Y-38375000D01*
X38565980Y-38446323D01*
X38565000Y-38448690D01*
X38565000Y-38528750D01*
X38585312Y-38549062D01*
X38596838Y-38610317D01*
X38735910Y-38826441D01*
X38861862Y-38912500D01*
X38723750Y-38912500D01*
X38565000Y-39071250D01*
X38565000Y-39151310D01*
X38661673Y-39384699D01*
X38840302Y-39563327D01*
X39073691Y-39660000D01*
X39664250Y-39660000D01*
X39823000Y-39501250D01*
X39823000Y-39022440D01*
X40077000Y-39022440D01*
X40077000Y-39501250D01*
X40235750Y-39660000D01*
X40826309Y-39660000D01*
X41059698Y-39563327D01*
X41238327Y-39384699D01*
X41335000Y-39151310D01*
X41335000Y-39071250D01*
X41176250Y-38912500D01*
X41037359Y-38912500D01*
X41138303Y-38847544D01*
X41231272Y-38829051D01*
X41469723Y-38669723D01*
X42015000Y-38124446D01*
X42015000Y-48625000D01*
X42078561Y-48944541D01*
X42259566Y-49215434D01*
X47234566Y-54190434D01*
X47505459Y-54371439D01*
X47825000Y-54435000D01*
X49407370Y-54435000D01*
X49416838Y-54485317D01*
X49555910Y-54701441D01*
X49768110Y-54846431D01*
X49781197Y-54849081D01*
X49568559Y-54985910D01*
X49423569Y-55198110D01*
X49394836Y-55340000D01*
X45249802Y-55340000D01*
X36871511Y-46961709D01*
X36904742Y-46881681D01*
X36905257Y-46290911D01*
X36679656Y-45744914D01*
X36262283Y-45326812D01*
X36234443Y-45315252D01*
X36260086Y-45304656D01*
X36678188Y-44887283D01*
X36904742Y-44341681D01*
X36905257Y-43750911D01*
X36679656Y-43204914D01*
X36262283Y-42786812D01*
X36234443Y-42775252D01*
X36260086Y-42764656D01*
X36678188Y-42347283D01*
X36904742Y-41801681D01*
X36905257Y-41210911D01*
X36679656Y-40664914D01*
X36262283Y-40246812D01*
X36234443Y-40235252D01*
X36260086Y-40224656D01*
X36678188Y-39807283D01*
X36904742Y-39261681D01*
X36905257Y-38670911D01*
X36679656Y-38124914D01*
X36262283Y-37706812D01*
X36234443Y-37695252D01*
X36260086Y-37684656D01*
X36678188Y-37267283D01*
X36904742Y-36721681D01*
X36905257Y-36130911D01*
X36679656Y-35584914D01*
X36262283Y-35166812D01*
X36234443Y-35155252D01*
X36260086Y-35144656D01*
X36678188Y-34727283D01*
X36701974Y-34670000D01*
X37665000Y-34670000D01*
X37965407Y-34610245D01*
X38220079Y-34440079D01*
X38375005Y-34285153D01*
X38385167Y-34285162D01*
X38552560Y-34215997D01*
X38552560Y-34475000D01*
G36*
X44372067Y-37828671D02*
X44352560Y-37925000D01*
X44352560Y-38375000D01*
X44372067Y-38478671D01*
X44352560Y-38575000D01*
X44352560Y-39025000D01*
X44396838Y-39260317D01*
X44535910Y-39476441D01*
X44748110Y-39621431D01*
X45000000Y-39672440D01*
X46500000Y-39672440D01*
X46735317Y-39628162D01*
X46951441Y-39489090D01*
X47096431Y-39276890D01*
X47147440Y-39025000D01*
X47147440Y-38575000D01*
X47127933Y-38471329D01*
X47138463Y-38419331D01*
X47904150Y-39185018D01*
X47830162Y-39363201D01*
X47829838Y-39735167D01*
X47971883Y-40078943D01*
X48234673Y-40342192D01*
X48578201Y-40484838D01*
X48950167Y-40485162D01*
X49293943Y-40343117D01*
X49382799Y-40254416D01*
X49416838Y-40435317D01*
X49555910Y-40651441D01*
X49768110Y-40796431D01*
X50020000Y-40847440D01*
X54020000Y-40847440D01*
X54255317Y-40803162D01*
X54275000Y-40790496D01*
X54275000Y-49868305D01*
X54146310Y-49815000D01*
X52305750Y-49815000D01*
X52147000Y-49973750D01*
X52147000Y-50973000D01*
X52167000Y-50973000D01*
X52167000Y-51227000D01*
X52147000Y-51227000D01*
X52147000Y-51247000D01*
X51893000Y-51247000D01*
X51893000Y-51227000D01*
X49543750Y-51227000D01*
X49385000Y-51385750D01*
X49385000Y-51876309D01*
X49481673Y-52109698D01*
X49660301Y-52288327D01*
X49796287Y-52344654D01*
X49784683Y-52346838D01*
X49568559Y-52485910D01*
X49423569Y-52698110D01*
X49410023Y-52765000D01*
X48170868Y-52765000D01*
X45729559Y-50323691D01*
X49385000Y-50323691D01*
X49385000Y-50814250D01*
X49543750Y-50973000D01*
X51893000Y-50973000D01*
X51893000Y-49973750D01*
X51734250Y-49815000D01*
X49893690Y-49815000D01*
X49660301Y-49911673D01*
X49481673Y-50090302D01*
X49385000Y-50323691D01*
X45729559Y-50323691D01*
X43685000Y-48279132D01*
X43685000Y-44267359D01*
X44063489Y-45183372D01*
X44986767Y-46108264D01*
X46193706Y-46609429D01*
X47500560Y-46610569D01*
X48708372Y-46111511D01*
X49633264Y-45188233D01*
X50134429Y-43981294D01*
X50135569Y-42674440D01*
X49636511Y-41466628D01*
X48713233Y-40541736D01*
X47506294Y-40040571D01*
X46199440Y-40039431D01*
X44991628Y-40538489D01*
X44066736Y-41461767D01*
X43685000Y-42381089D01*
X43685000Y-38445868D01*
X44361002Y-37769866D01*
X44372067Y-37828671D01*
X44372067Y-37828671D01*
G37*
X44372067Y-37828671D02*
X44352560Y-37925000D01*
X44352560Y-38375000D01*
X44372067Y-38478671D01*
X44352560Y-38575000D01*
X44352560Y-39025000D01*
X44396838Y-39260317D01*
X44535910Y-39476441D01*
X44748110Y-39621431D01*
X45000000Y-39672440D01*
X46500000Y-39672440D01*
X46735317Y-39628162D01*
X46951441Y-39489090D01*
X47096431Y-39276890D01*
X47147440Y-39025000D01*
X47147440Y-38575000D01*
X47127933Y-38471329D01*
X47138463Y-38419331D01*
X47904150Y-39185018D01*
X47830162Y-39363201D01*
X47829838Y-39735167D01*
X47971883Y-40078943D01*
X48234673Y-40342192D01*
X48578201Y-40484838D01*
X48950167Y-40485162D01*
X49293943Y-40343117D01*
X49382799Y-40254416D01*
X49416838Y-40435317D01*
X49555910Y-40651441D01*
X49768110Y-40796431D01*
X50020000Y-40847440D01*
X54020000Y-40847440D01*
X54255317Y-40803162D01*
X54275000Y-40790496D01*
X54275000Y-49868305D01*
X54146310Y-49815000D01*
X52305750Y-49815000D01*
X52147000Y-49973750D01*
X52147000Y-50973000D01*
X52167000Y-50973000D01*
X52167000Y-51227000D01*
X52147000Y-51227000D01*
X52147000Y-51247000D01*
X51893000Y-51247000D01*
X51893000Y-51227000D01*
X49543750Y-51227000D01*
X49385000Y-51385750D01*
X49385000Y-51876309D01*
X49481673Y-52109698D01*
X49660301Y-52288327D01*
X49796287Y-52344654D01*
X49784683Y-52346838D01*
X49568559Y-52485910D01*
X49423569Y-52698110D01*
X49410023Y-52765000D01*
X48170868Y-52765000D01*
X45729559Y-50323691D01*
X49385000Y-50323691D01*
X49385000Y-50814250D01*
X49543750Y-50973000D01*
X51893000Y-50973000D01*
X51893000Y-49973750D01*
X51734250Y-49815000D01*
X49893690Y-49815000D01*
X49660301Y-49911673D01*
X49481673Y-50090302D01*
X49385000Y-50323691D01*
X45729559Y-50323691D01*
X43685000Y-48279132D01*
X43685000Y-44267359D01*
X44063489Y-45183372D01*
X44986767Y-46108264D01*
X46193706Y-46609429D01*
X47500560Y-46610569D01*
X48708372Y-46111511D01*
X49633264Y-45188233D01*
X50134429Y-43981294D01*
X50135569Y-42674440D01*
X49636511Y-41466628D01*
X48713233Y-40541736D01*
X47506294Y-40040571D01*
X46199440Y-40039431D01*
X44991628Y-40538489D01*
X44066736Y-41461767D01*
X43685000Y-42381089D01*
X43685000Y-38445868D01*
X44361002Y-37769866D01*
X44372067Y-37828671D01*
G36*
X22182599Y-26802401D02*
X22429160Y-26967148D01*
X22720000Y-27025000D01*
X24252560Y-27025000D01*
X24252560Y-33005000D01*
X24296838Y-33240317D01*
X24435910Y-33456441D01*
X24648110Y-33601431D01*
X24900000Y-33652440D01*
X26765000Y-33652440D01*
X26765000Y-37026289D01*
X23321288Y-40470000D01*
X21245082Y-40470000D01*
X21022283Y-40246812D01*
X20974688Y-40227049D01*
X21044353Y-40008958D01*
X20180000Y-39144605D01*
X20165858Y-39158748D01*
X19986253Y-38979143D01*
X20000395Y-38965000D01*
X20359605Y-38965000D01*
X21223958Y-39829353D01*
X21475259Y-39749080D01*
X21676718Y-39193721D01*
X21650315Y-38603542D01*
X21475259Y-38180920D01*
X21223958Y-38100647D01*
X20359605Y-38965000D01*
X20000395Y-38965000D01*
X19986253Y-38950858D01*
X20165858Y-38771253D01*
X20180000Y-38785395D01*
X21044353Y-37921042D01*
X20972148Y-37695000D01*
X21044353Y-37468958D01*
X20180000Y-36604605D01*
X20165858Y-36618748D01*
X19986253Y-36439143D01*
X20000395Y-36425000D01*
X20359605Y-36425000D01*
X21223958Y-37289353D01*
X21475259Y-37209080D01*
X21676718Y-36653721D01*
X21650315Y-36063542D01*
X21475259Y-35640920D01*
X21223958Y-35560647D01*
X20359605Y-36425000D01*
X20000395Y-36425000D01*
X19986253Y-36410858D01*
X20165858Y-36231253D01*
X20180000Y-36245395D01*
X21044353Y-35381042D01*
X20974819Y-35163360D01*
X21020086Y-35144656D01*
X21438188Y-34727283D01*
X21664742Y-34181681D01*
X21665257Y-33590911D01*
X21439656Y-33044914D01*
X21022283Y-32626812D01*
X20994443Y-32615252D01*
X21020086Y-32604656D01*
X21438188Y-32187283D01*
X21664742Y-31641681D01*
X21665257Y-31050911D01*
X21439656Y-30504914D01*
X21022283Y-30086812D01*
X20994443Y-30075252D01*
X21020086Y-30064656D01*
X21438188Y-29647283D01*
X21664742Y-29101681D01*
X21665257Y-28510911D01*
X21439656Y-27964914D01*
X21022283Y-27546812D01*
X20994443Y-27535252D01*
X21020086Y-27524656D01*
X21438188Y-27107283D01*
X21664742Y-26561681D01*
X21664983Y-26284785D01*
X22182599Y-26802401D01*
X22182599Y-26802401D01*
G37*
X22182599Y-26802401D02*
X22429160Y-26967148D01*
X22720000Y-27025000D01*
X24252560Y-27025000D01*
X24252560Y-33005000D01*
X24296838Y-33240317D01*
X24435910Y-33456441D01*
X24648110Y-33601431D01*
X24900000Y-33652440D01*
X26765000Y-33652440D01*
X26765000Y-37026289D01*
X23321288Y-40470000D01*
X21245082Y-40470000D01*
X21022283Y-40246812D01*
X20974688Y-40227049D01*
X21044353Y-40008958D01*
X20180000Y-39144605D01*
X20165858Y-39158748D01*
X19986253Y-38979143D01*
X20000395Y-38965000D01*
X20359605Y-38965000D01*
X21223958Y-39829353D01*
X21475259Y-39749080D01*
X21676718Y-39193721D01*
X21650315Y-38603542D01*
X21475259Y-38180920D01*
X21223958Y-38100647D01*
X20359605Y-38965000D01*
X20000395Y-38965000D01*
X19986253Y-38950858D01*
X20165858Y-38771253D01*
X20180000Y-38785395D01*
X21044353Y-37921042D01*
X20972148Y-37695000D01*
X21044353Y-37468958D01*
X20180000Y-36604605D01*
X20165858Y-36618748D01*
X19986253Y-36439143D01*
X20000395Y-36425000D01*
X20359605Y-36425000D01*
X21223958Y-37289353D01*
X21475259Y-37209080D01*
X21676718Y-36653721D01*
X21650315Y-36063542D01*
X21475259Y-35640920D01*
X21223958Y-35560647D01*
X20359605Y-36425000D01*
X20000395Y-36425000D01*
X19986253Y-36410858D01*
X20165858Y-36231253D01*
X20180000Y-36245395D01*
X21044353Y-35381042D01*
X20974819Y-35163360D01*
X21020086Y-35144656D01*
X21438188Y-34727283D01*
X21664742Y-34181681D01*
X21665257Y-33590911D01*
X21439656Y-33044914D01*
X21022283Y-32626812D01*
X20994443Y-32615252D01*
X21020086Y-32604656D01*
X21438188Y-32187283D01*
X21664742Y-31641681D01*
X21665257Y-31050911D01*
X21439656Y-30504914D01*
X21022283Y-30086812D01*
X20994443Y-30075252D01*
X21020086Y-30064656D01*
X21438188Y-29647283D01*
X21664742Y-29101681D01*
X21665257Y-28510911D01*
X21439656Y-27964914D01*
X21022283Y-27546812D01*
X20994443Y-27535252D01*
X21020086Y-27524656D01*
X21438188Y-27107283D01*
X21664742Y-26561681D01*
X21664983Y-26284785D01*
X22182599Y-26802401D01*
G36*
X17163142Y-18071853D02*
X17163144Y-18071856D01*
X17452895Y-18265460D01*
X17498923Y-18296215D01*
X17895000Y-18375001D01*
X17895005Y-18375000D01*
X20865401Y-18375000D01*
X21073899Y-18687038D01*
X21691925Y-19099991D01*
X22420937Y-19245000D01*
X22596826Y-19245000D01*
X22662815Y-19576748D01*
X22941368Y-19993632D01*
X24085272Y-21137536D01*
X24067560Y-21225000D01*
X24067560Y-24005000D01*
X23654802Y-24005000D01*
X22157401Y-22507599D01*
X21910839Y-22342852D01*
X21620000Y-22285000D01*
X18740000Y-22285000D01*
X18449161Y-22342852D01*
X18202599Y-22507599D01*
X16885000Y-23825198D01*
X16885000Y-23648691D01*
X16788327Y-23415302D01*
X16609699Y-23236673D01*
X16376310Y-23140000D01*
X15935750Y-23140000D01*
X15777000Y-23298750D01*
X15777000Y-24148000D01*
X15797000Y-24148000D01*
X15797000Y-24402000D01*
X15777000Y-24402000D01*
X15777000Y-24422000D01*
X15523000Y-24422000D01*
X15523000Y-24402000D01*
X14573750Y-24402000D01*
X14415000Y-24560750D01*
X14415000Y-24901309D01*
X14511673Y-25134698D01*
X14652910Y-25275936D01*
X14598559Y-25310910D01*
X14453569Y-25523110D01*
X14402560Y-25775000D01*
X14402560Y-26775000D01*
X14446838Y-27010317D01*
X14585910Y-27226441D01*
X14798110Y-27371431D01*
X14804625Y-27372750D01*
X14715162Y-27588201D01*
X14714838Y-27960167D01*
X14715694Y-27962240D01*
X14664683Y-27971838D01*
X14448559Y-28110910D01*
X14303569Y-28323110D01*
X14252560Y-28575000D01*
X14252560Y-29025000D01*
X14272067Y-29128671D01*
X14252560Y-29225000D01*
X14252560Y-29675000D01*
X14272067Y-29778671D01*
X14252560Y-29875000D01*
X14252560Y-30325000D01*
X14265980Y-30396323D01*
X14265000Y-30398690D01*
X14265000Y-30478750D01*
X14285312Y-30499062D01*
X14296838Y-30560317D01*
X14420329Y-30752227D01*
X14303569Y-30923110D01*
X14288442Y-30997808D01*
X14265000Y-31021250D01*
X14265000Y-31101310D01*
X14266667Y-31105335D01*
X14254562Y-31165115D01*
X11369723Y-28280277D01*
X11131272Y-28120949D01*
X11031111Y-28101026D01*
X10851890Y-27978569D01*
X10600000Y-27927560D01*
X9100000Y-27927560D01*
X8864683Y-27971838D01*
X8648559Y-28110910D01*
X8503569Y-28323110D01*
X8452560Y-28575000D01*
X8452560Y-29025000D01*
X8472067Y-29128671D01*
X8452560Y-29225000D01*
X8452560Y-29675000D01*
X8472067Y-29778671D01*
X8452560Y-29875000D01*
X8452560Y-30325000D01*
X8472067Y-30428671D01*
X8452560Y-30525000D01*
X8452560Y-30975000D01*
X8472067Y-31078671D01*
X8452560Y-31175000D01*
X8452560Y-31625000D01*
X8472067Y-31728671D01*
X8452560Y-31825000D01*
X8452560Y-32275000D01*
X8472067Y-32378671D01*
X8452560Y-32475000D01*
X8452560Y-32925000D01*
X8465980Y-32996323D01*
X8465000Y-32998690D01*
X8465000Y-33078750D01*
X8485312Y-33099062D01*
X8496838Y-33160317D01*
X8635910Y-33376441D01*
X8761862Y-33462500D01*
X8623750Y-33462500D01*
X8465000Y-33621250D01*
X8465000Y-33701310D01*
X8500670Y-33787425D01*
X8452560Y-34025000D01*
X8452560Y-34475000D01*
X8472067Y-34578671D01*
X8452560Y-34675000D01*
X8452560Y-35125000D01*
X8472067Y-35228671D01*
X8452560Y-35325000D01*
X8452560Y-35333992D01*
X8286799Y-35265162D01*
X7914833Y-35264838D01*
X7571057Y-35406883D01*
X7307808Y-35669673D01*
X7165162Y-36013201D01*
X7164925Y-36285499D01*
X7154541Y-36278561D01*
X6835000Y-36215000D01*
X6192630Y-36215000D01*
X6183162Y-36164683D01*
X6044090Y-35948559D01*
X5831890Y-35803569D01*
X5818803Y-35800919D01*
X6031441Y-35664090D01*
X6176431Y-35451890D01*
X6205164Y-35310000D01*
X6272537Y-35310000D01*
X6304673Y-35342192D01*
X6648201Y-35484838D01*
X7020167Y-35485162D01*
X7363943Y-35343117D01*
X7627192Y-35080327D01*
X7769838Y-34736799D01*
X7770162Y-34364833D01*
X7628117Y-34021057D01*
X7365327Y-33757808D01*
X7021799Y-33615162D01*
X6649833Y-33614838D01*
X6306057Y-33756883D01*
X6272882Y-33790000D01*
X6206742Y-33790000D01*
X6183162Y-33664683D01*
X6044090Y-33448559D01*
X5831890Y-33303569D01*
X5818803Y-33300919D01*
X6031441Y-33164090D01*
X6176431Y-32951890D01*
X6227440Y-32700000D01*
X6227440Y-31400000D01*
X6183162Y-31164683D01*
X6044090Y-30948559D01*
X5831890Y-30803569D01*
X5580000Y-30752560D01*
X1580000Y-30752560D01*
X1344683Y-30796838D01*
X1325000Y-30809504D01*
X1325000Y-24925560D01*
X5464431Y-24925560D01*
X5963489Y-26133372D01*
X6886767Y-27058264D01*
X8093706Y-27559429D01*
X9400560Y-27560569D01*
X10608372Y-27061511D01*
X11533264Y-26138233D01*
X12034429Y-24931294D01*
X12035547Y-23648691D01*
X14415000Y-23648691D01*
X14415000Y-23989250D01*
X14573750Y-24148000D01*
X15523000Y-24148000D01*
X15523000Y-23298750D01*
X15364250Y-23140000D01*
X14923690Y-23140000D01*
X14690301Y-23236673D01*
X14511673Y-23415302D01*
X14415000Y-23648691D01*
X12035547Y-23648691D01*
X12035569Y-23624440D01*
X11536511Y-22416628D01*
X10613233Y-21491736D01*
X9406294Y-20990571D01*
X8099440Y-20989431D01*
X6891628Y-21488489D01*
X5966736Y-22411767D01*
X5465571Y-23618706D01*
X5464431Y-24925560D01*
X1325000Y-24925560D01*
X1325000Y-21731695D01*
X1453690Y-21785000D01*
X3294250Y-21785000D01*
X3453000Y-21626250D01*
X3453000Y-20627000D01*
X3707000Y-20627000D01*
X3707000Y-21626250D01*
X3865750Y-21785000D01*
X5706310Y-21785000D01*
X5939699Y-21688327D01*
X6118327Y-21509698D01*
X6215000Y-21276309D01*
X6215000Y-20785750D01*
X6056250Y-20627000D01*
X3707000Y-20627000D01*
X3453000Y-20627000D01*
X3433000Y-20627000D01*
X3433000Y-20373000D01*
X3453000Y-20373000D01*
X3453000Y-20353000D01*
X3707000Y-20353000D01*
X3707000Y-20373000D01*
X6056250Y-20373000D01*
X6215000Y-20214250D01*
X6215000Y-19723691D01*
X6118327Y-19490302D01*
X5939699Y-19311673D01*
X5803713Y-19255346D01*
X5815317Y-19253162D01*
X6031441Y-19114090D01*
X6176431Y-18901890D01*
X6189977Y-18835000D01*
X6407766Y-18835000D01*
X6648201Y-18934838D01*
X7020167Y-18935162D01*
X7363943Y-18793117D01*
X7627192Y-18530327D01*
X7769838Y-18186799D01*
X7770162Y-17814833D01*
X7628117Y-17471057D01*
X7365327Y-17207808D01*
X7021799Y-17065162D01*
X6649833Y-17064838D01*
X6407422Y-17165000D01*
X6192630Y-17165000D01*
X6183162Y-17114683D01*
X6044090Y-16898559D01*
X5831890Y-16753569D01*
X5818803Y-16750919D01*
X6031441Y-16614090D01*
X6176431Y-16401890D01*
X6205164Y-16260000D01*
X6272537Y-16260000D01*
X6304673Y-16292192D01*
X6648201Y-16434838D01*
X7020167Y-16435162D01*
X7363943Y-16293117D01*
X7627192Y-16030327D01*
X7769838Y-15686799D01*
X7770162Y-15314833D01*
X7628117Y-14971057D01*
X7365327Y-14707808D01*
X7021799Y-14565162D01*
X6649833Y-14564838D01*
X6306057Y-14706883D01*
X6272882Y-14740000D01*
X6206742Y-14740000D01*
X6183162Y-14614683D01*
X6044090Y-14398559D01*
X5831890Y-14253569D01*
X5818803Y-14250919D01*
X6031441Y-14114090D01*
X6176431Y-13901890D01*
X6227440Y-13650000D01*
X6227440Y-12350000D01*
X6183162Y-12114683D01*
X6044090Y-11898559D01*
X5831890Y-11753569D01*
X5580000Y-11702560D01*
X1580000Y-11702560D01*
X1544465Y-11709246D01*
X2333711Y-10920000D01*
X10011288Y-10920000D01*
X17163142Y-18071853D01*
X17163142Y-18071853D01*
G37*
X17163142Y-18071853D02*
X17163144Y-18071856D01*
X17452895Y-18265460D01*
X17498923Y-18296215D01*
X17895000Y-18375001D01*
X17895005Y-18375000D01*
X20865401Y-18375000D01*
X21073899Y-18687038D01*
X21691925Y-19099991D01*
X22420937Y-19245000D01*
X22596826Y-19245000D01*
X22662815Y-19576748D01*
X22941368Y-19993632D01*
X24085272Y-21137536D01*
X24067560Y-21225000D01*
X24067560Y-24005000D01*
X23654802Y-24005000D01*
X22157401Y-22507599D01*
X21910839Y-22342852D01*
X21620000Y-22285000D01*
X18740000Y-22285000D01*
X18449161Y-22342852D01*
X18202599Y-22507599D01*
X16885000Y-23825198D01*
X16885000Y-23648691D01*
X16788327Y-23415302D01*
X16609699Y-23236673D01*
X16376310Y-23140000D01*
X15935750Y-23140000D01*
X15777000Y-23298750D01*
X15777000Y-24148000D01*
X15797000Y-24148000D01*
X15797000Y-24402000D01*
X15777000Y-24402000D01*
X15777000Y-24422000D01*
X15523000Y-24422000D01*
X15523000Y-24402000D01*
X14573750Y-24402000D01*
X14415000Y-24560750D01*
X14415000Y-24901309D01*
X14511673Y-25134698D01*
X14652910Y-25275936D01*
X14598559Y-25310910D01*
X14453569Y-25523110D01*
X14402560Y-25775000D01*
X14402560Y-26775000D01*
X14446838Y-27010317D01*
X14585910Y-27226441D01*
X14798110Y-27371431D01*
X14804625Y-27372750D01*
X14715162Y-27588201D01*
X14714838Y-27960167D01*
X14715694Y-27962240D01*
X14664683Y-27971838D01*
X14448559Y-28110910D01*
X14303569Y-28323110D01*
X14252560Y-28575000D01*
X14252560Y-29025000D01*
X14272067Y-29128671D01*
X14252560Y-29225000D01*
X14252560Y-29675000D01*
X14272067Y-29778671D01*
X14252560Y-29875000D01*
X14252560Y-30325000D01*
X14265980Y-30396323D01*
X14265000Y-30398690D01*
X14265000Y-30478750D01*
X14285312Y-30499062D01*
X14296838Y-30560317D01*
X14420329Y-30752227D01*
X14303569Y-30923110D01*
X14288442Y-30997808D01*
X14265000Y-31021250D01*
X14265000Y-31101310D01*
X14266667Y-31105335D01*
X14254562Y-31165115D01*
X11369723Y-28280277D01*
X11131272Y-28120949D01*
X11031111Y-28101026D01*
X10851890Y-27978569D01*
X10600000Y-27927560D01*
X9100000Y-27927560D01*
X8864683Y-27971838D01*
X8648559Y-28110910D01*
X8503569Y-28323110D01*
X8452560Y-28575000D01*
X8452560Y-29025000D01*
X8472067Y-29128671D01*
X8452560Y-29225000D01*
X8452560Y-29675000D01*
X8472067Y-29778671D01*
X8452560Y-29875000D01*
X8452560Y-30325000D01*
X8472067Y-30428671D01*
X8452560Y-30525000D01*
X8452560Y-30975000D01*
X8472067Y-31078671D01*
X8452560Y-31175000D01*
X8452560Y-31625000D01*
X8472067Y-31728671D01*
X8452560Y-31825000D01*
X8452560Y-32275000D01*
X8472067Y-32378671D01*
X8452560Y-32475000D01*
X8452560Y-32925000D01*
X8465980Y-32996323D01*
X8465000Y-32998690D01*
X8465000Y-33078750D01*
X8485312Y-33099062D01*
X8496838Y-33160317D01*
X8635910Y-33376441D01*
X8761862Y-33462500D01*
X8623750Y-33462500D01*
X8465000Y-33621250D01*
X8465000Y-33701310D01*
X8500670Y-33787425D01*
X8452560Y-34025000D01*
X8452560Y-34475000D01*
X8472067Y-34578671D01*
X8452560Y-34675000D01*
X8452560Y-35125000D01*
X8472067Y-35228671D01*
X8452560Y-35325000D01*
X8452560Y-35333992D01*
X8286799Y-35265162D01*
X7914833Y-35264838D01*
X7571057Y-35406883D01*
X7307808Y-35669673D01*
X7165162Y-36013201D01*
X7164925Y-36285499D01*
X7154541Y-36278561D01*
X6835000Y-36215000D01*
X6192630Y-36215000D01*
X6183162Y-36164683D01*
X6044090Y-35948559D01*
X5831890Y-35803569D01*
X5818803Y-35800919D01*
X6031441Y-35664090D01*
X6176431Y-35451890D01*
X6205164Y-35310000D01*
X6272537Y-35310000D01*
X6304673Y-35342192D01*
X6648201Y-35484838D01*
X7020167Y-35485162D01*
X7363943Y-35343117D01*
X7627192Y-35080327D01*
X7769838Y-34736799D01*
X7770162Y-34364833D01*
X7628117Y-34021057D01*
X7365327Y-33757808D01*
X7021799Y-33615162D01*
X6649833Y-33614838D01*
X6306057Y-33756883D01*
X6272882Y-33790000D01*
X6206742Y-33790000D01*
X6183162Y-33664683D01*
X6044090Y-33448559D01*
X5831890Y-33303569D01*
X5818803Y-33300919D01*
X6031441Y-33164090D01*
X6176431Y-32951890D01*
X6227440Y-32700000D01*
X6227440Y-31400000D01*
X6183162Y-31164683D01*
X6044090Y-30948559D01*
X5831890Y-30803569D01*
X5580000Y-30752560D01*
X1580000Y-30752560D01*
X1344683Y-30796838D01*
X1325000Y-30809504D01*
X1325000Y-24925560D01*
X5464431Y-24925560D01*
X5963489Y-26133372D01*
X6886767Y-27058264D01*
X8093706Y-27559429D01*
X9400560Y-27560569D01*
X10608372Y-27061511D01*
X11533264Y-26138233D01*
X12034429Y-24931294D01*
X12035547Y-23648691D01*
X14415000Y-23648691D01*
X14415000Y-23989250D01*
X14573750Y-24148000D01*
X15523000Y-24148000D01*
X15523000Y-23298750D01*
X15364250Y-23140000D01*
X14923690Y-23140000D01*
X14690301Y-23236673D01*
X14511673Y-23415302D01*
X14415000Y-23648691D01*
X12035547Y-23648691D01*
X12035569Y-23624440D01*
X11536511Y-22416628D01*
X10613233Y-21491736D01*
X9406294Y-20990571D01*
X8099440Y-20989431D01*
X6891628Y-21488489D01*
X5966736Y-22411767D01*
X5465571Y-23618706D01*
X5464431Y-24925560D01*
X1325000Y-24925560D01*
X1325000Y-21731695D01*
X1453690Y-21785000D01*
X3294250Y-21785000D01*
X3453000Y-21626250D01*
X3453000Y-20627000D01*
X3707000Y-20627000D01*
X3707000Y-21626250D01*
X3865750Y-21785000D01*
X5706310Y-21785000D01*
X5939699Y-21688327D01*
X6118327Y-21509698D01*
X6215000Y-21276309D01*
X6215000Y-20785750D01*
X6056250Y-20627000D01*
X3707000Y-20627000D01*
X3453000Y-20627000D01*
X3433000Y-20627000D01*
X3433000Y-20373000D01*
X3453000Y-20373000D01*
X3453000Y-20353000D01*
X3707000Y-20353000D01*
X3707000Y-20373000D01*
X6056250Y-20373000D01*
X6215000Y-20214250D01*
X6215000Y-19723691D01*
X6118327Y-19490302D01*
X5939699Y-19311673D01*
X5803713Y-19255346D01*
X5815317Y-19253162D01*
X6031441Y-19114090D01*
X6176431Y-18901890D01*
X6189977Y-18835000D01*
X6407766Y-18835000D01*
X6648201Y-18934838D01*
X7020167Y-18935162D01*
X7363943Y-18793117D01*
X7627192Y-18530327D01*
X7769838Y-18186799D01*
X7770162Y-17814833D01*
X7628117Y-17471057D01*
X7365327Y-17207808D01*
X7021799Y-17065162D01*
X6649833Y-17064838D01*
X6407422Y-17165000D01*
X6192630Y-17165000D01*
X6183162Y-17114683D01*
X6044090Y-16898559D01*
X5831890Y-16753569D01*
X5818803Y-16750919D01*
X6031441Y-16614090D01*
X6176431Y-16401890D01*
X6205164Y-16260000D01*
X6272537Y-16260000D01*
X6304673Y-16292192D01*
X6648201Y-16434838D01*
X7020167Y-16435162D01*
X7363943Y-16293117D01*
X7627192Y-16030327D01*
X7769838Y-15686799D01*
X7770162Y-15314833D01*
X7628117Y-14971057D01*
X7365327Y-14707808D01*
X7021799Y-14565162D01*
X6649833Y-14564838D01*
X6306057Y-14706883D01*
X6272882Y-14740000D01*
X6206742Y-14740000D01*
X6183162Y-14614683D01*
X6044090Y-14398559D01*
X5831890Y-14253569D01*
X5818803Y-14250919D01*
X6031441Y-14114090D01*
X6176431Y-13901890D01*
X6227440Y-13650000D01*
X6227440Y-12350000D01*
X6183162Y-12114683D01*
X6044090Y-11898559D01*
X5831890Y-11753569D01*
X5580000Y-11702560D01*
X1580000Y-11702560D01*
X1544465Y-11709246D01*
X2333711Y-10920000D01*
X10011288Y-10920000D01*
X17163142Y-18071853D01*
G36*
X47065000Y-3453690D02*
X47065000Y-5294250D01*
X47223750Y-5453000D01*
X48223000Y-5453000D01*
X48223000Y-5433000D01*
X48477000Y-5433000D01*
X48477000Y-5453000D01*
X48497000Y-5453000D01*
X48497000Y-5707000D01*
X48477000Y-5707000D01*
X48477000Y-8056250D01*
X48635750Y-8215000D01*
X49126309Y-8215000D01*
X49359698Y-8118327D01*
X49538327Y-7939699D01*
X49594654Y-7803713D01*
X49596838Y-7815317D01*
X49735910Y-8031441D01*
X49948110Y-8176431D01*
X50015000Y-8189977D01*
X50015000Y-8489132D01*
X46259566Y-12244566D01*
X46078561Y-12515459D01*
X46015000Y-12835000D01*
X46015000Y-18585000D01*
X46078561Y-18904541D01*
X46211541Y-19103560D01*
X46259566Y-19175434D01*
X47872465Y-20788333D01*
X47971883Y-21028943D01*
X48234673Y-21292192D01*
X48578201Y-21434838D01*
X48950167Y-21435162D01*
X49293943Y-21293117D01*
X49382799Y-21204416D01*
X49416838Y-21385317D01*
X49555910Y-21601441D01*
X49768110Y-21746431D01*
X50020000Y-21797440D01*
X54020000Y-21797440D01*
X54255317Y-21753162D01*
X54275000Y-21740496D01*
X54275000Y-30818305D01*
X54146310Y-30765000D01*
X52305750Y-30765000D01*
X52147000Y-30923750D01*
X52147000Y-31923000D01*
X52167000Y-31923000D01*
X52167000Y-32177000D01*
X52147000Y-32177000D01*
X52147000Y-32197000D01*
X51893000Y-32197000D01*
X51893000Y-32177000D01*
X51873000Y-32177000D01*
X51873000Y-31923000D01*
X51893000Y-31923000D01*
X51893000Y-30923750D01*
X51734250Y-30765000D01*
X49893690Y-30765000D01*
X49865000Y-30776884D01*
X49865000Y-30610868D01*
X52308333Y-28167535D01*
X52548943Y-28068117D01*
X52812192Y-27805327D01*
X52954838Y-27461799D01*
X52955162Y-27089833D01*
X52813117Y-26746057D01*
X52550327Y-26482808D01*
X52206799Y-26340162D01*
X51834833Y-26339838D01*
X51491057Y-26481883D01*
X51227808Y-26744673D01*
X51127222Y-26986910D01*
X48439566Y-29674566D01*
X48258561Y-29945459D01*
X48195000Y-30265000D01*
X48195000Y-32072769D01*
X48030327Y-31907808D01*
X47686799Y-31765162D01*
X47314833Y-31764838D01*
X47147440Y-31834003D01*
X47147440Y-31825000D01*
X47127933Y-31721329D01*
X47147440Y-31625000D01*
X47147440Y-31175000D01*
X47127933Y-31071329D01*
X47147440Y-30975000D01*
X47147440Y-30525000D01*
X47127933Y-30421329D01*
X47147440Y-30325000D01*
X47147440Y-29875000D01*
X47127933Y-29771329D01*
X47147440Y-29675000D01*
X47147440Y-29225000D01*
X47134020Y-29153677D01*
X47135000Y-29151310D01*
X47135000Y-29071250D01*
X47114688Y-29050938D01*
X47103162Y-28989683D01*
X46964090Y-28773559D01*
X46838138Y-28687500D01*
X46976250Y-28687500D01*
X47135000Y-28528750D01*
X47135000Y-28448690D01*
X47038327Y-28215301D01*
X46859698Y-28036673D01*
X46626309Y-27940000D01*
X46035750Y-27940000D01*
X45877000Y-28098750D01*
X45877000Y-28577560D01*
X45623000Y-28577560D01*
X45623000Y-28098750D01*
X45464250Y-27940000D01*
X44873691Y-27940000D01*
X44640302Y-28036673D01*
X44461673Y-28215301D01*
X44365000Y-28448690D01*
X44365000Y-28528750D01*
X44523750Y-28687500D01*
X44662641Y-28687500D01*
X44561697Y-28752456D01*
X44468728Y-28770949D01*
X44230276Y-28930277D01*
X41345558Y-31814996D01*
X41334020Y-31753677D01*
X41335000Y-31751310D01*
X41335000Y-31671250D01*
X41314688Y-31650938D01*
X41303162Y-31589683D01*
X41179671Y-31397773D01*
X41296431Y-31226890D01*
X41311558Y-31152192D01*
X41335000Y-31128750D01*
X41335000Y-31048690D01*
X41333333Y-31044665D01*
X41347440Y-30975000D01*
X41347440Y-30525000D01*
X41327933Y-30421329D01*
X41347440Y-30325000D01*
X41347440Y-30110410D01*
X41505079Y-30005079D01*
X41805079Y-29705079D01*
X41975245Y-29450407D01*
X42035000Y-29150000D01*
X42035000Y-28075000D01*
X41975245Y-27774594D01*
X41975245Y-27774593D01*
X41805079Y-27519921D01*
X41505079Y-27219921D01*
X41250407Y-27049755D01*
X41145118Y-27028812D01*
X41146431Y-27026890D01*
X41197440Y-26775000D01*
X41197440Y-25775000D01*
X41153162Y-25539683D01*
X41014090Y-25323559D01*
X40945994Y-25277031D01*
X41088327Y-25134698D01*
X41174954Y-24925560D01*
X43564431Y-24925560D01*
X44063489Y-26133372D01*
X44986767Y-27058264D01*
X46193706Y-27559429D01*
X47500560Y-27560569D01*
X48708372Y-27061511D01*
X49633264Y-26138233D01*
X50134429Y-24931294D01*
X50135569Y-23624440D01*
X49636511Y-22416628D01*
X48713233Y-21491736D01*
X47506294Y-20990571D01*
X46199440Y-20989431D01*
X44991628Y-21488489D01*
X44066736Y-22411767D01*
X43565571Y-23618706D01*
X43564431Y-24925560D01*
X41174954Y-24925560D01*
X41185000Y-24901309D01*
X41185000Y-24560750D01*
X41026250Y-24402000D01*
X40077000Y-24402000D01*
X40077000Y-24422000D01*
X39823000Y-24422000D01*
X39823000Y-24402000D01*
X39803000Y-24402000D01*
X39803000Y-24148000D01*
X39823000Y-24148000D01*
X39823000Y-23298750D01*
X40077000Y-23298750D01*
X40077000Y-24148000D01*
X41026250Y-24148000D01*
X41185000Y-23989250D01*
X41185000Y-23648691D01*
X41088327Y-23415302D01*
X40909699Y-23236673D01*
X40676310Y-23140000D01*
X40235750Y-23140000D01*
X40077000Y-23298750D01*
X39823000Y-23298750D01*
X39664250Y-23140000D01*
X39223690Y-23140000D01*
X38990301Y-23236673D01*
X38811673Y-23415302D01*
X38715000Y-23648691D01*
X38715000Y-23805198D01*
X37417401Y-22507599D01*
X37170839Y-22342852D01*
X36880000Y-22285000D01*
X33980000Y-22285000D01*
X33689160Y-22342852D01*
X33442599Y-22507599D01*
X31945198Y-24005000D01*
X31520000Y-24005000D01*
X31520000Y-23010750D01*
X31361250Y-22852000D01*
X30212000Y-22852000D01*
X30212000Y-22872000D01*
X29958000Y-22872000D01*
X29958000Y-22852000D01*
X28808750Y-22852000D01*
X28650000Y-23010750D01*
X28650000Y-24005000D01*
X26962440Y-24005000D01*
X26962440Y-21225000D01*
X26938674Y-21098691D01*
X28650000Y-21098691D01*
X28650000Y-22439250D01*
X28808750Y-22598000D01*
X29958000Y-22598000D01*
X29958000Y-20748750D01*
X30212000Y-20748750D01*
X30212000Y-22598000D01*
X31361250Y-22598000D01*
X31520000Y-22439250D01*
X31520000Y-21098691D01*
X31423327Y-20865302D01*
X31244699Y-20686673D01*
X31011310Y-20590000D01*
X30370750Y-20590000D01*
X30212000Y-20748750D01*
X29958000Y-20748750D01*
X29799250Y-20590000D01*
X29158690Y-20590000D01*
X28925301Y-20686673D01*
X28746673Y-20865302D01*
X28650000Y-21098691D01*
X26938674Y-21098691D01*
X26918162Y-20989683D01*
X26800000Y-20806054D01*
X26800000Y-20750000D01*
X26702185Y-20258252D01*
X26525372Y-19993632D01*
X26423633Y-19841368D01*
X25736312Y-19154048D01*
X26008075Y-19099991D01*
X26626101Y-18687038D01*
X27039054Y-18069012D01*
X27052652Y-18000647D01*
X28598224Y-18000647D01*
X28774211Y-18423288D01*
X29311381Y-18957250D01*
X30012000Y-19245000D01*
X31377000Y-19245000D01*
X31377000Y-17713000D01*
X32123000Y-17713000D01*
X32123000Y-19245000D01*
X33488000Y-19245000D01*
X34188619Y-18957250D01*
X34725789Y-18423288D01*
X34901776Y-18000647D01*
X34820948Y-17713000D01*
X32123000Y-17713000D01*
X31377000Y-17713000D01*
X28679052Y-17713000D01*
X28598224Y-18000647D01*
X27052652Y-18000647D01*
X27184063Y-17340000D01*
X27052653Y-16679353D01*
X28598224Y-16679353D01*
X28679052Y-16967000D01*
X31377000Y-16967000D01*
X31377000Y-15435000D01*
X32123000Y-15435000D01*
X32123000Y-16967000D01*
X34820948Y-16967000D01*
X34901776Y-16679353D01*
X34725789Y-16256712D01*
X34188619Y-15722750D01*
X33488000Y-15435000D01*
X32123000Y-15435000D01*
X31377000Y-15435000D01*
X30012000Y-15435000D01*
X29311381Y-15722750D01*
X28774211Y-16256712D01*
X28598224Y-16679353D01*
X27052653Y-16679353D01*
X27039054Y-16610988D01*
X26626101Y-15992962D01*
X26008075Y-15580009D01*
X25279063Y-15435000D01*
X24885000Y-15435000D01*
X24885000Y-15088712D01*
X33071485Y-6902226D01*
X37519579Y-6902226D01*
X37889504Y-7797514D01*
X38573883Y-8483088D01*
X39468524Y-8854576D01*
X40437226Y-8855421D01*
X41332514Y-8485496D01*
X42018088Y-7801117D01*
X42389576Y-6906476D01*
X42390421Y-5937774D01*
X42360662Y-5865750D01*
X47065000Y-5865750D01*
X47065000Y-7706310D01*
X47161673Y-7939699D01*
X47340302Y-8118327D01*
X47573691Y-8215000D01*
X48064250Y-8215000D01*
X48223000Y-8056250D01*
X48223000Y-5707000D01*
X47223750Y-5707000D01*
X47065000Y-5865750D01*
X42360662Y-5865750D01*
X42020496Y-5042486D01*
X41336117Y-4356912D01*
X40441476Y-3985424D01*
X39472774Y-3984579D01*
X38577486Y-4354504D01*
X37891912Y-5038883D01*
X37520424Y-5933524D01*
X37519579Y-6902226D01*
X33071485Y-6902226D01*
X36648711Y-3325000D01*
X47118305Y-3325000D01*
X47065000Y-3453690D01*
X47065000Y-3453690D01*
G37*
X47065000Y-3453690D02*
X47065000Y-5294250D01*
X47223750Y-5453000D01*
X48223000Y-5453000D01*
X48223000Y-5433000D01*
X48477000Y-5433000D01*
X48477000Y-5453000D01*
X48497000Y-5453000D01*
X48497000Y-5707000D01*
X48477000Y-5707000D01*
X48477000Y-8056250D01*
X48635750Y-8215000D01*
X49126309Y-8215000D01*
X49359698Y-8118327D01*
X49538327Y-7939699D01*
X49594654Y-7803713D01*
X49596838Y-7815317D01*
X49735910Y-8031441D01*
X49948110Y-8176431D01*
X50015000Y-8189977D01*
X50015000Y-8489132D01*
X46259566Y-12244566D01*
X46078561Y-12515459D01*
X46015000Y-12835000D01*
X46015000Y-18585000D01*
X46078561Y-18904541D01*
X46211541Y-19103560D01*
X46259566Y-19175434D01*
X47872465Y-20788333D01*
X47971883Y-21028943D01*
X48234673Y-21292192D01*
X48578201Y-21434838D01*
X48950167Y-21435162D01*
X49293943Y-21293117D01*
X49382799Y-21204416D01*
X49416838Y-21385317D01*
X49555910Y-21601441D01*
X49768110Y-21746431D01*
X50020000Y-21797440D01*
X54020000Y-21797440D01*
X54255317Y-21753162D01*
X54275000Y-21740496D01*
X54275000Y-30818305D01*
X54146310Y-30765000D01*
X52305750Y-30765000D01*
X52147000Y-30923750D01*
X52147000Y-31923000D01*
X52167000Y-31923000D01*
X52167000Y-32177000D01*
X52147000Y-32177000D01*
X52147000Y-32197000D01*
X51893000Y-32197000D01*
X51893000Y-32177000D01*
X51873000Y-32177000D01*
X51873000Y-31923000D01*
X51893000Y-31923000D01*
X51893000Y-30923750D01*
X51734250Y-30765000D01*
X49893690Y-30765000D01*
X49865000Y-30776884D01*
X49865000Y-30610868D01*
X52308333Y-28167535D01*
X52548943Y-28068117D01*
X52812192Y-27805327D01*
X52954838Y-27461799D01*
X52955162Y-27089833D01*
X52813117Y-26746057D01*
X52550327Y-26482808D01*
X52206799Y-26340162D01*
X51834833Y-26339838D01*
X51491057Y-26481883D01*
X51227808Y-26744673D01*
X51127222Y-26986910D01*
X48439566Y-29674566D01*
X48258561Y-29945459D01*
X48195000Y-30265000D01*
X48195000Y-32072769D01*
X48030327Y-31907808D01*
X47686799Y-31765162D01*
X47314833Y-31764838D01*
X47147440Y-31834003D01*
X47147440Y-31825000D01*
X47127933Y-31721329D01*
X47147440Y-31625000D01*
X47147440Y-31175000D01*
X47127933Y-31071329D01*
X47147440Y-30975000D01*
X47147440Y-30525000D01*
X47127933Y-30421329D01*
X47147440Y-30325000D01*
X47147440Y-29875000D01*
X47127933Y-29771329D01*
X47147440Y-29675000D01*
X47147440Y-29225000D01*
X47134020Y-29153677D01*
X47135000Y-29151310D01*
X47135000Y-29071250D01*
X47114688Y-29050938D01*
X47103162Y-28989683D01*
X46964090Y-28773559D01*
X46838138Y-28687500D01*
X46976250Y-28687500D01*
X47135000Y-28528750D01*
X47135000Y-28448690D01*
X47038327Y-28215301D01*
X46859698Y-28036673D01*
X46626309Y-27940000D01*
X46035750Y-27940000D01*
X45877000Y-28098750D01*
X45877000Y-28577560D01*
X45623000Y-28577560D01*
X45623000Y-28098750D01*
X45464250Y-27940000D01*
X44873691Y-27940000D01*
X44640302Y-28036673D01*
X44461673Y-28215301D01*
X44365000Y-28448690D01*
X44365000Y-28528750D01*
X44523750Y-28687500D01*
X44662641Y-28687500D01*
X44561697Y-28752456D01*
X44468728Y-28770949D01*
X44230276Y-28930277D01*
X41345558Y-31814996D01*
X41334020Y-31753677D01*
X41335000Y-31751310D01*
X41335000Y-31671250D01*
X41314688Y-31650938D01*
X41303162Y-31589683D01*
X41179671Y-31397773D01*
X41296431Y-31226890D01*
X41311558Y-31152192D01*
X41335000Y-31128750D01*
X41335000Y-31048690D01*
X41333333Y-31044665D01*
X41347440Y-30975000D01*
X41347440Y-30525000D01*
X41327933Y-30421329D01*
X41347440Y-30325000D01*
X41347440Y-30110410D01*
X41505079Y-30005079D01*
X41805079Y-29705079D01*
X41975245Y-29450407D01*
X42035000Y-29150000D01*
X42035000Y-28075000D01*
X41975245Y-27774594D01*
X41975245Y-27774593D01*
X41805079Y-27519921D01*
X41505079Y-27219921D01*
X41250407Y-27049755D01*
X41145118Y-27028812D01*
X41146431Y-27026890D01*
X41197440Y-26775000D01*
X41197440Y-25775000D01*
X41153162Y-25539683D01*
X41014090Y-25323559D01*
X40945994Y-25277031D01*
X41088327Y-25134698D01*
X41174954Y-24925560D01*
X43564431Y-24925560D01*
X44063489Y-26133372D01*
X44986767Y-27058264D01*
X46193706Y-27559429D01*
X47500560Y-27560569D01*
X48708372Y-27061511D01*
X49633264Y-26138233D01*
X50134429Y-24931294D01*
X50135569Y-23624440D01*
X49636511Y-22416628D01*
X48713233Y-21491736D01*
X47506294Y-20990571D01*
X46199440Y-20989431D01*
X44991628Y-21488489D01*
X44066736Y-22411767D01*
X43565571Y-23618706D01*
X43564431Y-24925560D01*
X41174954Y-24925560D01*
X41185000Y-24901309D01*
X41185000Y-24560750D01*
X41026250Y-24402000D01*
X40077000Y-24402000D01*
X40077000Y-24422000D01*
X39823000Y-24422000D01*
X39823000Y-24402000D01*
X39803000Y-24402000D01*
X39803000Y-24148000D01*
X39823000Y-24148000D01*
X39823000Y-23298750D01*
X40077000Y-23298750D01*
X40077000Y-24148000D01*
X41026250Y-24148000D01*
X41185000Y-23989250D01*
X41185000Y-23648691D01*
X41088327Y-23415302D01*
X40909699Y-23236673D01*
X40676310Y-23140000D01*
X40235750Y-23140000D01*
X40077000Y-23298750D01*
X39823000Y-23298750D01*
X39664250Y-23140000D01*
X39223690Y-23140000D01*
X38990301Y-23236673D01*
X38811673Y-23415302D01*
X38715000Y-23648691D01*
X38715000Y-23805198D01*
X37417401Y-22507599D01*
X37170839Y-22342852D01*
X36880000Y-22285000D01*
X33980000Y-22285000D01*
X33689160Y-22342852D01*
X33442599Y-22507599D01*
X31945198Y-24005000D01*
X31520000Y-24005000D01*
X31520000Y-23010750D01*
X31361250Y-22852000D01*
X30212000Y-22852000D01*
X30212000Y-22872000D01*
X29958000Y-22872000D01*
X29958000Y-22852000D01*
X28808750Y-22852000D01*
X28650000Y-23010750D01*
X28650000Y-24005000D01*
X26962440Y-24005000D01*
X26962440Y-21225000D01*
X26938674Y-21098691D01*
X28650000Y-21098691D01*
X28650000Y-22439250D01*
X28808750Y-22598000D01*
X29958000Y-22598000D01*
X29958000Y-20748750D01*
X30212000Y-20748750D01*
X30212000Y-22598000D01*
X31361250Y-22598000D01*
X31520000Y-22439250D01*
X31520000Y-21098691D01*
X31423327Y-20865302D01*
X31244699Y-20686673D01*
X31011310Y-20590000D01*
X30370750Y-20590000D01*
X30212000Y-20748750D01*
X29958000Y-20748750D01*
X29799250Y-20590000D01*
X29158690Y-20590000D01*
X28925301Y-20686673D01*
X28746673Y-20865302D01*
X28650000Y-21098691D01*
X26938674Y-21098691D01*
X26918162Y-20989683D01*
X26800000Y-20806054D01*
X26800000Y-20750000D01*
X26702185Y-20258252D01*
X26525372Y-19993632D01*
X26423633Y-19841368D01*
X25736312Y-19154048D01*
X26008075Y-19099991D01*
X26626101Y-18687038D01*
X27039054Y-18069012D01*
X27052652Y-18000647D01*
X28598224Y-18000647D01*
X28774211Y-18423288D01*
X29311381Y-18957250D01*
X30012000Y-19245000D01*
X31377000Y-19245000D01*
X31377000Y-17713000D01*
X32123000Y-17713000D01*
X32123000Y-19245000D01*
X33488000Y-19245000D01*
X34188619Y-18957250D01*
X34725789Y-18423288D01*
X34901776Y-18000647D01*
X34820948Y-17713000D01*
X32123000Y-17713000D01*
X31377000Y-17713000D01*
X28679052Y-17713000D01*
X28598224Y-18000647D01*
X27052652Y-18000647D01*
X27184063Y-17340000D01*
X27052653Y-16679353D01*
X28598224Y-16679353D01*
X28679052Y-16967000D01*
X31377000Y-16967000D01*
X31377000Y-15435000D01*
X32123000Y-15435000D01*
X32123000Y-16967000D01*
X34820948Y-16967000D01*
X34901776Y-16679353D01*
X34725789Y-16256712D01*
X34188619Y-15722750D01*
X33488000Y-15435000D01*
X32123000Y-15435000D01*
X31377000Y-15435000D01*
X30012000Y-15435000D01*
X29311381Y-15722750D01*
X28774211Y-16256712D01*
X28598224Y-16679353D01*
X27052653Y-16679353D01*
X27039054Y-16610988D01*
X26626101Y-15992962D01*
X26008075Y-15580009D01*
X25279063Y-15435000D01*
X24885000Y-15435000D01*
X24885000Y-15088712D01*
X33071485Y-6902226D01*
X37519579Y-6902226D01*
X37889504Y-7797514D01*
X38573883Y-8483088D01*
X39468524Y-8854576D01*
X40437226Y-8855421D01*
X41332514Y-8485496D01*
X42018088Y-7801117D01*
X42389576Y-6906476D01*
X42390421Y-5937774D01*
X42360662Y-5865750D01*
X47065000Y-5865750D01*
X47065000Y-7706310D01*
X47161673Y-7939699D01*
X47340302Y-8118327D01*
X47573691Y-8215000D01*
X48064250Y-8215000D01*
X48223000Y-8056250D01*
X48223000Y-5707000D01*
X47223750Y-5707000D01*
X47065000Y-5865750D01*
X42360662Y-5865750D01*
X42020496Y-5042486D01*
X41336117Y-4356912D01*
X40441476Y-3985424D01*
X39472774Y-3984579D01*
X38577486Y-4354504D01*
X37891912Y-5038883D01*
X37520424Y-5933524D01*
X37519579Y-6902226D01*
X33071485Y-6902226D01*
X36648711Y-3325000D01*
X47118305Y-3325000D01*
X47065000Y-3453690D01*
G36*
X52235910Y-8031441D02*
X52448110Y-8176431D01*
X52590000Y-8205164D01*
X52590000Y-8272537D01*
X52557808Y-8304673D01*
X52415162Y-8648201D01*
X52414838Y-9020167D01*
X52556883Y-9363943D01*
X52819673Y-9627192D01*
X53163201Y-9769838D01*
X53535167Y-9770162D01*
X53878943Y-9628117D01*
X54142192Y-9365327D01*
X54275000Y-9045491D01*
X54275000Y-11768305D01*
X54146310Y-11715000D01*
X52305750Y-11715000D01*
X52147000Y-11873750D01*
X52147000Y-12873000D01*
X52167000Y-12873000D01*
X52167000Y-13127000D01*
X52147000Y-13127000D01*
X52147000Y-13147000D01*
X51893000Y-13147000D01*
X51893000Y-13127000D01*
X49543750Y-13127000D01*
X49385000Y-13285750D01*
X49385000Y-13776309D01*
X49481673Y-14009698D01*
X49660301Y-14188327D01*
X49796287Y-14244654D01*
X49784683Y-14246838D01*
X49568559Y-14385910D01*
X49423569Y-14598110D01*
X49410023Y-14665000D01*
X49192234Y-14665000D01*
X48951799Y-14565162D01*
X48579833Y-14564838D01*
X48236057Y-14706883D01*
X47972808Y-14969673D01*
X47830162Y-15313201D01*
X47829838Y-15685167D01*
X47971883Y-16028943D01*
X48234673Y-16292192D01*
X48578201Y-16434838D01*
X48950167Y-16435162D01*
X49192578Y-16335000D01*
X49407370Y-16335000D01*
X49416838Y-16385317D01*
X49555910Y-16601441D01*
X49768110Y-16746431D01*
X49781197Y-16749081D01*
X49568559Y-16885910D01*
X49423569Y-17098110D01*
X49394836Y-17240000D01*
X49327463Y-17240000D01*
X49295327Y-17207808D01*
X48951799Y-17065162D01*
X48579833Y-17064838D01*
X48236057Y-17206883D01*
X47972808Y-17469673D01*
X47830162Y-17813201D01*
X47829838Y-18185167D01*
X47969821Y-18523953D01*
X47685000Y-18239132D01*
X47685000Y-13180868D01*
X48642177Y-12223691D01*
X49385000Y-12223691D01*
X49385000Y-12714250D01*
X49543750Y-12873000D01*
X51893000Y-12873000D01*
X51893000Y-11873750D01*
X51734250Y-11715000D01*
X49893690Y-11715000D01*
X49660301Y-11811673D01*
X49481673Y-11990302D01*
X49385000Y-12223691D01*
X48642177Y-12223691D01*
X51440434Y-9425434D01*
X51621439Y-9154541D01*
X51685000Y-8835000D01*
X51685000Y-8192630D01*
X51735317Y-8183162D01*
X51951441Y-8044090D01*
X52096431Y-7831890D01*
X52099081Y-7818803D01*
X52235910Y-8031441D01*
X52235910Y-8031441D01*
G37*
X52235910Y-8031441D02*
X52448110Y-8176431D01*
X52590000Y-8205164D01*
X52590000Y-8272537D01*
X52557808Y-8304673D01*
X52415162Y-8648201D01*
X52414838Y-9020167D01*
X52556883Y-9363943D01*
X52819673Y-9627192D01*
X53163201Y-9769838D01*
X53535167Y-9770162D01*
X53878943Y-9628117D01*
X54142192Y-9365327D01*
X54275000Y-9045491D01*
X54275000Y-11768305D01*
X54146310Y-11715000D01*
X52305750Y-11715000D01*
X52147000Y-11873750D01*
X52147000Y-12873000D01*
X52167000Y-12873000D01*
X52167000Y-13127000D01*
X52147000Y-13127000D01*
X52147000Y-13147000D01*
X51893000Y-13147000D01*
X51893000Y-13127000D01*
X49543750Y-13127000D01*
X49385000Y-13285750D01*
X49385000Y-13776309D01*
X49481673Y-14009698D01*
X49660301Y-14188327D01*
X49796287Y-14244654D01*
X49784683Y-14246838D01*
X49568559Y-14385910D01*
X49423569Y-14598110D01*
X49410023Y-14665000D01*
X49192234Y-14665000D01*
X48951799Y-14565162D01*
X48579833Y-14564838D01*
X48236057Y-14706883D01*
X47972808Y-14969673D01*
X47830162Y-15313201D01*
X47829838Y-15685167D01*
X47971883Y-16028943D01*
X48234673Y-16292192D01*
X48578201Y-16434838D01*
X48950167Y-16435162D01*
X49192578Y-16335000D01*
X49407370Y-16335000D01*
X49416838Y-16385317D01*
X49555910Y-16601441D01*
X49768110Y-16746431D01*
X49781197Y-16749081D01*
X49568559Y-16885910D01*
X49423569Y-17098110D01*
X49394836Y-17240000D01*
X49327463Y-17240000D01*
X49295327Y-17207808D01*
X48951799Y-17065162D01*
X48579833Y-17064838D01*
X48236057Y-17206883D01*
X47972808Y-17469673D01*
X47830162Y-17813201D01*
X47829838Y-18185167D01*
X47969821Y-18523953D01*
X47685000Y-18239132D01*
X47685000Y-13180868D01*
X48642177Y-12223691D01*
X49385000Y-12223691D01*
X49385000Y-12714250D01*
X49543750Y-12873000D01*
X51893000Y-12873000D01*
X51893000Y-11873750D01*
X51734250Y-11715000D01*
X49893690Y-11715000D01*
X49660301Y-11811673D01*
X49481673Y-11990302D01*
X49385000Y-12223691D01*
X48642177Y-12223691D01*
X51440434Y-9425434D01*
X51621439Y-9154541D01*
X51685000Y-8835000D01*
X51685000Y-8192630D01*
X51735317Y-8183162D01*
X51951441Y-8044090D01*
X52096431Y-7831890D01*
X52099081Y-7818803D01*
X52235910Y-8031441D01*
G36*
X8902560Y-1000000D02*
X8946838Y-1235317D01*
X9085910Y-1451441D01*
X9298110Y-1596431D01*
X9550000Y-1647440D01*
X11350000Y-1647440D01*
X11585317Y-1603162D01*
X11801441Y-1464090D01*
X11946431Y-1251890D01*
X11997440Y-1000000D01*
X11997440Y2290000D01*
X19492574Y2290000D01*
X19485057Y2286894D01*
X19024722Y1827363D01*
X18775284Y1226648D01*
X18774716Y576205D01*
X19023106Y-24943D01*
X19482637Y-485278D01*
X20083352Y-734716D01*
X20733795Y-735284D01*
X21334943Y-486894D01*
X21795278Y-27363D01*
X22044716Y573352D01*
X22045284Y1223795D01*
X21796894Y1824943D01*
X21337363Y2285278D01*
X21325991Y2290000D01*
X34272574Y2290000D01*
X34265057Y2286894D01*
X33804722Y1827363D01*
X33555284Y1226648D01*
X33554716Y576205D01*
X33803106Y-24943D01*
X34262637Y-485278D01*
X34863352Y-734716D01*
X35513795Y-735284D01*
X36114943Y-486894D01*
X36575278Y-27363D01*
X36824716Y573352D01*
X36825284Y1223795D01*
X36576894Y1824943D01*
X36117363Y2285278D01*
X36105991Y2290000D01*
X43602560Y2290000D01*
X43602560Y-1000000D01*
X43646838Y-1235317D01*
X43659504Y-1255000D01*
X36220005Y-1255000D01*
X36220000Y-1254999D01*
X35823923Y-1333785D01*
X35488144Y-1558144D01*
X35488142Y-1558147D01*
X23118144Y-13928144D01*
X22893785Y-14263923D01*
X22814999Y-14660000D01*
X22815000Y-14660005D01*
X22815000Y-15435000D01*
X22420937Y-15435000D01*
X21691925Y-15580009D01*
X21073899Y-15992962D01*
X20865401Y-16305000D01*
X18323711Y-16305000D01*
X11171856Y-9153144D01*
X10836077Y-8928785D01*
X10440000Y-8849999D01*
X10439995Y-8850000D01*
X8285000Y-8850000D01*
X8285000Y-8086844D01*
X8351441Y-8044090D01*
X8496431Y-7831890D01*
X8547440Y-7580000D01*
X8547440Y-6902226D01*
X13209579Y-6902226D01*
X13579504Y-7797514D01*
X14263883Y-8483088D01*
X15158524Y-8854576D01*
X16127226Y-8855421D01*
X17022514Y-8485496D01*
X17708088Y-7801117D01*
X18079576Y-6906476D01*
X18080421Y-5937774D01*
X17710496Y-5042486D01*
X17026117Y-4356912D01*
X16131476Y-3985424D01*
X15162774Y-3984579D01*
X14267486Y-4354504D01*
X13581912Y-5038883D01*
X13210424Y-5933524D01*
X13209579Y-6902226D01*
X8547440Y-6902226D01*
X8547440Y-3580000D01*
X8503162Y-3344683D01*
X8364090Y-3128559D01*
X8151890Y-2983569D01*
X7900000Y-2932560D01*
X6600000Y-2932560D01*
X6364683Y-2976838D01*
X6148559Y-3115910D01*
X6003569Y-3328110D01*
X6000919Y-3341197D01*
X5864090Y-3128559D01*
X5651890Y-2983569D01*
X5510000Y-2954836D01*
X5510000Y-2887463D01*
X5542192Y-2855327D01*
X5684838Y-2511799D01*
X5685162Y-2139833D01*
X5543117Y-1796057D01*
X5280327Y-1532808D01*
X4936799Y-1390162D01*
X4564833Y-1389838D01*
X4221057Y-1531883D01*
X3957808Y-1794673D01*
X3815162Y-2138201D01*
X3814838Y-2510167D01*
X3956883Y-2853943D01*
X3990000Y-2887118D01*
X3990000Y-2953258D01*
X3864683Y-2976838D01*
X3648559Y-3115910D01*
X3503569Y-3328110D01*
X3500919Y-3341197D01*
X3364090Y-3128559D01*
X3151890Y-2983569D01*
X3085000Y-2970023D01*
X3085000Y-2752234D01*
X3184838Y-2511799D01*
X3185162Y-2139833D01*
X3043117Y-1796057D01*
X2780327Y-1532808D01*
X2436799Y-1390162D01*
X2064833Y-1389838D01*
X1721057Y-1531883D01*
X1457808Y-1794673D01*
X1315162Y-2138201D01*
X1314838Y-2510167D01*
X1415000Y-2752578D01*
X1415000Y-2967370D01*
X1364683Y-2976838D01*
X1148559Y-3115910D01*
X1003569Y-3328110D01*
X996809Y-3361490D01*
X938327Y-3220301D01*
X759698Y-3041673D01*
X526309Y-2945000D01*
X35750Y-2945000D01*
X-123000Y-3103750D01*
X-123000Y-5453000D01*
X-103000Y-5453000D01*
X-103000Y-5707000D01*
X-123000Y-5707000D01*
X-123000Y-8056250D01*
X35750Y-8215000D01*
X526309Y-8215000D01*
X759698Y-8118327D01*
X938327Y-7939699D01*
X994654Y-7803713D01*
X996838Y-7815317D01*
X1135910Y-8031441D01*
X1348110Y-8176431D01*
X1600000Y-8227440D01*
X2900000Y-8227440D01*
X3135317Y-8183162D01*
X3351441Y-8044090D01*
X3496431Y-7831890D01*
X3499081Y-7818803D01*
X3635910Y-8031441D01*
X3848110Y-8176431D01*
X4100000Y-8227440D01*
X5400000Y-8227440D01*
X5635317Y-8183162D01*
X5851441Y-8044090D01*
X5996431Y-7831890D01*
X5999081Y-7818803D01*
X6135910Y-8031441D01*
X6215000Y-8085481D01*
X6215000Y-8850000D01*
X1905005Y-8850000D01*
X1905000Y-8849999D01*
X1508923Y-8928785D01*
X1173144Y-9153144D01*
X1173142Y-9153147D01*
X-352560Y-10678848D01*
X-352560Y-8900000D01*
X-396838Y-8664683D01*
X-535910Y-8448559D01*
X-748110Y-8303569D01*
X-1000000Y-8252560D01*
X-4290000Y-8252560D01*
X-4290000Y-5865750D01*
X-1535000Y-5865750D01*
X-1535000Y-7706310D01*
X-1438327Y-7939699D01*
X-1259698Y-8118327D01*
X-1026309Y-8215000D01*
X-535750Y-8215000D01*
X-377000Y-8056250D01*
X-377000Y-5707000D01*
X-1376250Y-5707000D01*
X-1535000Y-5865750D01*
X-4290000Y-5865750D01*
X-4290000Y-3453690D01*
X-1535000Y-3453690D01*
X-1535000Y-5294250D01*
X-1376250Y-5453000D01*
X-377000Y-5453000D01*
X-377000Y-3103750D01*
X-535750Y-2945000D01*
X-1026309Y-2945000D01*
X-1259698Y-3041673D01*
X-1438327Y-3220301D01*
X-1535000Y-3453690D01*
X-4290000Y-3453690D01*
X-4290000Y-1647440D01*
X-2550000Y-1647440D01*
X-2314683Y-1603162D01*
X-2098559Y-1464090D01*
X-1953569Y-1251890D01*
X-1902560Y-1000000D01*
X-1902560Y-302407D01*
X-1527265Y-302407D01*
X-1295283Y-863846D01*
X-866106Y-1293773D01*
X-305072Y-1526735D01*
X302407Y-1527265D01*
X863846Y-1295283D01*
X1293773Y-866106D01*
X1526735Y-305072D01*
X1527265Y302407D01*
X1295283Y863846D01*
X866106Y1293773D01*
X305072Y1526735D01*
X-302407Y1527265D01*
X-863846Y1295283D01*
X-1293773Y866106D01*
X-1526735Y305072D01*
X-1527265Y-302407D01*
X-1902560Y-302407D01*
X-1902560Y2290000D01*
X8902560Y2290000D01*
X8902560Y-1000000D01*
X8902560Y-1000000D01*
G37*
X8902560Y-1000000D02*
X8946838Y-1235317D01*
X9085910Y-1451441D01*
X9298110Y-1596431D01*
X9550000Y-1647440D01*
X11350000Y-1647440D01*
X11585317Y-1603162D01*
X11801441Y-1464090D01*
X11946431Y-1251890D01*
X11997440Y-1000000D01*
X11997440Y2290000D01*
X19492574Y2290000D01*
X19485057Y2286894D01*
X19024722Y1827363D01*
X18775284Y1226648D01*
X18774716Y576205D01*
X19023106Y-24943D01*
X19482637Y-485278D01*
X20083352Y-734716D01*
X20733795Y-735284D01*
X21334943Y-486894D01*
X21795278Y-27363D01*
X22044716Y573352D01*
X22045284Y1223795D01*
X21796894Y1824943D01*
X21337363Y2285278D01*
X21325991Y2290000D01*
X34272574Y2290000D01*
X34265057Y2286894D01*
X33804722Y1827363D01*
X33555284Y1226648D01*
X33554716Y576205D01*
X33803106Y-24943D01*
X34262637Y-485278D01*
X34863352Y-734716D01*
X35513795Y-735284D01*
X36114943Y-486894D01*
X36575278Y-27363D01*
X36824716Y573352D01*
X36825284Y1223795D01*
X36576894Y1824943D01*
X36117363Y2285278D01*
X36105991Y2290000D01*
X43602560Y2290000D01*
X43602560Y-1000000D01*
X43646838Y-1235317D01*
X43659504Y-1255000D01*
X36220005Y-1255000D01*
X36220000Y-1254999D01*
X35823923Y-1333785D01*
X35488144Y-1558144D01*
X35488142Y-1558147D01*
X23118144Y-13928144D01*
X22893785Y-14263923D01*
X22814999Y-14660000D01*
X22815000Y-14660005D01*
X22815000Y-15435000D01*
X22420937Y-15435000D01*
X21691925Y-15580009D01*
X21073899Y-15992962D01*
X20865401Y-16305000D01*
X18323711Y-16305000D01*
X11171856Y-9153144D01*
X10836077Y-8928785D01*
X10440000Y-8849999D01*
X10439995Y-8850000D01*
X8285000Y-8850000D01*
X8285000Y-8086844D01*
X8351441Y-8044090D01*
X8496431Y-7831890D01*
X8547440Y-7580000D01*
X8547440Y-6902226D01*
X13209579Y-6902226D01*
X13579504Y-7797514D01*
X14263883Y-8483088D01*
X15158524Y-8854576D01*
X16127226Y-8855421D01*
X17022514Y-8485496D01*
X17708088Y-7801117D01*
X18079576Y-6906476D01*
X18080421Y-5937774D01*
X17710496Y-5042486D01*
X17026117Y-4356912D01*
X16131476Y-3985424D01*
X15162774Y-3984579D01*
X14267486Y-4354504D01*
X13581912Y-5038883D01*
X13210424Y-5933524D01*
X13209579Y-6902226D01*
X8547440Y-6902226D01*
X8547440Y-3580000D01*
X8503162Y-3344683D01*
X8364090Y-3128559D01*
X8151890Y-2983569D01*
X7900000Y-2932560D01*
X6600000Y-2932560D01*
X6364683Y-2976838D01*
X6148559Y-3115910D01*
X6003569Y-3328110D01*
X6000919Y-3341197D01*
X5864090Y-3128559D01*
X5651890Y-2983569D01*
X5510000Y-2954836D01*
X5510000Y-2887463D01*
X5542192Y-2855327D01*
X5684838Y-2511799D01*
X5685162Y-2139833D01*
X5543117Y-1796057D01*
X5280327Y-1532808D01*
X4936799Y-1390162D01*
X4564833Y-1389838D01*
X4221057Y-1531883D01*
X3957808Y-1794673D01*
X3815162Y-2138201D01*
X3814838Y-2510167D01*
X3956883Y-2853943D01*
X3990000Y-2887118D01*
X3990000Y-2953258D01*
X3864683Y-2976838D01*
X3648559Y-3115910D01*
X3503569Y-3328110D01*
X3500919Y-3341197D01*
X3364090Y-3128559D01*
X3151890Y-2983569D01*
X3085000Y-2970023D01*
X3085000Y-2752234D01*
X3184838Y-2511799D01*
X3185162Y-2139833D01*
X3043117Y-1796057D01*
X2780327Y-1532808D01*
X2436799Y-1390162D01*
X2064833Y-1389838D01*
X1721057Y-1531883D01*
X1457808Y-1794673D01*
X1315162Y-2138201D01*
X1314838Y-2510167D01*
X1415000Y-2752578D01*
X1415000Y-2967370D01*
X1364683Y-2976838D01*
X1148559Y-3115910D01*
X1003569Y-3328110D01*
X996809Y-3361490D01*
X938327Y-3220301D01*
X759698Y-3041673D01*
X526309Y-2945000D01*
X35750Y-2945000D01*
X-123000Y-3103750D01*
X-123000Y-5453000D01*
X-103000Y-5453000D01*
X-103000Y-5707000D01*
X-123000Y-5707000D01*
X-123000Y-8056250D01*
X35750Y-8215000D01*
X526309Y-8215000D01*
X759698Y-8118327D01*
X938327Y-7939699D01*
X994654Y-7803713D01*
X996838Y-7815317D01*
X1135910Y-8031441D01*
X1348110Y-8176431D01*
X1600000Y-8227440D01*
X2900000Y-8227440D01*
X3135317Y-8183162D01*
X3351441Y-8044090D01*
X3496431Y-7831890D01*
X3499081Y-7818803D01*
X3635910Y-8031441D01*
X3848110Y-8176431D01*
X4100000Y-8227440D01*
X5400000Y-8227440D01*
X5635317Y-8183162D01*
X5851441Y-8044090D01*
X5996431Y-7831890D01*
X5999081Y-7818803D01*
X6135910Y-8031441D01*
X6215000Y-8085481D01*
X6215000Y-8850000D01*
X1905005Y-8850000D01*
X1905000Y-8849999D01*
X1508923Y-8928785D01*
X1173144Y-9153144D01*
X1173142Y-9153147D01*
X-352560Y-10678848D01*
X-352560Y-8900000D01*
X-396838Y-8664683D01*
X-535910Y-8448559D01*
X-748110Y-8303569D01*
X-1000000Y-8252560D01*
X-4290000Y-8252560D01*
X-4290000Y-5865750D01*
X-1535000Y-5865750D01*
X-1535000Y-7706310D01*
X-1438327Y-7939699D01*
X-1259698Y-8118327D01*
X-1026309Y-8215000D01*
X-535750Y-8215000D01*
X-377000Y-8056250D01*
X-377000Y-5707000D01*
X-1376250Y-5707000D01*
X-1535000Y-5865750D01*
X-4290000Y-5865750D01*
X-4290000Y-3453690D01*
X-1535000Y-3453690D01*
X-1535000Y-5294250D01*
X-1376250Y-5453000D01*
X-377000Y-5453000D01*
X-377000Y-3103750D01*
X-535750Y-2945000D01*
X-1026309Y-2945000D01*
X-1259698Y-3041673D01*
X-1438327Y-3220301D01*
X-1535000Y-3453690D01*
X-4290000Y-3453690D01*
X-4290000Y-1647440D01*
X-2550000Y-1647440D01*
X-2314683Y-1603162D01*
X-2098559Y-1464090D01*
X-1953569Y-1251890D01*
X-1902560Y-1000000D01*
X-1902560Y-302407D01*
X-1527265Y-302407D01*
X-1295283Y-863846D01*
X-866106Y-1293773D01*
X-305072Y-1526735D01*
X302407Y-1527265D01*
X863846Y-1295283D01*
X1293773Y-866106D01*
X1526735Y-305072D01*
X1527265Y302407D01*
X1295283Y863846D01*
X866106Y1293773D01*
X305072Y1526735D01*
X-302407Y1527265D01*
X-863846Y1295283D01*
X-1293773Y866106D01*
X-1526735Y305072D01*
X-1527265Y-302407D01*
X-1902560Y-302407D01*
X-1902560Y2290000D01*
X8902560Y2290000D01*
X8902560Y-1000000D01*
M02*
